<svg width="523" height="435" viewBox="0 0 523 435" fill="none" xmlns="http://www.w3.org/2000/svg">
<path opacity="0.18" fill-rule="evenodd" clip-rule="evenodd" d="M27.7778 407.223L27.7778 435H28.5714L28.5714 407.223H105.552V435H106.346V407.223H183.328V435H184.122V407.223H261.103V435H261.897V407.223H338.877V435H339.671V407.223H416.655V435H417.448V407.223H494.429V435H495.223V407.223H523V406.43H495.223V329.448H523V328.654H495.223V251.672H523V250.879H495.223V173.897H523V173.103H495.223V96.1211H523V95.3274H495.223V18.3459H523V17.5523H495.223L495.223 -59.4294H523V-60.223H495.223V-88H494.429V-60.223H417.448V-88H416.655V-60.223H339.671V-88H338.877V-60.223H261.897V-88H261.103V-60.223H184.122V-88H183.328V-60.223H106.346V-88H105.552V-60.223H28.5714L28.5714 -88H27.7778L27.7778 -60.223H0V-59.4294H27.7778L27.7778 17.5523H0V18.3459H27.7778L27.7778 95.3274H0V96.1211H27.7778L27.7778 173.103H0V173.897H27.7778L27.7778 250.879H0V251.672H27.7778L27.7778 328.654H0V329.448H27.7778L27.7778 406.43H0V407.223H27.7778ZM28.5714 -59.4294L28.5714 17.5523H105.552L105.552 -59.4294H28.5714ZM106.346 -59.4294L106.346 17.5523H183.328L183.328 -59.4294H106.346ZM184.122 -59.4294L184.122 17.5523H261.103V-59.4294H184.122ZM261.897 -59.4294L261.897 17.5523H338.877V-59.4294H261.897ZM339.671 -59.4294L339.671 17.5523H416.655V-59.4294H339.671ZM417.448 -59.4294L417.448 17.5523H494.429V-59.4294H417.448ZM417.448 18.3459H494.429V95.3274H417.448V18.3459ZM339.671 18.3459H416.655V95.3274H339.671V18.3459ZM261.897 18.3459H338.877V95.3274H261.897V18.3459ZM184.122 18.3459H261.103V95.3274H184.122V18.3459ZM106.346 18.3459H183.328V95.3274H106.346V18.3459ZM28.5714 18.3459H105.552V95.3274H28.5714L28.5714 18.3459ZM28.5714 96.1211L28.5714 173.103H105.552L105.552 96.1211H28.5714ZM106.346 96.1211L106.346 173.103H183.328L183.328 96.1211H106.346ZM184.122 96.1211V173.103H261.103V96.1211H184.122ZM261.897 96.1211V173.103H338.877V96.1211H261.897ZM339.671 96.1211V173.103H416.655V96.1211H339.671ZM417.448 96.1211V173.103H494.429V96.1211H417.448ZM417.448 173.897H494.429V250.879H417.448V173.897ZM339.671 173.897H416.655V250.879H339.671V173.897ZM261.897 173.897H338.877V250.879H261.897V173.897ZM184.122 173.897H261.103V250.879H184.122V173.897ZM106.346 173.897H183.328V250.879H106.346V173.897ZM28.5714 173.897H105.552V250.879H28.5714L28.5714 173.897ZM28.5714 251.672L28.5714 328.654H105.552L105.552 251.672H28.5714ZM106.346 251.672L106.346 328.654H183.328V251.672H106.346ZM184.122 251.672V328.654H261.103V251.672H184.122ZM261.897 251.672V328.654H338.877V251.672H261.897ZM339.671 251.672V328.654H416.655V251.672H339.671ZM417.448 251.672V328.654H494.429V251.672H417.448ZM417.448 329.448H494.429V406.43H417.448V329.448ZM339.671 329.448H416.655V406.43H339.671V329.448ZM261.897 329.448H338.877V406.43H261.897V329.448ZM184.122 329.448H261.103V406.43H184.122V329.448ZM106.346 329.448H183.328V406.43H106.346V329.448ZM28.5714 329.448H105.552V406.43H28.5714L28.5714 329.448Z" fill="url(#paint0_radial_1322_210567)"/>
<defs>
<radialGradient id="paint0_radial_1322_210567" cx="0" cy="0" r="1" gradientUnits="userSpaceOnUse" gradientTransform="translate(261.5 173.5) rotate(90) scale(261.5)">
<stop stop-color="#33383F"/>
<stop offset="1" stop-color="#33383F" stop-opacity="0"/>
</radialGradient>
</defs>
</svg>
