<svg width="746" height="246" viewBox="0 0 746 246" fill="none" xmlns="http://www.w3.org/2000/svg">
<rect y="0.668945" width="746" height="1" rx="0.5" fill="#EFEFEF"/>
<rect y="56.6689" width="746" height="1" rx="0.5" fill="#EFEFEF"/>
<rect y="112.669" width="746" height="1" rx="0.5" fill="#EFEFEF"/>
<rect y="168.669" width="746" height="1" rx="0.5" fill="#EFEFEF"/>
<rect y="224.669" width="746" height="1" rx="0.5" fill="#EFEFEF"/>
<path d="M3.78835 18.7883C3.17756 18.7883 2.63778 18.6831 2.16903 18.4729C1.70313 18.2627 1.33807 17.9729 1.07386 17.6036C0.809659 17.2343 0.678977 16.8138 0.681818 16.3422C0.678977 15.9729 0.754261 15.6334 0.90767 15.3238C1.06392 15.0113 1.27557 14.7513 1.54261 14.5439C1.80966 14.3337 2.10795 14.2002 2.4375 14.1434V14.0922C2.00284 13.9871 1.65483 13.7542 1.39347 13.3934C1.1321 13.0326 1.00284 12.6178 1.00568 12.1491C1.00284 11.703 1.12074 11.3053 1.35938 10.9559C1.60085 10.6036 1.93182 10.3266 2.35227 10.1249C2.77273 9.92321 3.25142 9.82235 3.78835 9.82235C4.3196 9.82235 4.79403 9.92463 5.21165 10.1292C5.6321 10.3309 5.96307 10.6079 6.20455 10.9601C6.44602 11.3096 6.56818 11.7059 6.57102 12.1491C6.56818 12.6178 6.43466 13.0326 6.17045 13.3934C5.90625 13.7542 5.5625 13.9871 5.1392 14.0922V14.1434C5.46591 14.2002 5.75994 14.3337 6.02131 14.5439C6.28551 14.7513 6.49574 15.0113 6.65199 15.3238C6.81108 15.6334 6.89205 15.9729 6.89489 16.3422C6.89205 16.8138 6.75852 17.2343 6.49432 17.6036C6.23011 17.9729 5.86364 18.2627 5.39489 18.4729C4.92898 18.6831 4.39347 18.7883 3.78835 18.7883ZM3.78835 17.7101C4.14915 17.7101 4.46165 17.6505 4.72585 17.5312C4.99006 17.409 5.1946 17.24 5.33949 17.0241C5.48438 16.8053 5.55824 16.5496 5.56108 16.257C5.55824 15.953 5.47869 15.6846 5.32244 15.4516C5.16903 15.2187 4.96023 15.0354 4.69602 14.9019C4.43182 14.7684 4.12926 14.7016 3.78835 14.7016C3.4446 14.7016 3.1392 14.7684 2.87216 14.9019C2.60511 15.0354 2.39489 15.2187 2.24148 15.4516C2.08807 15.6846 2.01278 15.953 2.01562 16.257C2.01278 16.5496 2.08239 16.8053 2.22443 17.0241C2.36932 17.24 2.57528 17.409 2.84233 17.5312C3.10938 17.6505 3.42472 17.7101 3.78835 17.7101ZM3.78835 13.6491C4.07813 13.6491 4.33523 13.5908 4.55966 13.4743C4.78409 13.3579 4.96023 13.1959 5.08807 12.9885C5.21875 12.7812 5.28551 12.5383 5.28835 12.2599C5.28551 11.9871 5.22017 11.7485 5.09233 11.5439C4.96733 11.3394 4.79261 11.1817 4.56818 11.0709C4.34375 10.9573 4.08381 10.9005 3.78835 10.9005C3.48722 10.9005 3.22301 10.9573 2.99574 11.0709C2.77131 11.1817 2.59659 11.3394 2.47159 11.5439C2.34659 11.7485 2.28551 11.9871 2.28835 12.2599C2.28551 12.5383 2.34801 12.7812 2.47585 12.9885C2.60369 13.1959 2.77983 13.3579 3.00426 13.4743C3.23153 13.5908 3.4929 13.6491 3.78835 13.6491ZM11.3399 18.8138C10.6666 18.811 10.0913 18.6334 9.61402 18.2812C9.13675 17.9289 8.77169 17.4161 8.51885 16.7428C8.26601 16.0695 8.13959 15.2584 8.13959 14.3096C8.13959 13.3635 8.26601 12.5553 8.51885 11.8849C8.77453 11.2144 9.14101 10.703 9.61828 10.3508C10.0984 9.99849 10.6723 9.82235 11.3399 9.82235C12.0075 9.82235 12.5799 9.99991 13.0572 10.355C13.5345 10.7073 13.8995 11.2187 14.1524 11.8891C14.4081 12.5567 14.5359 13.3635 14.5359 14.3096C14.5359 15.2613 14.4095 16.0738 14.1566 16.7471C13.9038 17.4175 13.5387 17.9303 13.0615 18.2854C12.5842 18.6377 12.0103 18.8138 11.3399 18.8138ZM11.3399 17.676C11.9308 17.676 12.3924 17.3877 12.7248 16.811C13.06 16.2343 13.2277 15.4005 13.2277 14.3096C13.2277 13.5851 13.151 12.9729 12.9975 12.4729C12.847 11.9701 12.6296 11.5894 12.3456 11.3309C12.0643 11.0695 11.7291 10.9388 11.3399 10.9388C10.7518 10.9388 10.2902 11.2286 9.95493 11.8081C9.6197 12.3877 9.45067 13.2215 9.44783 14.3096C9.44783 15.0368 9.52311 15.6519 9.67368 16.1547C9.82709 16.6547 10.0444 17.034 10.3257 17.2925C10.6069 17.5482 10.945 17.676 11.3399 17.676ZM18.966 18.8138C18.2927 18.811 17.7174 18.6334 17.2401 18.2812C16.7628 17.9289 16.3978 17.4161 16.1449 16.7428C15.8921 16.0695 15.7657 15.2584 15.7657 14.3096C15.7657 13.3635 15.8921 12.5553 16.1449 11.8849C16.4006 11.2144 16.7671 10.703 17.2444 10.3508C17.7245 9.99849 18.2984 9.82235 18.966 9.82235C19.6336 9.82235 20.206 9.99991 20.6833 10.355C21.1606 10.7073 21.5256 11.2187 21.7785 11.8891C22.0341 12.5567 22.162 13.3635 22.162 14.3096C22.162 15.2613 22.0356 16.0738 21.7827 16.7471C21.5299 17.4175 21.1648 17.9303 20.6876 18.2854C20.2103 18.6377 19.6364 18.8138 18.966 18.8138ZM18.966 17.676C19.5569 17.676 20.0185 17.3877 20.3509 16.811C20.6861 16.2343 20.8538 15.4005 20.8538 14.3096C20.8538 13.5851 20.777 12.9729 20.6236 12.4729C20.4731 11.9701 20.2557 11.5894 19.9716 11.3309C19.6904 11.0695 19.3552 10.9388 18.966 10.9388C18.3779 10.9388 17.9163 11.2286 17.581 11.8081C17.2458 12.3877 17.0768 13.2215 17.0739 14.3096C17.0739 15.0368 17.1492 15.6519 17.2998 16.1547C17.4532 16.6547 17.6705 17.034 17.9518 17.2925C18.233 17.5482 18.5711 17.676 18.966 17.676ZM24.7426 16.4488L24.7341 14.8934H24.9557L27.5637 12.1235H29.0892L26.1148 15.2769H25.9145L24.7426 16.4488ZM23.5708 18.6689V9.94167H24.8449V18.6689H23.5708ZM27.7043 18.6689L25.3605 15.5581L26.2384 14.6675L29.2682 18.6689H27.7043Z" fill="#9A9FA5"/>
<path d="M3.88636 74.7883C3.49716 74.7826 3.11364 74.7116 2.7358 74.5752C2.3608 74.4388 2.01989 74.2116 1.71307 73.8934C1.40625 73.5752 1.16051 73.1476 0.975852 72.6107C0.794034 72.0738 0.703125 71.4033 0.703125 70.5993C0.703125 69.838 0.778409 69.1618 0.928977 68.5709C1.08239 67.98 1.30256 67.4814 1.58949 67.0752C1.87642 66.6661 2.22301 66.355 2.62926 66.142C3.03551 65.9289 3.49148 65.8224 3.99716 65.8224C4.51705 65.8224 4.97869 65.9246 5.3821 66.1292C5.78551 66.3337 6.11222 66.6164 6.36222 66.9772C6.61506 67.338 6.77557 67.7485 6.84375 68.2087H5.54403C5.45597 67.8451 5.28125 67.5482 5.01989 67.3181C4.75852 67.088 4.41761 66.9729 3.99716 66.9729C3.35795 66.9729 2.85938 67.2513 2.50142 67.8081C2.14631 68.365 1.96733 69.1391 1.96449 70.1306H2.02841C2.17898 69.8834 2.36364 69.6732 2.58239 69.4999C2.80398 69.3238 3.05114 69.1888 3.32386 69.0951C3.59943 68.9985 3.8892 68.9502 4.19318 68.9502C4.69886 68.9502 5.15625 69.0738 5.56534 69.3209C5.97727 69.5653 6.3054 69.9033 6.54972 70.3351C6.79403 70.767 6.91619 71.2613 6.91619 71.8181C6.91619 72.3749 6.78977 72.8792 6.53693 73.3309C6.28693 73.7826 5.93466 74.1405 5.48011 74.4047C5.02557 74.6661 4.49432 74.7939 3.88636 74.7883ZM3.8821 73.6803C4.21733 73.6803 4.51705 73.5979 4.78125 73.4331C5.04545 73.2684 5.25426 73.0468 5.40767 72.7684C5.56108 72.49 5.63778 72.1789 5.63778 71.8351C5.63778 71.4999 5.5625 71.1945 5.41193 70.9189C5.2642 70.6434 5.05966 70.4246 4.7983 70.2627C4.53977 70.1008 4.24432 70.0198 3.91193 70.0198C3.65909 70.0198 3.42472 70.0681 3.20881 70.1647C2.99574 70.2613 2.80824 70.3948 2.64631 70.5653C2.48438 70.7357 2.35653 70.9317 2.26278 71.1533C2.17188 71.3721 2.12642 71.6036 2.12642 71.8479C2.12642 72.1746 2.2017 72.4772 2.35227 72.7556C2.50568 73.034 2.71449 73.2584 2.97869 73.4289C3.24574 73.5965 3.54688 73.6803 3.8821 73.6803ZM11.3867 74.8138C10.7135 74.811 10.1382 74.6334 9.6609 74.2812C9.18362 73.9289 8.81857 73.4161 8.56572 72.7428C8.31288 72.0695 8.18646 71.2584 8.18646 70.3096C8.18646 69.3635 8.31288 68.5553 8.56572 67.8849C8.82141 67.2144 9.18788 66.703 9.66516 66.3508C10.1453 65.9985 10.7191 65.8224 11.3867 65.8224C12.0544 65.8224 12.6268 65.9999 13.1041 66.355C13.5813 66.7073 13.9464 67.2187 14.1992 67.8891C14.4549 68.5567 14.5828 69.3635 14.5828 70.3096C14.5828 71.2613 14.4563 72.0738 14.2035 72.7471C13.9507 73.4175 13.5856 73.9303 13.1083 74.2854C12.6311 74.6377 12.0572 74.8138 11.3867 74.8138ZM11.3867 73.676C11.9777 73.676 12.4393 73.3877 12.7717 72.811C13.1069 72.2343 13.2745 71.4005 13.2745 70.3096C13.2745 69.5851 13.1978 68.9729 13.0444 68.4729C12.8938 67.9701 12.6765 67.5894 12.3924 67.3309C12.1112 67.0695 11.776 66.9388 11.3867 66.9388C10.7987 66.9388 10.337 67.2286 10.0018 67.8081C9.66658 68.3877 9.49754 69.2215 9.4947 70.3096C9.4947 71.0368 9.56999 71.6519 9.72055 72.1547C9.87396 72.6547 10.0913 73.034 10.3725 73.2925C10.6538 73.5482 10.9919 73.676 11.3867 73.676ZM19.0128 74.8138C18.3395 74.811 17.7643 74.6334 17.287 74.2812C16.8097 73.9289 16.4447 73.4161 16.1918 72.7428C15.939 72.0695 15.8126 71.2584 15.8126 70.3096C15.8126 69.3635 15.939 68.5553 16.1918 67.8849C16.4475 67.2144 16.814 66.703 17.2913 66.3508C17.7714 65.9985 18.3452 65.8224 19.0128 65.8224C19.6805 65.8224 20.2529 65.9999 20.7302 66.355C21.2074 66.7073 21.5725 67.2187 21.8253 67.8891C22.081 68.5567 22.2089 69.3635 22.2089 70.3096C22.2089 71.2613 22.0824 72.0738 21.8296 72.7471C21.5768 73.4175 21.2117 73.9303 20.7344 74.2854C20.2572 74.6377 19.6833 74.8138 19.0128 74.8138ZM19.0128 73.676C19.6038 73.676 20.0654 73.3877 20.3978 72.811C20.733 72.2343 20.9006 71.4005 20.9006 70.3096C20.9006 69.5851 20.8239 68.9729 20.6705 68.4729C20.5199 67.9701 20.3026 67.5894 20.0185 67.3309C19.7373 67.0695 19.402 66.9388 19.0128 66.9388C18.4248 66.9388 17.9631 67.2286 17.6279 67.8081C17.2927 68.3877 17.1236 69.2215 17.1208 70.3096C17.1208 71.0368 17.1961 71.6519 17.3466 72.1547C17.5001 72.6547 17.7174 73.034 17.9986 73.2925C18.2799 73.5482 18.618 73.676 19.0128 73.676ZM24.7895 72.4488L24.781 70.8934H25.0026L27.6105 68.1235H29.1361L26.1617 71.2769H25.9614L24.7895 72.4488ZM23.6176 74.6689V65.9417H24.8918V74.6689H23.6176ZM27.7512 74.6689L25.4074 71.5581L26.2852 70.6675L29.3151 74.6689H27.7512Z" fill="#9A9FA5"/>
<path d="M0.65625 128.964V127.899L4.42756 121.942H5.26705V123.51H4.73438L2.03693 127.78V127.848H7.20597V128.964H0.65625ZM4.79403 130.669V128.641L4.80256 128.155V121.942H6.05114V130.669H4.79403ZM11.6094 130.814C10.9361 130.811 10.3608 130.633 9.88355 130.281C9.40628 129.929 9.04122 129.416 8.78838 128.743C8.53554 128.07 8.40912 127.258 8.40912 126.31C8.40912 125.364 8.53554 124.555 8.78838 123.885C9.04406 123.214 9.41054 122.703 9.88781 122.351C10.3679 121.998 10.9418 121.822 11.6094 121.822C12.277 121.822 12.8495 122 13.3267 122.355C13.804 122.707 14.1691 123.219 14.4219 123.889C14.6776 124.557 14.8054 125.364 14.8054 126.31C14.8054 127.261 14.679 128.074 14.4262 128.747C14.1733 129.418 13.8083 129.93 13.331 130.285C12.8537 130.638 12.2799 130.814 11.6094 130.814ZM11.6094 129.676C12.2003 129.676 12.662 129.388 12.9943 128.811C13.3296 128.234 13.4972 127.4 13.4972 126.31C13.4972 125.585 13.4205 124.973 13.2671 124.473C13.1165 123.97 12.8992 123.589 12.6151 123.331C12.3338 123.07 11.9986 122.939 11.6094 122.939C11.0213 122.939 10.5597 123.229 10.2245 123.808C9.88923 124.388 9.7202 125.222 9.71736 126.31C9.71736 127.037 9.79264 127.652 9.94321 128.155C10.0966 128.655 10.3139 129.034 10.5952 129.293C10.8764 129.548 11.2145 129.676 11.6094 129.676ZM19.2355 130.814C18.5622 130.811 17.9869 130.633 17.5096 130.281C17.0324 129.929 16.6673 129.416 16.4145 128.743C16.1616 128.07 16.0352 127.258 16.0352 126.31C16.0352 125.364 16.1616 124.555 16.4145 123.885C16.6702 123.214 17.0366 122.703 17.5139 122.351C17.994 121.998 18.5679 121.822 19.2355 121.822C19.9031 121.822 20.4756 122 20.9528 122.355C21.4301 122.707 21.7952 123.219 22.048 123.889C22.3037 124.557 22.4315 125.364 22.4315 126.31C22.4315 127.261 22.3051 128.074 22.0523 128.747C21.7994 129.418 21.4344 129.93 20.9571 130.285C20.4798 130.638 19.906 130.814 19.2355 130.814ZM19.2355 129.676C19.8264 129.676 20.2881 129.388 20.6204 128.811C20.9557 128.234 21.1233 127.4 21.1233 126.31C21.1233 125.585 21.0466 124.973 20.8932 124.473C20.7426 123.97 20.5253 123.589 20.2412 123.331C19.9599 123.07 19.6247 122.939 19.2355 122.939C18.6474 122.939 18.1858 123.229 17.8506 123.808C17.5153 124.388 17.3463 125.222 17.3435 126.31C17.3435 127.037 17.4187 127.652 17.5693 128.155C17.7227 128.655 17.94 129.034 18.2213 129.293C18.5025 129.548 18.8406 129.676 19.2355 129.676ZM25.0122 128.449L25.0036 126.893H25.2252L27.8332 124.123H29.3587L26.3843 127.277H26.184L25.0122 128.449ZM23.8403 130.669V121.942H25.1144V130.669H23.8403ZM27.9738 130.669L25.6301 127.558L26.5079 126.668L29.5377 130.669H27.9738Z" fill="#9A9FA5"/>
<path d="M0.839489 186.669V185.714L3.79261 182.655C4.10795 182.322 4.3679 182.031 4.57244 181.781C4.77983 181.528 4.93466 181.288 5.03693 181.061C5.1392 180.834 5.19034 180.592 5.19034 180.337C5.19034 180.047 5.12216 179.797 4.9858 179.587C4.84943 179.373 4.66335 179.21 4.42756 179.097C4.19176 178.98 3.92614 178.922 3.63068 178.922C3.31818 178.922 3.04545 178.986 2.8125 179.114C2.57955 179.241 2.40057 179.422 2.27557 179.655C2.15057 179.888 2.08807 180.16 2.08807 180.473H0.830966C0.830966 179.942 0.953125 179.477 1.19744 179.079C1.44176 178.682 1.77699 178.373 2.20312 178.155C2.62926 177.933 3.11364 177.822 3.65625 177.822C4.20455 177.822 4.6875 177.932 5.10511 178.15C5.52557 178.366 5.85369 178.662 6.08949 179.037C6.32528 179.409 6.44318 179.829 6.44318 180.298C6.44318 180.622 6.3821 180.939 6.25994 181.248C6.14063 181.558 5.93182 181.903 5.63352 182.284C5.33523 182.662 4.92045 183.121 4.3892 183.66L2.65483 185.476V185.54H6.58381V186.669H0.839489ZM11.1172 186.814C10.4439 186.811 9.86864 186.633 9.39136 186.281C8.91409 185.929 8.54903 185.416 8.29619 184.743C8.04335 184.07 7.91693 183.258 7.91693 182.31C7.91693 181.364 8.04335 180.555 8.29619 179.885C8.55188 179.214 8.91835 178.703 9.39563 178.351C9.87574 177.998 10.4496 177.822 11.1172 177.822C11.7848 177.822 12.3573 178 12.8345 178.355C13.3118 178.707 13.6769 179.219 13.9297 179.889C14.1854 180.557 14.3132 181.364 14.3132 182.31C14.3132 183.261 14.1868 184.074 13.934 184.747C13.6811 185.418 13.3161 185.93 12.8388 186.285C12.3615 186.638 11.7877 186.814 11.1172 186.814ZM11.1172 185.676C11.7081 185.676 12.1698 185.388 12.5022 184.811C12.8374 184.234 13.005 183.4 13.005 182.31C13.005 181.585 12.9283 180.973 12.7749 180.473C12.6243 179.97 12.407 179.589 12.1229 179.331C11.8416 179.07 11.5064 178.939 11.1172 178.939C10.5291 178.939 10.0675 179.229 9.73227 179.808C9.39705 180.388 9.22801 181.222 9.22517 182.31C9.22517 183.037 9.30045 183.652 9.45102 184.155C9.60443 184.655 9.82176 185.034 10.103 185.293C10.3843 185.548 10.7223 185.676 11.1172 185.676ZM18.7433 186.814C18.07 186.811 17.4947 186.633 17.0175 186.281C16.5402 185.929 16.1751 185.416 15.9223 184.743C15.6694 184.07 15.543 183.258 15.543 182.31C15.543 181.364 15.6694 180.555 15.9223 179.885C16.178 179.214 16.5444 178.703 17.0217 178.351C17.5018 177.998 18.0757 177.822 18.7433 177.822C19.4109 177.822 19.9834 178 20.4606 178.355C20.9379 178.707 21.303 179.219 21.5558 179.889C21.8115 180.557 21.9393 181.364 21.9393 182.31C21.9393 183.261 21.8129 184.074 21.5601 184.747C21.3072 185.418 20.9422 185.93 20.4649 186.285C19.9876 186.638 19.4138 186.814 18.7433 186.814ZM18.7433 185.676C19.3342 185.676 19.7959 185.388 20.1283 184.811C20.4635 184.234 20.6311 183.4 20.6311 182.31C20.6311 181.585 20.5544 180.973 20.401 180.473C20.2504 179.97 20.0331 179.589 19.749 179.331C19.4677 179.07 19.1325 178.939 18.7433 178.939C18.1552 178.939 17.6936 179.229 17.3584 179.808C17.0231 180.388 16.8541 181.222 16.8513 182.31C16.8513 183.037 16.9265 183.652 17.0771 184.155C17.2305 184.655 17.4479 185.034 17.7291 185.293C18.0104 185.548 18.3484 185.676 18.7433 185.676ZM24.52 184.449L24.5114 182.893H24.733L27.341 180.123H28.8666L25.8921 183.277H25.6918L24.52 184.449ZM23.3481 186.669V177.942H24.6222V186.669H23.3481ZM27.4816 186.669L25.1379 183.558L26.0157 182.668L29.0455 186.669H27.4816Z" fill="#9A9FA5"/>
<path d="M3.87784 242.814C3.20455 242.811 2.62926 242.633 2.15199 242.281C1.67472 241.929 1.30966 241.416 1.05682 240.743C0.803977 240.07 0.677557 239.258 0.677557 238.31C0.677557 237.364 0.803977 236.555 1.05682 235.885C1.3125 235.214 1.67898 234.703 2.15625 234.351C2.63636 233.998 3.21023 233.822 3.87784 233.822C4.54545 233.822 5.1179 234 5.59517 234.355C6.07244 234.707 6.4375 235.219 6.69034 235.889C6.94602 236.557 7.07386 237.364 7.07386 238.31C7.07386 239.261 6.94744 240.074 6.6946 240.747C6.44176 241.418 6.0767 241.93 5.59943 242.285C5.12216 242.638 4.5483 242.814 3.87784 242.814ZM3.87784 241.676C4.46875 241.676 4.9304 241.388 5.26278 240.811C5.59801 240.234 5.76562 239.4 5.76562 238.31C5.76562 237.585 5.68892 236.973 5.53551 236.473C5.38494 235.97 5.16761 235.589 4.88352 235.331C4.60227 235.07 4.26705 234.939 3.87784 234.939C3.28977 234.939 2.82813 235.229 2.4929 235.808C2.15767 236.388 1.98864 237.222 1.9858 238.31C1.9858 239.037 2.06108 239.652 2.21165 240.155C2.36506 240.655 2.58239 241.034 2.86364 241.293C3.14489 241.548 3.48295 241.676 3.87784 241.676Z" fill="#9A9FA5"/>
<path d="M76.7188 236.234C76.6733 235.831 76.4858 235.518 76.1562 235.297C75.8267 235.072 75.4119 234.96 74.9119 234.96C74.554 234.96 74.2443 235.017 73.983 235.131C73.7216 235.241 73.5185 235.395 73.3736 235.591C73.2315 235.784 73.1605 236.004 73.1605 236.251C73.1605 236.459 73.2088 236.638 73.3054 236.788C73.4048 236.939 73.5341 237.065 73.6932 237.168C73.8551 237.267 74.0284 237.351 74.2131 237.419C74.3977 237.484 74.5753 237.538 74.7457 237.581L75.598 237.802C75.8764 237.871 76.1619 237.963 76.4545 238.079C76.7472 238.196 77.0185 238.349 77.2685 238.54C77.5185 238.73 77.7202 238.966 77.8736 239.247C78.0298 239.528 78.108 239.865 78.108 240.257C78.108 240.751 77.9801 241.19 77.7244 241.574C77.4716 241.957 77.1037 242.26 76.6207 242.481C76.1406 242.703 75.5597 242.814 74.8778 242.814C74.2244 242.814 73.6591 242.71 73.1818 242.503C72.7045 242.295 72.331 242.001 72.0611 241.621C71.7912 241.237 71.642 240.783 71.6136 240.257H72.9347C72.9602 240.572 73.0625 240.835 73.2415 241.045C73.4233 241.253 73.6548 241.408 73.9361 241.51C74.2202 241.609 74.5312 241.659 74.8693 241.659C75.2415 241.659 75.5724 241.601 75.8622 241.484C76.1548 241.365 76.3849 241.2 76.5526 240.99C76.7202 240.777 76.804 240.528 76.804 240.244C76.804 239.986 76.7301 239.774 76.5824 239.609C76.4375 239.445 76.2401 239.308 75.9901 239.2C75.7429 239.092 75.4631 238.997 75.1506 238.915L74.1193 238.633C73.4205 238.443 72.8665 238.163 72.4574 237.794C72.0511 237.425 71.848 236.936 71.848 236.328C71.848 235.825 71.9844 235.386 72.2571 235.011C72.5298 234.636 72.8991 234.345 73.3651 234.138C73.831 233.927 74.3565 233.822 74.9418 233.822C75.5327 233.822 76.054 233.926 76.5057 234.133C76.9602 234.341 77.3182 234.626 77.5795 234.99C77.8409 235.351 77.9773 235.766 77.9886 236.234H76.7188ZM82.2802 242.801C81.6353 242.801 81.0799 242.663 80.614 242.388C80.151 242.109 79.793 241.719 79.5402 241.216C79.2902 240.71 79.1652 240.118 79.1652 239.439C79.1652 238.768 79.2902 238.177 79.5402 237.666C79.793 237.155 80.1453 236.756 80.597 236.469C81.0515 236.182 81.5828 236.038 82.1907 236.038C82.56 236.038 82.918 236.099 83.2646 236.222C83.6112 236.344 83.9223 236.535 84.1978 236.797C84.4734 237.058 84.6907 237.398 84.8498 237.815C85.0089 238.23 85.0885 238.734 85.0885 239.328V239.78H79.8853V238.825H83.8399C83.8399 238.49 83.7717 238.193 83.6353 237.935C83.499 237.673 83.3072 237.467 83.06 237.317C82.8157 237.166 82.5288 237.091 82.1992 237.091C81.8413 237.091 81.5288 237.179 81.2617 237.355C80.9975 237.528 80.793 237.756 80.6481 238.037C80.5061 238.315 80.435 238.618 80.435 238.945V239.69C80.435 240.128 80.5117 240.5 80.6652 240.807C80.8214 241.114 81.0387 241.348 81.3171 241.51C81.5956 241.669 81.9208 241.748 82.293 241.748C82.5345 241.748 82.7546 241.714 82.9535 241.646C83.1524 241.575 83.3242 241.47 83.4691 241.331C83.614 241.192 83.7248 241.02 83.8015 240.815L85.0075 241.033C84.9109 241.388 84.7376 241.699 84.4876 241.966C84.2404 242.23 83.9294 242.436 83.5544 242.584C83.1822 242.729 82.7575 242.801 82.2802 242.801ZM86.3822 245.123V236.123H87.6265V237.185H87.733C87.8069 237.048 87.9134 236.891 88.0526 236.712C88.1918 236.533 88.385 236.376 88.6322 236.243C88.8793 236.106 89.206 236.038 89.6123 236.038C90.1407 236.038 90.6123 236.172 91.027 236.439C91.4418 236.706 91.7671 237.091 92.0029 237.594C92.2415 238.097 92.3609 238.702 92.3609 239.409C92.3609 240.116 92.243 240.723 92.0072 241.229C91.7714 241.731 91.4475 242.119 91.0356 242.392C90.6236 242.662 90.1535 242.797 89.6251 242.797C89.2273 242.797 88.902 242.73 88.6492 242.597C88.3992 242.463 88.2032 242.307 88.0611 242.128C87.9191 241.949 87.8097 241.79 87.733 241.65H87.6563V245.123H86.3822ZM87.6307 239.396C87.6307 239.856 87.6975 240.26 87.831 240.606C87.9645 240.953 88.1577 241.224 88.4106 241.42C88.6634 241.614 88.9731 241.71 89.3395 241.71C89.7202 241.71 90.0384 241.609 90.2941 241.408C90.5498 241.203 90.743 240.926 90.8736 240.577C91.0072 240.227 91.0739 239.834 91.0739 239.396C91.0739 238.964 91.0086 238.577 90.8779 238.233C90.7501 237.889 90.5569 237.618 90.2984 237.419C90.0427 237.22 89.7231 237.121 89.3395 237.121C88.9702 237.121 88.6577 237.216 88.402 237.406C88.1492 237.597 87.9574 237.862 87.8268 238.203C87.6961 238.544 87.6307 238.942 87.6307 239.396ZM100.018 233.942V242.669H98.6972V235.263H98.6461L96.558 236.626V235.365L98.7356 233.942H100.018ZM102.259 242.669V241.714L105.212 238.655C105.527 238.322 105.787 238.031 105.992 237.781C106.199 237.528 106.354 237.288 106.456 237.061C106.559 236.834 106.61 236.592 106.61 236.337C106.61 236.047 106.542 235.797 106.405 235.587C106.269 235.373 106.083 235.21 105.847 235.097C105.611 234.98 105.346 234.922 105.05 234.922C104.738 234.922 104.465 234.986 104.232 235.114C103.999 235.241 103.82 235.422 103.695 235.655C103.57 235.888 103.508 236.16 103.508 236.473H102.25C102.25 235.942 102.373 235.477 102.617 235.079C102.861 234.682 103.197 234.373 103.623 234.155C104.049 233.933 104.533 233.822 105.076 233.822C105.624 233.822 106.107 233.932 106.525 234.15C106.945 234.366 107.273 234.662 107.509 235.037C107.745 235.409 107.863 235.829 107.863 236.298C107.863 236.622 107.802 236.939 107.679 237.248C107.56 237.558 107.351 237.903 107.053 238.284C106.755 238.662 106.34 239.121 105.809 239.66L104.074 241.476V241.54H108.003V242.669H102.259Z" fill="#9A9FA5"/>
<path d="M249.719 236.234C249.673 235.831 249.486 235.518 249.156 235.297C248.827 235.072 248.412 234.96 247.912 234.96C247.554 234.96 247.244 235.017 246.983 235.131C246.722 235.241 246.518 235.395 246.374 235.591C246.232 235.784 246.161 236.004 246.161 236.251C246.161 236.459 246.209 236.638 246.305 236.788C246.405 236.939 246.534 237.065 246.693 237.168C246.855 237.267 247.028 237.351 247.213 237.419C247.398 237.484 247.575 237.538 247.746 237.581L248.598 237.802C248.876 237.871 249.162 237.963 249.455 238.079C249.747 238.196 250.018 238.349 250.268 238.54C250.518 238.73 250.72 238.966 250.874 239.247C251.03 239.528 251.108 239.865 251.108 240.257C251.108 240.751 250.98 241.19 250.724 241.574C250.472 241.957 250.104 242.26 249.621 242.481C249.141 242.703 248.56 242.814 247.878 242.814C247.224 242.814 246.659 242.71 246.182 242.503C245.705 242.295 245.331 242.001 245.061 241.621C244.791 241.237 244.642 240.783 244.614 240.257H245.935C245.96 240.572 246.063 240.835 246.241 241.045C246.423 241.253 246.655 241.408 246.936 241.51C247.22 241.609 247.531 241.659 247.869 241.659C248.241 241.659 248.572 241.601 248.862 241.484C249.155 241.365 249.385 241.2 249.553 240.99C249.72 240.777 249.804 240.528 249.804 240.244C249.804 239.986 249.73 239.774 249.582 239.609C249.438 239.445 249.24 239.308 248.99 239.2C248.743 239.092 248.463 238.997 248.151 238.915L247.119 238.633C246.42 238.443 245.866 238.163 245.457 237.794C245.051 237.425 244.848 236.936 244.848 236.328C244.848 235.825 244.984 235.386 245.257 235.011C245.53 234.636 245.899 234.345 246.365 234.138C246.831 233.927 247.357 233.822 247.942 233.822C248.533 233.822 249.054 233.926 249.506 234.133C249.96 234.341 250.318 234.626 250.58 234.99C250.841 235.351 250.977 235.766 250.989 236.234H249.719ZM255.28 242.801C254.635 242.801 254.08 242.663 253.614 242.388C253.151 242.109 252.793 241.719 252.54 241.216C252.29 240.71 252.165 240.118 252.165 239.439C252.165 238.768 252.29 238.177 252.54 237.666C252.793 237.155 253.145 236.756 253.597 236.469C254.052 236.182 254.583 236.038 255.191 236.038C255.56 236.038 255.918 236.099 256.265 236.222C256.611 236.344 256.922 236.535 257.198 236.797C257.473 237.058 257.691 237.398 257.85 237.815C258.009 238.23 258.088 238.734 258.088 239.328V239.78H252.885V238.825H256.84C256.84 238.49 256.772 238.193 256.635 237.935C256.499 237.673 256.307 237.467 256.06 237.317C255.816 237.166 255.529 237.091 255.199 237.091C254.841 237.091 254.529 237.179 254.262 237.355C253.998 237.528 253.793 237.756 253.648 238.037C253.506 238.315 253.435 238.618 253.435 238.945V239.69C253.435 240.128 253.512 240.5 253.665 240.807C253.821 241.114 254.039 241.348 254.317 241.51C254.596 241.669 254.921 241.748 255.293 241.748C255.534 241.748 255.755 241.714 255.954 241.646C256.152 241.575 256.324 241.47 256.469 241.331C256.614 241.192 256.725 241.02 256.802 240.815L258.007 241.033C257.911 241.388 257.738 241.699 257.488 241.966C257.24 242.23 256.929 242.436 256.554 242.584C256.182 242.729 255.757 242.801 255.28 242.801ZM259.382 245.123V236.123H260.626V237.185H260.733C260.807 237.048 260.913 236.891 261.053 236.712C261.192 236.533 261.385 236.376 261.632 236.243C261.879 236.106 262.206 236.038 262.612 236.038C263.141 236.038 263.612 236.172 264.027 236.439C264.442 236.706 264.767 237.091 265.003 237.594C265.242 238.097 265.361 238.702 265.361 239.409C265.361 240.116 265.243 240.723 265.007 241.229C264.771 241.731 264.448 242.119 264.036 242.392C263.624 242.662 263.153 242.797 262.625 242.797C262.227 242.797 261.902 242.73 261.649 242.597C261.399 242.463 261.203 242.307 261.061 242.128C260.919 241.949 260.81 241.79 260.733 241.65H260.656V245.123H259.382ZM260.631 239.396C260.631 239.856 260.698 240.26 260.831 240.606C260.965 240.953 261.158 241.224 261.411 241.42C261.663 241.614 261.973 241.71 262.34 241.71C262.72 241.71 263.038 241.609 263.294 241.408C263.55 241.203 263.743 240.926 263.874 240.577C264.007 240.227 264.074 239.834 264.074 239.396C264.074 238.964 264.009 238.577 263.878 238.233C263.75 237.889 263.557 237.618 263.298 237.419C263.043 237.22 262.723 237.121 262.34 237.121C261.97 237.121 261.658 237.216 261.402 237.406C261.149 237.597 260.957 237.862 260.827 238.203C260.696 238.544 260.631 238.942 260.631 239.396ZM273.018 233.942V242.669H271.697V235.263H271.646L269.558 236.626V235.365L271.736 233.942H273.018ZM278.161 233.822C278.55 233.825 278.934 233.896 279.312 234.035C279.689 234.175 280.03 234.402 280.334 234.717C280.641 235.033 280.885 235.459 281.067 235.996C281.252 236.53 281.346 237.195 281.349 237.99C281.349 238.754 281.272 239.435 281.118 240.031C280.965 240.625 280.745 241.126 280.458 241.535C280.174 241.945 279.829 242.256 279.422 242.469C279.016 242.682 278.559 242.788 278.05 242.788C277.53 242.788 277.069 242.686 276.665 242.481C276.262 242.277 275.934 241.994 275.681 241.633C275.428 241.27 275.27 240.852 275.208 240.381H276.508C276.593 240.756 276.766 241.06 277.027 241.293C277.292 241.523 277.633 241.638 278.05 241.638C278.689 241.638 279.188 241.359 279.546 240.802C279.904 240.243 280.084 239.462 280.087 238.459H280.019C279.871 238.703 279.687 238.913 279.465 239.089C279.246 239.266 279 239.402 278.728 239.498C278.455 239.595 278.164 239.643 277.854 239.643C277.351 239.643 276.894 239.52 276.482 239.273C276.07 239.025 275.742 238.686 275.498 238.254C275.253 237.822 275.131 237.329 275.131 236.775C275.131 236.224 275.256 235.724 275.506 235.275C275.759 234.827 276.111 234.472 276.563 234.21C277.018 233.946 277.55 233.817 278.161 233.822ZM278.165 234.93C277.833 234.93 277.533 235.013 277.266 235.177C277.002 235.339 276.793 235.56 276.64 235.838C276.486 236.114 276.41 236.42 276.41 236.758C276.41 237.097 276.483 237.403 276.631 237.679C276.782 237.952 276.986 238.169 277.245 238.331C277.506 238.49 277.804 238.57 278.14 238.57C278.39 238.57 278.623 238.521 278.839 238.425C279.054 238.328 279.243 238.195 279.405 238.024C279.567 237.851 279.694 237.655 279.785 237.436C279.875 237.217 279.921 236.987 279.921 236.746C279.921 236.425 279.844 236.126 279.691 235.851C279.54 235.575 279.333 235.354 279.069 235.186C278.804 235.016 278.503 234.93 278.165 234.93Z" fill="#9A9FA5"/>
<path d="M423.719 236.234C423.673 235.831 423.486 235.518 423.156 235.297C422.827 235.072 422.412 234.96 421.912 234.96C421.554 234.96 421.244 235.017 420.983 235.131C420.722 235.241 420.518 235.395 420.374 235.591C420.232 235.784 420.161 236.004 420.161 236.251C420.161 236.459 420.209 236.638 420.305 236.788C420.405 236.939 420.534 237.065 420.693 237.168C420.855 237.267 421.028 237.351 421.213 237.419C421.398 237.484 421.575 237.538 421.746 237.581L422.598 237.802C422.876 237.871 423.162 237.963 423.455 238.079C423.747 238.196 424.018 238.349 424.268 238.54C424.518 238.73 424.72 238.966 424.874 239.247C425.03 239.528 425.108 239.865 425.108 240.257C425.108 240.751 424.98 241.19 424.724 241.574C424.472 241.957 424.104 242.26 423.621 242.481C423.141 242.703 422.56 242.814 421.878 242.814C421.224 242.814 420.659 242.71 420.182 242.503C419.705 242.295 419.331 242.001 419.061 241.621C418.791 241.237 418.642 240.783 418.614 240.257H419.935C419.96 240.572 420.063 240.835 420.241 241.045C420.423 241.253 420.655 241.408 420.936 241.51C421.22 241.609 421.531 241.659 421.869 241.659C422.241 241.659 422.572 241.601 422.862 241.484C423.155 241.365 423.385 241.2 423.553 240.99C423.72 240.777 423.804 240.528 423.804 240.244C423.804 239.986 423.73 239.774 423.582 239.609C423.438 239.445 423.24 239.308 422.99 239.2C422.743 239.092 422.463 238.997 422.151 238.915L421.119 238.633C420.42 238.443 419.866 238.163 419.457 237.794C419.051 237.425 418.848 236.936 418.848 236.328C418.848 235.825 418.984 235.386 419.257 235.011C419.53 234.636 419.899 234.345 420.365 234.138C420.831 233.927 421.357 233.822 421.942 233.822C422.533 233.822 423.054 233.926 423.506 234.133C423.96 234.341 424.318 234.626 424.58 234.99C424.841 235.351 424.977 235.766 424.989 236.234H423.719ZM429.28 242.801C428.635 242.801 428.08 242.663 427.614 242.388C427.151 242.109 426.793 241.719 426.54 241.216C426.29 240.71 426.165 240.118 426.165 239.439C426.165 238.768 426.29 238.177 426.54 237.666C426.793 237.155 427.145 236.756 427.597 236.469C428.052 236.182 428.583 236.038 429.191 236.038C429.56 236.038 429.918 236.099 430.265 236.222C430.611 236.344 430.922 236.535 431.198 236.797C431.473 237.058 431.691 237.398 431.85 237.815C432.009 238.23 432.088 238.734 432.088 239.328V239.78H426.885V238.825H430.84C430.84 238.49 430.772 238.193 430.635 237.935C430.499 237.673 430.307 237.467 430.06 237.317C429.816 237.166 429.529 237.091 429.199 237.091C428.841 237.091 428.529 237.179 428.262 237.355C427.998 237.528 427.793 237.756 427.648 238.037C427.506 238.315 427.435 238.618 427.435 238.945V239.69C427.435 240.128 427.512 240.5 427.665 240.807C427.821 241.114 428.039 241.348 428.317 241.51C428.596 241.669 428.921 241.748 429.293 241.748C429.534 241.748 429.755 241.714 429.954 241.646C430.152 241.575 430.324 241.47 430.469 241.331C430.614 241.192 430.725 241.02 430.802 240.815L432.007 241.033C431.911 241.388 431.738 241.699 431.488 241.966C431.24 242.23 430.929 242.436 430.554 242.584C430.182 242.729 429.757 242.801 429.28 242.801ZM433.382 245.123V236.123H434.626V237.185H434.733C434.807 237.048 434.913 236.891 435.053 236.712C435.192 236.533 435.385 236.376 435.632 236.243C435.879 236.106 436.206 236.038 436.612 236.038C437.141 236.038 437.612 236.172 438.027 236.439C438.442 236.706 438.767 237.091 439.003 237.594C439.242 238.097 439.361 238.702 439.361 239.409C439.361 240.116 439.243 240.723 439.007 241.229C438.771 241.731 438.448 242.119 438.036 242.392C437.624 242.662 437.153 242.797 436.625 242.797C436.227 242.797 435.902 242.73 435.649 242.597C435.399 242.463 435.203 242.307 435.061 242.128C434.919 241.949 434.81 241.79 434.733 241.65H434.656V245.123H433.382ZM434.631 239.396C434.631 239.856 434.698 240.26 434.831 240.606C434.965 240.953 435.158 241.224 435.411 241.42C435.663 241.614 435.973 241.71 436.34 241.71C436.72 241.71 437.038 241.609 437.294 241.408C437.55 241.203 437.743 240.926 437.874 240.577C438.007 240.227 438.074 239.834 438.074 239.396C438.074 238.964 438.009 238.577 437.878 238.233C437.75 237.889 437.557 237.618 437.298 237.419C437.043 237.22 436.723 237.121 436.34 237.121C435.97 237.121 435.658 237.216 435.402 237.406C435.149 237.597 434.957 237.862 434.827 238.203C434.696 238.544 434.631 238.942 434.631 239.396ZM443.707 242.669V241.714L446.66 238.655C446.976 238.322 447.236 238.031 447.44 237.781C447.647 237.528 447.802 237.288 447.905 237.061C448.007 236.834 448.058 236.592 448.058 236.337C448.058 236.047 447.99 235.797 447.853 235.587C447.717 235.373 447.531 235.21 447.295 235.097C447.059 234.98 446.794 234.922 446.498 234.922C446.186 234.922 445.913 234.986 445.68 235.114C445.447 235.241 445.268 235.422 445.143 235.655C445.018 235.888 444.956 236.16 444.956 236.473H443.699C443.699 235.942 443.821 235.477 444.065 235.079C444.309 234.682 444.645 234.373 445.071 234.155C445.497 233.933 445.981 233.822 446.524 233.822C447.072 233.822 447.555 233.932 447.973 234.15C448.393 234.366 448.721 234.662 448.957 235.037C449.193 235.409 449.311 235.829 449.311 236.298C449.311 236.622 449.25 236.939 449.128 237.248C449.008 237.558 448.799 237.903 448.501 238.284C448.203 238.662 447.788 239.121 447.257 239.66L445.522 241.476V241.54H449.451V242.669H443.707ZM453.993 242.788C453.604 242.783 453.221 242.712 452.843 242.575C452.468 242.439 452.127 242.212 451.82 241.893C451.513 241.575 451.268 241.148 451.083 240.611C450.901 240.074 450.81 239.403 450.81 238.599C450.81 237.838 450.885 237.162 451.036 236.571C451.189 235.98 451.41 235.481 451.697 235.075C451.983 234.666 452.33 234.355 452.736 234.142C453.143 233.929 453.599 233.822 454.104 233.822C454.624 233.822 455.086 233.925 455.489 234.129C455.893 234.334 456.219 234.616 456.469 234.977C456.722 235.338 456.883 235.748 456.951 236.209H455.651C455.563 235.845 455.388 235.548 455.127 235.318C454.866 235.088 454.525 234.973 454.104 234.973C453.465 234.973 452.966 235.251 452.608 235.808C452.253 236.365 452.074 237.139 452.072 238.131H452.135C452.286 237.883 452.471 237.673 452.689 237.5C452.911 237.324 453.158 237.189 453.431 237.095C453.706 236.998 453.996 236.95 454.3 236.95C454.806 236.95 455.263 237.074 455.672 237.321C456.084 237.565 456.412 237.903 456.657 238.335C456.901 238.767 457.023 239.261 457.023 239.818C457.023 240.375 456.897 240.879 456.644 241.331C456.394 241.783 456.042 242.141 455.587 242.405C455.133 242.666 454.601 242.794 453.993 242.788ZM453.989 241.68C454.324 241.68 454.624 241.598 454.888 241.433C455.152 241.268 455.361 241.047 455.515 240.768C455.668 240.49 455.745 240.179 455.745 239.835C455.745 239.5 455.67 239.195 455.519 238.919C455.371 238.643 455.167 238.425 454.905 238.263C454.647 238.101 454.351 238.02 454.019 238.02C453.766 238.02 453.532 238.068 453.316 238.165C453.103 238.261 452.915 238.395 452.753 238.565C452.591 238.736 452.464 238.932 452.37 239.153C452.279 239.372 452.233 239.604 452.233 239.848C452.233 240.175 452.309 240.477 452.459 240.756C452.613 241.034 452.822 241.258 453.086 241.429C453.353 241.597 453.654 241.68 453.989 241.68Z" fill="#9A9FA5"/>
<path d="M601.54 238.305C601.54 239.237 601.369 240.038 601.028 240.709C600.688 241.376 600.22 241.891 599.626 242.251C599.036 242.609 598.364 242.788 597.611 242.788C596.855 242.788 596.18 242.609 595.587 242.251C594.996 241.891 594.53 241.375 594.189 240.704C593.848 240.034 593.678 239.234 593.678 238.305C593.678 237.373 593.848 236.574 594.189 235.906C594.53 235.236 594.996 234.722 595.587 234.364C596.18 234.003 596.855 233.822 597.611 233.822C598.364 233.822 599.036 234.003 599.626 234.364C600.22 234.722 600.688 235.236 601.028 235.906C601.369 236.574 601.54 237.373 601.54 238.305ZM600.236 238.305C600.236 237.595 600.121 236.997 599.891 236.511C599.663 236.023 599.351 235.653 598.953 235.403C598.558 235.15 598.111 235.024 597.611 235.024C597.108 235.024 596.659 235.15 596.264 235.403C595.869 235.653 595.557 236.023 595.327 236.511C595.099 236.997 594.986 237.595 594.986 238.305C594.986 239.016 595.099 239.615 595.327 240.104C595.557 240.589 595.869 240.959 596.264 241.212C596.659 241.462 597.108 241.587 597.611 241.587C598.111 241.587 598.558 241.462 598.953 241.212C599.351 240.959 599.663 240.589 599.891 240.104C600.121 239.615 600.236 239.016 600.236 238.305ZM605.716 242.801C605.083 242.801 604.537 242.658 604.08 242.371C603.625 242.081 603.276 241.682 603.032 241.173C602.787 240.665 602.665 240.082 602.665 239.426C602.665 238.761 602.79 238.175 603.04 237.666C603.29 237.155 603.642 236.756 604.097 236.469C604.552 236.182 605.087 236.038 605.704 236.038C606.201 236.038 606.644 236.131 607.033 236.315C607.422 236.497 607.736 236.753 607.975 237.082C608.216 237.412 608.36 237.797 608.405 238.237H607.165C607.097 237.93 606.941 237.666 606.696 237.445C606.455 237.223 606.131 237.112 605.725 237.112C605.37 237.112 605.059 237.206 604.792 237.393C604.527 237.578 604.321 237.842 604.174 238.186C604.026 238.527 603.952 238.93 603.952 239.396C603.952 239.873 604.025 240.285 604.169 240.632C604.314 240.979 604.519 241.247 604.783 241.437C605.05 241.628 605.364 241.723 605.725 241.723C605.966 241.723 606.185 241.679 606.381 241.591C606.58 241.5 606.746 241.371 606.88 241.203C607.016 241.035 607.111 240.834 607.165 240.598H608.405C608.36 241.021 608.222 241.399 607.992 241.731C607.762 242.064 607.454 242.325 607.067 242.516C606.684 242.706 606.233 242.801 605.716 242.801ZM612.703 236.123V237.146H609.128V236.123H612.703ZM610.087 234.555H611.361V240.747C611.361 240.994 611.398 241.18 611.472 241.305C611.546 241.427 611.641 241.511 611.757 241.557C611.876 241.599 612.006 241.621 612.145 241.621C612.247 241.621 612.337 241.614 612.413 241.599C612.49 241.585 612.55 241.574 612.592 241.565L612.823 242.618C612.749 242.646 612.644 242.675 612.507 242.703C612.371 242.734 612.2 242.751 611.996 242.754C611.661 242.76 611.348 242.7 611.058 242.575C610.769 242.45 610.534 242.257 610.355 241.996C610.176 241.734 610.087 241.406 610.087 241.011V234.555ZM620.07 242.788C619.484 242.788 618.962 242.687 618.502 242.486C618.044 242.284 617.682 242.004 617.415 241.646C617.151 241.285 617.009 240.868 616.989 240.393H618.327C618.344 240.652 618.431 240.876 618.587 241.067C618.746 241.254 618.953 241.399 619.209 241.501C619.465 241.604 619.749 241.655 620.061 241.655C620.405 241.655 620.709 241.595 620.973 241.476C621.24 241.356 621.449 241.19 621.6 240.977C621.75 240.761 621.825 240.513 621.825 240.231C621.825 239.939 621.75 239.682 621.6 239.46C621.452 239.236 621.234 239.06 620.948 238.932C620.663 238.804 620.32 238.74 619.916 238.74H619.179V237.666H619.916C620.24 237.666 620.524 237.608 620.769 237.491C621.016 237.375 621.209 237.213 621.348 237.006C621.487 236.795 621.557 236.55 621.557 236.268C621.557 235.998 621.496 235.764 621.374 235.565C621.254 235.364 621.084 235.206 620.862 235.092C620.644 234.979 620.385 234.922 620.087 234.922C619.803 234.922 619.537 234.974 619.29 235.079C619.046 235.182 618.847 235.329 618.693 235.523C618.54 235.713 618.458 235.942 618.446 236.209H617.172C617.186 235.737 617.325 235.322 617.59 234.964C617.857 234.606 618.209 234.327 618.646 234.125C619.084 233.923 619.57 233.822 620.104 233.822C620.663 233.822 621.146 233.932 621.553 234.15C621.962 234.366 622.277 234.655 622.499 235.016C622.723 235.376 622.834 235.771 622.831 236.2C622.834 236.689 622.698 237.104 622.422 237.445C622.149 237.785 621.786 238.014 621.331 238.131V238.199C621.911 238.287 622.359 238.517 622.678 238.889C622.999 239.261 623.158 239.723 623.155 240.274C623.158 240.754 623.024 241.185 622.754 241.565C622.487 241.946 622.122 242.246 621.659 242.464C621.196 242.68 620.666 242.788 620.07 242.788Z" fill="#9A9FA5"/>
<path d="M73 93.0192C73 93.0192 105.028 100.669 127.8 100.669C166.16 100.669 151.613 61.1689 182.5 61.1689C210.398 61.1689 205.5 93.8815 236.902 93.8815C273 93.8815 263.4 46.1689 292.2 46.1689C321 46.1689 298.27 89.2481 350.5 89.2481C381.5 89.2481 369 99.1606 399 99.1606C429 99.1606 425.201 38.6689 455 38.6689C482.5 38.6689 477.261 93.0192 503.5 93.0192C532 93.0192 531 80.7363 569.5 80.7363C608 80.7363 626 97.8676 626 97.8676C640 107.024 680.3 112.504 729.5 61.1689" stroke="#2A85FF" stroke-width="4" stroke-linecap="round"/>
<path d="M73 141.019C73 141.019 105.028 148.669 127.8 148.669C166.16 148.669 151.713 145.868 182.6 145.868C210.498 145.868 205.5 141.882 236.902 141.882C273 141.882 263.4 128.736 292.2 128.736C321 128.736 298.27 137.248 350.5 137.248C381.5 137.248 369 147.161 399 147.161C429 147.161 425.201 137.248 455 137.248C482.5 137.248 477.261 141.019 503.5 141.019C532 141.019 531 137.248 569.5 137.248C608 137.248 626 137.248 626 137.248C655.333 138.832 719.3 144.3 740.5 153.5" stroke="#B5E4CA" stroke-width="4" stroke-linecap="round"/>
<path d="M73 203.019C73 203.019 105.028 210.669 127.8 210.669C166.16 210.669 163 184.669 182.6 184.669C210.498 184.669 205.5 196.169 236.902 196.169C273 196.169 263.4 203.019 292.2 203.019C321 203.019 319.5 169.169 350.5 169.169C381.5 169.169 369 209.161 399 209.161C429 209.161 425.201 199.248 455 199.248C482.5 199.248 477.261 175.169 503.5 175.169C523.5 175.169 531 184.669 569.5 184.669C608 184.669 626 184.669 626 184.669C651.667 184.725 710.1 181.704 738.5 169.169" stroke="#B1E5FC" stroke-width="4" stroke-linecap="round"/>
<rect x="227" y="1.66895" width="1" height="224" rx="0.5" fill="#EFEFEF"/>
<circle cx="227.5" cy="92.1689" r="4.5" fill="#2A85FF"/>
<g filter="url(#filter0_ddi_1331_217209)">
<rect x="240" y="48.6689" width="116" height="88" rx="8" fill="#272B30" shape-rendering="crispEdges"/>
<rect x="240.5" y="49.1689" width="115" height="87" rx="7.5" stroke="white" stroke-opacity="0.12" shape-rendering="crispEdges"/>
<path d="M253.719 60.2343C253.673 59.8309 253.486 59.5184 253.156 59.2968C252.827 59.0724 252.412 58.9601 251.912 58.9601C251.554 58.9601 251.244 59.017 250.983 59.1306C250.722 59.2414 250.518 59.3948 250.374 59.5908C250.232 59.784 250.161 60.0042 250.161 60.2513C250.161 60.4587 250.209 60.6377 250.305 60.7883C250.405 60.9388 250.534 61.0653 250.693 61.1675C250.855 61.267 251.028 61.3508 251.213 61.4189C251.398 61.4843 251.575 61.5383 251.746 61.5809L252.598 61.8025C252.876 61.8706 253.162 61.963 253.455 62.0795C253.747 62.1959 254.018 62.3493 254.268 62.5397C254.518 62.73 254.72 62.9658 254.874 63.2471C255.03 63.5283 255.108 63.865 255.108 64.257C255.108 64.7513 254.98 65.1903 254.724 65.5738C254.472 65.9573 254.104 66.2599 253.621 66.4814C253.141 66.703 252.56 66.8138 251.878 66.8138C251.224 66.8138 250.659 66.7101 250.182 66.5028C249.705 66.2954 249.331 66.0013 249.061 65.6206C248.791 65.2371 248.642 64.7826 248.614 64.257H249.935C249.96 64.5724 250.063 64.8351 250.241 65.0454C250.423 65.2528 250.655 65.4076 250.936 65.5099C251.22 65.6093 251.531 65.659 251.869 65.659C252.241 65.659 252.572 65.6008 252.862 65.4843C253.155 65.365 253.385 65.2002 253.553 64.99C253.72 64.7769 253.804 64.5283 253.804 64.2442C253.804 63.9857 253.73 63.7741 253.582 63.6093C253.438 63.4445 253.24 63.3081 252.99 63.2002C252.743 63.0922 252.463 62.9971 252.151 62.9147L251.119 62.6334C250.42 62.4431 249.866 62.1633 249.457 61.7939C249.051 61.4246 248.848 60.936 248.848 60.328C248.848 59.8252 248.984 59.3863 249.257 59.0113C249.53 58.6363 249.899 58.3451 250.365 58.1377C250.831 57.9275 251.357 57.8224 251.942 57.8224C252.533 57.8224 253.054 57.926 253.506 58.1334C253.96 58.3408 254.318 58.6263 254.58 58.99C254.841 59.3508 254.977 59.7655 254.989 60.2343H253.719ZM259.28 66.801C258.635 66.801 258.08 66.6633 257.614 66.3877C257.151 66.1093 256.793 65.7187 256.54 65.2158C256.29 64.7101 256.165 64.1178 256.165 63.4388C256.165 62.7684 256.29 62.1775 256.54 61.6661C256.793 61.1547 257.145 60.7556 257.597 60.4687C258.052 60.1817 258.583 60.0383 259.191 60.0383C259.56 60.0383 259.918 60.0993 260.265 60.2215C260.611 60.3437 260.922 60.5354 261.198 60.7968C261.473 61.0581 261.691 61.3976 261.85 61.8153C262.009 62.23 262.088 62.7343 262.088 63.328V63.7797H256.885V62.8252H260.84C260.84 62.49 260.772 62.1931 260.635 61.9346C260.499 61.6732 260.307 61.4672 260.06 61.3167C259.816 61.1661 259.529 61.0908 259.199 61.0908C258.841 61.0908 258.529 61.1789 258.262 61.355C257.998 61.5283 257.793 61.7556 257.648 62.0368C257.506 62.3153 257.435 62.6178 257.435 62.9445V63.6903C257.435 64.1278 257.512 64.4999 257.665 64.8067C257.821 65.1135 258.039 65.3479 258.317 65.5099C258.596 65.6689 258.921 65.7485 259.293 65.7485C259.534 65.7485 259.755 65.7144 259.954 65.6462C260.152 65.5752 260.324 65.4701 260.469 65.3309C260.614 65.1917 260.725 65.0198 260.802 64.8153L262.007 65.0326C261.911 65.3877 261.738 65.6988 261.488 65.9658C261.24 66.23 260.929 66.436 260.554 66.5837C260.182 66.7286 259.757 66.801 259.28 66.801ZM263.382 69.1235V60.1235H264.626V61.1846H264.733C264.807 61.0482 264.913 60.8905 265.053 60.7116C265.192 60.5326 265.385 60.3763 265.632 60.2428C265.879 60.1064 266.206 60.0383 266.612 60.0383C267.141 60.0383 267.612 60.1718 268.027 60.4388C268.442 60.7059 268.767 61.0908 269.003 61.5937C269.242 62.0965 269.361 62.7016 269.361 63.409C269.361 64.1164 269.243 64.7229 269.007 65.2286C268.771 65.7314 268.448 66.1192 268.036 66.392C267.624 66.6618 267.153 66.7968 266.625 66.7968C266.227 66.7968 265.902 66.73 265.649 66.5965C265.399 66.463 265.203 66.3067 265.061 66.1278C264.919 65.9488 264.81 65.7897 264.733 65.6505H264.656V69.1235H263.382ZM264.631 63.3962C264.631 63.8564 264.698 64.2599 264.831 64.6064C264.965 64.953 265.158 65.2243 265.411 65.4204C265.663 65.6135 265.973 65.7101 266.34 65.7101C266.72 65.7101 267.038 65.6093 267.294 65.4076C267.55 65.203 267.743 64.926 267.874 64.5766C268.007 64.2272 268.074 63.8337 268.074 63.3962C268.074 62.9644 268.009 62.5766 267.878 62.2329C267.75 61.8891 267.557 61.6178 267.298 61.4189C267.043 61.2201 266.723 61.1206 266.34 61.1206C265.97 61.1206 265.658 61.2158 265.402 61.4062C265.149 61.5965 264.957 61.8621 264.827 62.203C264.696 62.5439 264.631 62.9417 264.631 63.3962ZM277.018 57.9417V66.6689H275.697V59.2627H275.646L273.558 60.6263V59.365L275.736 57.9417H277.018ZM282.208 66.7883C281.597 66.7883 281.057 66.6831 280.589 66.4729C280.123 66.2627 279.758 65.9729 279.493 65.6036C279.229 65.2343 279.099 64.8138 279.101 64.3422C279.099 63.9729 279.174 63.6334 279.327 63.3238C279.483 63.0113 279.695 62.7513 279.962 62.5439C280.229 62.3337 280.527 62.2002 280.857 62.1434V62.0922C280.422 61.9871 280.074 61.7542 279.813 61.3934C279.552 61.0326 279.422 60.6178 279.425 60.1491C279.422 59.703 279.54 59.3053 279.779 58.9559C280.02 58.6036 280.351 58.3266 280.772 58.1249C281.192 57.9232 281.671 57.8224 282.208 57.8224C282.739 57.8224 283.214 57.9246 283.631 58.1292C284.052 58.3309 284.383 58.6079 284.624 58.9601C284.866 59.3096 284.988 59.7059 284.991 60.1491C284.988 60.6178 284.854 61.0326 284.59 61.3934C284.326 61.7542 283.982 61.9871 283.559 62.0922V62.1434C283.885 62.2002 284.179 62.3337 284.441 62.5439C284.705 62.7513 284.915 63.0113 285.072 63.3238C285.231 63.6334 285.312 63.9729 285.314 64.3422C285.312 64.8138 285.178 65.2343 284.914 65.6036C284.65 65.9729 284.283 66.2627 283.814 66.4729C283.349 66.6831 282.813 66.7883 282.208 66.7883ZM282.208 65.7101C282.569 65.7101 282.881 65.6505 283.145 65.5312C283.41 65.409 283.614 65.24 283.759 65.0241C283.904 64.8053 283.978 64.5496 283.981 64.257C283.978 63.953 283.898 63.6846 283.742 63.4516C283.589 63.2187 283.38 63.0354 283.116 62.9019C282.851 62.7684 282.549 62.7016 282.208 62.7016C281.864 62.7016 281.559 62.7684 281.292 62.9019C281.025 63.0354 280.814 63.2187 280.661 63.4516C280.508 63.6846 280.432 63.953 280.435 64.257C280.432 64.5496 280.502 64.8053 280.644 65.0241C280.789 65.24 280.995 65.409 281.262 65.5312C281.529 65.6505 281.844 65.7101 282.208 65.7101ZM282.208 61.6491C282.498 61.6491 282.755 61.5908 282.979 61.4743C283.204 61.3579 283.38 61.1959 283.508 60.9885C283.638 60.7812 283.705 60.5383 283.708 60.2599C283.705 59.9871 283.64 59.7485 283.512 59.5439C283.387 59.3394 283.212 59.1817 282.988 59.0709C282.763 58.9573 282.503 58.9005 282.208 58.9005C281.907 58.9005 281.643 58.9573 281.415 59.0709C281.191 59.1817 281.016 59.3394 280.891 59.5439C280.766 59.7485 280.705 59.9871 280.708 60.2599C280.705 60.5383 280.768 60.7812 280.895 60.9885C281.023 61.1959 281.199 61.3579 281.424 61.4743C281.651 61.5908 281.912 61.6491 282.208 61.6491Z" fill="#EFEFEF"/>
<rect x="248" y="76.6689" width="12" height="12" rx="4" fill="#2A85FF"/>
<path d="M264.861 77.9417H266.795L269.386 84.2655H269.489L272.08 77.9417H274.014V86.6689H272.497V80.6732H272.416L270.004 86.6434H268.871L266.459 80.6604H266.378V86.6689H264.861V77.9417ZM278.403 86.7968C277.764 86.7968 277.21 86.6562 276.741 86.3749C276.272 86.0937 275.908 85.7002 275.65 85.1945C275.394 84.6888 275.266 84.0979 275.266 83.4218C275.266 82.7456 275.394 82.1533 275.65 81.6448C275.908 81.1363 276.272 80.7414 276.741 80.4601C277.21 80.1789 277.764 80.0383 278.403 80.0383C279.042 80.0383 279.596 80.1789 280.065 80.4601C280.533 80.7414 280.896 81.1363 281.151 81.6448C281.41 82.1533 281.539 82.7456 281.539 83.4218C281.539 84.0979 281.41 84.6888 281.151 85.1945C280.896 85.7002 280.533 86.0937 280.065 86.3749C279.596 86.6562 279.042 86.7968 278.403 86.7968ZM278.411 85.561C278.758 85.561 279.048 85.4658 279.281 85.2755C279.514 85.0823 279.687 84.8238 279.8 84.4999C279.917 84.176 279.975 83.8153 279.975 83.4175C279.975 83.017 279.917 82.6547 279.8 82.3309C279.687 82.0042 279.514 81.7442 279.281 81.551C279.048 81.3579 278.758 81.2613 278.411 81.2613C278.056 81.2613 277.761 81.3579 277.525 81.551C277.292 81.7442 277.117 82.0042 277.001 82.3309C276.887 82.6547 276.83 83.017 276.83 83.4175C276.83 83.8153 276.887 84.176 277.001 84.4999C277.117 84.8238 277.292 85.0823 277.525 85.2755C277.761 85.4658 278.056 85.561 278.411 85.561ZM284.271 82.8337V86.6689H282.728V80.1235H284.203V81.2357H284.28C284.43 80.8692 284.67 80.578 285 80.3621C285.332 80.1462 285.743 80.0383 286.231 80.0383C286.683 80.0383 287.076 80.1349 287.412 80.328C287.75 80.5212 288.011 80.801 288.196 81.1675C288.383 81.534 288.476 81.9786 288.473 82.5013V86.6689H286.93V82.74C286.93 82.3025 286.816 81.9601 286.589 81.713C286.365 81.4658 286.054 81.3422 285.656 81.3422C285.386 81.3422 285.146 81.4019 284.936 81.5212C284.728 81.6377 284.565 81.8067 284.446 82.0283C284.329 82.2499 284.271 82.5184 284.271 82.8337ZM293.189 80.1235V81.3167H289.427V80.1235H293.189ZM290.356 78.5553H291.898V84.7002C291.898 84.9076 291.929 85.0667 291.992 85.1775C292.057 85.2854 292.142 85.3593 292.248 85.3991C292.353 85.4388 292.469 85.4587 292.597 85.4587C292.694 85.4587 292.782 85.4516 292.861 85.4374C292.944 85.4232 293.006 85.4104 293.049 85.3991L293.309 86.605C293.226 86.6334 293.108 86.6647 292.955 86.6988C292.804 86.7329 292.62 86.7528 292.401 86.7584C292.015 86.7698 291.667 86.7116 291.357 86.5837C291.047 86.453 290.802 86.2513 290.62 85.9786C290.441 85.7059 290.353 85.365 290.356 84.9559V78.5553ZM296.043 82.8337V86.6689H294.5V77.9417H296.009V81.2357H296.085C296.239 80.8664 296.476 80.5752 296.797 80.3621C297.121 80.1462 297.533 80.0383 298.033 80.0383C298.487 80.0383 298.884 80.1334 299.222 80.3238C299.56 80.5141 299.821 80.7925 300.006 81.159C300.193 81.5255 300.287 81.9729 300.287 82.5013V86.6689H298.744V82.74C298.744 82.2996 298.631 81.9573 298.404 81.713C298.179 81.4658 297.864 81.3422 297.458 81.3422C297.185 81.3422 296.94 81.4019 296.725 81.5212C296.511 81.6377 296.344 81.8067 296.222 82.0283C296.102 82.2499 296.043 82.5184 296.043 82.8337ZM303.282 77.9417V86.6689H301.739V77.9417H303.282ZM305.707 89.1235C305.497 89.1235 305.302 89.1064 305.123 89.0724C304.947 89.0411 304.807 89.0042 304.702 88.9616L305.059 87.7599C305.284 87.8252 305.484 87.8564 305.66 87.8536C305.836 87.8508 305.991 87.7954 306.125 87.6874C306.261 87.5823 306.376 87.4062 306.47 87.159L306.602 86.8053L304.229 80.1235H305.865L307.373 85.0667H307.442L308.954 80.1235H310.595L307.974 87.4616C307.852 87.8081 307.69 88.105 307.488 88.3522C307.287 88.6022 307.04 88.7925 306.747 88.9232C306.457 89.0567 306.111 89.1235 305.707 89.1235ZM312.493 86.7627C312.234 86.7627 312.013 86.6718 311.828 86.49C311.643 86.3081 311.552 86.0866 311.555 85.8252C311.552 85.5695 311.643 85.3508 311.828 85.1689C312.013 84.9871 312.234 84.8962 312.493 84.8962C312.743 84.8962 312.96 84.9871 313.145 85.1689C313.332 85.3508 313.427 85.5695 313.43 85.8252C313.427 85.9985 313.382 86.1562 313.294 86.2982C313.209 86.4403 313.095 86.5539 312.953 86.6391C312.814 86.7215 312.66 86.7627 312.493 86.7627ZM312.493 82.0922C312.234 82.0922 312.013 82.0013 311.828 81.8195C311.643 81.6349 311.552 81.4133 311.555 81.1547C311.552 80.8991 311.643 80.6803 311.828 80.4985C312.013 80.3138 312.234 80.2215 312.493 80.2215C312.743 80.2215 312.96 80.3138 313.145 80.4985C313.332 80.6803 313.427 80.8991 313.43 81.1547C313.427 81.3252 313.382 81.4814 313.294 81.6235C313.209 81.7655 313.095 81.8792 312.953 81.9644C312.814 82.0496 312.66 82.0922 312.493 82.0922ZM320.777 86.7883C320.208 86.7883 319.7 86.6817 319.251 86.4687C318.802 86.2528 318.446 85.9573 318.181 85.5823C317.92 85.2073 317.781 84.7783 317.764 84.2954H319.298C319.326 84.6533 319.481 84.9459 319.762 85.1732C320.044 85.3976 320.382 85.5099 320.777 85.5099C321.086 85.5099 321.362 85.4388 321.603 85.2968C321.845 85.1547 322.035 84.9573 322.174 84.7045C322.313 84.4516 322.382 84.1633 322.379 83.8394C322.382 83.5099 322.312 83.2172 322.17 82.9616C322.028 82.7059 321.833 82.5056 321.586 82.3607C321.339 82.213 321.055 82.1391 320.734 82.1391C320.473 82.1363 320.215 82.1846 319.963 82.284C319.71 82.3834 319.509 82.5141 319.362 82.676L317.934 82.4417L318.39 77.9417H323.453V79.2627H319.698L319.447 81.5766H319.498C319.66 81.3863 319.889 81.2286 320.184 81.1036C320.48 80.9758 320.804 80.9118 321.156 80.9118C321.684 80.9118 322.156 81.0368 322.571 81.2868C322.985 81.534 323.312 81.8749 323.551 82.3096C323.789 82.7442 323.909 83.2414 323.909 83.801C323.909 84.3778 323.775 84.892 323.508 85.3437C323.244 85.7925 322.876 86.1462 322.404 86.4047C321.936 86.6604 321.393 86.7883 320.777 86.7883ZM328.442 86.8351C327.74 86.8351 327.138 86.6576 326.635 86.3025C326.135 85.9445 325.75 85.4289 325.48 84.7556C325.213 84.0795 325.08 83.2655 325.08 82.3138C325.083 81.3621 325.218 80.5525 325.485 79.8849C325.755 79.2144 326.139 78.703 326.639 78.3508C327.142 77.9985 327.743 77.8224 328.442 77.8224C329.141 77.8224 329.742 77.9985 330.245 78.3508C330.747 78.703 331.132 79.2144 331.399 79.8849C331.669 80.5553 331.804 81.365 331.804 82.3138C331.804 83.2684 331.669 84.0837 331.399 84.7599C331.132 85.4331 330.747 85.9474 330.245 86.3025C329.745 86.6576 329.144 86.8351 328.442 86.8351ZM328.442 85.5013C328.987 85.5013 329.418 85.2329 329.733 84.6959C330.051 84.1562 330.211 83.3621 330.211 82.3138C330.211 81.6206 330.138 81.0383 329.993 80.5667C329.848 80.0951 329.644 79.74 329.38 79.5013C329.115 79.2599 328.803 79.1391 328.442 79.1391C327.899 79.1391 327.47 79.409 327.155 79.9488C326.84 80.4857 326.681 81.2741 326.678 82.3138C326.675 83.0099 326.745 83.5951 326.887 84.0695C327.032 84.5439 327.236 84.9019 327.5 85.1434C327.764 85.382 328.078 85.5013 328.442 85.5013ZM336.326 86.8351C335.624 86.8351 335.022 86.6576 334.519 86.3025C334.019 85.9445 333.634 85.4289 333.364 84.7556C333.097 84.0795 332.964 83.2655 332.964 82.3138C332.967 81.3621 333.102 80.5525 333.369 79.8849C333.638 79.2144 334.023 78.703 334.523 78.3508C335.026 77.9985 335.627 77.8224 336.326 77.8224C337.025 77.8224 337.626 77.9985 338.129 78.3508C338.631 78.703 339.016 79.2144 339.283 79.8849C339.553 80.5553 339.688 81.365 339.688 82.3138C339.688 83.2684 339.553 84.0837 339.283 84.7599C339.016 85.4331 338.631 85.9474 338.129 86.3025C337.629 86.6576 337.028 86.8351 336.326 86.8351ZM336.326 85.5013C336.871 85.5013 337.302 85.2329 337.617 84.6959C337.935 84.1562 338.094 83.3621 338.094 82.3138C338.094 81.6206 338.022 81.0383 337.877 80.5667C337.732 80.0951 337.528 79.74 337.263 79.5013C336.999 79.2599 336.687 79.1391 336.326 79.1391C335.783 79.1391 335.354 79.409 335.039 79.9488C334.724 80.4857 334.565 81.2741 334.562 82.3138C334.559 83.0099 334.629 83.5951 334.771 84.0695C334.915 84.5439 335.12 84.9019 335.384 85.1434C335.648 85.382 335.962 85.5013 336.326 85.5013ZM342.407 84.615L342.403 82.7528H342.65L345.002 80.1235H346.805L343.912 83.3451H343.592L342.407 84.615ZM341.001 86.6689V77.9417H342.544V86.6689H341.001ZM345.109 86.6689L342.978 83.6903L344.018 82.6036L346.954 86.6689H345.109Z" fill="#FCFCFC"/>
<rect x="248" y="96.6689" width="12" height="12" rx="4" fill="#B5E4CA"/>
<path d="M266.697 106.669L264.234 97.9417H265.935L267.507 104.355H267.588L269.267 97.9417H270.814L272.497 104.359H272.574L274.146 97.9417H275.847L273.384 106.669H271.824L270.077 100.545H270.009L268.257 106.669H266.697ZM278.984 106.797C278.328 106.797 277.761 106.66 277.284 106.388C276.81 106.112 276.445 105.723 276.189 105.22C275.933 104.714 275.805 104.119 275.805 103.435C275.805 102.761 275.933 102.17 276.189 101.662C276.447 101.15 276.808 100.753 277.271 100.469C277.734 100.182 278.278 100.038 278.903 100.038C279.307 100.038 279.688 100.104 280.045 100.234C280.406 100.362 280.724 100.561 281 100.831C281.278 101.101 281.497 101.445 281.656 101.862C281.815 102.277 281.895 102.771 281.895 103.345V103.818H276.53V102.778H280.416C280.413 102.483 280.349 102.22 280.224 101.99C280.099 101.757 279.925 101.574 279.7 101.44C279.479 101.307 279.22 101.24 278.925 101.24C278.609 101.24 278.332 101.317 278.094 101.47C277.855 101.621 277.669 101.82 277.536 102.067C277.405 102.311 277.338 102.579 277.335 102.872V103.78C277.335 104.16 277.405 104.487 277.544 104.76C277.683 105.03 277.878 105.237 278.128 105.382C278.378 105.524 278.67 105.595 279.006 105.595C279.23 105.595 279.433 105.564 279.615 105.501C279.797 105.436 279.955 105.341 280.088 105.216C280.222 105.091 280.322 104.936 280.391 104.751L281.831 104.913C281.74 105.294 281.567 105.626 281.311 105.91C281.058 106.192 280.734 106.41 280.34 106.567C279.945 106.72 279.493 106.797 278.984 106.797ZM285.978 106.797C285.321 106.797 284.755 106.66 284.277 106.388C283.803 106.112 283.438 105.723 283.182 105.22C282.927 104.714 282.799 104.119 282.799 103.435C282.799 102.761 282.927 102.17 283.182 101.662C283.441 101.15 283.802 100.753 284.265 100.469C284.728 100.182 285.272 100.038 285.897 100.038C286.3 100.038 286.681 100.104 287.039 100.234C287.4 100.362 287.718 100.561 287.993 100.831C288.272 101.101 288.49 101.445 288.65 101.862C288.809 102.277 288.888 102.771 288.888 103.345V103.818H283.523V102.778H287.41C287.407 102.483 287.343 102.22 287.218 101.99C287.093 101.757 286.918 101.574 286.694 101.44C286.472 101.307 286.213 101.24 285.918 101.24C285.603 101.24 285.326 101.317 285.087 101.47C284.848 101.621 284.662 101.82 284.529 102.067C284.398 102.311 284.331 102.579 284.329 102.872V103.78C284.329 104.16 284.398 104.487 284.537 104.76C284.677 105.03 284.871 105.237 285.121 105.382C285.371 105.524 285.664 105.595 285.999 105.595C286.223 105.595 286.427 105.564 286.608 105.501C286.79 105.436 286.948 105.341 287.081 105.216C287.215 105.091 287.316 104.936 287.384 104.751L288.824 104.913C288.733 105.294 288.56 105.626 288.304 105.91C288.052 106.192 287.728 106.41 287.333 106.567C286.938 106.72 286.486 106.797 285.978 106.797ZM291.479 104.615L291.475 102.753H291.722L294.075 100.123H295.877L292.984 103.345H292.664L291.479 104.615ZM290.073 106.669V97.9417H291.616V106.669H290.073ZM294.181 106.669L292.051 103.69L293.09 102.604L296.026 106.669H294.181ZM298.328 97.9417V106.669H296.785V97.9417H298.328ZM300.753 109.123C300.543 109.123 300.348 109.106 300.169 109.072C299.993 109.041 299.852 109.004 299.747 108.962L300.105 107.76C300.33 107.825 300.53 107.856 300.706 107.854C300.882 107.851 301.037 107.795 301.171 107.687C301.307 107.582 301.422 107.406 301.516 107.159L301.648 106.805L299.274 100.123H300.911L302.419 105.067H302.487L304 100.123H305.641L303.02 107.462C302.898 107.808 302.736 108.105 302.534 108.352C302.333 108.602 302.085 108.793 301.793 108.923C301.503 109.057 301.156 109.123 300.753 109.123ZM307.539 106.763C307.28 106.763 307.058 106.672 306.874 106.49C306.689 106.308 306.598 106.087 306.601 105.825C306.598 105.57 306.689 105.351 306.874 105.169C307.058 104.987 307.28 104.896 307.539 104.896C307.789 104.896 308.006 104.987 308.191 105.169C308.378 105.351 308.473 105.57 308.476 105.825C308.473 105.998 308.428 106.156 308.34 106.298C308.254 106.44 308.141 106.554 307.999 106.639C307.86 106.722 307.706 106.763 307.539 106.763ZM307.539 102.092C307.28 102.092 307.058 102.001 306.874 101.82C306.689 101.635 306.598 101.413 306.601 101.155C306.598 100.899 306.689 100.68 306.874 100.498C307.058 100.314 307.28 100.222 307.539 100.222C307.789 100.222 308.006 100.314 308.191 100.498C308.378 100.68 308.473 100.899 308.476 101.155C308.473 101.325 308.428 101.481 308.34 101.623C308.254 101.766 308.141 101.879 307.999 101.964C307.86 102.05 307.706 102.092 307.539 102.092ZM315.92 106.788C315.307 106.788 314.761 106.683 314.284 106.473C313.81 106.263 313.435 105.97 313.159 105.595C312.883 105.22 312.737 104.787 312.72 104.295H314.322C314.337 104.531 314.415 104.737 314.557 104.913C314.699 105.087 314.888 105.222 315.123 105.318C315.359 105.415 315.623 105.463 315.916 105.463C316.229 105.463 316.506 105.409 316.747 105.301C316.989 105.19 317.177 105.037 317.314 104.841C317.45 104.645 317.517 104.419 317.514 104.163C317.517 103.899 317.449 103.666 317.31 103.464C317.17 103.263 316.969 103.105 316.704 102.991C316.443 102.878 316.128 102.821 315.758 102.821H314.987V101.602H315.758C316.062 101.602 316.328 101.55 316.555 101.445C316.785 101.339 316.966 101.192 317.096 101.001C317.227 100.808 317.291 100.585 317.288 100.332C317.291 100.085 317.236 99.8706 317.122 99.6888C317.011 99.5042 316.854 99.3607 316.649 99.2584C316.447 99.1562 316.21 99.105 315.937 99.105C315.67 99.105 315.423 99.1533 315.196 99.2499C314.969 99.3465 314.785 99.4843 314.646 99.6633C314.507 99.8394 314.433 100.05 314.425 100.294H312.903C312.915 99.8053 313.055 99.3763 313.325 99.007C313.598 98.6349 313.962 98.3451 314.416 98.1377C314.871 97.9275 315.381 97.8224 315.946 97.8224C316.528 97.8224 317.034 97.9317 317.463 98.1505C317.895 98.3664 318.229 98.6576 318.464 99.0241C318.7 99.3905 318.818 99.7954 318.818 100.239C318.821 100.73 318.676 101.142 318.383 101.474C318.094 101.807 317.713 102.024 317.241 102.126V102.195C317.855 102.28 318.325 102.507 318.652 102.876C318.981 103.243 319.145 103.699 319.142 104.244C319.142 104.733 319.003 105.17 318.724 105.557C318.449 105.94 318.068 106.241 317.582 106.46C317.099 106.679 316.545 106.788 315.92 106.788ZM323.71 106.835C323.009 106.835 322.407 106.658 321.904 106.302C321.404 105.945 321.019 105.429 320.749 104.756C320.482 104.079 320.348 103.266 320.348 102.314C320.351 101.362 320.486 100.552 320.753 99.8849C321.023 99.2144 321.408 98.703 321.908 98.3508C322.411 97.9985 323.012 97.8224 323.71 97.8224C324.409 97.8224 325.01 97.9985 325.513 98.3508C326.016 98.703 326.401 99.2144 326.668 99.8849C326.938 100.555 327.073 101.365 327.073 102.314C327.073 103.268 326.938 104.084 326.668 104.76C326.401 105.433 326.016 105.947 325.513 106.302C325.013 106.658 324.412 106.835 323.71 106.835ZM323.71 105.501C324.256 105.501 324.686 105.233 325.002 104.696C325.32 104.156 325.479 103.362 325.479 102.314C325.479 101.621 325.407 101.038 325.262 100.567C325.117 100.095 324.912 99.74 324.648 99.5013C324.384 99.2599 324.071 99.1391 323.71 99.1391C323.168 99.1391 322.739 99.409 322.424 99.9488C322.108 100.486 321.949 101.274 321.946 102.314C321.943 103.01 322.013 103.595 322.155 104.07C322.3 104.544 322.505 104.902 322.769 105.143C323.033 105.382 323.347 105.501 323.71 105.501ZM331.594 106.835C330.893 106.835 330.29 106.658 329.788 106.302C329.288 105.945 328.903 105.429 328.633 104.756C328.366 104.079 328.232 103.266 328.232 102.314C328.235 101.362 328.37 100.552 328.637 99.8849C328.907 99.2144 329.292 98.703 329.792 98.3508C330.295 97.9985 330.896 97.8224 331.594 97.8224C332.293 97.8224 332.894 97.9985 333.397 98.3508C333.9 98.703 334.285 99.2144 334.552 99.8849C334.822 100.555 334.957 101.365 334.957 102.314C334.957 103.268 334.822 104.084 334.552 104.76C334.285 105.433 333.9 105.947 333.397 106.302C332.897 106.658 332.296 106.835 331.594 106.835ZM331.594 105.501C332.14 105.501 332.57 105.233 332.886 104.696C333.204 104.156 333.363 103.362 333.363 102.314C333.363 101.621 333.29 101.038 333.146 100.567C333.001 100.095 332.796 99.74 332.532 99.5013C332.268 99.2599 331.955 99.1391 331.594 99.1391C331.052 99.1391 330.623 99.409 330.307 99.9488C329.992 100.486 329.833 101.274 329.83 102.314C329.827 103.01 329.897 103.595 330.039 104.07C330.184 104.544 330.388 104.902 330.653 105.143C330.917 105.382 331.231 105.501 331.594 105.501ZM337.676 104.615L337.671 102.753H337.919L340.271 100.123H342.073L339.18 103.345H338.86L337.676 104.615ZM336.269 106.669V97.9417H337.812V106.669H336.269ZM340.377 106.669L338.247 103.69L339.287 102.604L342.223 106.669H340.377Z" fill="#6F767E"/>
<rect x="248" y="116.669" width="12" height="12" rx="4" fill="#B1E5FC"/>
<path d="M267.818 126.669H264.861V117.942H267.878C268.744 117.942 269.489 118.116 270.111 118.466C270.736 118.812 271.216 119.311 271.551 119.962C271.886 120.612 272.054 121.391 272.054 122.297C272.054 123.206 271.885 123.987 271.547 124.641C271.212 125.294 270.727 125.795 270.094 126.145C269.463 126.494 268.705 126.669 267.818 126.669ZM266.442 125.301H267.741C268.349 125.301 268.857 125.19 269.263 124.969C269.669 124.744 269.974 124.41 270.179 123.967C270.384 123.521 270.486 122.964 270.486 122.297C270.486 121.629 270.384 121.075 270.179 120.635C269.974 120.192 269.672 119.861 269.271 119.642C268.874 119.42 268.379 119.31 267.788 119.31H266.442V125.301ZM275.251 126.801C274.837 126.801 274.463 126.727 274.131 126.579C273.801 126.429 273.54 126.207 273.347 125.915C273.156 125.622 273.061 125.261 273.061 124.832C273.061 124.463 273.129 124.158 273.266 123.916C273.402 123.675 273.588 123.481 273.824 123.337C274.06 123.192 274.325 123.082 274.621 123.008C274.919 122.932 275.227 122.876 275.545 122.842C275.929 122.802 276.24 122.767 276.479 122.736C276.717 122.702 276.891 122.65 276.999 122.582C277.109 122.511 277.165 122.402 277.165 122.254V122.229C277.165 121.908 277.07 121.659 276.879 121.483C276.689 121.307 276.415 121.219 276.057 121.219C275.679 121.219 275.379 121.301 275.158 121.466C274.939 121.631 274.791 121.825 274.715 122.05L273.274 121.845C273.388 121.447 273.575 121.115 273.837 120.848C274.098 120.578 274.418 120.376 274.795 120.243C275.173 120.106 275.591 120.038 276.048 120.038C276.364 120.038 276.678 120.075 276.99 120.149C277.303 120.223 277.588 120.345 277.847 120.516C278.105 120.683 278.313 120.912 278.469 121.202C278.628 121.491 278.707 121.854 278.707 122.288V126.669H277.224V125.77H277.173C277.08 125.952 276.947 126.122 276.777 126.281C276.609 126.437 276.398 126.564 276.142 126.66C275.889 126.754 275.592 126.801 275.251 126.801ZM275.652 125.668C275.962 125.668 276.23 125.606 276.457 125.484C276.685 125.359 276.859 125.195 276.982 124.99C277.107 124.785 277.169 124.562 277.169 124.321V123.55C277.121 123.589 277.038 123.626 276.922 123.66C276.808 123.695 276.68 123.724 276.538 123.75C276.396 123.775 276.256 123.798 276.117 123.818C275.977 123.838 275.857 123.855 275.754 123.869C275.524 123.9 275.318 123.952 275.136 124.023C274.955 124.094 274.811 124.193 274.706 124.321C274.601 124.446 274.548 124.608 274.548 124.807C274.548 125.091 274.652 125.305 274.859 125.45C275.067 125.595 275.331 125.668 275.652 125.668ZM280.139 126.669V120.123H281.681V126.669H280.139ZM280.914 119.195C280.67 119.195 280.46 119.114 280.283 118.952C280.107 118.787 280.019 118.589 280.019 118.359C280.019 118.126 280.107 117.929 280.283 117.767C280.46 117.602 280.67 117.52 280.914 117.52C281.161 117.52 281.372 117.602 281.545 117.767C281.721 117.929 281.809 118.126 281.809 118.359C281.809 118.589 281.721 118.787 281.545 118.952C281.372 119.114 281.161 119.195 280.914 119.195ZM284.69 117.942V126.669H283.147V117.942H284.69ZM287.115 129.123C286.905 129.123 286.71 129.106 286.531 129.072C286.355 129.041 286.215 129.004 286.109 128.962L286.467 127.76C286.692 127.825 286.892 127.856 287.068 127.854C287.244 127.851 287.399 127.795 287.533 127.687C287.669 127.582 287.784 127.406 287.878 127.159L288.01 126.805L285.636 120.123H287.273L288.781 125.067H288.85L290.362 120.123H292.003L289.382 127.462C289.26 127.808 289.098 128.105 288.896 128.352C288.695 128.602 288.448 128.793 288.155 128.923C287.865 129.057 287.519 129.123 287.115 129.123ZM293.901 126.763C293.642 126.763 293.421 126.672 293.236 126.49C293.051 126.308 292.96 126.087 292.963 125.825C292.96 125.57 293.051 125.351 293.236 125.169C293.421 124.987 293.642 124.896 293.901 124.896C294.151 124.896 294.368 124.987 294.553 125.169C294.74 125.351 294.835 125.57 294.838 125.825C294.835 125.998 294.79 126.156 294.702 126.298C294.617 126.44 294.503 126.554 294.361 126.639C294.222 126.722 294.068 126.763 293.901 126.763ZM293.901 122.092C293.642 122.092 293.421 122.001 293.236 121.82C293.051 121.635 292.96 121.413 292.963 121.155C292.96 120.899 293.051 120.68 293.236 120.498C293.421 120.314 293.642 120.222 293.901 120.222C294.151 120.222 294.368 120.314 294.553 120.498C294.74 120.68 294.835 120.899 294.838 121.155C294.835 121.325 294.79 121.481 294.702 121.623C294.617 121.766 294.503 121.879 294.361 121.964C294.222 122.05 294.068 122.092 293.901 122.092ZM302.7 117.942V126.669H301.119V119.48H301.068L299.027 120.784V119.335L301.196 117.942H302.7ZM307.83 126.788C307.262 126.788 306.753 126.682 306.305 126.469C305.856 126.253 305.499 125.957 305.235 125.582C304.974 125.207 304.834 124.778 304.817 124.295H306.351C306.38 124.653 306.535 124.946 306.816 125.173C307.097 125.398 307.435 125.51 307.83 125.51C308.14 125.51 308.415 125.439 308.657 125.297C308.898 125.155 309.089 124.957 309.228 124.704C309.367 124.452 309.435 124.163 309.432 123.839C309.435 123.51 309.366 123.217 309.224 122.962C309.082 122.706 308.887 122.506 308.64 122.361C308.393 122.213 308.109 122.139 307.788 122.139C307.526 122.136 307.269 122.185 307.016 122.284C306.763 122.383 306.563 122.514 306.415 122.676L304.988 122.442L305.444 117.942H310.506V119.263H306.752L306.501 121.577H306.552C306.714 121.386 306.942 121.229 307.238 121.104C307.533 120.976 307.857 120.912 308.209 120.912C308.738 120.912 309.209 121.037 309.624 121.287C310.039 121.534 310.366 121.875 310.604 122.31C310.843 122.744 310.962 123.241 310.962 123.801C310.962 124.378 310.829 124.892 310.562 125.344C310.297 125.793 309.93 126.146 309.458 126.405C308.989 126.66 308.447 126.788 307.83 126.788ZM315.496 126.835C314.794 126.835 314.192 126.658 313.689 126.302C313.189 125.945 312.804 125.429 312.534 124.756C312.267 124.079 312.133 123.266 312.133 122.314C312.136 121.362 312.271 120.552 312.538 119.885C312.808 119.214 313.193 118.703 313.693 118.351C314.196 117.998 314.797 117.822 315.496 117.822C316.195 117.822 316.795 117.998 317.298 118.351C317.801 118.703 318.186 119.214 318.453 119.885C318.723 120.555 318.858 121.365 318.858 122.314C318.858 123.268 318.723 124.084 318.453 124.76C318.186 125.433 317.801 125.947 317.298 126.302C316.798 126.658 316.197 126.835 315.496 126.835ZM315.496 125.501C316.041 125.501 316.471 125.233 316.787 124.696C317.105 124.156 317.264 123.362 317.264 122.314C317.264 121.621 317.192 121.038 317.047 120.567C316.902 120.095 316.697 119.74 316.433 119.501C316.169 119.26 315.856 119.139 315.496 119.139C314.953 119.139 314.524 119.409 314.209 119.949C313.893 120.486 313.734 121.274 313.731 122.314C313.729 123.01 313.798 123.595 313.94 124.07C314.085 124.544 314.29 124.902 314.554 125.143C314.818 125.382 315.132 125.501 315.496 125.501ZM321.577 124.615L321.573 122.753H321.82L324.172 120.123H325.975L323.081 123.345H322.762L321.577 124.615ZM320.171 126.669V117.942H321.713V126.669H320.171ZM324.279 126.669L322.148 123.69L323.188 122.604L326.124 126.669H324.279Z" fill="#6F767E"/>
</g>
<g filter="url(#filter1_d_1331_217209)">
<path d="M236.714 109.216C236.714 109.365 236.788 108.802 237.022 108.43C237.112 108.162 237.305 107.941 237.558 107.816C237.683 107.754 237.82 107.717 237.959 107.707C238.099 107.698 238.239 107.716 238.372 107.761C238.504 107.805 238.627 107.876 238.732 107.968C238.837 108.06 238.924 108.171 238.986 108.297C239.048 108.422 239.085 108.558 239.094 108.698C239.104 108.837 239.086 108.977 239.041 109.11C239.041 109.811 239.041 109.779 239.041 110.247C239.041 110.714 239.041 111.118 239.041 111.522C239 112.143 238.915 112.761 238.786 113.371C238.615 113.887 238.379 114.38 238.085 114.837C237.568 115.414 237.142 116.066 236.82 116.771C236.737 117.118 236.701 117.476 236.714 117.833C236.714 118.163 236.757 118.492 236.842 118.811C236.407 118.858 235.969 118.858 235.535 118.811C235.12 118.747 234.6 117.918 234.472 117.663C234.44 117.593 234.388 117.534 234.323 117.492C234.258 117.451 234.183 117.429 234.106 117.429C234.028 117.429 233.953 117.451 233.888 117.492C233.823 117.534 233.771 117.593 233.739 117.663C233.505 118.067 232.995 118.8 232.623 118.843C231.922 118.928 230.445 118.843 229.298 118.843C229.298 118.843 229.489 117.78 229.053 117.398C228.618 117.015 228.172 116.569 227.832 116.271L226.95 115.294C226.329 114.716 225.874 113.982 225.632 113.169C225.409 112.17 225.43 111.681 225.632 111.288C225.855 110.962 226.193 110.73 226.578 110.64C226.886 110.586 227.204 110.608 227.502 110.704C227.711 110.791 227.891 110.935 228.023 111.118C228.267 111.448 228.342 111.607 228.257 111.246C228.172 110.884 228.044 110.353 227.821 109.599C227.64 109.014 227.46 108.685 227.322 108.292C227.183 107.899 227.003 107.527 226.79 107.038C226.598 106.539 226.438 106.028 226.312 105.508C226.264 105.294 226.263 105.072 226.309 104.858C226.355 104.643 226.446 104.441 226.578 104.265C226.765 104.081 226.997 103.95 227.25 103.885C227.504 103.82 227.77 103.822 228.023 103.893C228.424 104.067 228.761 104.36 228.99 104.733C229.307 105.246 229.564 105.796 229.755 106.369C230.105 107.281 230.354 108.229 230.498 109.195C230.472 108.625 230.519 108.054 230.637 107.495C230.695 107.325 230.792 107.171 230.919 107.044C231.046 106.917 231.2 106.821 231.37 106.762C231.685 106.661 232.021 106.639 232.347 106.698C232.672 106.77 232.96 106.959 233.155 107.229C233.399 107.85 233.539 108.507 233.569 109.174C233.6 108.604 233.7 108.041 233.867 107.495C234.045 107.246 234.304 107.065 234.6 106.985C234.951 106.922 235.311 106.922 235.662 106.985C235.95 107.083 236.201 107.264 236.385 107.506C236.609 108.069 236.746 108.664 236.788 109.269" fill="white"/>
<path d="M236.714 109.216C236.714 109.365 236.788 108.802 237.022 108.43C237.112 108.162 237.305 107.941 237.558 107.816C237.683 107.754 237.82 107.717 237.959 107.707C238.099 107.698 238.239 107.716 238.372 107.761C238.504 107.805 238.627 107.876 238.732 107.968C238.837 108.06 238.924 108.171 238.986 108.297C239.048 108.422 239.085 108.558 239.094 108.698C239.104 108.837 239.086 108.977 239.041 109.11C239.041 109.811 239.041 109.779 239.041 110.247C239.041 110.714 239.041 111.118 239.041 111.522C239 112.143 238.915 112.761 238.786 113.371C238.615 113.887 238.379 114.38 238.085 114.837C237.568 115.414 237.142 116.066 236.82 116.771C236.737 117.118 236.701 117.476 236.714 117.833C236.714 118.163 236.757 118.492 236.842 118.811C236.407 118.858 235.969 118.858 235.535 118.811C235.12 118.747 234.6 117.918 234.472 117.663C234.44 117.593 234.388 117.534 234.323 117.492C234.258 117.451 234.183 117.429 234.106 117.429C234.028 117.429 233.953 117.451 233.888 117.492C233.823 117.534 233.771 117.593 233.739 117.663C233.505 118.067 232.995 118.8 232.623 118.843C231.922 118.928 230.445 118.843 229.298 118.843C229.298 118.843 229.489 117.78 229.053 117.398C228.618 117.015 228.172 116.569 227.832 116.271L226.95 115.294C226.329 114.716 225.874 113.982 225.632 113.169C225.409 112.17 225.43 111.681 225.632 111.288C225.855 110.962 226.193 110.73 226.578 110.64C226.886 110.586 227.204 110.608 227.502 110.704C227.711 110.791 227.891 110.935 228.023 111.118C228.267 111.448 228.342 111.607 228.257 111.246C228.172 110.884 228.044 110.353 227.821 109.599C227.64 109.014 227.46 108.685 227.322 108.292C227.183 107.899 227.003 107.527 226.79 107.038C226.598 106.539 226.438 106.028 226.312 105.508C226.264 105.294 226.263 105.072 226.309 104.858C226.355 104.643 226.446 104.441 226.578 104.265C226.765 104.081 226.997 103.95 227.25 103.885C227.504 103.82 227.77 103.822 228.023 103.893C228.424 104.067 228.761 104.36 228.99 104.733C229.307 105.246 229.564 105.796 229.755 106.369C230.105 107.281 230.354 108.229 230.498 109.195C230.472 108.625 230.519 108.054 230.637 107.495C230.695 107.325 230.792 107.171 230.919 107.044C231.046 106.917 231.2 106.821 231.37 106.762C231.685 106.661 232.021 106.639 232.347 106.698C232.672 106.77 232.96 106.959 233.155 107.229C233.399 107.85 233.539 108.507 233.569 109.174C233.6 108.604 233.7 108.041 233.867 107.495C234.045 107.246 234.304 107.065 234.6 106.985C234.951 106.922 235.311 106.922 235.662 106.985C235.95 107.083 236.201 107.264 236.385 107.506C236.579 108.056 236.69 108.633 236.714 109.216V109.216Z" stroke="black" stroke-width="0.75" stroke-linejoin="round"/>
<path d="M235.684 115.676V112" stroke="black" stroke-width="0.75" stroke-linecap="round"/>
<path d="M233.537 115.687L233.526 112" stroke="black" stroke-width="0.75" stroke-linecap="round"/>
<path d="M231.423 112.032L231.444 115.666" stroke="black" stroke-width="0.75" stroke-linecap="round"/>
</g>
<defs>
<filter id="filter0_ddi_1331_217209" x="232" y="44.6689" width="132" height="104" filterUnits="userSpaceOnUse" color-interpolation-filters="sRGB">
<feFlood flood-opacity="0" result="BackgroundImageFix"/>
<feColorMatrix in="SourceAlpha" type="matrix" values="0 0 0 0 0 0 0 0 0 0 0 0 0 0 0 0 0 0 127 0" result="hardAlpha"/>
<feOffset dy="2"/>
<feGaussianBlur stdDeviation="2"/>
<feComposite in2="hardAlpha" operator="out"/>
<feColorMatrix type="matrix" values="0 0 0 0 0 0 0 0 0 0 0 0 0 0 0 0 0 0 0.1 0"/>
<feBlend mode="multiply" in2="BackgroundImageFix" result="effect1_dropShadow_1331_217209"/>
<feColorMatrix in="SourceAlpha" type="matrix" values="0 0 0 0 0 0 0 0 0 0 0 0 0 0 0 0 0 0 127 0" result="hardAlpha"/>
<feOffset dy="4"/>
<feGaussianBlur stdDeviation="4"/>
<feComposite in2="hardAlpha" operator="out"/>
<feColorMatrix type="matrix" values="0 0 0 0 0 0 0 0 0 0 0 0 0 0 0 0 0 0 0.1 0"/>
<feBlend mode="multiply" in2="effect1_dropShadow_1331_217209" result="effect2_dropShadow_1331_217209"/>
<feBlend mode="normal" in="SourceGraphic" in2="effect2_dropShadow_1331_217209" result="shape"/>
<feColorMatrix in="SourceAlpha" type="matrix" values="0 0 0 0 0 0 0 0 0 0 0 0 0 0 0 0 0 0 127 0" result="hardAlpha"/>
<feOffset/>
<feGaussianBlur stdDeviation="0.5"/>
<feComposite in2="hardAlpha" operator="arithmetic" k2="-1" k3="1"/>
<feColorMatrix type="matrix" values="0 0 0 0 0 0 0 0 0 0 0 0 0 0 0 0 0 0 1 0"/>
<feBlend mode="multiply" in2="shape" result="effect3_innerShadow_1331_217209"/>
</filter>
<filter id="filter1_d_1331_217209" x="223.098" y="103.463" width="18.374" height="19.792" filterUnits="userSpaceOnUse" color-interpolation-filters="sRGB">
<feFlood flood-opacity="0" result="BackgroundImageFix"/>
<feColorMatrix in="SourceAlpha" type="matrix" values="0 0 0 0 0 0 0 0 0 0 0 0 0 0 0 0 0 0 127 0" result="hardAlpha"/>
<feOffset dy="2"/>
<feGaussianBlur stdDeviation="1"/>
<feColorMatrix type="matrix" values="0 0 0 0 0 0 0 0 0 0 0 0 0 0 0 0 0 0 0.25 0"/>
<feBlend mode="normal" in2="BackgroundImageFix" result="effect1_dropShadow_1331_217209"/>
<feBlend mode="normal" in="SourceGraphic" in2="effect1_dropShadow_1331_217209" result="shape"/>
</filter>
</defs>
</svg>
