<svg width="300" height="341" viewBox="0 0 300 341" fill="none" xmlns="http://www.w3.org/2000/svg">
<path d="M134.048 14.0276C132.824 7.85177 136.839 1.79217 143.106 1.19033C168.692 -1.26665 194.487 4.99226 216.212 19.1406C241.136 35.3723 258.73 60.7023 265.238 89.7252C271.746 118.748 266.653 149.165 251.046 174.485C235.44 199.806 210.555 218.024 181.703 225.252C152.851 232.48 122.317 228.145 96.6162 213.173C70.9156 198.201 52.0842 173.778 44.1407 145.114C36.1972 116.451 39.7707 85.8184 54.0987 59.7533C66.5877 37.0336 86.3855 19.3527 110.108 9.45711C115.918 7.03318 122.316 10.4841 124.148 16.5078V16.5078C125.98 22.5314 122.541 28.835 116.793 31.4035C98.7446 39.468 83.7005 53.2331 74.0789 70.7364C62.6166 91.5885 59.7577 116.095 66.1125 139.025C72.4673 161.956 87.5325 181.495 108.093 193.472C128.653 205.45 153.081 208.918 176.163 203.135C199.244 197.353 219.152 182.778 231.637 162.522C244.122 142.266 248.197 117.932 242.99 94.7139C237.784 71.4956 223.709 51.2316 203.77 38.2463C187.032 27.3463 167.276 22.2996 147.557 23.6965C141.277 24.1414 135.272 20.2035 134.048 14.0276V14.0276Z" fill="#2A85FF"/>
<g filter="url(#filter0_ddi_141_106)">
<rect x="8" y="90.6689" width="118" height="48" rx="8" fill="#272B30" shape-rendering="crispEdges"/>
<rect x="8.5" y="91.1689" width="117" height="47" rx="7.5" stroke="white" stroke-opacity="0.12" shape-rendering="crispEdges"/>
<path d="M21.7188 102.234C21.6733 101.831 21.4858 101.518 21.1562 101.297C20.8267 101.072 20.4119 100.96 19.9119 100.96C19.554 100.96 19.2443 101.017 18.983 101.131C18.7216 101.241 18.5185 101.395 18.3736 101.591C18.2315 101.784 18.1605 102.004 18.1605 102.251C18.1605 102.459 18.2088 102.638 18.3054 102.788C18.4048 102.939 18.5341 103.065 18.6932 103.168C18.8551 103.267 19.0284 103.351 19.2131 103.419C19.3977 103.484 19.5753 103.538 19.7457 103.581L20.598 103.802C20.8764 103.871 21.1619 103.963 21.4545 104.079C21.7472 104.196 22.0185 104.349 22.2685 104.54C22.5185 104.73 22.7202 104.966 22.8736 105.247C23.0298 105.528 23.108 105.865 23.108 106.257C23.108 106.751 22.9801 107.19 22.7244 107.574C22.4716 107.957 22.1037 108.26 21.6207 108.481C21.1406 108.703 20.5597 108.814 19.8778 108.814C19.2244 108.814 18.6591 108.71 18.1818 108.503C17.7045 108.295 17.331 108.001 17.0611 107.621C16.7912 107.237 16.642 106.783 16.6136 106.257H17.9347C17.9602 106.572 18.0625 106.835 18.2415 107.045C18.4233 107.253 18.6548 107.408 18.9361 107.51C19.2202 107.609 19.5312 107.659 19.8693 107.659C20.2415 107.659 20.5724 107.601 20.8622 107.484C21.1548 107.365 21.3849 107.2 21.5526 106.99C21.7202 106.777 21.804 106.528 21.804 106.244C21.804 105.986 21.7301 105.774 21.5824 105.609C21.4375 105.445 21.2401 105.308 20.9901 105.2C20.7429 105.092 20.4631 104.997 20.1506 104.915L19.1193 104.633C18.4205 104.443 17.8665 104.163 17.4574 103.794C17.0511 103.425 16.848 102.936 16.848 102.328C16.848 101.825 16.9844 101.386 17.2571 101.011C17.5298 100.636 17.8991 100.345 18.3651 100.138C18.831 99.9275 19.3565 99.8224 19.9418 99.8224C20.5327 99.8224 21.054 99.926 21.5057 100.133C21.9602 100.341 22.3182 100.626 22.5795 100.99C22.8409 101.351 22.9773 101.766 22.9886 102.234H21.7188ZM27.2802 108.801C26.6353 108.801 26.0799 108.663 25.614 108.388C25.151 108.109 24.793 107.719 24.5402 107.216C24.2902 106.71 24.1652 106.118 24.1652 105.439C24.1652 104.768 24.2902 104.177 24.5402 103.666C24.793 103.155 25.1453 102.756 25.597 102.469C26.0515 102.182 26.5828 102.038 27.1907 102.038C27.56 102.038 27.918 102.099 28.2646 102.222C28.6112 102.344 28.9223 102.535 29.1978 102.797C29.4734 103.058 29.6907 103.398 29.8498 103.815C30.0089 104.23 30.0885 104.734 30.0885 105.328V105.78H24.8853V104.825H28.8399C28.8399 104.49 28.7717 104.193 28.6353 103.935C28.499 103.673 28.3072 103.467 28.06 103.317C27.8157 103.166 27.5288 103.091 27.1992 103.091C26.8413 103.091 26.5288 103.179 26.2617 103.355C25.9975 103.528 25.793 103.756 25.6481 104.037C25.5061 104.315 25.435 104.618 25.435 104.945V105.69C25.435 106.128 25.5117 106.5 25.6652 106.807C25.8214 107.114 26.0387 107.348 26.3171 107.51C26.5956 107.669 26.9208 107.748 27.293 107.748C27.5345 107.748 27.7546 107.714 27.9535 107.646C28.1524 107.575 28.3242 107.47 28.4691 107.331C28.614 107.192 28.7248 107.02 28.8015 106.815L30.0075 107.033C29.9109 107.388 29.7376 107.699 29.4876 107.966C29.2404 108.23 28.9294 108.436 28.5544 108.584C28.1822 108.729 27.7575 108.801 27.2802 108.801ZM31.3822 111.123V102.123H32.6265V103.185H32.733C32.8069 103.048 32.9134 102.891 33.0526 102.712C33.1918 102.533 33.385 102.376 33.6322 102.243C33.8793 102.106 34.206 102.038 34.6123 102.038C35.1407 102.038 35.6123 102.172 36.027 102.439C36.4418 102.706 36.7671 103.091 37.0029 103.594C37.2415 104.097 37.3609 104.702 37.3609 105.409C37.3609 106.116 37.243 106.723 37.0072 107.229C36.7714 107.731 36.4475 108.119 36.0356 108.392C35.6236 108.662 35.1535 108.797 34.6251 108.797C34.2273 108.797 33.902 108.73 33.6492 108.597C33.3992 108.463 33.2032 108.307 33.0611 108.128C32.9191 107.949 32.8097 107.79 32.733 107.65H32.6563V111.123H31.3822ZM32.6307 105.396C32.6307 105.856 32.6975 106.26 32.831 106.606C32.9645 106.953 33.1577 107.224 33.4106 107.42C33.6634 107.614 33.9731 107.71 34.3395 107.71C34.7202 107.71 35.0384 107.609 35.2941 107.408C35.5498 107.203 35.743 106.926 35.8736 106.577C36.0072 106.227 36.0739 105.834 36.0739 105.396C36.0739 104.964 36.0086 104.577 35.8779 104.233C35.7501 103.889 35.5569 103.618 35.2984 103.419C35.0427 103.22 34.7231 103.121 34.3395 103.121C33.9702 103.121 33.6577 103.216 33.402 103.406C33.1492 103.597 32.9574 103.862 32.8268 104.203C32.6961 104.544 32.6307 104.942 32.6307 105.396ZM44.7455 108.788C44.1603 108.788 43.6375 108.687 43.1773 108.486C42.7199 108.284 42.3577 108.004 42.0907 107.646C41.8265 107.285 41.6844 106.868 41.6645 106.393H43.0026C43.0196 106.652 43.1063 106.876 43.2625 107.067C43.4216 107.254 43.629 107.399 43.8847 107.501C44.1404 107.604 44.4245 107.655 44.737 107.655C45.0807 107.655 45.3847 107.595 45.6489 107.476C45.916 107.356 46.1248 107.19 46.2753 106.977C46.4259 106.761 46.5012 106.513 46.5012 106.231C46.5012 105.939 46.4259 105.682 46.2753 105.46C46.1276 105.236 45.9103 105.06 45.6233 104.932C45.3392 104.804 44.9955 104.74 44.5921 104.74H43.8549V103.666H44.5921C44.916 103.666 45.2 103.608 45.4444 103.491C45.6915 103.375 45.8847 103.213 46.0239 103.006C46.1631 102.795 46.2327 102.55 46.2327 102.268C46.2327 101.998 46.1716 101.764 46.0495 101.565C45.9302 101.364 45.7597 101.206 45.5381 101.092C45.3194 100.979 45.0608 100.922 44.7625 100.922C44.4785 100.922 44.2128 100.974 43.9657 101.079C43.7213 101.182 43.5225 101.329 43.3691 101.523C43.2157 101.713 43.1333 101.942 43.1219 102.209H41.8478C41.862 101.737 42.0012 101.322 42.2654 100.964C42.5324 100.606 42.8847 100.327 43.3222 100.125C43.7597 99.9232 44.2455 99.8224 44.7796 99.8224C45.3392 99.8224 45.8222 99.9317 46.2285 100.15C46.6375 100.366 46.9529 100.655 47.1745 101.016C47.3989 101.376 47.5097 101.771 47.5069 102.2C47.5097 102.689 47.3733 103.104 47.0978 103.445C46.825 103.785 46.4614 104.014 46.0069 104.131V104.199C46.5864 104.287 47.0353 104.517 47.3535 104.889C47.6745 105.261 47.8336 105.723 47.8307 106.274C47.8336 106.754 47.7 107.185 47.4302 107.565C47.1631 107.946 46.7981 108.246 46.335 108.464C45.8719 108.68 45.3421 108.788 44.7455 108.788ZM52.3599 108.814C51.6866 108.811 51.1113 108.633 50.634 108.281C50.1567 107.929 49.7917 107.416 49.5389 106.743C49.286 106.07 49.1596 105.258 49.1596 104.31C49.1596 103.364 49.286 102.555 49.5389 101.885C49.7945 101.214 50.161 100.703 50.6383 100.351C51.1184 99.9985 51.6923 99.8224 52.3599 99.8224C53.0275 99.8224 53.5999 99.9999 54.0772 100.355C54.5545 100.707 54.9195 101.219 55.1724 101.889C55.4281 102.557 55.5559 103.364 55.5559 104.31C55.5559 105.261 55.4295 106.074 55.1766 106.747C54.9238 107.418 54.5587 107.93 54.0815 108.285C53.6042 108.638 53.0303 108.814 52.3599 108.814ZM52.3599 107.676C52.9508 107.676 53.4124 107.388 53.7448 106.811C54.08 106.234 54.2477 105.4 54.2477 104.31C54.2477 103.585 54.171 102.973 54.0175 102.473C53.867 101.97 53.6496 101.589 53.3656 101.331C53.0843 101.07 52.7491 100.939 52.3599 100.939C51.7718 100.939 51.3102 101.229 50.9749 101.808C50.6397 102.388 50.4707 103.222 50.4678 104.31C50.4678 105.037 50.5431 105.652 50.6937 106.155C50.8471 106.655 51.0644 107.034 51.3457 107.293C51.6269 107.548 51.965 107.676 52.3599 107.676ZM63.877 103.751V104.859H60.0077V103.751H63.877ZM76.1941 104.305C76.1941 105.237 76.0237 106.038 75.6828 106.709C75.3419 107.376 74.8745 107.891 74.2808 108.251C73.6899 108.609 73.018 108.788 72.2652 108.788C71.5095 108.788 70.8348 108.609 70.241 108.251C69.6501 107.891 69.1842 107.375 68.8433 106.704C68.5024 106.034 68.3319 105.234 68.3319 104.305C68.3319 103.373 68.5024 102.574 68.8433 101.906C69.1842 101.236 69.6501 100.722 70.241 100.364C70.8348 100.003 71.5095 99.8224 72.2652 99.8224C73.018 99.8224 73.6899 100.003 74.2808 100.364C74.8745 100.722 75.3419 101.236 75.6828 101.906C76.0237 102.574 76.1941 103.373 76.1941 104.305ZM74.8902 104.305C74.8902 103.595 74.7751 102.997 74.545 102.511C74.3177 102.023 74.0052 101.653 73.6075 101.403C73.2126 101.15 72.7652 101.024 72.2652 101.024C71.7623 101.024 71.3135 101.15 70.9186 101.403C70.5237 101.653 70.2112 102.023 69.9811 102.511C69.7538 102.997 69.6402 103.595 69.6402 104.305C69.6402 105.016 69.7538 105.615 69.9811 106.104C70.2112 106.589 70.5237 106.959 70.9186 107.212C71.3135 107.462 71.7623 107.587 72.2652 107.587C72.7652 107.587 73.2126 107.462 73.6075 107.212C74.0052 106.959 74.3177 106.589 74.545 106.104C74.7751 105.615 74.8902 105.016 74.8902 104.305ZM80.3707 108.801C79.7371 108.801 79.1917 108.658 78.7343 108.371C78.2798 108.081 77.9303 107.682 77.686 107.173C77.4417 106.665 77.3195 106.082 77.3195 105.426C77.3195 104.761 77.4445 104.175 77.6945 103.666C77.9445 103.155 78.2968 102.756 78.7513 102.469C79.2059 102.182 79.7414 102.038 80.3579 102.038C80.855 102.038 81.2982 102.131 81.6874 102.315C82.0766 102.497 82.3906 102.753 82.6292 103.082C82.8707 103.412 83.0141 103.797 83.0596 104.237H81.8195C81.7513 103.93 81.5951 103.666 81.3508 103.445C81.1093 103.223 80.7854 103.112 80.3792 103.112C80.0241 103.112 79.713 103.206 79.446 103.393C79.1817 103.578 78.9758 103.842 78.8281 104.186C78.6803 104.527 78.6065 104.93 78.6065 105.396C78.6065 105.873 78.6789 106.285 78.8238 106.632C78.9687 106.979 79.1732 107.247 79.4374 107.437C79.7045 107.628 80.0184 107.723 80.3792 107.723C80.6207 107.723 80.8394 107.679 81.0354 107.591C81.2343 107.5 81.4005 107.371 81.534 107.203C81.6704 107.035 81.7656 106.834 81.8195 106.598H83.0596C83.0141 107.021 82.8763 107.399 82.6462 107.731C82.4161 108.064 82.1079 108.325 81.7215 108.516C81.338 108.706 80.8877 108.801 80.3707 108.801ZM87.3576 102.123V103.146H83.7823V102.123H87.3576ZM84.7411 100.555H86.0152V106.747C86.0152 106.994 86.0522 107.18 86.126 107.305C86.1999 107.427 86.2951 107.511 86.4115 107.557C86.5309 107.599 86.6601 107.621 86.7993 107.621C86.9016 107.621 86.9911 107.614 87.0678 107.599C87.1445 107.585 87.2041 107.574 87.2468 107.565L87.4769 108.618C87.403 108.646 87.2979 108.675 87.1615 108.703C87.0252 108.734 86.8547 108.751 86.6502 108.754C86.3149 108.76 86.0024 108.7 85.7127 108.575C85.4229 108.45 85.1885 108.257 85.0095 107.996C84.8306 107.734 84.7411 107.406 84.7411 107.011V100.555ZM91.9798 108.669L95.7894 101.135V101.071H91.3832V99.9417H97.1531V101.109L93.3562 108.669H91.9798Z" fill="#EFEFEF"/>
<rect x="16" y="118.669" width="12" height="12" rx="4" fill="#2A85FF"/>
<path d="M35.8182 128.669H32.8608V119.942H35.8778C36.7443 119.942 37.4886 120.116 38.1108 120.466C38.7358 120.812 39.2159 121.311 39.5511 121.962C39.8864 122.612 40.054 123.391 40.054 124.297C40.054 125.206 39.8849 125.987 39.5469 126.641C39.2116 127.294 38.7273 127.795 38.0938 128.145C37.4631 128.494 36.7045 128.669 35.8182 128.669ZM34.4418 127.301H35.7415C36.3494 127.301 36.8565 127.19 37.2628 126.969C37.669 126.744 37.9744 126.41 38.179 125.967C38.3835 125.521 38.4858 124.964 38.4858 124.297C38.4858 123.629 38.3835 123.075 38.179 122.635C37.9744 122.192 37.6719 121.861 37.2713 121.642C36.8736 121.42 36.3793 121.31 35.7884 121.31H34.4418V127.301ZM44.2657 128.797C43.6094 128.797 43.0426 128.66 42.5654 128.388C42.0909 128.112 41.7259 127.723 41.4702 127.22C41.2145 126.714 41.0867 126.119 41.0867 125.435C41.0867 124.761 41.2145 124.17 41.4702 123.662C41.7287 123.15 42.0895 122.753 42.5526 122.469C43.0157 122.182 43.5597 122.038 44.1847 122.038C44.5881 122.038 44.9688 122.104 45.3267 122.234C45.6875 122.362 46.0057 122.561 46.2813 122.831C46.5597 123.101 46.7784 123.445 46.9375 123.862C47.0966 124.277 47.1762 124.771 47.1762 125.345V125.818H41.8111V124.778H45.6975C45.6946 124.483 45.6307 124.22 45.5057 123.99C45.3807 123.757 45.206 123.574 44.9816 123.44C44.76 123.307 44.5014 123.24 44.206 123.24C43.8907 123.24 43.6137 123.317 43.375 123.47C43.1364 123.621 42.9503 123.82 42.8168 124.067C42.6861 124.311 42.6193 124.579 42.6165 124.872V125.78C42.6165 126.16 42.6861 126.487 42.8253 126.76C42.9645 127.03 43.1591 127.237 43.4091 127.382C43.6591 127.524 43.9517 127.595 44.287 127.595C44.5114 127.595 44.7145 127.564 44.8963 127.501C45.0782 127.436 45.2358 127.341 45.3693 127.216C45.5029 127.091 45.6037 126.936 45.6719 126.751L47.1122 126.913C47.0213 127.294 46.848 127.626 46.5924 127.91C46.3395 128.192 46.0157 128.41 45.6208 128.567C45.2259 128.72 44.7742 128.797 44.2657 128.797ZM53.5345 123.854L52.1283 124.007C52.0885 123.865 52.0189 123.731 51.9194 123.606C51.8229 123.481 51.6922 123.381 51.5274 123.304C51.3626 123.227 51.1609 123.189 50.9223 123.189C50.6013 123.189 50.3314 123.258 50.1126 123.398C49.8967 123.537 49.7902 123.717 49.793 123.939C49.7902 124.129 49.8598 124.284 50.0018 124.403C50.1467 124.523 50.3854 124.621 50.7177 124.697L51.8342 124.936C52.4535 125.07 52.9138 125.281 53.2149 125.571C53.5189 125.861 53.6723 126.24 53.6751 126.709C53.6723 127.121 53.5515 127.484 53.3129 127.8C53.0771 128.112 52.749 128.356 52.3285 128.533C51.9081 128.709 51.4251 128.797 50.8797 128.797C50.0785 128.797 49.4337 128.629 48.945 128.294C48.4564 127.956 48.1652 127.486 48.0714 126.883L49.5757 126.739C49.6439 127.034 49.7888 127.257 50.0104 127.408C50.2319 127.558 50.5203 127.633 50.8754 127.633C51.2419 127.633 51.5359 127.558 51.7575 127.408C51.9819 127.257 52.0942 127.071 52.0942 126.849C52.0942 126.662 52.0217 126.507 51.8768 126.385C51.7348 126.263 51.5132 126.169 51.2121 126.104L50.0956 125.869C49.4677 125.739 49.0033 125.518 48.7021 125.209C48.401 124.896 48.2518 124.501 48.2547 124.024C48.2518 123.621 48.3612 123.271 48.5828 122.976C48.8072 122.677 49.1183 122.447 49.516 122.285C49.9166 122.121 50.3783 122.038 50.901 122.038C51.668 122.038 52.2717 122.202 52.7121 122.528C53.1552 122.855 53.4294 123.297 53.5345 123.854ZM56.2334 126.615L56.2291 124.753H56.4763L58.8286 122.123H60.6311L57.7377 125.345H57.4181L56.2334 126.615ZM54.8271 128.669V119.942H56.3698V128.669H54.8271ZM58.9351 128.669L56.8044 125.69L57.8442 124.604L60.7803 128.669H58.9351ZM64.8076 122.123V123.317H61.0449V122.123H64.8076ZM61.9738 120.555H63.5164V126.7C63.5164 126.908 63.5477 127.067 63.6102 127.177C63.6755 127.285 63.7608 127.359 63.8659 127.399C63.971 127.439 64.0875 127.459 64.2153 127.459C64.3119 127.459 64.4 127.452 64.4795 127.437C64.5619 127.423 64.6244 127.41 64.667 127.399L64.927 128.605C64.8446 128.633 64.7267 128.665 64.5733 128.699C64.4227 128.733 64.238 128.753 64.0193 128.758C63.6329 128.77 63.2849 128.712 62.9753 128.584C62.6656 128.453 62.4199 128.251 62.238 127.979C62.0591 127.706 61.971 127.365 61.9738 126.956V120.555ZM68.7626 128.797C68.1234 128.797 67.5694 128.656 67.1006 128.375C66.6319 128.094 66.2683 127.7 66.0097 127.195C65.754 126.689 65.6262 126.098 65.6262 125.422C65.6262 124.746 65.754 124.153 66.0097 123.645C66.2683 123.136 66.6319 122.741 67.1006 122.46C67.5694 122.179 68.1234 122.038 68.7626 122.038C69.4018 122.038 69.9558 122.179 70.4245 122.46C70.8933 122.741 71.2555 123.136 71.5112 123.645C71.7697 124.153 71.8989 124.746 71.8989 125.422C71.8989 126.098 71.7697 126.689 71.5112 127.195C71.2555 127.7 70.8933 128.094 70.4245 128.375C69.9558 128.656 69.4018 128.797 68.7626 128.797ZM68.7711 127.561C69.1177 127.561 69.4075 127.466 69.6404 127.275C69.8734 127.082 70.0467 126.824 70.1603 126.5C70.2768 126.176 70.335 125.815 70.335 125.418C70.335 125.017 70.2768 124.655 70.1603 124.331C70.0467 124.004 69.8734 123.744 69.6404 123.551C69.4075 123.358 69.1177 123.261 68.7711 123.261C68.416 123.261 68.1205 123.358 67.8847 123.551C67.6518 123.744 67.4771 124.004 67.3606 124.331C67.2469 124.655 67.1901 125.017 67.1901 125.418C67.1901 125.815 67.2469 126.176 67.3606 126.5C67.4771 126.824 67.6518 127.082 67.8847 127.275C68.1205 127.466 68.416 127.561 68.7711 127.561ZM73.0882 131.123V122.123H74.6053V123.206H74.6948C74.7743 123.047 74.8865 122.878 75.0314 122.699C75.1763 122.517 75.3723 122.362 75.6195 122.234C75.8666 122.104 76.182 122.038 76.5655 122.038C77.0712 122.038 77.5272 122.168 77.9334 122.426C78.3425 122.682 78.6664 123.061 78.905 123.564C79.1465 124.064 79.2672 124.677 79.2672 125.405C79.2672 126.123 79.1493 126.734 78.9135 127.237C78.6777 127.74 78.3567 128.123 77.9505 128.388C77.5442 128.652 77.084 128.784 76.5698 128.784C76.1948 128.784 75.8837 128.722 75.6365 128.597C75.3894 128.472 75.1905 128.321 75.0399 128.145C74.8922 127.966 74.7772 127.797 74.6948 127.638H74.6309V131.123H73.0882ZM74.601 125.396C74.601 125.82 74.6607 126.19 74.78 126.508C74.9022 126.827 75.0769 127.075 75.3041 127.254C75.5343 127.43 75.8127 127.518 76.1394 127.518C76.4803 127.518 76.7658 127.427 76.9959 127.246C77.226 127.061 77.3993 126.81 77.5158 126.491C77.6351 126.17 77.6948 125.805 77.6948 125.396C77.6948 124.99 77.6365 124.629 77.5201 124.314C77.4036 123.998 77.2303 123.751 77.0002 123.572C76.7701 123.393 76.4831 123.304 76.1394 123.304C75.8098 123.304 75.53 123.391 75.2999 123.564C75.0698 123.737 74.8951 123.98 74.7757 124.293C74.6593 124.605 74.601 124.973 74.601 125.396ZM81.4185 128.763C81.16 128.763 80.9384 128.672 80.7537 128.49C80.5691 128.308 80.4782 128.087 80.481 127.825C80.4782 127.57 80.5691 127.351 80.7537 127.169C80.9384 126.987 81.16 126.896 81.4185 126.896C81.6685 126.896 81.8859 126.987 82.0705 127.169C82.258 127.351 82.3532 127.57 82.356 127.825C82.3532 127.998 82.3077 128.156 82.2197 128.298C82.1344 128.44 82.0208 128.554 81.8787 128.639C81.7395 128.722 81.5861 128.763 81.4185 128.763ZM81.4185 124.092C81.16 124.092 80.9384 124.001 80.7537 123.82C80.5691 123.635 80.4782 123.413 80.481 123.155C80.4782 122.899 80.5691 122.68 80.7537 122.498C80.9384 122.314 81.16 122.222 81.4185 122.222C81.6685 122.222 81.8859 122.314 82.0705 122.498C82.258 122.68 82.3532 122.899 82.356 123.155C82.3532 123.325 82.3077 123.481 82.2197 123.623C82.1344 123.766 82.0208 123.879 81.8787 123.964C81.7395 124.05 81.5861 124.092 81.4185 124.092ZM90.2179 119.942V128.669H88.637V121.48H88.5858L86.5446 122.784V121.335L88.7137 119.942H90.2179ZM93.6615 127.476L93.6061 127.945C93.5663 128.302 93.4953 128.666 93.393 129.035C93.2936 129.408 93.1885 129.75 93.0777 130.062C92.9669 130.375 92.8774 130.621 92.8092 130.8H91.7695C91.8092 130.626 91.8632 130.391 91.9314 130.092C92.0024 129.794 92.0706 129.459 92.1359 129.087C92.2013 128.714 92.2453 128.337 92.268 127.953L92.2979 127.476H93.6615ZM95.0948 127.05V125.793L98.7979 119.942H99.8462V121.731H99.207L96.7141 125.682V125.75H101.883V127.05H95.0948ZM99.2581 128.669V126.666L99.2752 126.104V119.942H100.767V128.669H99.2581ZM106.227 128.788C105.593 128.788 105.031 128.682 104.539 128.469C104.051 128.256 103.667 127.964 103.389 127.595C103.113 127.223 102.977 126.801 102.98 126.329C102.977 125.963 103.056 125.626 103.218 125.32C103.38 125.013 103.599 124.757 103.875 124.552C104.153 124.345 104.463 124.213 104.804 124.156V124.097C104.355 123.997 103.991 123.768 103.713 123.41C103.437 123.05 103.301 122.633 103.304 122.162C103.301 121.713 103.426 121.312 103.679 120.96C103.931 120.608 104.278 120.331 104.718 120.129C105.159 119.925 105.662 119.822 106.227 119.822C106.787 119.822 107.285 119.925 107.723 120.129C108.163 120.331 108.51 120.608 108.762 120.96C109.018 121.312 109.146 121.713 109.146 122.162C109.146 122.633 109.005 123.05 108.724 123.41C108.446 123.768 108.086 123.997 107.646 124.097V124.156C107.987 124.213 108.294 124.345 108.566 124.552C108.842 124.757 109.061 125.013 109.223 125.32C109.387 125.626 109.47 125.963 109.47 126.329C109.47 126.801 109.331 127.223 109.052 127.595C108.774 127.964 108.39 128.256 107.902 128.469C107.416 128.682 106.858 128.788 106.227 128.788ZM106.227 127.57C106.554 127.57 106.838 127.514 107.079 127.403C107.321 127.29 107.508 127.131 107.642 126.926C107.775 126.722 107.843 126.486 107.846 126.219C107.843 125.94 107.771 125.695 107.629 125.481C107.49 125.266 107.298 125.097 107.054 124.974C106.812 124.852 106.537 124.791 106.227 124.791C105.914 124.791 105.636 124.852 105.392 124.974C105.147 125.097 104.954 125.266 104.812 125.481C104.673 125.695 104.605 125.94 104.608 126.219C104.605 126.486 104.67 126.722 104.804 126.926C104.937 127.128 105.125 127.285 105.366 127.399C105.61 127.513 105.897 127.57 106.227 127.57ZM106.227 123.594C106.494 123.594 106.73 123.54 106.934 123.432C107.142 123.324 107.305 123.173 107.424 122.98C107.544 122.787 107.605 122.564 107.608 122.311C107.605 122.061 107.545 121.842 107.429 121.655C107.312 121.464 107.15 121.318 106.943 121.216C106.735 121.111 106.497 121.058 106.227 121.058C105.951 121.058 105.708 121.111 105.498 121.216C105.291 121.318 105.129 121.464 105.012 121.655C104.899 121.842 104.843 122.061 104.846 122.311C104.843 122.564 104.9 122.787 105.017 122.98C105.136 123.17 105.299 123.321 105.507 123.432C105.717 123.54 105.957 123.594 106.227 123.594ZM113.785 128.788C113.217 128.788 112.708 128.682 112.259 128.469C111.81 128.253 111.454 127.957 111.19 127.582C110.928 127.207 110.789 126.778 110.772 126.295H112.306C112.335 126.653 112.489 126.946 112.771 127.173C113.052 127.398 113.39 127.51 113.785 127.51C114.094 127.51 114.37 127.439 114.612 127.297C114.853 127.155 115.043 126.957 115.183 126.704C115.322 126.452 115.39 126.163 115.387 125.839C115.39 125.51 115.32 125.217 115.178 124.962C115.036 124.706 114.842 124.506 114.594 124.361C114.347 124.213 114.063 124.139 113.742 124.139C113.481 124.136 113.224 124.185 112.971 124.284C112.718 124.383 112.518 124.514 112.37 124.676L110.942 124.442L111.398 119.942H116.461V121.263H112.707L112.455 123.577H112.506C112.668 123.386 112.897 123.229 113.192 123.104C113.488 122.976 113.812 122.912 114.164 122.912C114.692 122.912 115.164 123.037 115.579 123.287C115.994 123.534 116.32 123.875 116.559 124.31C116.798 124.744 116.917 125.241 116.917 125.801C116.917 126.378 116.783 126.892 116.516 127.344C116.252 127.793 115.884 128.146 115.413 128.405C114.944 128.66 114.401 128.788 113.785 128.788Z" fill="#FCFCFC"/>
</g>
<mask id="path-7-inside-1_141_106" fill="white">
<path d="M123.465 16.7179C121.592 10.7072 115.17 7.30084 109.377 9.76532C99.1423 14.1188 89.5806 19.9549 81.0061 27.1024C72.4316 34.25 64.9695 42.6047 58.8445 51.8882C55.3772 57.1435 57.5718 64.073 63.147 66.9983V66.9983C68.7222 69.9236 75.5573 67.7241 79.1548 62.5571C83.8022 55.8824 89.3314 49.8452 95.6049 44.6157C101.878 39.3862 108.812 35.0343 116.215 31.6646C121.945 29.0561 125.339 22.7287 123.465 16.7179V16.7179Z"/>
</mask>
<path d="M123.465 16.7179C121.592 10.7072 115.17 7.30084 109.377 9.76532C99.1423 14.1188 89.5806 19.9549 81.0061 27.1024C72.4316 34.25 64.9695 42.6047 58.8445 51.8882C55.3772 57.1435 57.5718 64.073 63.147 66.9983V66.9983C68.7222 69.9236 75.5573 67.7241 79.1548 62.5571C83.8022 55.8824 89.3314 49.8452 95.6049 44.6157C101.878 39.3862 108.812 35.0343 116.215 31.6646C121.945 29.0561 125.339 22.7287 123.465 16.7179V16.7179Z" fill="#CABDFF" stroke="white" stroke-width="4" mask="url(#path-7-inside-1_141_106)"/>
<g filter="url(#filter1_d_141_106)">
<path d="M62.7135 154.216C62.7135 154.365 62.7879 153.802 63.0216 153.43C63.1118 153.162 63.3046 152.941 63.5577 152.816C63.683 152.754 63.8193 152.717 63.9589 152.707C64.0984 152.698 64.2385 152.716 64.371 152.761C64.5036 152.805 64.626 152.876 64.7314 152.968C64.8368 153.06 64.923 153.171 64.9852 153.297C65.0473 153.422 65.0842 153.558 65.0937 153.698C65.1031 153.837 65.085 153.977 65.0404 154.11C65.0404 154.811 65.0404 154.779 65.0404 155.247C65.0404 155.714 65.0404 156.118 65.0404 156.522C64.9996 157.143 64.9143 157.761 64.7854 158.371C64.6145 158.887 64.3789 159.38 64.0841 159.837C63.5676 160.414 63.1413 161.066 62.8198 161.771C62.7362 162.118 62.7004 162.476 62.7135 162.833C62.7139 163.163 62.7568 163.492 62.841 163.811C62.4067 163.858 61.9685 163.858 61.5341 163.811C61.1198 163.747 60.5991 162.918 60.4716 162.663C60.4393 162.593 60.3876 162.534 60.3227 162.492C60.2577 162.451 60.1822 162.429 60.1051 162.429C60.028 162.429 59.9525 162.451 59.8875 162.492C59.8225 162.534 59.7708 162.593 59.7385 162.663C59.5048 163.067 58.9948 163.8 58.6229 163.843C57.9216 163.928 56.4448 163.843 55.2973 163.843C55.2973 163.843 55.4885 162.78 55.0529 162.398C54.6173 162.015 54.171 161.569 53.831 161.271L52.9491 160.294C52.3285 159.716 51.8736 158.982 51.6316 158.169C51.4085 157.17 51.4298 156.681 51.6316 156.288C51.8548 155.962 52.1922 155.73 52.5773 155.64C52.886 155.586 53.2033 155.608 53.5016 155.704C53.7102 155.791 53.8904 155.935 54.0223 156.118C54.2666 156.448 54.341 156.607 54.256 156.246C54.171 155.884 54.0435 155.353 53.8204 154.599C53.6398 154.014 53.4591 153.685 53.321 153.292C53.1829 152.899 53.0023 152.527 52.7898 152.038C52.5973 151.539 52.4376 151.028 52.3116 150.508C52.2635 150.294 52.2623 150.072 52.3082 149.858C52.3541 149.643 52.4458 149.441 52.5773 149.265C52.764 149.081 52.996 148.95 53.2498 148.885C53.5035 148.82 53.77 148.822 54.0223 148.893C54.4232 149.067 54.7608 149.36 54.9891 149.733C55.3068 150.246 55.5636 150.796 55.7541 151.369C56.1044 152.281 56.3538 153.229 56.4979 154.195C56.4719 153.625 56.5184 153.054 56.636 152.495C56.695 152.325 56.7916 152.171 56.9185 152.044C57.0455 151.917 57.1996 151.821 57.3691 151.762C57.6848 151.661 58.0205 151.639 58.3466 151.698C58.6718 151.77 58.9591 151.959 59.1541 152.229C59.3981 152.85 59.5381 153.507 59.5685 154.174C59.5995 153.604 59.6994 153.041 59.866 152.495C60.0442 152.246 60.3032 152.065 60.5991 151.985C60.9505 151.922 61.3103 151.922 61.6616 151.985C61.9491 152.083 62.2007 152.264 62.3841 152.506C62.6088 153.069 62.745 153.664 62.7879 154.269" fill="white"/>
<path d="M62.7135 154.216C62.7135 154.365 62.7879 153.802 63.0216 153.43C63.1118 153.162 63.3046 152.941 63.5577 152.816C63.683 152.754 63.8193 152.717 63.9589 152.707C64.0984 152.698 64.2385 152.716 64.371 152.761C64.5036 152.805 64.626 152.876 64.7314 152.968C64.8368 153.06 64.923 153.171 64.9852 153.297C65.0473 153.422 65.0842 153.558 65.0937 153.698C65.1031 153.837 65.085 153.977 65.0404 154.11C65.0404 154.811 65.0404 154.779 65.0404 155.247C65.0404 155.714 65.0404 156.118 65.0404 156.522C64.9996 157.143 64.9143 157.761 64.7854 158.371C64.6145 158.887 64.3789 159.38 64.0841 159.837C63.5676 160.414 63.1413 161.066 62.8198 161.771C62.7362 162.118 62.7004 162.476 62.7135 162.833C62.7139 163.163 62.7568 163.492 62.841 163.811C62.4067 163.858 61.9685 163.858 61.5341 163.811C61.1198 163.747 60.5991 162.918 60.4716 162.663C60.4393 162.593 60.3876 162.534 60.3227 162.492C60.2577 162.451 60.1822 162.429 60.1051 162.429C60.028 162.429 59.9525 162.451 59.8875 162.492C59.8225 162.534 59.7708 162.593 59.7385 162.663C59.5048 163.067 58.9948 163.8 58.6229 163.843C57.9216 163.928 56.4448 163.843 55.2973 163.843C55.2973 163.843 55.4885 162.78 55.0529 162.398C54.6173 162.015 54.171 161.569 53.831 161.271L52.9491 160.294C52.3285 159.716 51.8736 158.982 51.6316 158.169C51.4085 157.17 51.4298 156.681 51.6316 156.288C51.8548 155.962 52.1922 155.73 52.5773 155.64C52.886 155.586 53.2033 155.608 53.5016 155.704C53.7102 155.791 53.8904 155.935 54.0223 156.118C54.2666 156.448 54.341 156.607 54.256 156.246C54.171 155.884 54.0435 155.353 53.8204 154.599C53.6398 154.014 53.4591 153.685 53.321 153.292C53.1829 152.899 53.0023 152.527 52.7898 152.038C52.5973 151.539 52.4376 151.028 52.3116 150.508C52.2635 150.294 52.2623 150.072 52.3082 149.858C52.3541 149.643 52.4458 149.441 52.5773 149.265C52.764 149.081 52.996 148.95 53.2498 148.885C53.5035 148.82 53.77 148.822 54.0223 148.893C54.4232 149.067 54.7608 149.36 54.9891 149.733C55.3068 150.246 55.5636 150.796 55.7541 151.369C56.1044 152.281 56.3538 153.229 56.4979 154.195C56.4719 153.625 56.5184 153.054 56.636 152.495C56.695 152.325 56.7916 152.171 56.9185 152.044C57.0455 151.917 57.1996 151.821 57.3691 151.762C57.6848 151.661 58.0205 151.639 58.3466 151.698C58.6718 151.77 58.9591 151.959 59.1541 152.229C59.3981 152.85 59.5381 153.507 59.5685 154.174C59.5995 153.604 59.6994 153.041 59.866 152.495C60.0442 152.246 60.3032 152.065 60.5991 151.985C60.9505 151.922 61.3103 151.922 61.6616 151.985C61.9491 152.083 62.2007 152.264 62.3841 152.506C62.5782 153.056 62.6892 153.633 62.7135 154.216V154.216Z" stroke="black" stroke-width="0.75" stroke-linejoin="round"/>
<path d="M61.6829 160.676V157" stroke="black" stroke-width="0.75" stroke-linecap="round"/>
<path d="M59.5366 160.687L59.526 157" stroke="black" stroke-width="0.75" stroke-linecap="round"/>
<path d="M57.4222 157.032L57.4435 160.665" stroke="black" stroke-width="0.75" stroke-linecap="round"/>
</g>
<mask id="path-13-inside-2_141_106" fill="white">
<path d="M166.474 12.83C167.239 6.58069 162.788 0.833794 156.493 0.69596C136.082 0.249014 115.918 5.29483 98.1226 15.3021C92.6348 18.3882 91.4146 25.5543 95.0331 30.7067V30.7067C98.6516 35.859 105.736 37.0307 111.299 34.0828C124.366 27.1588 138.927 23.5152 153.715 23.4691C160.011 23.4495 165.708 19.0794 166.474 12.83V12.83Z"/>
</mask>
<path d="M166.474 12.83C167.239 6.58069 162.788 0.833794 156.493 0.69596C136.082 0.249014 115.918 5.29483 98.1226 15.3021C92.6348 18.3882 91.4146 25.5543 95.0331 30.7067V30.7067C98.6516 35.859 105.736 37.0307 111.299 34.0828C124.366 27.1588 138.927 23.5152 153.715 23.4691C160.011 23.4495 165.708 19.0794 166.474 12.83V12.83Z" fill="#B5E4CA" stroke="white" stroke-width="4" mask="url(#path-13-inside-2_141_106)"/>
<path fill-rule="evenodd" clip-rule="evenodd" d="M17 264.669H16C15.4477 264.669 15 265.117 15 265.669V279.669C15 280.221 15.4477 280.669 16 280.669H24C24.5523 280.669 25 280.221 25 279.669V265.669C25 265.117 24.5523 264.669 24 264.669H23C23 265.497 22.3284 266.169 21.5 266.169H18.5C17.6716 266.169 17 265.497 17 264.669ZM24 262.669C25.6569 262.669 27 264.012 27 265.669V279.669C27 281.326 25.6569 282.669 24 282.669H16C14.3431 282.669 13 281.326 13 279.669V265.669C13 264.012 14.3431 262.669 16 262.669H24Z" fill="#1E1B25"/>
<path d="M8.95881 297.942H10.5568L13.3352 304.726H13.4375L16.2159 297.942H17.8139V306.669H16.5611V300.354H16.4801L13.9062 306.656H12.8665L10.2926 300.349H10.2116V306.669H8.95881V297.942ZM22.2632 306.801C21.6495 306.801 21.114 306.66 20.6566 306.379C20.1992 306.098 19.8441 305.704 19.5913 305.199C19.3385 304.693 19.212 304.102 19.212 303.426C19.212 302.747 19.3385 302.153 19.5913 301.645C19.8441 301.136 20.1992 300.741 20.6566 300.46C21.114 300.179 21.6495 300.038 22.2632 300.038C22.8768 300.038 23.4123 300.179 23.8697 300.46C24.3271 300.741 24.6822 301.136 24.935 301.645C25.1879 302.153 25.3143 302.747 25.3143 303.426C25.3143 304.102 25.1879 304.693 24.935 305.199C24.6822 305.704 24.3271 306.098 23.8697 306.379C23.4123 306.66 22.8768 306.801 22.2632 306.801ZM22.2674 305.731C22.6652 305.731 22.9947 305.626 23.2561 305.416C23.5174 305.206 23.7106 304.926 23.8356 304.577C23.9635 304.227 24.0274 303.842 24.0274 303.422C24.0274 303.004 23.9635 302.621 23.8356 302.271C23.7106 301.919 23.5174 301.636 23.2561 301.423C22.9947 301.21 22.6652 301.104 22.2674 301.104C21.8669 301.104 21.5345 301.21 21.2703 301.423C21.0089 301.636 20.8143 301.919 20.6865 302.271C20.5615 302.621 20.499 303.004 20.499 303.422C20.499 303.842 20.5615 304.227 20.6865 304.577C20.8143 304.926 21.0089 305.206 21.2703 305.416C21.5345 305.626 21.8669 305.731 22.2674 305.731ZM26.7188 306.669V297.942H27.993V301.185H28.0697C28.1435 301.048 28.2501 300.891 28.3893 300.712C28.5285 300.533 28.7216 300.376 28.9688 300.243C29.216 300.106 29.5427 300.038 29.9489 300.038C30.4773 300.038 30.9489 300.172 31.3637 300.439C31.7785 300.706 32.1038 301.091 32.3395 301.594C32.5782 302.097 32.6975 302.702 32.6975 303.409C32.6975 304.116 32.5796 304.723 32.3438 305.229C32.108 305.731 31.7841 306.119 31.3722 306.392C30.9603 306.662 30.4901 306.797 29.9617 306.797C29.564 306.797 29.2387 306.73 28.9859 306.597C28.7359 306.463 28.5398 306.307 28.3978 306.128C28.2557 305.949 28.1464 305.79 28.0697 305.65H27.9631V306.669H26.7188ZM27.9674 303.396C27.9674 303.856 28.0341 304.26 28.1677 304.606C28.3012 304.953 28.4944 305.224 28.7472 305.42C29.0001 305.614 29.3097 305.71 29.6762 305.71C30.0569 305.71 30.3751 305.609 30.6307 305.408C30.8864 305.203 31.0796 304.926 31.2103 304.577C31.3438 304.227 31.4106 303.834 31.4106 303.396C31.4106 302.964 31.3452 302.577 31.2145 302.233C31.0867 301.889 30.8935 301.618 30.635 301.419C30.3793 301.22 30.0597 301.121 29.6762 301.121C29.3069 301.121 28.9944 301.216 28.7387 301.406C28.4859 301.597 28.2941 301.862 28.1634 302.203C28.0327 302.544 27.9674 302.942 27.9674 303.396ZM34.0083 306.669V300.123H35.2824V306.669H34.0083ZM34.6517 299.114C34.4301 299.114 34.2398 299.04 34.0807 298.892C33.9244 298.741 33.8463 298.562 33.8463 298.355C33.8463 298.145 33.9244 297.966 34.0807 297.818C34.2398 297.668 34.4301 297.592 34.6517 297.592C34.8733 297.592 35.0622 297.668 35.2185 297.818C35.3776 297.966 35.4571 298.145 35.4571 298.355C35.4571 298.562 35.3776 298.741 35.2185 298.892C35.0622 299.04 34.8733 299.114 34.6517 299.114ZM38.1507 297.942V306.669H36.8765V297.942H38.1507ZM42.5658 306.801C41.921 306.801 41.3656 306.663 40.8996 306.388C40.4366 306.109 40.0786 305.719 39.8258 305.216C39.5758 304.71 39.4508 304.118 39.4508 303.439C39.4508 302.768 39.5758 302.177 39.8258 301.666C40.0786 301.155 40.4309 300.756 40.8826 300.469C41.3371 300.182 41.8684 300.038 42.4763 300.038C42.8457 300.038 43.2036 300.099 43.5502 300.222C43.8968 300.344 44.2079 300.535 44.4835 300.797C44.759 301.058 44.9763 301.398 45.1354 301.815C45.2945 302.23 45.3741 302.734 45.3741 303.328V303.78H40.171V302.825H44.1255C44.1255 302.49 44.0573 302.193 43.921 301.935C43.7846 301.673 43.5928 301.467 43.3457 301.317C43.1013 301.166 42.8144 301.091 42.4849 301.091C42.1269 301.091 41.8144 301.179 41.5474 301.355C41.2832 301.528 41.0786 301.756 40.9337 302.037C40.7917 302.315 40.7207 302.618 40.7207 302.945V303.69C40.7207 304.128 40.7974 304.5 40.9508 304.807C41.107 305.114 41.3244 305.348 41.6028 305.51C41.8812 305.669 42.2065 305.748 42.5786 305.748C42.8201 305.748 43.0403 305.714 43.2391 305.646C43.438 305.575 43.6099 305.47 43.7548 305.331C43.8996 305.192 44.0104 305.02 44.0871 304.815L45.2931 305.033C45.1965 305.388 45.0232 305.699 44.7732 305.966C44.5261 306.23 44.215 306.436 43.84 306.584C43.4678 306.729 43.0431 306.801 42.5658 306.801Z" fill="#6F767E"/>
<path d="M9.02983 328.97V326.875L15.2017 317.123H16.9489V320.106H15.8835L11.7287 326.69V326.804H20.3438V328.97H9.02983ZM15.9688 331.669V328.331L15.9972 327.393V317.123H18.483V331.669H15.9688ZM23.415 331.825C22.9841 331.825 22.6148 331.674 22.307 331.371C21.9993 331.068 21.8478 330.698 21.8525 330.263C21.8478 329.837 21.9993 329.472 22.307 329.169C22.6148 328.866 22.9841 328.714 23.415 328.714C23.8317 328.714 24.1939 328.866 24.5016 329.169C24.8141 329.472 24.9728 329.837 24.9775 330.263C24.9728 330.552 24.897 330.814 24.7502 331.051C24.6082 331.288 24.4188 331.477 24.182 331.619C23.95 331.757 23.6943 331.825 23.415 331.825ZM31.8271 331.868C30.7713 331.868 29.8338 331.69 29.0146 331.335C28.2002 330.98 27.561 330.495 27.097 329.879C26.6377 329.259 26.4105 328.556 26.4152 327.77C26.4105 327.159 26.543 326.598 26.8129 326.087C27.0828 325.575 27.4474 325.149 27.9067 324.808C28.3707 324.463 28.8868 324.242 29.455 324.148V324.048C28.7069 323.882 28.1008 323.501 27.6368 322.905C27.1775 322.303 26.9502 321.61 26.955 320.824C26.9502 320.076 27.1586 319.408 27.58 318.821C28.0014 318.234 28.579 317.772 29.3129 317.436C30.0468 317.095 30.8849 316.925 31.8271 316.925C32.7599 316.925 33.5909 317.095 34.32 317.436C35.0539 317.772 35.6316 318.234 36.053 318.821C36.4791 319.408 36.6922 320.076 36.6922 320.824C36.6922 321.61 36.4578 322.303 35.9891 322.905C35.525 323.501 34.9261 323.882 34.1922 324.048V324.148C34.7604 324.242 35.2717 324.463 35.7263 324.808C36.1856 325.149 36.5501 325.575 36.82 326.087C37.0947 326.598 37.232 327.159 37.232 327.77C37.232 328.556 37 329.259 36.5359 329.879C36.0719 330.495 35.4327 330.98 34.6183 331.335C33.8087 331.69 32.8783 331.868 31.8271 331.868ZM31.8271 329.837C32.3716 329.837 32.8451 329.744 33.2476 329.56C33.65 329.37 33.9625 329.105 34.1851 328.764C34.4076 328.423 34.5213 328.03 34.526 327.585C34.5213 327.121 34.4005 326.712 34.1638 326.356C33.9318 325.997 33.6122 325.715 33.205 325.511C32.8025 325.308 32.3432 325.206 31.8271 325.206C31.3063 325.206 30.8423 325.308 30.4351 325.511C30.0279 325.715 29.7059 325.997 29.4692 326.356C29.2372 326.712 29.1235 327.121 29.1283 327.585C29.1235 328.03 29.2324 328.423 29.455 328.764C29.6775 329.1 29.99 329.363 30.3925 329.552C30.7997 329.742 31.2779 329.837 31.8271 329.837ZM31.8271 323.21C32.2722 323.21 32.6652 323.12 33.0061 322.94C33.3518 322.76 33.624 322.509 33.8229 322.187C34.0217 321.865 34.1235 321.494 34.1283 321.072C34.1235 320.656 34.0241 320.291 33.83 319.979C33.6358 319.661 33.366 319.418 33.0203 319.247C32.6747 319.072 32.2769 318.984 31.8271 318.984C31.3679 318.984 30.963 319.072 30.6126 319.247C30.267 319.418 29.9971 319.661 29.803 319.979C29.6136 320.291 29.5213 320.656 29.526 321.072C29.5213 321.494 29.616 321.865 29.8101 322.187C30.0089 322.505 30.2812 322.756 30.6268 322.94C30.9772 323.12 31.3773 323.21 31.8271 323.21ZM46.9438 328.942V328.175C46.9438 327.611 47.0622 327.093 47.2989 326.619C47.5404 326.146 47.8908 325.765 48.3501 325.476C48.8094 325.187 49.3657 325.043 50.0191 325.043C50.6915 325.043 51.2549 325.187 51.7094 325.476C52.164 325.76 52.5073 326.139 52.7393 326.612C52.976 327.086 53.0944 327.606 53.0944 328.175V328.942C53.0944 329.505 52.976 330.024 52.7393 330.497C52.5025 330.971 52.1545 331.352 51.6952 331.641C51.2407 331.929 50.682 332.074 50.0191 332.074C49.3562 332.074 48.7951 331.929 48.3359 331.641C47.8766 331.352 47.5286 330.971 47.2918 330.497C47.0598 330.024 46.9438 329.505 46.9438 328.942ZM48.7975 328.175V328.942C48.7975 329.316 48.8875 329.659 49.0674 329.972C49.2473 330.284 49.5646 330.44 50.0191 330.44C50.4784 330.44 50.7933 330.286 50.9637 329.979C51.1389 329.666 51.2265 329.32 51.2265 328.942V328.175C51.2265 327.796 51.1436 327.45 50.9779 327.138C50.8122 326.82 50.4926 326.662 50.0191 326.662C49.574 326.662 49.2592 326.82 49.0745 327.138C48.8898 327.45 48.7975 327.796 48.7975 328.175ZM39.5504 320.618V319.851C39.5504 319.283 39.6711 318.762 39.9126 318.288C40.154 317.815 40.5044 317.436 40.9637 317.152C41.423 316.863 41.9793 316.719 42.6327 316.719C43.3004 316.719 43.8614 316.863 44.316 317.152C44.7753 317.436 45.1209 317.815 45.3529 318.288C45.5849 318.762 45.7009 319.283 45.7009 319.851V320.618C45.7009 321.186 45.5826 321.707 45.3458 322.18C45.1138 322.649 44.7682 323.025 44.3089 323.31C43.8496 323.594 43.2909 323.736 42.6327 323.736C41.9651 323.736 41.4017 323.594 40.9424 323.31C40.4879 323.025 40.1422 322.647 39.9055 322.173C39.6687 321.7 39.5504 321.181 39.5504 320.618ZM41.4183 319.851V320.618C41.4183 320.997 41.5058 321.342 41.681 321.655C41.861 321.963 42.1782 322.116 42.6327 322.116C43.0873 322.116 43.3998 321.963 43.5702 321.655C43.7454 321.342 43.833 320.997 43.833 320.618V319.851C43.833 319.472 43.7502 319.126 43.5844 318.814C43.4187 318.497 43.1015 318.338 42.6327 318.338C42.1829 318.338 41.8681 318.497 41.6881 318.814C41.5082 319.131 41.4183 319.477 41.4183 319.851ZM40.36 331.669L50.36 317.123H52.1356L42.1356 331.669H40.36Z" fill="#272B30"/>
<path fill-rule="evenodd" clip-rule="evenodd" d="M134 264.669H122C121.448 264.669 121 265.117 121 265.669V279.669C121 280.221 121.448 280.669 122 280.669H134C134.552 280.669 135 280.221 135 279.669V265.669C135 265.117 134.552 264.669 134 264.669ZM122 262.669C120.343 262.669 119 264.012 119 265.669V279.669C119 281.326 120.343 282.669 122 282.669H134C135.657 282.669 137 281.326 137 279.669V265.669C137 264.012 135.657 262.669 134 262.669H122Z" fill="#83BF6E"/>
<path d="M129 278.669C129 279.221 128.552 279.669 128 279.669C127.448 279.669 127 279.221 127 278.669C127 278.117 127.448 277.669 128 277.669C128.552 277.669 129 278.117 129 278.669Z" fill="#83BF6E"/>
<path d="M116.528 299.075V297.942H123.283V299.075H120.56V306.669H119.247V299.075H116.528ZM125.567 306.814C125.152 306.814 124.777 306.737 124.442 306.584C124.107 306.427 123.841 306.202 123.645 305.906C123.452 305.611 123.355 305.248 123.355 304.82C123.355 304.45 123.427 304.146 123.569 303.908C123.711 303.669 123.902 303.48 124.144 303.341C124.385 303.202 124.655 303.097 124.954 303.025C125.252 302.954 125.556 302.9 125.865 302.864C126.257 302.818 126.576 302.781 126.82 302.753C127.064 302.722 127.242 302.672 127.353 302.604C127.463 302.535 127.519 302.425 127.519 302.271V302.241C127.519 301.869 127.414 301.581 127.204 301.376C126.996 301.172 126.686 301.07 126.275 301.07C125.846 301.07 125.507 301.165 125.26 301.355C125.016 301.543 124.847 301.751 124.753 301.981L123.556 301.709C123.698 301.311 123.905 300.99 124.178 300.746C124.454 300.498 124.77 300.32 125.128 300.209C125.486 300.095 125.863 300.038 126.257 300.038C126.519 300.038 126.796 300.07 127.088 300.132C127.384 300.192 127.659 300.302 127.915 300.464C128.174 300.626 128.385 300.858 128.55 301.159C128.715 301.457 128.797 301.845 128.797 302.322V306.669H127.553V305.774H127.502C127.419 305.939 127.296 306.101 127.131 306.26C126.966 306.419 126.755 306.551 126.496 306.656C126.238 306.761 125.928 306.814 125.567 306.814ZM125.844 305.791C126.196 305.791 126.498 305.722 126.748 305.582C127 305.443 127.192 305.261 127.323 305.037C127.456 304.81 127.523 304.567 127.523 304.308V303.464C127.478 303.51 127.39 303.552 127.259 303.592C127.131 303.629 126.985 303.662 126.82 303.69C126.655 303.716 126.495 303.74 126.338 303.763C126.182 303.783 126.052 303.8 125.946 303.814C125.699 303.845 125.473 303.898 125.269 303.972C125.067 304.045 124.905 304.152 124.783 304.291C124.664 304.427 124.604 304.609 124.604 304.837C124.604 305.152 124.721 305.391 124.954 305.552C125.186 305.712 125.483 305.791 125.844 305.791ZM130.477 306.669V297.942H131.751V301.185H131.827C131.901 301.048 132.008 300.891 132.147 300.712C132.286 300.533 132.479 300.376 132.727 300.243C132.974 300.106 133.3 300.038 133.707 300.038C134.235 300.038 134.707 300.172 135.122 300.439C135.536 300.706 135.862 301.091 136.097 301.594C136.336 302.097 136.455 302.702 136.455 303.409C136.455 304.116 136.337 304.723 136.102 305.229C135.866 305.731 135.542 306.119 135.13 306.392C134.718 306.662 134.248 306.797 133.72 306.797C133.322 306.797 132.997 306.73 132.744 306.597C132.494 306.463 132.298 306.307 132.156 306.128C132.014 305.949 131.904 305.79 131.827 305.65H131.721V306.669H130.477ZM131.725 303.396C131.725 303.856 131.792 304.26 131.925 304.606C132.059 304.953 132.252 305.224 132.505 305.42C132.758 305.614 133.068 305.71 133.434 305.71C133.815 305.71 134.133 305.609 134.389 305.408C134.644 305.203 134.837 304.926 134.968 304.577C135.102 304.227 135.168 303.834 135.168 303.396C135.168 302.964 135.103 302.577 134.972 302.233C134.845 301.889 134.651 301.618 134.393 301.419C134.137 301.22 133.818 301.121 133.434 301.121C133.065 301.121 132.752 301.216 132.497 301.406C132.244 301.597 132.052 301.862 131.921 302.203C131.791 302.544 131.725 302.942 131.725 303.396ZM139.04 297.942V306.669H137.766V297.942H139.04ZM143.455 306.801C142.81 306.801 142.255 306.663 141.789 306.388C141.326 306.109 140.968 305.719 140.715 305.216C140.465 304.71 140.34 304.118 140.34 303.439C140.34 302.768 140.465 302.177 140.715 301.666C140.968 301.155 141.32 300.756 141.772 300.469C142.227 300.182 142.758 300.038 143.366 300.038C143.735 300.038 144.093 300.099 144.44 300.222C144.786 300.344 145.097 300.535 145.373 300.797C145.649 301.058 145.866 301.398 146.025 301.815C146.184 302.23 146.264 302.734 146.264 303.328V303.78H141.06V302.825H145.015C145.015 302.49 144.947 302.193 144.81 301.935C144.674 301.673 144.482 301.467 144.235 301.317C143.991 301.166 143.704 301.091 143.374 301.091C143.016 301.091 142.704 301.179 142.437 301.355C142.173 301.528 141.968 301.756 141.823 302.037C141.681 302.315 141.61 302.618 141.61 302.945V303.69C141.61 304.128 141.687 304.5 141.84 304.807C141.997 305.114 142.214 305.348 142.492 305.51C142.771 305.669 143.096 305.748 143.468 305.748C143.71 305.748 143.93 305.714 144.129 305.646C144.328 305.575 144.499 305.47 144.644 305.331C144.789 305.192 144.9 305.02 144.977 304.815L146.183 305.033C146.086 305.388 145.913 305.699 145.663 305.966C145.416 306.23 145.105 306.436 144.73 306.584C144.357 306.729 143.933 306.801 143.455 306.801ZM150.613 300.123V301.146H147.037V300.123H150.613ZM147.996 298.555H149.27V304.747C149.27 304.994 149.307 305.18 149.381 305.305C149.455 305.427 149.55 305.511 149.667 305.557C149.786 305.599 149.915 305.621 150.054 305.621C150.157 305.621 150.246 305.614 150.323 305.599C150.4 305.585 150.459 305.574 150.502 305.565L150.732 306.618C150.658 306.646 150.553 306.675 150.417 306.703C150.28 306.734 150.11 306.751 149.905 306.754C149.57 306.76 149.258 306.7 148.968 306.575C148.678 306.45 148.444 306.257 148.265 305.996C148.086 305.734 147.996 305.406 147.996 305.011V298.555Z" fill="#6F767E"/>
<path d="M122.669 331.946C121.5 331.946 120.496 331.65 119.658 331.058C118.824 330.462 118.183 329.602 117.733 328.48C117.288 327.353 117.065 325.997 117.065 324.41C117.07 322.824 117.295 321.475 117.74 320.362C118.19 319.245 118.831 318.392 119.665 317.805C120.503 317.218 121.504 316.925 122.669 316.925C123.834 316.925 124.835 317.218 125.673 317.805C126.511 318.392 127.153 319.245 127.598 320.362C128.048 321.48 128.273 322.829 128.273 324.41C128.273 326.001 128.048 327.36 127.598 328.487C127.153 329.609 126.511 330.466 125.673 331.058C124.84 331.65 123.839 331.946 122.669 331.946ZM122.669 329.723C123.578 329.723 124.295 329.275 124.821 328.381C125.351 327.481 125.616 326.158 125.616 324.41C125.616 323.255 125.496 322.284 125.254 321.498C125.013 320.713 124.672 320.121 124.232 319.723C123.791 319.32 123.27 319.119 122.669 319.119C121.765 319.119 121.05 319.569 120.524 320.469C119.999 321.364 119.733 322.677 119.729 324.41C119.724 325.57 119.84 326.546 120.077 327.337C120.318 328.127 120.659 328.724 121.099 329.126C121.54 329.524 122.063 329.723 122.669 329.723ZM131.278 331.825C130.847 331.825 130.478 331.674 130.17 331.371C129.863 331.068 129.711 330.698 129.716 330.263C129.711 329.837 129.863 329.472 130.17 329.169C130.478 328.866 130.847 328.714 131.278 328.714C131.695 328.714 132.057 328.866 132.365 329.169C132.677 329.472 132.836 329.837 132.841 330.263C132.836 330.552 132.76 330.814 132.613 331.051C132.471 331.288 132.282 331.477 132.045 331.619C131.813 331.757 131.558 331.825 131.278 331.825ZM139.799 331.868C138.776 331.868 137.867 331.693 137.071 331.342C136.281 330.992 135.656 330.504 135.196 329.879C134.737 329.254 134.493 328.532 134.465 327.713H137.135C137.159 328.106 137.289 328.449 137.526 328.743C137.763 329.032 138.078 329.257 138.471 329.418C138.864 329.579 139.304 329.659 139.792 329.659C140.312 329.659 140.774 329.569 141.177 329.389C141.579 329.204 141.894 328.949 142.121 328.622C142.348 328.295 142.46 327.919 142.455 327.493C142.46 327.052 142.346 326.664 142.114 326.328C141.882 325.992 141.546 325.729 141.106 325.54C140.67 325.35 140.144 325.256 139.529 325.256H138.243V323.224H139.529C140.035 323.224 140.478 323.137 140.857 322.962C141.24 322.786 141.541 322.54 141.759 322.223C141.977 321.901 142.083 321.529 142.079 321.108C142.083 320.696 141.991 320.338 141.802 320.035C141.617 319.728 141.354 319.489 141.013 319.318C140.677 319.148 140.282 319.062 139.827 319.062C139.382 319.062 138.97 319.143 138.591 319.304C138.213 319.465 137.907 319.695 137.675 319.993C137.443 320.286 137.32 320.637 137.306 321.044H134.77C134.789 320.23 135.024 319.515 135.473 318.899C135.928 318.279 136.534 317.796 137.292 317.45C138.049 317.1 138.899 316.925 139.841 316.925C140.812 316.925 141.655 317.107 142.37 317.472C143.089 317.831 143.646 318.317 144.039 318.927C144.432 319.538 144.628 320.213 144.628 320.952C144.633 321.771 144.392 322.457 143.904 323.011C143.421 323.565 142.786 323.927 142 324.098V324.212C143.023 324.354 143.807 324.732 144.351 325.348C144.901 325.959 145.173 326.719 145.168 327.628C145.168 328.442 144.936 329.171 144.472 329.815C144.013 330.454 143.378 330.956 142.569 331.321C141.764 331.686 140.84 331.868 139.799 331.868ZM154.983 328.942V328.175C154.983 327.611 155.101 327.093 155.338 326.619C155.579 326.146 155.93 325.765 156.389 325.476C156.848 325.187 157.405 325.043 158.058 325.043C158.731 325.043 159.294 325.187 159.749 325.476C160.203 325.76 160.546 326.139 160.778 326.612C161.015 327.086 161.133 327.606 161.133 328.175V328.942C161.133 329.505 161.015 330.024 160.778 330.497C160.542 330.971 160.194 331.352 159.734 331.641C159.28 331.929 158.721 332.074 158.058 332.074C157.395 332.074 156.834 331.929 156.375 331.641C155.916 331.352 155.568 330.971 155.331 330.497C155.099 330.024 154.983 329.505 154.983 328.942ZM156.837 328.175V328.942C156.837 329.316 156.927 329.659 157.106 329.972C157.286 330.284 157.604 330.44 158.058 330.44C158.517 330.44 158.832 330.286 159.003 329.979C159.178 329.666 159.266 329.32 159.266 328.942V328.175C159.266 327.796 159.183 327.45 159.017 327.138C158.851 326.82 158.532 326.662 158.058 326.662C157.613 326.662 157.298 326.82 157.114 327.138C156.929 327.45 156.837 327.796 156.837 328.175ZM147.589 320.618V319.851C147.589 319.283 147.71 318.762 147.952 318.288C148.193 317.815 148.543 317.436 149.003 317.152C149.462 316.863 150.018 316.719 150.672 316.719C151.339 316.719 151.9 316.863 152.355 317.152C152.814 317.436 153.16 317.815 153.392 318.288C153.624 318.762 153.74 319.283 153.74 319.851V320.618C153.74 321.186 153.622 321.707 153.385 322.18C153.153 322.649 152.807 323.025 152.348 323.31C151.889 323.594 151.33 323.736 150.672 323.736C150.004 323.736 149.441 323.594 148.981 323.31C148.527 323.025 148.181 322.647 147.945 322.173C147.708 321.7 147.589 321.181 147.589 320.618ZM149.457 319.851V320.618C149.457 320.997 149.545 321.342 149.72 321.655C149.9 321.963 150.217 322.116 150.672 322.116C151.126 322.116 151.439 321.963 151.609 321.655C151.784 321.342 151.872 320.997 151.872 320.618V319.851C151.872 319.472 151.789 319.126 151.624 318.814C151.458 318.497 151.141 318.338 150.672 318.338C150.222 318.338 149.907 318.497 149.727 318.814C149.547 319.131 149.457 319.477 149.457 319.851ZM148.399 331.669L158.399 317.123H160.175L150.175 331.669H148.399Z" fill="#272B30"/>
<path fill-rule="evenodd" clip-rule="evenodd" d="M243 265.669H229C228.448 265.669 228 266.117 228 266.669V275.669C228 276.221 228.448 276.669 229 276.669H243C243.552 276.669 244 276.221 244 275.669V266.669C244 266.117 243.552 265.669 243 265.669ZM229 263.669C227.343 263.669 226 265.012 226 266.669V275.669C226 277.326 227.343 278.669 229 278.669H243C244.657 278.669 246 277.326 246 275.669V266.669C246 265.012 244.657 263.669 243 263.669H229Z" fill="#2A85FF"/>
<path fill-rule="evenodd" clip-rule="evenodd" d="M225 280.669C225 280.117 225.448 279.669 226 279.669H246C246.552 279.669 247 280.117 247 280.669C247 281.221 246.552 281.669 246 281.669H226C225.448 281.669 225 281.221 225 280.669Z" fill="#2A85FF"/>
<path d="M227.784 306.669H224.959V297.942H227.874C228.729 297.942 229.463 298.116 230.077 298.466C230.69 298.812 231.161 299.311 231.487 299.962C231.817 300.609 231.982 301.386 231.982 302.293C231.982 303.202 231.815 303.983 231.483 304.636C231.153 305.29 230.676 305.793 230.051 306.145C229.426 306.494 228.67 306.669 227.784 306.669ZM226.276 305.518H227.712C228.376 305.518 228.929 305.393 229.369 305.143C229.81 304.891 230.139 304.525 230.358 304.048C230.577 303.568 230.686 302.983 230.686 302.293C230.686 301.608 230.577 301.027 230.358 300.55C230.142 300.072 229.82 299.71 229.391 299.463C228.962 299.216 228.429 299.092 227.793 299.092H226.276V305.518ZM236.218 306.801C235.573 306.801 235.017 306.663 234.552 306.388C234.088 306.109 233.73 305.719 233.478 305.216C233.228 304.71 233.103 304.118 233.103 303.439C233.103 302.768 233.228 302.177 233.478 301.666C233.73 301.155 234.083 300.756 234.534 300.469C234.989 300.182 235.52 300.038 236.128 300.038C236.498 300.038 236.855 300.099 237.202 300.222C237.549 300.344 237.86 300.535 238.135 300.797C238.411 301.058 238.628 301.398 238.787 301.815C238.946 302.23 239.026 302.734 239.026 303.328V303.78H233.823V302.825H237.777C237.777 302.49 237.709 302.193 237.573 301.935C237.436 301.673 237.245 301.467 236.998 301.317C236.753 301.166 236.466 301.091 236.137 301.091C235.779 301.091 235.466 301.179 235.199 301.355C234.935 301.528 234.73 301.756 234.586 302.037C234.444 302.315 234.373 302.618 234.373 302.945V303.69C234.373 304.128 234.449 304.5 234.603 304.807C234.759 305.114 234.976 305.348 235.255 305.51C235.533 305.669 235.858 305.748 236.23 305.748C236.472 305.748 236.692 305.714 236.891 305.646C237.09 305.575 237.262 305.47 237.407 305.331C237.552 305.192 237.662 305.02 237.739 304.815L238.945 305.033C238.848 305.388 238.675 305.699 238.425 305.966C238.178 306.23 237.867 306.436 237.492 306.584C237.12 306.729 236.695 306.801 236.218 306.801ZM245.224 301.722L244.07 301.926C244.021 301.778 243.945 301.638 243.84 301.504C243.737 301.371 243.598 301.261 243.422 301.176C243.246 301.091 243.026 301.048 242.761 301.048C242.401 301.048 242.099 301.129 241.858 301.291C241.617 301.45 241.496 301.656 241.496 301.909C241.496 302.128 241.577 302.304 241.739 302.437C241.901 302.571 242.162 302.68 242.523 302.766L243.563 303.004C244.165 303.143 244.614 303.358 244.909 303.648C245.205 303.937 245.352 304.314 245.352 304.777C245.352 305.169 245.239 305.518 245.011 305.825C244.787 306.129 244.473 306.368 244.07 306.541C243.669 306.714 243.205 306.801 242.676 306.801C241.943 306.801 241.345 306.645 240.882 306.332C240.419 306.017 240.135 305.57 240.03 304.99L241.261 304.802C241.338 305.123 241.496 305.366 241.734 305.531C241.973 305.693 242.284 305.774 242.668 305.774C243.085 305.774 243.419 305.687 243.669 305.514C243.919 305.338 244.044 305.123 244.044 304.871C244.044 304.666 243.967 304.494 243.814 304.355C243.663 304.216 243.432 304.111 243.119 304.04L242.011 303.797C241.401 303.658 240.949 303.436 240.656 303.132C240.367 302.828 240.222 302.443 240.222 301.977C240.222 301.591 240.33 301.253 240.546 300.963C240.761 300.673 241.06 300.447 241.44 300.285C241.821 300.121 242.257 300.038 242.749 300.038C243.456 300.038 244.013 300.192 244.419 300.498C244.825 300.802 245.094 301.21 245.224 301.722ZM247.805 304.449L247.797 302.893H248.018L250.626 300.123H252.152L249.177 303.277H248.977L247.805 304.449ZM246.633 306.669V297.942H247.907V306.669H246.633ZM250.767 306.669L248.423 303.558L249.301 302.668L252.331 306.669H250.767ZM256.248 300.123V301.146H252.673V300.123H256.248ZM253.632 298.555H254.906V304.747C254.906 304.994 254.943 305.18 255.017 305.305C255.091 305.427 255.186 305.511 255.302 305.557C255.422 305.599 255.551 305.621 255.69 305.621C255.792 305.621 255.882 305.614 255.959 305.599C256.035 305.585 256.095 305.574 256.138 305.565L256.368 306.618C256.294 306.646 256.189 306.675 256.052 306.703C255.916 306.734 255.745 306.751 255.541 306.754C255.206 306.76 254.893 306.7 254.603 306.575C254.314 306.45 254.079 306.257 253.9 305.996C253.721 305.734 253.632 305.406 253.632 305.011V298.555ZM260.225 306.801C259.611 306.801 259.075 306.66 258.618 306.379C258.161 306.098 257.806 305.704 257.553 305.199C257.3 304.693 257.173 304.102 257.173 303.426C257.173 302.747 257.3 302.153 257.553 301.645C257.806 301.136 258.161 300.741 258.618 300.46C259.075 300.179 259.611 300.038 260.225 300.038C260.838 300.038 261.374 300.179 261.831 300.46C262.288 300.741 262.644 301.136 262.896 301.645C263.149 302.153 263.276 302.747 263.276 303.426C263.276 304.102 263.149 304.693 262.896 305.199C262.644 305.704 262.288 306.098 261.831 306.379C261.374 306.66 260.838 306.801 260.225 306.801ZM260.229 305.731C260.627 305.731 260.956 305.626 261.217 305.416C261.479 305.206 261.672 304.926 261.797 304.577C261.925 304.227 261.989 303.842 261.989 303.422C261.989 303.004 261.925 302.621 261.797 302.271C261.672 301.919 261.479 301.636 261.217 301.423C260.956 301.21 260.627 301.104 260.229 301.104C259.828 301.104 259.496 301.21 259.232 301.423C258.97 301.636 258.776 301.919 258.648 302.271C258.523 302.621 258.46 303.004 258.46 303.422C258.46 303.842 258.523 304.227 258.648 304.577C258.776 304.926 258.97 305.206 259.232 305.416C259.496 305.626 259.828 305.731 260.229 305.731ZM264.578 309.123V300.123H265.822V301.185H265.929C266.003 301.048 266.109 300.891 266.248 300.712C266.388 300.533 266.581 300.376 266.828 300.243C267.075 300.106 267.402 300.038 267.808 300.038C268.336 300.038 268.808 300.172 269.223 300.439C269.638 300.706 269.963 301.091 270.199 301.594C270.437 302.097 270.557 302.702 270.557 303.409C270.557 304.116 270.439 304.723 270.203 305.229C269.967 305.731 269.643 306.119 269.231 306.392C268.819 306.662 268.349 306.797 267.821 306.797C267.423 306.797 267.098 306.73 266.845 306.597C266.595 306.463 266.399 306.307 266.257 306.128C266.115 305.949 266.005 305.79 265.929 305.65H265.852V309.123H264.578ZM265.827 303.396C265.827 303.856 265.893 304.26 266.027 304.606C266.16 304.953 266.354 305.224 266.606 305.42C266.859 305.614 267.169 305.71 267.535 305.71C267.916 305.71 268.234 305.609 268.49 305.408C268.746 305.203 268.939 304.926 269.069 304.577C269.203 304.227 269.27 303.834 269.27 303.396C269.27 302.964 269.204 302.577 269.074 302.233C268.946 301.889 268.753 301.618 268.494 301.419C268.238 301.22 267.919 301.121 267.535 301.121C267.166 301.121 266.854 301.216 266.598 301.406C266.345 301.597 266.153 301.862 266.023 302.203C265.892 302.544 265.827 302.942 265.827 303.396Z" fill="#6F767E"/>
<path d="M230.342 316.925C231.038 316.929 231.715 317.052 232.374 317.294C233.036 317.531 233.633 317.919 234.163 318.459C234.694 318.994 235.115 319.711 235.428 320.611C235.74 321.51 235.896 322.623 235.896 323.949C235.901 325.199 235.768 326.316 235.499 327.301C235.233 328.281 234.852 329.11 234.355 329.787C233.858 330.464 233.259 330.98 232.558 331.335C231.857 331.69 231.069 331.868 230.193 331.868C229.275 331.868 228.46 331.688 227.75 331.328C227.045 330.968 226.474 330.476 226.038 329.851C225.603 329.226 225.335 328.511 225.236 327.706H227.828C227.961 328.284 228.231 328.743 228.638 329.084C229.05 329.42 229.568 329.588 230.193 329.588C231.202 329.588 231.978 329.15 232.523 328.274C233.067 327.398 233.339 326.181 233.339 324.623H233.24C233.008 325.04 232.707 325.4 232.338 325.703C231.969 326.001 231.55 326.231 231.081 326.392C230.617 326.553 230.125 326.633 229.604 326.633C228.751 326.633 227.984 326.43 227.303 326.023C226.625 325.615 226.088 325.057 225.69 324.347C225.297 323.636 225.098 322.824 225.094 321.91C225.094 320.963 225.312 320.114 225.747 319.361C226.188 318.603 226.801 318.007 227.587 317.571C228.373 317.131 229.291 316.915 230.342 316.925ZM230.349 319.055C229.838 319.055 229.376 319.181 228.964 319.432C228.557 319.678 228.235 320.014 227.999 320.44C227.767 320.862 227.651 321.333 227.651 321.854C227.655 322.37 227.771 322.838 227.999 323.26C228.231 323.681 228.545 324.015 228.943 324.261C229.346 324.507 229.805 324.631 230.321 324.631C230.705 324.631 231.062 324.557 231.393 324.41C231.725 324.264 232.014 324.06 232.26 323.8C232.511 323.534 232.705 323.234 232.842 322.898C232.984 322.561 233.053 322.206 233.048 321.832C233.048 321.335 232.93 320.876 232.693 320.454C232.461 320.033 232.142 319.695 231.734 319.439C231.332 319.183 230.87 319.055 230.349 319.055ZM237.599 328.97V326.875L243.77 317.123H245.518V320.106H244.452L240.297 326.69V326.804H248.913V328.97H237.599ZM244.538 331.669V328.331L244.566 327.393V317.123H247.052V331.669H244.538ZM251.984 331.825C251.553 331.825 251.184 331.674 250.876 331.371C250.568 331.068 250.417 330.698 250.421 330.263C250.417 329.837 250.568 329.472 250.876 329.169C251.184 328.866 251.553 328.714 251.984 328.714C252.4 328.714 252.763 328.866 253.07 329.169C253.383 329.472 253.542 329.837 253.546 330.263C253.542 330.552 253.466 330.814 253.319 331.051C253.177 331.288 252.988 331.477 252.751 331.619C252.519 331.757 252.263 331.825 251.984 331.825ZM260.607 316.925C261.303 316.929 261.98 317.052 262.638 317.294C263.301 317.531 263.898 317.919 264.428 318.459C264.958 318.994 265.38 319.711 265.692 320.611C266.005 321.51 266.161 322.623 266.161 323.949C266.166 325.199 266.033 326.316 265.763 327.301C265.498 328.281 265.117 329.11 264.62 329.787C264.123 330.464 263.524 330.98 262.823 331.335C262.122 331.69 261.334 331.868 260.458 331.868C259.539 331.868 258.725 331.688 258.015 331.328C257.309 330.968 256.739 330.476 256.303 329.851C255.868 329.226 255.6 328.511 255.501 327.706H258.093C258.226 328.284 258.495 328.743 258.903 329.084C259.315 329.42 259.833 329.588 260.458 329.588C261.467 329.588 262.243 329.15 262.788 328.274C263.332 327.398 263.604 326.181 263.604 324.623H263.505C263.273 325.04 262.972 325.4 262.603 325.703C262.234 326.001 261.815 326.231 261.346 326.392C260.882 326.553 260.389 326.633 259.869 326.633C259.016 326.633 258.249 326.43 257.567 326.023C256.89 325.615 256.353 325.057 255.955 324.347C255.562 323.636 255.363 322.824 255.359 321.91C255.359 320.963 255.576 320.114 256.012 319.361C256.452 318.603 257.066 318.007 257.851 317.571C258.637 317.131 259.556 316.915 260.607 316.925ZM260.614 319.055C260.103 319.055 259.641 319.181 259.229 319.432C258.822 319.678 258.5 320.014 258.263 320.44C258.031 320.862 257.915 321.333 257.915 321.854C257.92 322.37 258.036 322.838 258.263 323.26C258.495 323.681 258.81 324.015 259.208 324.261C259.61 324.507 260.07 324.631 260.586 324.631C260.969 324.631 261.327 324.557 261.658 324.41C261.99 324.264 262.279 324.06 262.525 323.8C262.776 323.534 262.97 323.234 263.107 322.898C263.249 322.561 263.318 322.206 263.313 321.832C263.313 321.335 263.195 320.876 262.958 320.454C262.726 320.033 262.406 319.695 261.999 319.439C261.597 319.183 261.135 319.055 260.614 319.055ZM275.903 328.942V328.175C275.903 327.611 276.022 327.093 276.258 326.619C276.5 326.146 276.85 325.765 277.309 325.476C277.769 325.187 278.325 325.043 278.978 325.043C279.651 325.043 280.214 325.187 280.669 325.476C281.123 325.76 281.467 326.139 281.699 326.612C281.935 327.086 282.054 327.606 282.054 328.175V328.942C282.054 329.505 281.935 330.024 281.699 330.497C281.462 330.971 281.114 331.352 280.655 331.641C280.2 331.929 279.641 332.074 278.978 332.074C278.316 332.074 277.755 331.929 277.295 331.641C276.836 331.352 276.488 330.971 276.251 330.497C276.019 330.024 275.903 329.505 275.903 328.942ZM277.757 328.175V328.942C277.757 329.316 277.847 329.659 278.027 329.972C278.207 330.284 278.524 330.44 278.978 330.44C279.438 330.44 279.753 330.286 279.923 329.979C280.098 329.666 280.186 329.32 280.186 328.942V328.175C280.186 327.796 280.103 327.45 279.937 327.138C279.772 326.82 279.452 326.662 278.978 326.662C278.533 326.662 278.219 326.82 278.034 327.138C277.849 327.45 277.757 327.796 277.757 328.175ZM268.51 320.618V319.851C268.51 319.283 268.63 318.762 268.872 318.288C269.113 317.815 269.464 317.436 269.923 317.152C270.382 316.863 270.939 316.719 271.592 316.719C272.26 316.719 272.821 316.863 273.275 317.152C273.735 317.436 274.08 317.815 274.312 318.288C274.544 318.762 274.66 319.283 274.66 319.851V320.618C274.66 321.186 274.542 321.707 274.305 322.18C274.073 322.649 273.728 323.025 273.268 323.31C272.809 323.594 272.25 323.736 271.592 323.736C270.925 323.736 270.361 323.594 269.902 323.31C269.447 323.025 269.102 322.647 268.865 322.173C268.628 321.7 268.51 321.181 268.51 320.618ZM270.378 319.851V320.618C270.378 320.997 270.465 321.342 270.64 321.655C270.82 321.963 271.138 322.116 271.592 322.116C272.047 322.116 272.359 321.963 272.53 321.655C272.705 321.342 272.792 320.997 272.792 320.618V319.851C272.792 319.472 272.71 319.126 272.544 318.814C272.378 318.497 272.061 318.338 271.592 318.338C271.142 318.338 270.827 318.497 270.648 318.814C270.468 319.131 270.378 319.477 270.378 319.851ZM269.319 331.669L279.319 317.123H281.095L271.095 331.669H269.319Z" fill="#272B30"/>
<defs>
<filter id="filter0_ddi_141_106" x="0" y="86.6689" width="134" height="64" filterUnits="userSpaceOnUse" color-interpolation-filters="sRGB">
<feFlood flood-opacity="0" result="BackgroundImageFix"/>
<feColorMatrix in="SourceAlpha" type="matrix" values="0 0 0 0 0 0 0 0 0 0 0 0 0 0 0 0 0 0 127 0" result="hardAlpha"/>
<feOffset dy="2"/>
<feGaussianBlur stdDeviation="2"/>
<feComposite in2="hardAlpha" operator="out"/>
<feColorMatrix type="matrix" values="0 0 0 0 0 0 0 0 0 0 0 0 0 0 0 0 0 0 0.1 0"/>
<feBlend mode="multiply" in2="BackgroundImageFix" result="effect1_dropShadow_141_106"/>
<feColorMatrix in="SourceAlpha" type="matrix" values="0 0 0 0 0 0 0 0 0 0 0 0 0 0 0 0 0 0 127 0" result="hardAlpha"/>
<feOffset dy="4"/>
<feGaussianBlur stdDeviation="4"/>
<feComposite in2="hardAlpha" operator="out"/>
<feColorMatrix type="matrix" values="0 0 0 0 0 0 0 0 0 0 0 0 0 0 0 0 0 0 0.1 0"/>
<feBlend mode="multiply" in2="effect1_dropShadow_141_106" result="effect2_dropShadow_141_106"/>
<feBlend mode="normal" in="SourceGraphic" in2="effect2_dropShadow_141_106" result="shape"/>
<feColorMatrix in="SourceAlpha" type="matrix" values="0 0 0 0 0 0 0 0 0 0 0 0 0 0 0 0 0 0 127 0" result="hardAlpha"/>
<feOffset/>
<feGaussianBlur stdDeviation="0.5"/>
<feComposite in2="hardAlpha" operator="arithmetic" k2="-1" k3="1"/>
<feColorMatrix type="matrix" values="0 0 0 0 0 0 0 0 0 0 0 0 0 0 0 0 0 0 1 0"/>
<feBlend mode="multiply" in2="shape" result="effect3_innerShadow_141_106"/>
</filter>
<filter id="filter1_d_141_106" x="49.0972" y="148.463" width="18.374" height="19.7925" filterUnits="userSpaceOnUse" color-interpolation-filters="sRGB">
<feFlood flood-opacity="0" result="BackgroundImageFix"/>
<feColorMatrix in="SourceAlpha" type="matrix" values="0 0 0 0 0 0 0 0 0 0 0 0 0 0 0 0 0 0 127 0" result="hardAlpha"/>
<feOffset dy="2"/>
<feGaussianBlur stdDeviation="1"/>
<feColorMatrix type="matrix" values="0 0 0 0 0 0 0 0 0 0 0 0 0 0 0 0 0 0 0.25 0"/>
<feBlend mode="normal" in2="BackgroundImageFix" result="effect1_dropShadow_141_106"/>
<feBlend mode="normal" in="SourceGraphic" in2="effect1_dropShadow_141_106" result="shape"/>
</filter>
</defs>
</svg>
