<svg width="292" height="311" viewBox="0 0 292 311" fill="none" xmlns="http://www.w3.org/2000/svg">
<path d="M109.255 18.2055C107 12.3271 109.929 5.67388 116.003 4.01702C140.8 -2.74705 167.284 -0.957236 191.095 9.29837C218.413 21.0641 240.05 43.0405 251.39 70.5376C262.73 98.0348 262.874 128.875 251.791 156.477C240.708 184.079 219.277 206.256 192.07 218.276C164.864 230.296 134.037 231.207 106.168 220.815C78.2989 210.422 55.5953 189.549 42.9021 162.65C30.2089 135.751 28.5313 104.956 38.2275 76.8371C46.6791 52.3273 63.1888 31.5427 84.8871 17.7644C90.2022 14.3894 97.0928 16.7044 99.9205 22.3297V22.3297C102.748 27.9551 100.429 34.7508 95.2004 38.2577C78.7826 49.2685 66.2932 65.3872 59.782 84.2697C52.0251 106.765 53.3671 131.401 63.5217 152.92C73.6762 174.439 91.8391 191.138 114.134 199.452C136.429 207.766 161.091 207.037 182.856 197.421C204.622 187.805 221.767 170.063 230.633 147.981C239.499 125.9 239.384 101.228 230.312 79.2301C221.24 57.2324 203.93 39.6513 182.076 30.2387C163.732 22.3377 143.405 20.7176 124.209 25.4412C118.096 26.9456 111.51 24.0839 109.255 18.2055V18.2055Z" fill="#2A85FF"/>
<mask id="path-2-inside-1_141_56" fill="white">
<path d="M115.465 16.049C113.592 10.0382 107.17 6.63195 101.377 9.09642C84.2433 16.3844 69.0989 27.784 57.3253 42.3565C43.1555 59.8947 34.5047 81.2408 32.4667 103.696C30.4286 126.15 35.095 148.705 45.8757 168.508C54.8333 184.962 67.6779 198.902 83.2189 209.155C88.4742 212.623 95.4041 210.428 98.3294 204.853V204.853C101.255 199.278 99.0549 192.443 93.888 188.845C82.3012 180.778 72.7008 170.098 65.9005 157.606C57.276 141.764 53.5429 123.72 55.1733 105.756C56.8037 87.7927 63.7244 70.7157 75.0602 56.6852C83.9983 45.6224 95.3646 36.8453 108.215 30.9957C113.945 28.3872 117.339 22.0597 115.465 16.049V16.049Z"/>
</mask>
<path d="M115.465 16.049C113.592 10.0382 107.17 6.63195 101.377 9.09642C84.2433 16.3844 69.0989 27.784 57.3253 42.3565C43.1555 59.8947 34.5047 81.2408 32.4667 103.696C30.4286 126.15 35.095 148.705 45.8757 168.508C54.8333 184.962 67.6779 198.902 83.2189 209.155C88.4742 212.623 95.4041 210.428 98.3294 204.853V204.853C101.255 199.278 99.0549 192.443 93.888 188.845C82.3012 180.778 72.7008 170.098 65.9005 157.606C57.276 141.764 53.5429 123.72 55.1733 105.756C56.8037 87.7927 63.7244 70.7157 75.0602 56.6852C83.9983 45.6224 95.3646 36.8453 108.215 30.9957C113.945 28.3872 117.339 22.0597 115.465 16.049V16.049Z" fill="#CABDFF" stroke="white" stroke-width="4" mask="url(#path-2-inside-1_141_56)"/>
<mask id="path-3-inside-2_141_56" fill="white">
<path d="M146 11.4C146 5.10395 140.883 -0.059046 134.619 0.569516C121.101 1.92584 107.903 5.69103 95.6585 11.7174C79.9964 19.426 66.3138 30.6283 55.6656 44.4608C45.0174 58.2933 37.688 74.3864 34.2426 91.4993C31.549 104.878 31.2855 118.6 33.4324 132.015C34.4274 138.232 40.7275 141.858 46.814 140.247V140.247C52.9006 138.636 56.453 132.396 55.6138 126.156C54.2674 116.146 54.59 105.954 56.5941 95.9995C59.3504 82.3091 65.2139 69.4347 73.7325 58.3687C82.251 47.3027 93.1971 38.3408 105.727 32.1739C114.837 27.6901 124.607 24.7709 134.63 23.5116C140.876 22.7266 146 17.696 146 11.4V11.4Z"/>
</mask>
<path d="M146 11.4C146 5.10395 140.883 -0.059046 134.619 0.569516C121.101 1.92584 107.903 5.69103 95.6585 11.7174C79.9964 19.426 66.3138 30.6283 55.6656 44.4608C45.0174 58.2933 37.688 74.3864 34.2426 91.4993C31.549 104.878 31.2855 118.6 33.4324 132.015C34.4274 138.232 40.7275 141.858 46.814 140.247V140.247C52.9006 138.636 56.453 132.396 55.6138 126.156C54.2674 116.146 54.59 105.954 56.5941 95.9995C59.3504 82.3091 65.2139 69.4347 73.7325 58.3687C82.251 47.3027 93.1971 38.3408 105.727 32.1739C114.837 27.6901 124.607 24.7709 134.63 23.5116C140.876 22.7266 146 17.696 146 11.4V11.4Z" fill="#B5E4CA" stroke="white" stroke-width="4" mask="url(#path-3-inside-2_141_56)"/>
<g filter="url(#filter0_ddi_141_56)">
<rect x="97" y="90" width="99" height="48" rx="8" fill="#272B30" shape-rendering="crispEdges"/>
<rect x="97.5" y="90.5" width="98" height="47" rx="7.5" stroke="white" stroke-opacity="0.12" shape-rendering="crispEdges"/>
<path d="M113.003 99.2727V108H111.793L107.357 101.599H107.276V108H105.959V99.2727H107.178L111.618 105.682H111.699V99.2727H113.003ZM117.522 108.132C116.878 108.132 116.322 107.994 115.856 107.719C115.393 107.44 115.035 107.05 114.782 106.547C114.532 106.041 114.407 105.449 114.407 104.77C114.407 104.099 114.532 103.509 114.782 102.997C115.035 102.486 115.387 102.087 115.839 101.8C116.294 101.513 116.825 101.369 117.433 101.369C117.802 101.369 118.16 101.43 118.507 101.553C118.853 101.675 119.164 101.866 119.44 102.128C119.716 102.389 119.933 102.729 120.092 103.146C120.251 103.561 120.331 104.065 120.331 104.659V105.111H115.128V104.156H119.082C119.082 103.821 119.014 103.524 118.878 103.266C118.741 103.004 118.549 102.798 118.302 102.648C118.058 102.497 117.771 102.422 117.441 102.422C117.083 102.422 116.771 102.51 116.504 102.686C116.24 102.859 116.035 103.087 115.89 103.368C115.748 103.646 115.677 103.949 115.677 104.276V105.021C115.677 105.459 115.754 105.831 115.907 106.138C116.064 106.445 116.281 106.679 116.559 106.841C116.838 107 117.163 107.08 117.535 107.08C117.777 107.08 117.997 107.045 118.196 106.977C118.395 106.906 118.566 106.801 118.711 106.662C118.856 106.523 118.967 106.351 119.044 106.146L120.25 106.364C120.153 106.719 119.98 107.03 119.73 107.297C119.483 107.561 119.172 107.767 118.797 107.915C118.424 108.06 118 108.132 117.522 108.132ZM123.032 108L121.106 101.455H122.422L123.705 106.261H123.769L125.056 101.455H126.373L127.651 106.24H127.715L128.989 101.455H130.306L128.384 108H127.084L125.755 103.274H125.657L124.327 108H123.032ZM137.208 108.132C136.574 108.132 136.029 107.989 135.571 107.702C135.117 107.412 134.768 107.013 134.523 106.504C134.279 105.996 134.157 105.413 134.157 104.757C134.157 104.092 134.282 103.506 134.532 102.997C134.782 102.486 135.134 102.087 135.589 101.8C136.043 101.513 136.579 101.369 137.195 101.369C137.692 101.369 138.135 101.462 138.525 101.646C138.914 101.828 139.228 102.084 139.466 102.413C139.708 102.743 139.851 103.128 139.897 103.568H138.657C138.589 103.261 138.432 102.997 138.188 102.776C137.946 102.554 137.623 102.443 137.216 102.443C136.861 102.443 136.55 102.537 136.283 102.724C136.019 102.909 135.813 103.173 135.665 103.517C135.518 103.858 135.444 104.261 135.444 104.727C135.444 105.205 135.516 105.616 135.661 105.963C135.806 106.31 136.01 106.578 136.275 106.768C136.542 106.959 136.856 107.054 137.216 107.054C137.458 107.054 137.677 107.01 137.873 106.922C138.071 106.831 138.238 106.702 138.371 106.534C138.508 106.366 138.603 106.165 138.657 105.929H139.897C139.851 106.352 139.714 106.73 139.483 107.062C139.253 107.395 138.945 107.656 138.559 107.847C138.175 108.037 137.725 108.132 137.208 108.132ZM145.286 105.286V101.455H146.564V108H145.311V106.866H145.243C145.092 107.216 144.851 107.507 144.519 107.74C144.189 107.97 143.779 108.085 143.287 108.085C142.867 108.085 142.494 107.993 142.171 107.808C141.85 107.621 141.597 107.344 141.412 106.977C141.23 106.611 141.139 106.158 141.139 105.618V101.455H142.413V105.464C142.413 105.911 142.537 106.266 142.784 106.53C143.031 106.794 143.352 106.926 143.747 106.926C143.986 106.926 144.223 106.866 144.459 106.747C144.698 106.628 144.895 106.447 145.051 106.206C145.21 105.964 145.288 105.658 145.286 105.286ZM153.061 103.053L151.906 103.257C151.858 103.109 151.781 102.969 151.676 102.835C151.574 102.702 151.434 102.592 151.258 102.507C151.082 102.422 150.862 102.379 150.598 102.379C150.237 102.379 149.936 102.46 149.694 102.622C149.453 102.781 149.332 102.987 149.332 103.24C149.332 103.459 149.413 103.635 149.575 103.768C149.737 103.902 149.998 104.011 150.359 104.097L151.399 104.335C152.001 104.474 152.45 104.689 152.746 104.979C153.041 105.268 153.189 105.645 153.189 106.108C153.189 106.5 153.075 106.849 152.848 107.156C152.623 107.46 152.309 107.699 151.906 107.872C151.505 108.045 151.041 108.132 150.513 108.132C149.78 108.132 149.182 107.976 148.719 107.663C148.255 107.348 147.971 106.901 147.866 106.321L149.098 106.134C149.175 106.455 149.332 106.697 149.571 106.862C149.809 107.024 150.121 107.105 150.504 107.105C150.922 107.105 151.255 107.018 151.505 106.845C151.755 106.669 151.88 106.455 151.88 106.202C151.88 105.997 151.804 105.825 151.65 105.686C151.5 105.547 151.268 105.442 150.956 105.371L149.848 105.128C149.237 104.989 148.785 104.767 148.493 104.463C148.203 104.159 148.058 103.774 148.058 103.308C148.058 102.922 148.166 102.584 148.382 102.294C148.598 102.004 148.896 101.778 149.277 101.616C149.657 101.452 150.094 101.369 150.585 101.369C151.292 101.369 151.849 101.523 152.255 101.83C152.662 102.134 152.93 102.541 153.061 103.053ZM157.525 101.455V102.477H153.95V101.455H157.525ZM154.909 99.8864H156.183V106.078C156.183 106.325 156.22 106.511 156.294 106.636C156.367 106.759 156.463 106.842 156.579 106.888C156.698 106.93 156.828 106.952 156.967 106.952C157.069 106.952 157.159 106.945 157.235 106.93C157.312 106.916 157.372 106.905 157.414 106.896L157.644 107.949C157.571 107.977 157.465 108.006 157.329 108.034C157.193 108.065 157.022 108.082 156.818 108.085C156.482 108.091 156.17 108.031 155.88 107.906C155.59 107.781 155.356 107.588 155.177 107.327C154.998 107.065 154.909 106.737 154.909 106.342V99.8864ZM161.501 108.132C160.888 108.132 160.352 107.991 159.895 107.71C159.437 107.429 159.082 107.036 158.829 106.53C158.577 106.024 158.45 105.433 158.45 104.757C158.45 104.078 158.577 103.484 158.829 102.976C159.082 102.467 159.437 102.072 159.895 101.791C160.352 101.51 160.888 101.369 161.501 101.369C162.115 101.369 162.65 101.51 163.108 101.791C163.565 102.072 163.92 102.467 164.173 102.976C164.426 103.484 164.552 104.078 164.552 104.757C164.552 105.433 164.426 106.024 164.173 106.53C163.92 107.036 163.565 107.429 163.108 107.71C162.65 107.991 162.115 108.132 161.501 108.132ZM161.506 107.062C161.903 107.062 162.233 106.957 162.494 106.747C162.756 106.537 162.949 106.257 163.074 105.908C163.202 105.558 163.265 105.173 163.265 104.753C163.265 104.335 163.202 103.952 163.074 103.602C162.949 103.25 162.756 102.967 162.494 102.754C162.233 102.541 161.903 102.435 161.506 102.435C161.105 102.435 160.773 102.541 160.508 102.754C160.247 102.967 160.052 103.25 159.925 103.602C159.8 103.952 159.737 104.335 159.737 104.753C159.737 105.173 159.8 105.558 159.925 105.908C160.052 106.257 160.247 106.537 160.508 106.747C160.773 106.957 161.105 107.062 161.506 107.062ZM165.855 108V101.455H167.078V102.52H167.159C167.295 102.159 167.518 101.878 167.828 101.676C168.137 101.472 168.508 101.369 168.94 101.369C169.377 101.369 169.744 101.472 170.039 101.676C170.338 101.881 170.558 102.162 170.7 102.52H170.768C170.924 102.17 171.173 101.892 171.514 101.685C171.855 101.474 172.261 101.369 172.732 101.369C173.326 101.369 173.811 101.555 174.186 101.928C174.563 102.3 174.752 102.861 174.752 103.611V108H173.478V103.73C173.478 103.287 173.357 102.966 173.116 102.767C172.875 102.568 172.586 102.469 172.251 102.469C171.836 102.469 171.514 102.597 171.284 102.852C171.054 103.105 170.938 103.43 170.938 103.828V108H169.669V103.649C169.669 103.294 169.558 103.009 169.336 102.793C169.115 102.577 168.826 102.469 168.471 102.469C168.23 102.469 168.007 102.533 167.802 102.661C167.6 102.786 167.437 102.96 167.312 103.185C167.19 103.409 167.129 103.669 167.129 103.964V108H165.855ZM179.161 108.132C178.516 108.132 177.961 107.994 177.495 107.719C177.032 107.44 176.674 107.05 176.421 106.547C176.171 106.041 176.046 105.449 176.046 104.77C176.046 104.099 176.171 103.509 176.421 102.997C176.674 102.486 177.026 102.087 177.478 101.8C177.932 101.513 178.464 101.369 179.072 101.369C179.441 101.369 179.799 101.43 180.146 101.553C180.492 101.675 180.803 101.866 181.079 102.128C181.354 102.389 181.572 102.729 181.731 103.146C181.89 103.561 181.969 104.065 181.969 104.659V105.111H176.766V104.156H180.721C180.721 103.821 180.653 103.524 180.516 103.266C180.38 103.004 180.188 102.798 179.941 102.648C179.697 102.497 179.41 102.422 179.08 102.422C178.722 102.422 178.41 102.51 178.143 102.686C177.878 102.859 177.674 103.087 177.529 103.368C177.387 103.646 177.316 103.949 177.316 104.276V105.021C177.316 105.459 177.393 105.831 177.546 106.138C177.702 106.445 177.92 106.679 178.198 106.841C178.476 107 178.802 107.08 179.174 107.08C179.415 107.08 179.636 107.045 179.834 106.977C180.033 106.906 180.205 106.801 180.35 106.662C180.495 106.523 180.606 106.351 180.682 106.146L181.888 106.364C181.792 106.719 181.619 107.03 181.369 107.297C181.121 107.561 180.81 107.767 180.435 107.915C180.063 108.06 179.638 108.132 179.161 108.132ZM183.263 108V101.455H184.495V102.494H184.563C184.682 102.142 184.892 101.865 185.193 101.663C185.497 101.459 185.841 101.357 186.225 101.357C186.304 101.357 186.398 101.359 186.506 101.365C186.617 101.371 186.703 101.378 186.766 101.386V102.605C186.715 102.591 186.624 102.575 186.493 102.558C186.363 102.538 186.232 102.528 186.101 102.528C185.8 102.528 185.532 102.592 185.296 102.72C185.063 102.845 184.878 103.02 184.742 103.244C184.605 103.466 184.537 103.719 184.537 104.003V108H183.263Z" fill="#EFEFEF"/>
<rect x="105" y="118" width="12" height="12" rx="4" fill="#B5E4CA"/>
<path d="M125.325 119.273V128H123.744V120.811H123.693L121.652 122.115V120.666L123.821 119.273H125.325ZM128.769 126.807L128.713 127.276C128.674 127.634 128.603 127.997 128.5 128.366C128.401 128.739 128.296 129.081 128.185 129.393C128.074 129.706 127.985 129.952 127.917 130.131H126.877C126.917 129.957 126.971 129.722 127.039 129.423C127.11 129.125 127.178 128.79 127.243 128.418C127.309 128.045 127.353 127.668 127.375 127.284L127.405 126.807H128.769ZM130.202 126.381V125.124L133.905 119.273H134.954V121.062H134.314L131.821 125.013V125.081H136.99V126.381H130.202ZM134.365 128V125.997L134.383 125.435V119.273H135.874V128H134.365ZM141.334 128.119C140.701 128.119 140.138 128.013 139.647 127.8C139.158 127.587 138.775 127.295 138.496 126.926C138.221 126.554 138.084 126.132 138.087 125.661C138.084 125.294 138.164 124.957 138.326 124.651C138.488 124.344 138.706 124.088 138.982 123.884C139.26 123.676 139.57 123.544 139.911 123.487V123.428C139.462 123.328 139.098 123.099 138.82 122.741C138.544 122.381 138.408 121.964 138.411 121.493C138.408 121.044 138.533 120.643 138.786 120.291C139.039 119.939 139.385 119.662 139.826 119.46C140.266 119.256 140.769 119.153 141.334 119.153C141.894 119.153 142.392 119.256 142.83 119.46C143.27 119.662 143.617 119.939 143.87 120.291C144.125 120.643 144.253 121.044 144.253 121.493C144.253 121.964 144.113 122.381 143.831 122.741C143.553 123.099 143.194 123.328 142.753 123.428V123.487C143.094 123.544 143.401 123.676 143.674 123.884C143.949 124.088 144.168 124.344 144.33 124.651C144.495 124.957 144.577 125.294 144.577 125.661C144.577 126.132 144.438 126.554 144.16 126.926C143.881 127.295 143.498 127.587 143.009 127.8C142.523 128.013 141.965 128.119 141.334 128.119ZM141.334 126.901C141.661 126.901 141.945 126.845 142.187 126.734C142.428 126.621 142.615 126.462 142.749 126.257C142.883 126.053 142.951 125.817 142.954 125.55C142.951 125.271 142.878 125.026 142.736 124.812C142.597 124.597 142.405 124.428 142.161 124.305C141.919 124.183 141.644 124.122 141.334 124.122C141.022 124.122 140.743 124.183 140.499 124.305C140.255 124.428 140.062 124.597 139.919 124.812C139.78 125.026 139.712 125.271 139.715 125.55C139.712 125.817 139.777 126.053 139.911 126.257C140.044 126.459 140.232 126.616 140.473 126.73C140.718 126.844 141.005 126.901 141.334 126.901ZM141.334 122.925C141.601 122.925 141.837 122.871 142.042 122.763C142.249 122.655 142.412 122.504 142.532 122.311C142.651 122.118 142.712 121.895 142.715 121.642C142.712 121.392 142.652 121.173 142.536 120.986C142.419 120.795 142.258 120.649 142.05 120.547C141.843 120.442 141.604 120.389 141.334 120.389C141.059 120.389 140.816 120.442 140.606 120.547C140.398 120.649 140.236 120.795 140.12 120.986C140.006 121.173 139.951 121.392 139.954 121.642C139.951 121.895 140.008 122.118 140.124 122.311C140.243 122.501 140.407 122.652 140.614 122.763C140.824 122.871 141.064 122.925 141.334 122.925ZM148.892 128.119C148.324 128.119 147.815 128.013 147.367 127.8C146.918 127.584 146.561 127.288 146.297 126.913C146.036 126.538 145.896 126.109 145.879 125.626H147.413C147.442 125.984 147.597 126.277 147.878 126.504C148.159 126.729 148.497 126.841 148.892 126.841C149.202 126.841 149.477 126.77 149.719 126.628C149.96 126.486 150.151 126.288 150.29 126.036C150.429 125.783 150.497 125.494 150.494 125.17C150.497 124.841 150.428 124.548 150.286 124.293C150.144 124.037 149.949 123.837 149.702 123.692C149.455 123.544 149.171 123.47 148.85 123.47C148.588 123.467 148.331 123.516 148.078 123.615C147.825 123.714 147.625 123.845 147.477 124.007L146.05 123.773L146.506 119.273H151.568V120.594H147.814L147.563 122.908H147.614C147.776 122.717 148.004 122.56 148.3 122.435C148.595 122.307 148.919 122.243 149.271 122.243C149.8 122.243 150.271 122.368 150.686 122.618C151.101 122.865 151.428 123.206 151.666 123.641C151.905 124.075 152.024 124.572 152.024 125.132C152.024 125.709 151.891 126.223 151.624 126.675C151.359 127.124 150.992 127.477 150.52 127.736C150.051 127.991 149.509 128.119 148.892 128.119Z" fill="#FCFCFC"/>
</g>
<g filter="url(#filter1_d_141_56)">
<path d="M57.7135 91.5474C57.7135 91.6961 57.7879 91.133 58.0217 90.7611C58.1118 90.4934 58.3047 90.2725 58.5577 90.147C58.683 90.0848 58.8193 90.0479 58.9589 90.0384C59.0984 90.029 59.2385 90.0471 59.371 90.0917C59.5036 90.1364 59.626 90.2067 59.7314 90.2987C59.8368 90.3907 59.923 90.5025 59.9852 90.6278C60.0473 90.7531 60.0842 90.8894 60.0937 91.0289C60.1032 91.1685 60.0851 91.3086 60.0404 91.4411C60.0404 92.1424 60.0404 92.1105 60.0404 92.578C60.0404 93.0455 60.0404 93.4492 60.0404 93.853C59.9996 94.4745 59.9144 95.0923 59.7854 95.7017C59.6145 96.2181 59.3789 96.7108 59.0842 97.168C58.5676 97.7451 58.1413 98.3971 57.8198 99.1017C57.7362 99.4494 57.7005 99.8069 57.7135 100.164C57.7139 100.494 57.7568 100.823 57.841 101.142C57.4067 101.19 56.9685 101.19 56.5342 101.142C56.1198 101.078 55.5992 100.249 55.4717 99.9942C55.4393 99.9242 55.3876 99.8649 55.3227 99.8234C55.2577 99.7818 55.1822 99.7597 55.1051 99.7597C55.028 99.7597 54.9525 99.7818 54.8875 99.8234C54.8226 99.8649 54.7709 99.9242 54.7385 99.9942C54.5048 100.398 53.9948 101.131 53.6229 101.174C52.9217 101.259 51.4448 101.174 50.2973 101.174C50.2973 101.174 50.4885 100.111 50.0529 99.7286C49.6173 99.3461 49.171 98.8999 48.831 98.6024L47.9492 97.6249C47.3285 97.0466 46.8736 96.3129 46.6317 95.4999C46.4085 94.5011 46.4298 94.0124 46.6317 93.6192C46.8548 93.2926 47.1922 93.0614 47.5773 92.9711C47.886 92.9167 48.2033 92.9386 48.5017 93.0349C48.7102 93.1222 48.8904 93.2656 49.0223 93.4492C49.2667 93.7786 49.341 93.938 49.256 93.5767C49.171 93.2155 49.0435 92.6842 48.8204 91.9299C48.6398 91.3455 48.4592 91.0161 48.321 90.623C48.1829 90.2299 48.0023 89.858 47.7898 89.3692C47.5973 88.8702 47.4376 88.3591 47.3117 87.8392C47.2635 87.6251 47.2624 87.4032 47.3082 87.1886C47.3541 86.974 47.4459 86.7718 47.5773 86.5961C47.7641 86.4124 47.996 86.2812 48.2498 86.2159C48.5035 86.1506 48.77 86.1535 49.0223 86.2242C49.4232 86.398 49.7608 86.6911 49.9892 87.0636C50.3068 87.5775 50.5636 88.1266 50.7542 88.6999C51.1044 89.612 51.3538 90.5597 51.4979 91.5261C51.472 90.9559 51.5184 90.3847 51.636 89.8261C51.695 89.6565 51.7916 89.5025 51.9186 89.3755C52.0455 89.2485 52.1996 89.152 52.3692 89.093C52.6848 88.9918 53.0205 88.9699 53.3467 89.0292C53.6718 89.1015 53.9591 89.2905 54.1542 89.5605C54.3981 90.1815 54.5381 90.8384 54.5685 91.5049C54.5995 90.9353 54.6994 90.3716 54.866 89.8261C55.0442 89.5766 55.3032 89.3964 55.5992 89.3161C55.9505 89.2526 56.3103 89.2526 56.6617 89.3161C56.9491 89.4136 57.2007 89.5949 57.3842 89.8367C57.6088 90.4003 57.745 90.9953 57.7879 91.6005" fill="white"/>
<path d="M57.7135 91.5474C57.7135 91.6961 57.7879 91.133 58.0217 90.7611C58.1118 90.4934 58.3047 90.2725 58.5577 90.147C58.683 90.0848 58.8193 90.0479 58.9589 90.0384C59.0984 90.029 59.2385 90.0471 59.371 90.0917C59.5036 90.1364 59.626 90.2067 59.7314 90.2987C59.8368 90.3907 59.923 90.5025 59.9852 90.6278C60.0473 90.7531 60.0842 90.8894 60.0937 91.0289C60.1032 91.1685 60.0851 91.3086 60.0404 91.4411C60.0404 92.1424 60.0404 92.1105 60.0404 92.578C60.0404 93.0455 60.0404 93.4492 60.0404 93.853C59.9996 94.4745 59.9144 95.0923 59.7854 95.7017C59.6145 96.2181 59.3789 96.7108 59.0842 97.168C58.5676 97.7451 58.1413 98.3971 57.8198 99.1017C57.7362 99.4494 57.7005 99.8069 57.7135 100.164C57.7139 100.494 57.7568 100.823 57.841 101.142C57.4067 101.19 56.9685 101.19 56.5342 101.142C56.1198 101.078 55.5992 100.249 55.4717 99.9942C55.4393 99.9242 55.3876 99.8649 55.3227 99.8234C55.2577 99.7818 55.1822 99.7597 55.1051 99.7597C55.028 99.7597 54.9525 99.7818 54.8875 99.8234C54.8226 99.8649 54.7709 99.9242 54.7385 99.9942C54.5048 100.398 53.9948 101.131 53.6229 101.174C52.9217 101.259 51.4448 101.174 50.2973 101.174C50.2973 101.174 50.4885 100.111 50.0529 99.7286C49.6173 99.3461 49.171 98.8999 48.831 98.6024L47.9492 97.6249C47.3285 97.0466 46.8736 96.3129 46.6317 95.4999C46.4085 94.5011 46.4298 94.0124 46.6317 93.6192C46.8548 93.2926 47.1922 93.0614 47.5773 92.9711C47.886 92.9167 48.2033 92.9386 48.5017 93.0349C48.7102 93.1222 48.8904 93.2656 49.0223 93.4492C49.2667 93.7786 49.341 93.938 49.256 93.5767C49.171 93.2155 49.0435 92.6842 48.8204 91.9299C48.6398 91.3455 48.4592 91.0161 48.321 90.623C48.1829 90.2299 48.0023 89.858 47.7898 89.3692C47.5973 88.8702 47.4376 88.3591 47.3117 87.8392C47.2635 87.6251 47.2624 87.4032 47.3082 87.1886C47.3541 86.974 47.4459 86.7718 47.5773 86.5961C47.7641 86.4124 47.996 86.2812 48.2498 86.2159C48.5035 86.1506 48.77 86.1535 49.0223 86.2242C49.4232 86.398 49.7608 86.6911 49.9892 87.0636C50.3068 87.5775 50.5636 88.1266 50.7542 88.6999C51.1044 89.612 51.3538 90.5597 51.4979 91.5261C51.472 90.9559 51.5184 90.3847 51.636 89.8261C51.695 89.6565 51.7916 89.5025 51.9186 89.3755C52.0455 89.2485 52.1996 89.152 52.3692 89.093C52.6848 88.9918 53.0205 88.9699 53.3467 89.0292C53.6718 89.1015 53.9591 89.2905 54.1542 89.5605C54.3981 90.1815 54.5381 90.8384 54.5685 91.5049C54.5995 90.9353 54.6994 90.3716 54.866 89.8261C55.0442 89.5766 55.3032 89.3964 55.5992 89.3161C55.9505 89.2526 56.3103 89.2526 56.6617 89.3161C56.9491 89.4136 57.2007 89.5949 57.3842 89.8367C57.5782 90.3875 57.6892 90.964 57.7135 91.5474V91.5474Z" stroke="black" stroke-width="0.75" stroke-linejoin="round"/>
<path d="M56.6829 98.0073V94.3311" stroke="black" stroke-width="0.75" stroke-linecap="round"/>
<path d="M54.5367 98.0179L54.526 94.3311" stroke="black" stroke-width="0.75" stroke-linecap="round"/>
<path d="M52.4223 94.3628L52.4435 97.9965" stroke="black" stroke-width="0.75" stroke-linecap="round"/>
</g>
<rect x="6.5" y="260" width="16" height="16" rx="4" fill="#B5E4CA"/>
<path d="M38.5582 263.273V272H36.9645L33.1676 266.507H33.1037V272H31.2585V263.273H32.8778L36.6449 268.761H36.7216V263.273H38.5582ZM42.9116 272.128C42.2383 272.128 41.6588 271.991 41.173 271.719C40.69 271.443 40.3179 271.054 40.0565 270.551C39.7951 270.045 39.6644 269.447 39.6644 268.757C39.6644 268.084 39.7951 267.493 40.0565 266.984C40.3179 266.476 40.6858 266.08 41.1602 265.795C41.6375 265.511 42.1971 265.369 42.8392 265.369C43.271 265.369 43.673 265.439 44.0451 265.578C44.4201 265.714 44.7468 265.92 45.0252 266.196C45.3065 266.472 45.5252 266.818 45.6815 267.236C45.8377 267.651 45.9159 268.136 45.9159 268.693V269.192H40.3889V268.067H44.2071C44.2071 267.805 44.1502 267.574 44.0366 267.372C43.923 267.17 43.7653 267.013 43.5636 266.899C43.3647 266.783 43.1332 266.724 42.869 266.724C42.5934 266.724 42.3491 266.788 42.136 266.916C41.9258 267.041 41.761 267.21 41.6417 267.423C41.5224 267.634 41.4613 267.868 41.4585 268.126V269.196C41.4585 269.52 41.5181 269.8 41.6375 270.036C41.7596 270.271 41.9315 270.453 42.1531 270.581C42.3747 270.709 42.6375 270.773 42.9414 270.773C43.1431 270.773 43.3278 270.744 43.4954 270.688C43.663 270.631 43.8065 270.545 43.9258 270.432C44.0451 270.318 44.136 270.179 44.1985 270.014L45.8775 270.125C45.7923 270.528 45.6176 270.881 45.3534 271.182C45.092 271.48 44.7539 271.713 44.3392 271.881C43.9272 272.045 43.4514 272.128 42.9116 272.128ZM48.2248 272L46.4436 265.455H48.2802L49.2944 269.852H49.3541L50.4109 265.455H52.2135L53.2873 269.827H53.3427L54.3399 265.455H56.1723L54.3953 272H52.4734L51.3484 267.884H51.2675L50.1425 272H48.2248ZM62.6354 272.128C61.965 272.128 61.3883 271.986 60.9053 271.702C60.4252 271.415 60.0559 271.017 59.7973 270.509C59.5417 270 59.4138 269.415 59.4138 268.753C59.4138 268.082 59.5431 267.494 59.8016 266.989C60.063 266.48 60.4337 266.084 60.9138 265.8C61.3939 265.513 61.965 265.369 62.6269 265.369C63.1979 265.369 63.6979 265.473 64.1269 265.68C64.5559 265.888 64.8954 266.179 65.1454 266.554C65.3954 266.929 65.5331 267.369 65.5587 267.875H63.8456C63.7973 267.548 63.6695 267.286 63.4621 267.087C63.2576 266.885 62.9891 266.784 62.6567 266.784C62.3755 266.784 62.1297 266.861 61.9195 267.014C61.7121 267.165 61.5502 267.385 61.4337 267.675C61.3172 267.964 61.259 268.315 61.259 268.727C61.259 269.145 61.3158 269.5 61.4294 269.793C61.5459 270.085 61.7093 270.308 61.9195 270.462C62.1297 270.615 62.3755 270.692 62.6567 270.692C62.8641 270.692 63.0502 270.649 63.215 270.564C63.3826 270.479 63.5204 270.355 63.6283 270.193C63.7391 270.028 63.8115 269.831 63.8456 269.601H65.5587C65.5303 270.101 65.3939 270.541 65.1496 270.922C64.9081 271.3 64.5743 271.595 64.1482 271.808C63.7221 272.021 63.2178 272.128 62.6354 272.128ZM70.7984 269.213V265.455H72.6138V272H70.8709V270.811H70.8027C70.655 271.195 70.4092 271.503 70.0655 271.736C69.7246 271.969 69.3084 272.085 68.8169 272.085C68.3794 272.085 67.9945 271.986 67.6621 271.787C67.3297 271.588 67.0697 271.305 66.8822 270.939C66.6976 270.572 66.6038 270.134 66.601 269.622V265.455H68.4163V269.298C68.4192 269.685 68.5229 269.99 68.7274 270.214C68.932 270.439 69.2061 270.551 69.5499 270.551C69.7686 270.551 69.9732 270.501 70.1635 270.402C70.3538 270.3 70.5072 270.149 70.6237 269.95C70.743 269.751 70.8013 269.506 70.7984 269.213ZM79.3919 267.321L77.7299 267.423C77.7015 267.281 77.6404 267.153 77.5467 267.04C77.4529 266.923 77.3294 266.831 77.176 266.763C77.0254 266.692 76.845 266.656 76.6348 266.656C76.3535 266.656 76.1163 266.716 75.9231 266.835C75.7299 266.952 75.6333 267.108 75.6333 267.304C75.6333 267.46 75.6958 267.592 75.8208 267.7C75.9458 267.808 76.1603 267.895 76.4643 267.96L77.649 268.199C78.2853 268.33 78.7598 268.54 79.0723 268.83C79.3848 269.119 79.541 269.5 79.541 269.972C79.541 270.401 79.4146 270.777 79.1617 271.101C78.9117 271.425 78.568 271.678 78.1305 271.859C77.6958 272.038 77.1944 272.128 76.6262 272.128C75.7598 272.128 75.0694 271.947 74.5552 271.587C74.0438 271.223 73.7441 270.729 73.6561 270.104L75.4416 270.01C75.4956 270.274 75.6262 270.476 75.8336 270.615C76.041 270.751 76.3066 270.82 76.6305 270.82C76.9487 270.82 77.2044 270.759 77.3975 270.636C77.5936 270.511 77.693 270.351 77.6958 270.155C77.693 269.99 77.6234 269.855 77.487 269.75C77.3507 269.642 77.1404 269.56 76.8563 269.503L75.7228 269.277C75.0836 269.149 74.6078 268.928 74.2953 268.612C73.9856 268.297 73.8308 267.895 73.8308 267.406C73.8308 266.986 73.9444 266.624 74.1717 266.32C74.4018 266.016 74.7242 265.781 75.139 265.616C75.5566 265.452 76.0453 265.369 76.6049 265.369C77.4316 265.369 78.0822 265.544 78.5566 265.893C79.0339 266.243 79.3123 266.719 79.3919 267.321ZM84.0457 265.455V266.818H80.1039V265.455H84.0457ZM80.9988 263.886H82.8141V269.989C82.8141 270.156 82.8397 270.287 82.8908 270.381C82.942 270.472 83.013 270.536 83.1039 270.572C83.1976 270.609 83.3056 270.628 83.4278 270.628C83.513 270.628 83.5982 270.621 83.6834 270.607C83.7687 270.589 83.834 270.577 83.8795 270.568L84.165 271.919C84.0741 271.947 83.9462 271.98 83.7814 272.017C83.6167 272.057 83.4164 272.081 83.1806 272.089C82.7431 272.107 82.3596 272.048 82.03 271.915C81.7033 271.781 81.4491 271.574 81.2672 271.293C81.0854 271.011 80.9959 270.656 80.9988 270.227V263.886ZM87.9953 272.128C87.3333 272.128 86.7609 271.987 86.2779 271.706C85.7978 271.422 85.4271 271.027 85.1657 270.521C84.9043 270.013 84.7737 269.423 84.7737 268.753C84.7737 268.077 84.9043 267.486 85.1657 266.98C85.4271 266.472 85.7978 266.077 86.2779 265.795C86.7609 265.511 87.3333 265.369 87.9953 265.369C88.6572 265.369 89.2282 265.511 89.7083 265.795C90.1913 266.077 90.5634 266.472 90.8248 266.98C91.0862 267.486 91.2168 268.077 91.2168 268.753C91.2168 269.423 91.0862 270.013 90.8248 270.521C90.5634 271.027 90.1913 271.422 89.7083 271.706C89.2282 271.987 88.6572 272.128 87.9953 272.128ZM88.0038 270.722C88.3049 270.722 88.5563 270.636 88.758 270.466C88.9597 270.293 89.1117 270.057 89.214 269.759C89.3191 269.46 89.3717 269.121 89.3717 268.74C89.3717 268.359 89.3191 268.02 89.214 267.722C89.1117 267.423 88.9597 267.187 88.758 267.014C88.5563 266.841 88.3049 266.754 88.0038 266.754C87.6998 266.754 87.4441 266.841 87.2367 267.014C87.0322 267.187 86.8774 267.423 86.7722 267.722C86.67 268.02 86.6188 268.359 86.6188 268.74C86.6188 269.121 86.67 269.46 86.7722 269.759C86.8774 270.057 87.0322 270.293 87.2367 270.466C87.4441 270.636 87.6998 270.722 88.0038 270.722ZM92.2772 272V265.455H94.0074V266.609H94.0841C94.2204 266.226 94.4477 265.923 94.7659 265.702C95.0841 265.48 95.4647 265.369 95.9079 265.369C96.3568 265.369 96.7389 265.482 97.0542 265.706C97.3696 265.928 97.5798 266.229 97.6849 266.609H97.7531C97.8866 266.234 98.1281 265.935 98.4775 265.71C98.8298 265.483 99.246 265.369 99.7261 265.369C100.337 265.369 100.833 265.564 101.213 265.953C101.597 266.339 101.789 266.888 101.789 267.598V272H99.9775V267.956C99.9775 267.592 99.8809 267.32 99.6878 267.138C99.4946 266.956 99.2531 266.865 98.9633 266.865C98.6338 266.865 98.3767 266.97 98.192 267.18C98.0074 267.388 97.915 267.662 97.915 268.003V272H96.1551V267.918C96.1551 267.597 96.0628 267.341 95.8781 267.151C95.6963 266.96 95.4562 266.865 95.1579 266.865C94.9562 266.865 94.7744 266.916 94.6125 267.018C94.4534 267.118 94.327 267.259 94.2332 267.44C94.1395 267.619 94.0926 267.83 94.0926 268.071V272H92.2772ZM106.086 272.128C105.412 272.128 104.833 271.991 104.347 271.719C103.864 271.443 103.492 271.054 103.23 270.551C102.969 270.045 102.838 269.447 102.838 268.757C102.838 268.084 102.969 267.493 103.23 266.984C103.492 266.476 103.86 266.08 104.334 265.795C104.811 265.511 105.371 265.369 106.013 265.369C106.445 265.369 106.847 265.439 107.219 265.578C107.594 265.714 107.921 265.92 108.199 266.196C108.48 266.472 108.699 266.818 108.855 267.236C109.012 267.651 109.09 268.136 109.09 268.693V269.192H103.563V268.067H107.381C107.381 267.805 107.324 267.574 107.211 267.372C107.097 267.17 106.939 267.013 106.738 266.899C106.539 266.783 106.307 266.724 106.043 266.724C105.767 266.724 105.523 266.788 105.31 266.916C105.1 267.041 104.935 267.21 104.816 267.423C104.696 267.634 104.635 267.868 104.632 268.126V269.196C104.632 269.52 104.692 269.8 104.811 270.036C104.934 270.271 105.105 270.453 105.327 270.581C105.549 270.709 105.811 270.773 106.115 270.773C106.317 270.773 106.502 270.744 106.669 270.688C106.837 270.631 106.98 270.545 107.1 270.432C107.219 270.318 107.31 270.179 107.372 270.014L109.051 270.125C108.966 270.528 108.791 270.881 108.527 271.182C108.266 271.48 107.928 271.713 107.513 271.881C107.101 272.045 106.625 272.128 106.086 272.128ZM110.154 272V265.455H111.914V266.597H111.983C112.102 266.19 112.302 265.884 112.583 265.676C112.865 265.466 113.189 265.361 113.555 265.361C113.646 265.361 113.744 265.366 113.849 265.378C113.954 265.389 114.046 265.405 114.126 265.425V267.036C114.041 267.01 113.923 266.987 113.772 266.967C113.622 266.947 113.484 266.938 113.359 266.938C113.092 266.938 112.853 266.996 112.643 267.112C112.436 267.226 112.271 267.385 112.149 267.589C112.029 267.794 111.97 268.03 111.97 268.297V272H110.154Z" fill="#1A1D1F"/>
<rect x="146.5" y="260" width="16" height="16" rx="4" fill="#CABDFF"/>
<path d="M171.259 272V263.273H174.702C175.361 263.273 175.923 263.391 176.389 263.626C176.858 263.859 177.214 264.19 177.459 264.619C177.706 265.045 177.83 265.547 177.83 266.124C177.83 266.703 177.705 267.202 177.455 267.619C177.205 268.034 176.842 268.352 176.368 268.574C175.896 268.795 175.325 268.906 174.655 268.906H172.349V267.423H174.357C174.709 267.423 175.001 267.375 175.234 267.278C175.467 267.182 175.641 267.037 175.754 266.844C175.871 266.651 175.929 266.411 175.929 266.124C175.929 265.834 175.871 265.589 175.754 265.391C175.641 265.192 175.466 265.041 175.23 264.939C174.997 264.834 174.703 264.781 174.348 264.781H173.104V272H171.259ZM175.972 268.028L178.141 272H176.104L173.982 268.028H175.972ZM181.857 272.128C181.184 272.128 180.604 271.991 180.118 271.719C179.635 271.443 179.263 271.054 179.002 270.551C178.74 270.045 178.61 269.447 178.61 268.757C178.61 268.084 178.74 267.493 179.002 266.984C179.263 266.476 179.631 266.08 180.105 265.795C180.583 265.511 181.142 265.369 181.784 265.369C182.216 265.369 182.618 265.439 182.99 265.578C183.365 265.714 183.692 265.92 183.971 266.196C184.252 266.472 184.471 266.818 184.627 267.236C184.783 267.651 184.861 268.136 184.861 268.693V269.192H179.334V268.067H183.152C183.152 267.805 183.096 267.574 182.982 267.372C182.868 267.17 182.711 267.013 182.509 266.899C182.31 266.783 182.079 266.724 181.814 266.724C181.539 266.724 181.294 266.788 181.081 266.916C180.871 267.041 180.706 267.21 180.587 267.423C180.468 267.634 180.407 267.868 180.404 268.126V269.196C180.404 269.52 180.463 269.8 180.583 270.036C180.705 270.271 180.877 270.453 181.098 270.581C181.32 270.709 181.583 270.773 181.887 270.773C182.088 270.773 182.273 270.744 182.441 270.688C182.608 270.631 182.752 270.545 182.871 270.432C182.99 270.318 183.081 270.179 183.144 270.014L184.823 270.125C184.738 270.528 184.563 270.881 184.299 271.182C184.037 271.48 183.699 271.713 183.284 271.881C182.873 272.045 182.397 272.128 181.857 272.128ZM189.407 265.455V266.818H185.466V265.455H189.407ZM186.36 263.886H188.176V269.989C188.176 270.156 188.201 270.287 188.253 270.381C188.304 270.472 188.375 270.536 188.466 270.572C188.559 270.609 188.667 270.628 188.789 270.628C188.875 270.628 188.96 270.621 189.045 270.607C189.13 270.589 189.196 270.577 189.241 270.568L189.527 271.919C189.436 271.947 189.308 271.98 189.143 272.017C188.978 272.057 188.778 272.081 188.542 272.089C188.105 272.107 187.721 272.048 187.392 271.915C187.065 271.781 186.811 271.574 186.629 271.293C186.447 271.011 186.358 270.656 186.36 270.227V263.886ZM194.667 269.213V265.455H196.483V272H194.74V270.811H194.672C194.524 271.195 194.278 271.503 193.934 271.736C193.593 271.969 193.177 272.085 192.686 272.085C192.248 272.085 191.863 271.986 191.531 271.787C191.199 271.588 190.939 271.305 190.751 270.939C190.566 270.572 190.473 270.134 190.47 269.622V265.455H192.285V269.298C192.288 269.685 192.392 269.99 192.596 270.214C192.801 270.439 193.075 270.551 193.419 270.551C193.638 270.551 193.842 270.501 194.032 270.402C194.223 270.3 194.376 270.149 194.493 269.95C194.612 269.751 194.67 269.506 194.667 269.213ZM197.815 272V265.455H199.575V266.597H199.643C199.762 266.19 199.962 265.884 200.244 265.676C200.525 265.466 200.849 265.361 201.215 265.361C201.306 265.361 201.404 265.366 201.509 265.378C201.614 265.389 201.707 265.405 201.786 265.425V267.036C201.701 267.01 201.583 266.987 201.433 266.967C201.282 266.947 201.144 266.938 201.019 266.938C200.752 266.938 200.514 266.996 200.303 267.112C200.096 267.226 199.931 267.385 199.809 267.589C199.69 267.794 199.63 268.03 199.63 268.297V272H197.815ZM204.42 268.216V272H202.605V265.455H204.335V266.609H204.412C204.557 266.229 204.8 265.928 205.14 265.706C205.481 265.482 205.895 265.369 206.38 265.369C206.835 265.369 207.231 265.469 207.569 265.668C207.907 265.866 208.17 266.151 208.358 266.52C208.545 266.886 208.639 267.324 208.639 267.832V272H206.824V268.156C206.826 267.756 206.724 267.443 206.517 267.219C206.309 266.991 206.024 266.878 205.66 266.878C205.416 266.878 205.2 266.93 205.013 267.036C204.828 267.141 204.683 267.294 204.578 267.496C204.476 267.695 204.423 267.935 204.42 268.216ZM209.95 272V265.455H211.765V272H209.95ZM210.862 264.611C210.592 264.611 210.36 264.521 210.167 264.342C209.977 264.161 209.882 263.943 209.882 263.69C209.882 263.44 209.977 263.226 210.167 263.047C210.36 262.865 210.592 262.774 210.862 262.774C211.132 262.774 211.362 262.865 211.552 263.047C211.745 263.226 211.842 263.44 211.842 263.69C211.842 263.943 211.745 264.161 211.552 264.342C211.362 264.521 211.132 264.611 210.862 264.611ZM214.915 268.216V272H213.099V265.455H214.829V266.609H214.906C215.051 266.229 215.294 265.928 215.635 265.706C215.976 265.482 216.389 265.369 216.875 265.369C217.329 265.369 217.726 265.469 218.064 265.668C218.402 265.866 218.665 266.151 218.852 266.52C219.04 266.886 219.133 267.324 219.133 267.832V272H217.318V268.156C217.321 267.756 217.219 267.443 217.011 267.219C216.804 266.991 216.518 266.878 216.155 266.878C215.91 266.878 215.694 266.93 215.507 267.036C215.322 267.141 215.177 267.294 215.072 267.496C214.97 267.695 214.917 267.935 214.915 268.216ZM223.393 274.591C222.805 274.591 222.301 274.51 221.88 274.348C221.463 274.189 221.13 273.972 220.883 273.696C220.636 273.42 220.475 273.111 220.402 272.767L222.08 272.541C222.132 272.672 222.213 272.794 222.323 272.908C222.434 273.021 222.58 273.112 222.762 273.18C222.947 273.251 223.171 273.287 223.436 273.287C223.83 273.287 224.156 273.19 224.411 272.997C224.67 272.807 224.799 272.487 224.799 272.038V270.841H224.723C224.643 271.023 224.524 271.195 224.365 271.357C224.205 271.518 224.001 271.651 223.751 271.753C223.501 271.855 223.203 271.906 222.856 271.906C222.365 271.906 221.917 271.793 221.514 271.565C221.113 271.335 220.794 270.984 220.555 270.513C220.319 270.038 220.201 269.439 220.201 268.714C220.201 267.973 220.322 267.354 220.563 266.857C220.805 266.359 221.126 265.987 221.527 265.74C221.93 265.493 222.372 265.369 222.852 265.369C223.218 265.369 223.525 265.432 223.772 265.557C224.019 265.679 224.218 265.832 224.369 266.017C224.522 266.199 224.64 266.378 224.723 266.554H224.791V265.455H226.593V272.064C226.593 272.621 226.457 273.087 226.184 273.462C225.911 273.837 225.534 274.118 225.051 274.305C224.571 274.496 224.018 274.591 223.393 274.591ZM223.431 270.543C223.724 270.543 223.971 270.47 224.173 270.325C224.377 270.178 224.534 269.967 224.642 269.695C224.752 269.419 224.808 269.089 224.808 268.706C224.808 268.322 224.754 267.99 224.646 267.709C224.538 267.425 224.382 267.205 224.177 267.048C223.973 266.892 223.724 266.814 223.431 266.814C223.133 266.814 222.882 266.895 222.677 267.057C222.473 267.216 222.318 267.437 222.213 267.722C222.107 268.006 222.055 268.334 222.055 268.706C222.055 269.084 222.107 269.411 222.213 269.686C222.321 269.959 222.475 270.17 222.677 270.321C222.882 270.469 223.133 270.543 223.431 270.543ZM233.533 272.128C232.862 272.128 232.285 271.986 231.802 271.702C231.322 271.415 230.953 271.017 230.695 270.509C230.439 270 230.311 269.415 230.311 268.753C230.311 268.082 230.44 267.494 230.699 266.989C230.96 266.48 231.331 266.084 231.811 265.8C232.291 265.513 232.862 265.369 233.524 265.369C234.095 265.369 234.595 265.473 235.024 265.68C235.453 265.888 235.793 266.179 236.043 266.554C236.293 266.929 236.43 267.369 236.456 267.875H234.743C234.695 267.548 234.567 267.286 234.359 267.087C234.155 266.885 233.886 266.784 233.554 266.784C233.273 266.784 233.027 266.861 232.817 267.014C232.609 267.165 232.447 267.385 232.331 267.675C232.214 267.964 232.156 268.315 232.156 268.727C232.156 269.145 232.213 269.5 232.327 269.793C232.443 270.085 232.606 270.308 232.817 270.462C233.027 270.615 233.273 270.692 233.554 270.692C233.761 270.692 233.947 270.649 234.112 270.564C234.28 270.479 234.418 270.355 234.525 270.193C234.636 270.028 234.709 269.831 234.743 269.601H236.456C236.427 270.101 236.291 270.541 236.047 270.922C235.805 271.3 235.472 271.595 235.045 271.808C234.619 272.021 234.115 272.128 233.533 272.128ZM241.696 269.213V265.455H243.511V272H241.768V270.811H241.7C241.552 271.195 241.306 271.503 240.963 271.736C240.622 271.969 240.206 272.085 239.714 272.085C239.277 272.085 238.892 271.986 238.559 271.787C238.227 271.588 237.967 271.305 237.779 270.939C237.595 270.572 237.501 270.134 237.498 269.622V265.455H239.314V269.298C239.316 269.685 239.42 269.99 239.625 270.214C239.829 270.439 240.103 270.551 240.447 270.551C240.666 270.551 240.87 270.501 241.061 270.402C241.251 270.3 241.404 270.149 241.521 269.95C241.64 269.751 241.698 269.506 241.696 269.213ZM250.289 267.321L248.627 267.423C248.599 267.281 248.538 267.153 248.444 267.04C248.35 266.923 248.227 266.831 248.073 266.763C247.923 266.692 247.742 266.656 247.532 266.656C247.251 266.656 247.013 266.716 246.82 266.835C246.627 266.952 246.531 267.108 246.531 267.304C246.531 267.46 246.593 267.592 246.718 267.7C246.843 267.808 247.058 267.895 247.361 267.96L248.546 268.199C249.183 268.33 249.657 268.54 249.969 268.83C250.282 269.119 250.438 269.5 250.438 269.972C250.438 270.401 250.312 270.777 250.059 271.101C249.809 271.425 249.465 271.678 249.028 271.859C248.593 272.038 248.092 272.128 247.523 272.128C246.657 272.128 245.967 271.947 245.452 271.587C244.941 271.223 244.641 270.729 244.553 270.104L246.339 270.01C246.393 270.274 246.523 270.476 246.731 270.615C246.938 270.751 247.204 270.82 247.528 270.82C247.846 270.82 248.102 270.759 248.295 270.636C248.491 270.511 248.59 270.351 248.593 270.155C248.59 269.99 248.521 269.855 248.384 269.75C248.248 269.642 248.038 269.56 247.754 269.503L246.62 269.277C245.981 269.149 245.505 268.928 245.192 268.612C244.883 268.297 244.728 267.895 244.728 267.406C244.728 266.986 244.842 266.624 245.069 266.32C245.299 266.016 245.621 265.781 246.036 265.616C246.454 265.452 246.942 265.369 247.502 265.369C248.329 265.369 248.979 265.544 249.454 265.893C249.931 266.243 250.21 266.719 250.289 267.321ZM254.943 265.455V266.818H251.001V265.455H254.943ZM251.896 263.886H253.711V269.989C253.711 270.156 253.737 270.287 253.788 270.381C253.839 270.472 253.91 270.536 254.001 270.572C254.095 270.609 254.203 270.628 254.325 270.628C254.41 270.628 254.495 270.621 254.581 270.607C254.666 270.589 254.731 270.577 254.777 270.568L255.062 271.919C254.971 271.947 254.843 271.98 254.679 272.017C254.514 272.057 254.314 272.081 254.078 272.089C253.64 272.107 253.257 272.048 252.927 271.915C252.601 271.781 252.346 271.574 252.164 271.293C251.983 271.011 251.893 270.656 251.896 270.227V263.886ZM258.892 272.128C258.231 272.128 257.658 271.987 257.175 271.706C256.695 271.422 256.324 271.027 256.063 270.521C255.802 270.013 255.671 269.423 255.671 268.753C255.671 268.077 255.802 267.486 256.063 266.98C256.324 266.472 256.695 266.077 257.175 265.795C257.658 265.511 258.231 265.369 258.892 265.369C259.554 265.369 260.125 265.511 260.606 265.795C261.088 266.077 261.461 266.472 261.722 266.98C261.983 267.486 262.114 268.077 262.114 268.753C262.114 269.423 261.983 270.013 261.722 270.521C261.461 271.027 261.088 271.422 260.606 271.706C260.125 271.987 259.554 272.128 258.892 272.128ZM258.901 270.722C259.202 270.722 259.454 270.636 259.655 270.466C259.857 270.293 260.009 270.057 260.111 269.759C260.216 269.46 260.269 269.121 260.269 268.74C260.269 268.359 260.216 268.02 260.111 267.722C260.009 267.423 259.857 267.187 259.655 267.014C259.454 266.841 259.202 266.754 258.901 266.754C258.597 266.754 258.341 266.841 258.134 267.014C257.929 267.187 257.775 267.423 257.669 267.722C257.567 268.02 257.516 268.359 257.516 268.74C257.516 269.121 257.567 269.46 257.669 269.759C257.775 270.057 257.929 270.293 258.134 270.466C258.341 270.636 258.597 270.722 258.901 270.722ZM263.174 272V265.455H264.905V266.609H264.981C265.118 266.226 265.345 265.923 265.663 265.702C265.981 265.48 266.362 265.369 266.805 265.369C267.254 265.369 267.636 265.482 267.951 265.706C268.267 265.928 268.477 266.229 268.582 266.609H268.65C268.784 266.234 269.025 265.935 269.375 265.71C269.727 265.483 270.143 265.369 270.623 265.369C271.234 265.369 271.73 265.564 272.111 265.953C272.494 266.339 272.686 266.888 272.686 267.598V272H270.875V267.956C270.875 267.592 270.778 267.32 270.585 267.138C270.392 266.956 270.15 266.865 269.861 266.865C269.531 266.865 269.274 266.97 269.089 267.18C268.905 267.388 268.812 267.662 268.812 268.003V272H267.052V267.918C267.052 267.597 266.96 267.341 266.775 267.151C266.593 266.96 266.353 266.865 266.055 266.865C265.853 266.865 265.672 266.916 265.51 267.018C265.351 267.118 265.224 267.259 265.13 267.44C265.037 267.619 264.99 267.83 264.99 268.071V272H263.174ZM276.983 272.128C276.309 272.128 275.73 271.991 275.244 271.719C274.761 271.443 274.389 271.054 274.128 270.551C273.866 270.045 273.736 269.447 273.736 268.757C273.736 268.084 273.866 267.493 274.128 266.984C274.389 266.476 274.757 266.08 275.231 265.795C275.709 265.511 276.268 265.369 276.91 265.369C277.342 265.369 277.744 265.439 278.116 265.578C278.491 265.714 278.818 265.92 279.096 266.196C279.378 266.472 279.596 266.818 279.753 267.236C279.909 267.651 279.987 268.136 279.987 268.693V269.192H274.46V268.067H278.278C278.278 267.805 278.221 267.574 278.108 267.372C277.994 267.17 277.836 267.013 277.635 266.899C277.436 266.783 277.204 266.724 276.94 266.724C276.665 266.724 276.42 266.788 276.207 266.916C275.997 267.041 275.832 267.21 275.713 267.423C275.593 267.634 275.532 267.868 275.53 268.126V269.196C275.53 269.52 275.589 269.8 275.709 270.036C275.831 270.271 276.003 270.453 276.224 270.581C276.446 270.709 276.709 270.773 277.013 270.773C277.214 270.773 277.399 270.744 277.567 270.688C277.734 270.631 277.878 270.545 277.997 270.432C278.116 270.318 278.207 270.179 278.27 270.014L279.949 270.125C279.863 270.528 279.689 270.881 279.424 271.182C279.163 271.48 278.825 271.713 278.41 271.881C277.998 272.045 277.522 272.128 276.983 272.128ZM281.052 272V265.455H282.812V266.597H282.88C282.999 266.19 283.199 265.884 283.481 265.676C283.762 265.466 284.086 265.361 284.452 265.361C284.543 265.361 284.641 265.366 284.746 265.378C284.851 265.389 284.944 265.405 285.023 265.425V267.036C284.938 267.01 284.82 266.987 284.67 266.967C284.519 266.947 284.381 266.938 284.256 266.938C283.989 266.938 283.75 266.996 283.54 267.112C283.333 267.226 283.168 267.385 283.046 267.589C282.927 267.794 282.867 268.03 282.867 268.297V272H281.052Z" fill="#1A1D1F"/>
<rect x="93" y="295" width="16" height="16" rx="4" fill="#2A85FF"/>
<path d="M119.263 307H117.286L120.298 298.273H122.676L125.685 307H123.707L121.521 300.267H121.453L119.263 307ZM119.139 303.57H123.81V305.01H119.139V303.57ZM128.396 298.273V307H126.581V298.273H128.396ZM131.546 298.273V307H129.731V298.273H131.546ZM143.272 301.328H141.405C141.371 301.087 141.302 300.872 141.196 300.685C141.091 300.494 140.956 300.332 140.792 300.199C140.627 300.065 140.437 299.963 140.221 299.892C140.008 299.821 139.776 299.786 139.526 299.786C139.074 299.786 138.681 299.898 138.346 300.122C138.01 300.344 137.75 300.668 137.566 301.094C137.381 301.517 137.289 302.031 137.289 302.636C137.289 303.259 137.381 303.781 137.566 304.205C137.753 304.628 138.015 304.947 138.35 305.163C138.685 305.379 139.073 305.487 139.513 305.487C139.76 305.487 139.989 305.455 140.199 305.389C140.412 305.324 140.601 305.229 140.766 305.104C140.931 304.976 141.067 304.821 141.175 304.639C141.286 304.457 141.363 304.25 141.405 304.017L143.272 304.026C143.223 304.426 143.103 304.812 142.91 305.185C142.719 305.554 142.462 305.885 142.138 306.178C141.817 306.467 141.434 306.697 140.988 306.868C140.545 307.036 140.043 307.119 139.483 307.119C138.705 307.119 138.009 306.943 137.395 306.591C136.785 306.239 136.302 305.729 135.946 305.061C135.594 304.393 135.418 303.585 135.418 302.636C135.418 301.685 135.597 300.875 135.955 300.207C136.313 299.54 136.799 299.031 137.412 298.682C138.026 298.33 138.716 298.153 139.483 298.153C139.989 298.153 140.458 298.224 140.89 298.366C141.324 298.509 141.709 298.716 142.045 298.989C142.38 299.259 142.652 299.589 142.863 299.982C143.076 300.374 143.212 300.822 143.272 301.328ZM148.638 304.213V300.455H150.454V307H148.711V305.811H148.643C148.495 306.195 148.249 306.503 147.905 306.736C147.564 306.969 147.148 307.085 146.657 307.085C146.219 307.085 145.834 306.986 145.502 306.787C145.17 306.588 144.91 306.305 144.722 305.939C144.537 305.572 144.444 305.134 144.441 304.622V300.455H146.256V304.298C146.259 304.685 146.363 304.99 146.567 305.214C146.772 305.439 147.046 305.551 147.39 305.551C147.608 305.551 147.813 305.501 148.003 305.402C148.194 305.3 148.347 305.149 148.464 304.95C148.583 304.751 148.641 304.506 148.638 304.213ZM157.232 302.321L155.57 302.423C155.541 302.281 155.48 302.153 155.387 302.04C155.293 301.923 155.169 301.831 155.016 301.763C154.865 301.692 154.685 301.656 154.475 301.656C154.193 301.656 153.956 301.716 153.763 301.835C153.57 301.952 153.473 302.108 153.473 302.304C153.473 302.46 153.536 302.592 153.661 302.7C153.786 302.808 154 302.895 154.304 302.96L155.489 303.199C156.125 303.33 156.6 303.54 156.912 303.83C157.225 304.119 157.381 304.5 157.381 304.972C157.381 305.401 157.254 305.777 157.002 306.101C156.752 306.425 156.408 306.678 155.97 306.859C155.536 307.038 155.034 307.128 154.466 307.128C153.6 307.128 152.909 306.947 152.395 306.587C151.884 306.223 151.584 305.729 151.496 305.104L153.281 305.01C153.335 305.274 153.466 305.476 153.673 305.615C153.881 305.751 154.146 305.82 154.47 305.82C154.789 305.82 155.044 305.759 155.237 305.636C155.433 305.511 155.533 305.351 155.536 305.155C155.533 304.99 155.463 304.855 155.327 304.75C155.191 304.642 154.98 304.56 154.696 304.503L153.563 304.277C152.923 304.149 152.448 303.928 152.135 303.612C151.825 303.297 151.671 302.895 151.671 302.406C151.671 301.986 151.784 301.624 152.012 301.32C152.242 301.016 152.564 300.781 152.979 300.616C153.396 300.452 153.885 300.369 154.445 300.369C155.271 300.369 155.922 300.544 156.396 300.893C156.874 301.243 157.152 301.719 157.232 302.321ZM161.885 300.455V301.818H157.944V300.455H161.885ZM158.839 298.886H160.654V304.989C160.654 305.156 160.68 305.287 160.731 305.381C160.782 305.472 160.853 305.536 160.944 305.572C161.037 305.609 161.145 305.628 161.268 305.628C161.353 305.628 161.438 305.621 161.523 305.607C161.609 305.589 161.674 305.577 161.719 305.568L162.005 306.919C161.914 306.947 161.786 306.98 161.621 307.017C161.457 307.057 161.256 307.081 161.02 307.089C160.583 307.107 160.199 307.048 159.87 306.915C159.543 306.781 159.289 306.574 159.107 306.293C158.925 306.011 158.836 305.656 158.839 305.227V298.886ZM165.835 307.128C165.173 307.128 164.601 306.987 164.118 306.706C163.638 306.422 163.267 306.027 163.006 305.521C162.744 305.013 162.614 304.423 162.614 303.753C162.614 303.077 162.744 302.486 163.006 301.98C163.267 301.472 163.638 301.077 164.118 300.795C164.601 300.511 165.173 300.369 165.835 300.369C166.497 300.369 167.068 300.511 167.548 300.795C168.031 301.077 168.403 301.472 168.665 301.98C168.926 302.486 169.057 303.077 169.057 303.753C169.057 304.423 168.926 305.013 168.665 305.521C168.403 306.027 168.031 306.422 167.548 306.706C167.068 306.987 166.497 307.128 165.835 307.128ZM165.844 305.722C166.145 305.722 166.396 305.636 166.598 305.466C166.8 305.293 166.952 305.057 167.054 304.759C167.159 304.46 167.212 304.121 167.212 303.74C167.212 303.359 167.159 303.02 167.054 302.722C166.952 302.423 166.8 302.187 166.598 302.014C166.396 301.841 166.145 301.754 165.844 301.754C165.54 301.754 165.284 301.841 165.077 302.014C164.872 302.187 164.717 302.423 164.612 302.722C164.51 303.02 164.459 303.359 164.459 303.74C164.459 304.121 164.51 304.46 164.612 304.759C164.717 305.057 164.872 305.293 165.077 305.466C165.284 305.636 165.54 305.722 165.844 305.722ZM170.117 307V300.455H171.847V301.609H171.924C172.06 301.226 172.288 300.923 172.606 300.702C172.924 300.48 173.305 300.369 173.748 300.369C174.197 300.369 174.579 300.482 174.894 300.706C175.209 300.928 175.42 301.229 175.525 301.609H175.593C175.726 301.234 175.968 300.935 176.317 300.71C176.67 300.483 177.086 300.369 177.566 300.369C178.177 300.369 178.672 300.564 179.053 300.953C179.437 301.339 179.628 301.888 179.628 302.598V307H177.817V302.956C177.817 302.592 177.721 302.32 177.528 302.138C177.334 301.956 177.093 301.865 176.803 301.865C176.474 301.865 176.217 301.97 176.032 302.18C175.847 302.388 175.755 302.662 175.755 303.003V307H173.995V302.918C173.995 302.597 173.903 302.341 173.718 302.151C173.536 301.96 173.296 301.865 172.998 301.865C172.796 301.865 172.614 301.916 172.452 302.018C172.293 302.118 172.167 302.259 172.073 302.44C171.979 302.619 171.932 302.83 171.932 303.071V307H170.117ZM183.925 307.128C183.252 307.128 182.673 306.991 182.187 306.719C181.704 306.443 181.332 306.054 181.07 305.551C180.809 305.045 180.678 304.447 180.678 303.757C180.678 303.084 180.809 302.493 181.07 301.984C181.332 301.476 181.7 301.08 182.174 300.795C182.651 300.511 183.211 300.369 183.853 300.369C184.285 300.369 184.687 300.439 185.059 300.578C185.434 300.714 185.761 300.92 186.039 301.196C186.32 301.472 186.539 301.818 186.695 302.236C186.851 302.651 186.93 303.136 186.93 303.693V304.192H181.403V303.067H185.221C185.221 302.805 185.164 302.574 185.05 302.372C184.937 302.17 184.779 302.013 184.577 301.899C184.378 301.783 184.147 301.724 183.883 301.724C183.607 301.724 183.363 301.788 183.15 301.916C182.94 302.041 182.775 302.21 182.655 302.423C182.536 302.634 182.475 302.868 182.472 303.126V304.196C182.472 304.52 182.532 304.8 182.651 305.036C182.773 305.271 182.945 305.453 183.167 305.581C183.388 305.709 183.651 305.773 183.955 305.773C184.157 305.773 184.342 305.744 184.509 305.688C184.677 305.631 184.82 305.545 184.94 305.432C185.059 305.318 185.15 305.179 185.212 305.014L186.891 305.125C186.806 305.528 186.631 305.881 186.367 306.182C186.106 306.48 185.768 306.713 185.353 306.881C184.941 307.045 184.465 307.128 183.925 307.128ZM187.994 307V300.455H189.754V301.597H189.822C189.942 301.19 190.142 300.884 190.423 300.676C190.705 300.466 191.028 300.361 191.395 300.361C191.486 300.361 191.584 300.366 191.689 300.378C191.794 300.389 191.886 300.405 191.966 300.425V302.036C191.881 302.01 191.763 301.987 191.612 301.967C191.462 301.947 191.324 301.938 191.199 301.938C190.932 301.938 190.693 301.996 190.483 302.112C190.276 302.226 190.111 302.385 189.989 302.589C189.869 302.794 189.81 303.03 189.81 303.297V307H187.994ZM198.23 302.321L196.569 302.423C196.54 302.281 196.479 302.153 196.385 302.04C196.292 301.923 196.168 301.831 196.015 301.763C195.864 301.692 195.684 301.656 195.473 301.656C195.192 301.656 194.955 301.716 194.762 301.835C194.569 301.952 194.472 302.108 194.472 302.304C194.472 302.46 194.534 302.592 194.659 302.7C194.784 302.808 194.999 302.895 195.303 302.96L196.488 303.199C197.124 303.33 197.598 303.54 197.911 303.83C198.223 304.119 198.38 304.5 198.38 304.972C198.38 305.401 198.253 305.777 198 306.101C197.75 306.425 197.407 306.678 196.969 306.859C196.534 307.038 196.033 307.128 195.465 307.128C194.598 307.128 193.908 306.947 193.394 306.587C192.882 306.223 192.583 305.729 192.495 305.104L194.28 305.01C194.334 305.274 194.465 305.476 194.672 305.615C194.88 305.751 195.145 305.82 195.469 305.82C195.787 305.82 196.043 305.759 196.236 305.636C196.432 305.511 196.532 305.351 196.534 305.155C196.532 304.99 196.462 304.855 196.326 304.75C196.189 304.642 195.979 304.56 195.695 304.503L194.561 304.277C193.922 304.149 193.446 303.928 193.134 303.612C192.824 303.297 192.669 302.895 192.669 302.406C192.669 301.986 192.783 301.624 193.01 301.32C193.24 301.016 193.563 300.781 193.978 300.616C194.395 300.452 194.884 300.369 195.444 300.369C196.27 300.369 196.921 300.544 197.395 300.893C197.872 301.243 198.151 301.719 198.23 302.321Z" fill="#1A1D1F"/>
<defs>
<filter id="filter0_ddi_141_56" x="89" y="86" width="115" height="64" filterUnits="userSpaceOnUse" color-interpolation-filters="sRGB">
<feFlood flood-opacity="0" result="BackgroundImageFix"/>
<feColorMatrix in="SourceAlpha" type="matrix" values="0 0 0 0 0 0 0 0 0 0 0 0 0 0 0 0 0 0 127 0" result="hardAlpha"/>
<feOffset dy="2"/>
<feGaussianBlur stdDeviation="2"/>
<feComposite in2="hardAlpha" operator="out"/>
<feColorMatrix type="matrix" values="0 0 0 0 0 0 0 0 0 0 0 0 0 0 0 0 0 0 0.1 0"/>
<feBlend mode="multiply" in2="BackgroundImageFix" result="effect1_dropShadow_141_56"/>
<feColorMatrix in="SourceAlpha" type="matrix" values="0 0 0 0 0 0 0 0 0 0 0 0 0 0 0 0 0 0 127 0" result="hardAlpha"/>
<feOffset dy="4"/>
<feGaussianBlur stdDeviation="4"/>
<feComposite in2="hardAlpha" operator="out"/>
<feColorMatrix type="matrix" values="0 0 0 0 0 0 0 0 0 0 0 0 0 0 0 0 0 0 0.1 0"/>
<feBlend mode="multiply" in2="effect1_dropShadow_141_56" result="effect2_dropShadow_141_56"/>
<feBlend mode="normal" in="SourceGraphic" in2="effect2_dropShadow_141_56" result="shape"/>
<feColorMatrix in="SourceAlpha" type="matrix" values="0 0 0 0 0 0 0 0 0 0 0 0 0 0 0 0 0 0 127 0" result="hardAlpha"/>
<feOffset/>
<feGaussianBlur stdDeviation="0.5"/>
<feComposite in2="hardAlpha" operator="arithmetic" k2="-1" k3="1"/>
<feColorMatrix type="matrix" values="0 0 0 0 0 0 0 0 0 0 0 0 0 0 0 0 0 0 1 0"/>
<feBlend mode="multiply" in2="shape" result="effect3_innerShadow_141_56"/>
</filter>
<filter id="filter1_d_141_56" x="44.0972" y="85.7939" width="18.3739" height="19.7925" filterUnits="userSpaceOnUse" color-interpolation-filters="sRGB">
<feFlood flood-opacity="0" result="BackgroundImageFix"/>
<feColorMatrix in="SourceAlpha" type="matrix" values="0 0 0 0 0 0 0 0 0 0 0 0 0 0 0 0 0 0 127 0" result="hardAlpha"/>
<feOffset dy="2"/>
<feGaussianBlur stdDeviation="1"/>
<feColorMatrix type="matrix" values="0 0 0 0 0 0 0 0 0 0 0 0 0 0 0 0 0 0 0.25 0"/>
<feBlend mode="normal" in2="BackgroundImageFix" result="effect1_dropShadow_141_56"/>
<feBlend mode="normal" in="SourceGraphic" in2="effect1_dropShadow_141_56" result="shape"/>
</filter>
</defs>
</svg>
