<svg width="746" height="320" viewBox="0 0 746 320" fill="none" xmlns="http://www.w3.org/2000/svg">
<path d="M3.53267 27.0909V16.1818H4.23153V27.0909H3.53267ZM5.71875 19.5653C5.6733 19.1619 5.4858 18.8494 5.15625 18.6278C4.8267 18.4034 4.41193 18.2912 3.91193 18.2912C3.55398 18.2912 3.24432 18.348 2.98295 18.4616C2.72159 18.5724 2.51847 18.7259 2.37358 18.9219C2.23153 19.1151 2.16051 19.3352 2.16051 19.5824C2.16051 19.7898 2.20881 19.9687 2.3054 20.1193C2.40483 20.2699 2.53409 20.3963 2.69318 20.4986C2.85511 20.598 3.02841 20.6818 3.21307 20.75C3.39773 20.8153 3.57528 20.8693 3.74574 20.9119L4.59801 21.1335C4.87642 21.2017 5.16193 21.294 5.45455 21.4105C5.74716 21.527 6.01847 21.6804 6.26847 21.8707C6.51847 22.0611 6.72017 22.2969 6.87358 22.5781C7.02983 22.8594 7.10795 23.196 7.10795 23.5881C7.10795 24.0824 6.98011 24.5213 6.72443 24.9048C6.47159 25.2884 6.10369 25.5909 5.62074 25.8125C5.14063 26.0341 4.55966 26.1449 3.87784 26.1449C3.22443 26.1449 2.65909 26.0412 2.18182 25.8338C1.70455 25.6264 1.33097 25.3324 1.06108 24.9517C0.791193 24.5682 0.642045 24.1136 0.613636 23.5881H1.93466C1.96023 23.9034 2.0625 24.1662 2.24148 24.3764C2.4233 24.5838 2.65483 24.7386 2.93608 24.8409C3.22017 24.9403 3.53125 24.9901 3.86932 24.9901C4.24148 24.9901 4.57244 24.9318 4.86222 24.8153C5.15483 24.696 5.38494 24.5312 5.55256 24.321C5.72017 24.108 5.80398 23.8594 5.80398 23.5753C5.80398 23.3168 5.73011 23.1051 5.58239 22.9403C5.4375 22.7756 5.24006 22.6392 4.99006 22.5312C4.7429 22.4233 4.46307 22.3281 4.15057 22.2457L3.11932 21.9645C2.42045 21.7741 1.86648 21.4943 1.45739 21.125C1.05114 20.7557 0.848011 20.267 0.848011 19.6591C0.848011 19.1562 0.984375 18.7173 1.2571 18.3423C1.52983 17.9673 1.89915 17.6761 2.36506 17.4688C2.83097 17.2585 3.35653 17.1534 3.94176 17.1534C4.53267 17.1534 5.05398 17.2571 5.50568 17.4645C5.96023 17.6719 6.31818 17.9574 6.57955 18.321C6.84091 18.6818 6.97727 19.0966 6.98864 19.5653H5.71875ZM11.4805 26.1193C10.8953 26.1193 10.3725 26.0185 9.91232 25.8168C9.45493 25.6151 9.09271 25.3352 8.82567 24.9773C8.56146 24.6165 8.41942 24.1989 8.39953 23.7244H9.7376C9.75465 23.983 9.84129 24.2074 9.99754 24.3977C10.1566 24.5852 10.364 24.7301 10.6197 24.8324C10.8754 24.9347 11.1595 24.9858 11.472 24.9858C11.8157 24.9858 12.1197 24.9261 12.3839 24.8068C12.651 24.6875 12.8598 24.5213 13.0103 24.3082C13.1609 24.0923 13.2362 23.8438 13.2362 23.5625C13.2362 23.2699 13.1609 23.0128 13.0103 22.7912C12.8626 22.5668 12.6453 22.3906 12.3583 22.2628C12.0742 22.1349 11.7305 22.071 11.3271 22.071H10.5899V20.9972H11.3271C11.651 20.9972 11.935 20.9389 12.1794 20.8224C12.4265 20.706 12.6197 20.544 12.7589 20.3366C12.8981 20.1264 12.9677 19.8807 12.9677 19.5994C12.9677 19.3295 12.9066 19.0952 12.7845 18.8963C12.6652 18.6946 12.4947 18.5369 12.2731 18.4233C12.0544 18.3097 11.7958 18.2528 11.4975 18.2528C11.2135 18.2528 10.9478 18.3054 10.7007 18.4105C10.4563 18.5128 10.2575 18.6605 10.1041 18.8537C9.95067 19.044 9.86828 19.2727 9.85692 19.5398H8.58277C8.59697 19.0682 8.73618 18.6534 9.00038 18.2955C9.26743 17.9375 9.6197 17.6577 10.0572 17.456C10.4947 17.2543 10.9805 17.1534 11.5146 17.1534C12.0742 17.1534 12.5572 17.2628 12.9635 17.4815C13.3725 17.6974 13.6879 17.9858 13.9095 18.3466C14.1339 18.7074 14.2447 19.1023 14.2419 19.5312C14.2447 20.0199 14.1083 20.4347 13.8328 20.7756C13.56 21.1165 13.1964 21.3452 12.7419 21.4616V21.5298C13.3214 21.6179 13.7703 21.848 14.0885 22.2202C14.4095 22.5923 14.5686 23.054 14.5657 23.6051C14.5686 24.0852 14.435 24.5156 14.1652 24.8963C13.8981 25.277 13.5331 25.5767 13.07 25.7955C12.6069 26.0114 12.0771 26.1193 11.4805 26.1193ZM17.2454 23.7798L17.2369 22.2244H17.4585L20.0665 19.4545H21.592L18.6176 22.608H18.4173L17.2454 23.7798ZM16.0736 26V17.2727H17.3477V26H16.0736ZM20.2071 26L17.8633 22.8892L18.7412 21.9986L21.771 26H20.2071Z" fill="#6F767E"/>
<path d="M3.53267 79.0909V68.1818H4.23153V79.0909H3.53267ZM5.71875 71.5653C5.6733 71.1619 5.4858 70.8494 5.15625 70.6278C4.8267 70.4034 4.41193 70.2912 3.91193 70.2912C3.55398 70.2912 3.24432 70.348 2.98295 70.4616C2.72159 70.5724 2.51847 70.7259 2.37358 70.9219C2.23153 71.1151 2.16051 71.3352 2.16051 71.5824C2.16051 71.7898 2.20881 71.9687 2.3054 72.1193C2.40483 72.2699 2.53409 72.3963 2.69318 72.4986C2.85511 72.598 3.02841 72.6818 3.21307 72.75C3.39773 72.8153 3.57528 72.8693 3.74574 72.9119L4.59801 73.1335C4.87642 73.2017 5.16193 73.294 5.45455 73.4105C5.74716 73.527 6.01847 73.6804 6.26847 73.8707C6.51847 74.0611 6.72017 74.2969 6.87358 74.5781C7.02983 74.8594 7.10795 75.196 7.10795 75.5881C7.10795 76.0824 6.98011 76.5213 6.72443 76.9048C6.47159 77.2884 6.10369 77.5909 5.62074 77.8125C5.14063 78.0341 4.55966 78.1449 3.87784 78.1449C3.22443 78.1449 2.65909 78.0412 2.18182 77.8338C1.70455 77.6264 1.33097 77.3324 1.06108 76.9517C0.791193 76.5682 0.642045 76.1136 0.613636 75.5881H1.93466C1.96023 75.9034 2.0625 76.1662 2.24148 76.3764C2.4233 76.5838 2.65483 76.7386 2.93608 76.8409C3.22017 76.9403 3.53125 76.9901 3.86932 76.9901C4.24148 76.9901 4.57244 76.9318 4.86222 76.8153C5.15483 76.696 5.38494 76.5312 5.55256 76.321C5.72017 76.108 5.80398 75.8594 5.80398 75.5753C5.80398 75.3168 5.73011 75.1051 5.58239 74.9403C5.4375 74.7756 5.24006 74.6392 4.99006 74.5312C4.7429 74.4233 4.46307 74.3281 4.15057 74.2457L3.11932 73.9645C2.42045 73.7741 1.86648 73.4943 1.45739 73.125C1.05114 72.7557 0.848011 72.267 0.848011 71.6591C0.848011 71.1562 0.984375 70.7173 1.2571 70.3423C1.52983 69.9673 1.89915 69.6761 2.36506 69.4688C2.83097 69.2585 3.35653 69.1534 3.94176 69.1534C4.53267 69.1534 5.05398 69.2571 5.50568 69.4645C5.96023 69.6719 6.31818 69.9574 6.57955 70.321C6.84091 70.6818 6.97727 71.0966 6.98864 71.5653H5.71875ZM8.44215 78V77.0455L11.3953 73.9858C11.7106 73.6534 11.9706 73.3622 12.1751 73.1122C12.3825 72.8594 12.5373 72.6193 12.6396 72.392C12.7419 72.1648 12.793 71.9233 12.793 71.6676C12.793 71.3778 12.7248 71.1278 12.5885 70.9176C12.4521 70.7045 12.266 70.5412 12.0302 70.4276C11.7944 70.3111 11.5288 70.2528 11.2333 70.2528C10.9208 70.2528 10.6481 70.3168 10.4152 70.4446C10.1822 70.5724 10.0032 70.7528 9.87822 70.9858C9.75322 71.2187 9.69072 71.4915 9.69072 71.804H8.43362C8.43362 71.2727 8.55578 70.8082 8.8001 70.4105C9.04442 70.0128 9.37964 69.7045 9.80578 69.4858C10.2319 69.2642 10.7163 69.1534 11.2589 69.1534C11.8072 69.1534 12.2902 69.2628 12.7078 69.4815C13.1282 69.6974 13.4563 69.9929 13.6921 70.3679C13.9279 70.7401 14.0458 71.1605 14.0458 71.6293C14.0458 71.9531 13.9848 72.2699 13.8626 72.5795C13.7433 72.8892 13.5345 73.2344 13.2362 73.6151C12.9379 73.9929 12.5231 74.4517 11.9919 74.9915L10.2575 76.8068V76.8707H14.1865V78H8.44215ZM16.8704 75.7798L16.8619 74.2244H17.0835L19.6915 71.4545H21.217L18.2426 74.608H18.0423L16.8704 75.7798ZM15.6986 78V69.2727H16.9727V78H15.6986ZM19.8321 78L17.4883 74.8892L18.3662 73.9986L21.396 78H19.8321Z" fill="#6F767E"/>
<path d="M3.53267 131.091V120.182H4.23153V131.091H3.53267ZM5.71875 123.565C5.6733 123.162 5.4858 122.849 5.15625 122.628C4.8267 122.403 4.41193 122.291 3.91193 122.291C3.55398 122.291 3.24432 122.348 2.98295 122.462C2.72159 122.572 2.51847 122.726 2.37358 122.922C2.23153 123.115 2.16051 123.335 2.16051 123.582C2.16051 123.79 2.20881 123.969 2.3054 124.119C2.40483 124.27 2.53409 124.396 2.69318 124.499C2.85511 124.598 3.02841 124.682 3.21307 124.75C3.39773 124.815 3.57528 124.869 3.74574 124.912L4.59801 125.134C4.87642 125.202 5.16193 125.294 5.45455 125.411C5.74716 125.527 6.01847 125.68 6.26847 125.871C6.51847 126.061 6.72017 126.297 6.87358 126.578C7.02983 126.859 7.10795 127.196 7.10795 127.588C7.10795 128.082 6.98011 128.521 6.72443 128.905C6.47159 129.288 6.10369 129.591 5.62074 129.812C5.14063 130.034 4.55966 130.145 3.87784 130.145C3.22443 130.145 2.65909 130.041 2.18182 129.834C1.70455 129.626 1.33097 129.332 1.06108 128.952C0.791193 128.568 0.642045 128.114 0.613636 127.588H1.93466C1.96023 127.903 2.0625 128.166 2.24148 128.376C2.4233 128.584 2.65483 128.739 2.93608 128.841C3.22017 128.94 3.53125 128.99 3.86932 128.99C4.24148 128.99 4.57244 128.932 4.86222 128.815C5.15483 128.696 5.38494 128.531 5.55256 128.321C5.72017 128.108 5.80398 127.859 5.80398 127.575C5.80398 127.317 5.73011 127.105 5.58239 126.94C5.4375 126.776 5.24006 126.639 4.99006 126.531C4.7429 126.423 4.46307 126.328 4.15057 126.246L3.11932 125.964C2.42045 125.774 1.86648 125.494 1.45739 125.125C1.05114 124.756 0.848011 124.267 0.848011 123.659C0.848011 123.156 0.984375 122.717 1.2571 122.342C1.52983 121.967 1.89915 121.676 2.36506 121.469C2.83097 121.259 3.35653 121.153 3.94176 121.153C4.53267 121.153 5.05398 121.257 5.50568 121.464C5.96023 121.672 6.31818 121.957 6.57955 122.321C6.84091 122.682 6.97727 123.097 6.98864 123.565H5.71875ZM11.7532 121.273V130H10.4322V122.594H10.3811L8.293 123.957V122.696L10.4706 121.273H11.7532ZM15.1829 127.78L15.1744 126.224H15.396L18.004 123.455H19.5295L16.5551 126.608H16.3548L15.1829 127.78ZM14.0111 130V121.273H15.2852V130H14.0111ZM18.1446 130L15.8008 126.889L16.6787 125.999L19.7085 130H18.1446Z" fill="#6F767E"/>
<path d="M3.53267 183.091V172.182H4.23153V183.091H3.53267ZM5.71875 175.565C5.6733 175.162 5.4858 174.849 5.15625 174.628C4.8267 174.403 4.41193 174.291 3.91193 174.291C3.55398 174.291 3.24432 174.348 2.98295 174.462C2.72159 174.572 2.51847 174.726 2.37358 174.922C2.23153 175.115 2.16051 175.335 2.16051 175.582C2.16051 175.79 2.20881 175.969 2.3054 176.119C2.40483 176.27 2.53409 176.396 2.69318 176.499C2.85511 176.598 3.02841 176.682 3.21307 176.75C3.39773 176.815 3.57528 176.869 3.74574 176.912L4.59801 177.134C4.87642 177.202 5.16193 177.294 5.45455 177.411C5.74716 177.527 6.01847 177.68 6.26847 177.871C6.51847 178.061 6.72017 178.297 6.87358 178.578C7.02983 178.859 7.10795 179.196 7.10795 179.588C7.10795 180.082 6.98011 180.521 6.72443 180.905C6.47159 181.288 6.10369 181.591 5.62074 181.812C5.14063 182.034 4.55966 182.145 3.87784 182.145C3.22443 182.145 2.65909 182.041 2.18182 181.834C1.70455 181.626 1.33097 181.332 1.06108 180.952C0.791193 180.568 0.642045 180.114 0.613636 179.588H1.93466C1.96023 179.903 2.0625 180.166 2.24148 180.376C2.4233 180.584 2.65483 180.739 2.93608 180.841C3.22017 180.94 3.53125 180.99 3.86932 180.99C4.24148 180.99 4.57244 180.932 4.86222 180.815C5.15483 180.696 5.38494 180.531 5.55256 180.321C5.72017 180.108 5.80398 179.859 5.80398 179.575C5.80398 179.317 5.73011 179.105 5.58239 178.94C5.4375 178.776 5.24006 178.639 4.99006 178.531C4.7429 178.423 4.46307 178.328 4.15057 178.246L3.11932 177.964C2.42045 177.774 1.86648 177.494 1.45739 177.125C1.05114 176.756 0.848011 176.267 0.848011 175.659C0.848011 175.156 0.984375 174.717 1.2571 174.342C1.52983 173.967 1.89915 173.676 2.36506 173.469C2.83097 173.259 3.35653 173.153 3.94176 173.153C4.53267 173.153 5.05398 173.257 5.50568 173.464C5.96023 173.672 6.31818 173.957 6.57955 174.321C6.84091 174.682 6.97727 175.097 6.98864 175.565H5.71875ZM11.3228 182.119C10.7887 182.119 10.3086 182.017 9.88249 181.812C9.45919 181.605 9.12112 181.321 8.86828 180.96C8.61544 180.599 8.4805 180.188 8.46345 179.724H9.74186C9.77311 180.099 9.9393 180.408 10.2404 180.649C10.5416 180.891 10.9024 181.011 11.3228 181.011C11.6581 181.011 11.9549 180.935 12.2135 180.781C12.4748 180.625 12.6794 180.411 12.8271 180.138C12.9777 179.865 13.0529 179.554 13.0529 179.205C13.0529 178.849 12.9762 178.533 12.8228 178.254C12.6694 177.976 12.4578 177.757 12.1879 177.598C11.9208 177.439 11.614 177.358 11.2674 177.355C11.0032 177.355 10.7376 177.401 10.4706 177.491C10.2035 177.582 9.9876 177.702 9.82283 177.849L8.61686 177.67L9.10692 173.273H13.9052V174.402H10.2021L9.9251 176.844H9.97624C10.1467 176.679 10.3725 176.541 10.6538 176.43C10.9379 176.32 11.2419 176.264 11.5657 176.264C12.097 176.264 12.57 176.391 12.9848 176.643C13.4024 176.896 13.7305 177.241 13.9691 177.679C14.2106 178.114 14.3299 178.614 14.3271 179.179C14.3299 179.744 14.2021 180.249 13.9436 180.692C13.6879 181.135 13.3328 181.484 12.8782 181.74C12.4265 181.993 11.9081 182.119 11.3228 182.119ZM18.8019 182.145C18.1286 182.142 17.5533 181.964 17.0761 181.612C16.5988 181.26 16.2337 180.747 15.9809 180.074C15.728 179.401 15.6016 178.589 15.6016 177.641C15.6016 176.695 15.728 175.886 15.9809 175.216C16.2366 174.545 16.603 174.034 17.0803 173.682C17.5604 173.33 18.1343 173.153 18.8019 173.153C19.4695 173.153 20.042 173.331 20.5192 173.686C20.9965 174.038 21.3616 174.55 21.6144 175.22C21.8701 175.888 21.9979 176.695 21.9979 177.641C21.9979 178.592 21.8715 179.405 21.6187 180.078C21.3658 180.749 21.0008 181.261 20.5235 181.616C20.0462 181.969 19.4724 182.145 18.8019 182.145ZM18.8019 181.007C19.3928 181.007 19.8545 180.719 20.1868 180.142C20.5221 179.565 20.6897 178.732 20.6897 177.641C20.6897 176.916 20.613 176.304 20.4596 175.804C20.309 175.301 20.0917 174.92 19.8076 174.662C19.5263 174.401 19.1911 174.27 18.8019 174.27C18.2138 174.27 17.7522 174.56 17.417 175.139C17.0817 175.719 16.9127 176.553 16.9099 177.641C16.9099 178.368 16.9851 178.983 17.1357 179.486C17.2891 179.986 17.5064 180.365 17.7877 180.624C18.0689 180.879 18.407 181.007 18.8019 181.007ZM26.428 182.145C25.7547 182.142 25.1794 181.964 24.7021 181.612C24.2249 181.26 23.8598 180.747 23.607 180.074C23.3541 179.401 23.2277 178.589 23.2277 177.641C23.2277 176.695 23.3541 175.886 23.607 175.216C23.8627 174.545 24.2291 174.034 24.7064 173.682C25.1865 173.33 25.7604 173.153 26.428 173.153C27.0956 173.153 27.6681 173.331 28.1453 173.686C28.6226 174.038 28.9877 174.55 29.2405 175.22C29.4962 175.888 29.624 176.695 29.624 177.641C29.624 178.592 29.4976 179.405 29.2448 180.078C28.9919 180.749 28.6269 181.261 28.1496 181.616C27.6723 181.969 27.0985 182.145 26.428 182.145ZM26.428 181.007C27.0189 181.007 27.4806 180.719 27.8129 180.142C28.1482 179.565 28.3158 178.732 28.3158 177.641C28.3158 176.916 28.2391 176.304 28.0857 175.804C27.9351 175.301 27.7178 174.92 27.4337 174.662C27.1524 174.401 26.8172 174.27 26.428 174.27C25.8399 174.27 25.3783 174.56 25.0431 175.139C24.7078 175.719 24.5388 176.553 24.536 177.641C24.536 178.368 24.6112 178.983 24.7618 179.486C24.9152 179.986 25.1325 180.365 25.4138 180.624C25.695 180.879 26.0331 181.007 26.428 181.007Z" fill="#6F767E"/>
<path d="M3.53267 235.091V224.182H4.23153V235.091H3.53267ZM5.71875 227.565C5.6733 227.162 5.4858 226.849 5.15625 226.628C4.8267 226.403 4.41193 226.291 3.91193 226.291C3.55398 226.291 3.24432 226.348 2.98295 226.462C2.72159 226.572 2.51847 226.726 2.37358 226.922C2.23153 227.115 2.16051 227.335 2.16051 227.582C2.16051 227.79 2.20881 227.969 2.3054 228.119C2.40483 228.27 2.53409 228.396 2.69318 228.499C2.85511 228.598 3.02841 228.682 3.21307 228.75C3.39773 228.815 3.57528 228.869 3.74574 228.912L4.59801 229.134C4.87642 229.202 5.16193 229.294 5.45455 229.411C5.74716 229.527 6.01847 229.68 6.26847 229.871C6.51847 230.061 6.72017 230.297 6.87358 230.578C7.02983 230.859 7.10795 231.196 7.10795 231.588C7.10795 232.082 6.98011 232.521 6.72443 232.905C6.47159 233.288 6.10369 233.591 5.62074 233.812C5.14063 234.034 4.55966 234.145 3.87784 234.145C3.22443 234.145 2.65909 234.041 2.18182 233.834C1.70455 233.626 1.33097 233.332 1.06108 232.952C0.791193 232.568 0.642045 232.114 0.613636 231.588H1.93466C1.96023 231.903 2.0625 232.166 2.24148 232.376C2.4233 232.584 2.65483 232.739 2.93608 232.841C3.22017 232.94 3.53125 232.99 3.86932 232.99C4.24148 232.99 4.57244 232.932 4.86222 232.815C5.15483 232.696 5.38494 232.531 5.55256 232.321C5.72017 232.108 5.80398 231.859 5.80398 231.575C5.80398 231.317 5.73011 231.105 5.58239 230.94C5.4375 230.776 5.24006 230.639 4.99006 230.531C4.7429 230.423 4.46307 230.328 4.15057 230.246L3.11932 229.964C2.42045 229.774 1.86648 229.494 1.45739 229.125C1.05114 228.756 0.848011 228.267 0.848011 227.659C0.848011 227.156 0.984375 226.717 1.2571 226.342C1.52983 225.967 1.89915 225.676 2.36506 225.469C2.83097 225.259 3.35653 225.153 3.94176 225.153C4.53267 225.153 5.05398 225.257 5.50568 225.464C5.96023 225.672 6.31818 225.957 6.57955 226.321C6.84091 226.682 6.97727 227.097 6.98864 227.565H5.71875ZM11.7532 225.273V234H10.4322V226.594H10.3811L8.293 227.957V226.696L10.4706 225.273H11.7532ZM17.0324 234.145C16.3591 234.142 15.7838 233.964 15.3065 233.612C14.8292 233.26 14.4642 232.747 14.2113 232.074C13.9585 231.401 13.8321 230.589 13.8321 229.641C13.8321 228.695 13.9585 227.886 14.2113 227.216C14.467 226.545 14.8335 226.034 15.3108 225.682C15.7909 225.33 16.3648 225.153 17.0324 225.153C17.7 225.153 18.2724 225.331 18.7497 225.686C19.227 226.038 19.592 226.55 19.8449 227.22C20.1006 227.888 20.2284 228.695 20.2284 229.641C20.2284 230.592 20.102 231.405 19.8491 232.078C19.5963 232.749 19.2312 233.261 18.754 233.616C18.2767 233.969 17.7028 234.145 17.0324 234.145ZM17.0324 233.007C17.6233 233.007 18.0849 232.719 18.4173 232.142C18.7525 231.565 18.9202 230.732 18.9202 229.641C18.9202 228.916 18.8435 228.304 18.69 227.804C18.5395 227.301 18.3221 226.92 18.0381 226.662C17.7568 226.401 17.4216 226.27 17.0324 226.27C16.4443 226.27 15.9827 226.56 15.6474 227.139C15.3122 227.719 15.1432 228.553 15.1403 229.641C15.1403 230.368 15.2156 230.983 15.3662 231.486C15.5196 231.986 15.7369 232.365 16.0182 232.624C16.2994 232.879 16.6375 233.007 17.0324 233.007ZM24.6585 234.145C23.9852 234.142 23.4099 233.964 22.9326 233.612C22.4553 233.26 22.0903 232.747 21.8374 232.074C21.5846 231.401 21.4582 230.589 21.4582 229.641C21.4582 228.695 21.5846 227.886 21.8374 227.216C22.0931 226.545 22.4596 226.034 22.9369 225.682C23.417 225.33 23.9909 225.153 24.6585 225.153C25.3261 225.153 25.8985 225.331 26.3758 225.686C26.8531 226.038 27.2181 226.55 27.471 227.22C27.7266 227.888 27.8545 228.695 27.8545 229.641C27.8545 230.592 27.7281 231.405 27.4752 232.078C27.2224 232.749 26.8573 233.261 26.3801 233.616C25.9028 233.969 25.3289 234.145 24.6585 234.145ZM24.6585 233.007C25.2494 233.007 25.711 232.719 26.0434 232.142C26.3786 231.565 26.5462 230.732 26.5462 229.641C26.5462 228.916 26.4695 228.304 26.3161 227.804C26.1656 227.301 25.9482 226.92 25.6641 226.662C25.3829 226.401 25.0477 226.27 24.6585 226.27C24.0704 226.27 23.6087 226.56 23.2735 227.139C22.9383 227.719 22.7693 228.553 22.7664 229.641C22.7664 230.368 22.8417 230.983 22.9923 231.486C23.1457 231.986 23.363 232.365 23.6443 232.624C23.9255 232.879 24.2636 233.007 24.6585 233.007Z" fill="#6F767E"/>
<path d="M3.53267 287.091V276.182H4.23153V287.091H3.53267ZM5.71875 279.565C5.6733 279.162 5.4858 278.849 5.15625 278.628C4.8267 278.403 4.41193 278.291 3.91193 278.291C3.55398 278.291 3.24432 278.348 2.98295 278.462C2.72159 278.572 2.51847 278.726 2.37358 278.922C2.23153 279.115 2.16051 279.335 2.16051 279.582C2.16051 279.79 2.20881 279.969 2.3054 280.119C2.40483 280.27 2.53409 280.396 2.69318 280.499C2.85511 280.598 3.02841 280.682 3.21307 280.75C3.39773 280.815 3.57528 280.869 3.74574 280.912L4.59801 281.134C4.87642 281.202 5.16193 281.294 5.45455 281.411C5.74716 281.527 6.01847 281.68 6.26847 281.871C6.51847 282.061 6.72017 282.297 6.87358 282.578C7.02983 282.859 7.10795 283.196 7.10795 283.588C7.10795 284.082 6.98011 284.521 6.72443 284.905C6.47159 285.288 6.10369 285.591 5.62074 285.812C5.14063 286.034 4.55966 286.145 3.87784 286.145C3.22443 286.145 2.65909 286.041 2.18182 285.834C1.70455 285.626 1.33097 285.332 1.06108 284.952C0.791193 284.568 0.642045 284.114 0.613636 283.588H1.93466C1.96023 283.903 2.0625 284.166 2.24148 284.376C2.4233 284.584 2.65483 284.739 2.93608 284.841C3.22017 284.94 3.53125 284.99 3.86932 284.99C4.24148 284.99 4.57244 284.932 4.86222 284.815C5.15483 284.696 5.38494 284.531 5.55256 284.321C5.72017 284.108 5.80398 283.859 5.80398 283.575C5.80398 283.317 5.73011 283.105 5.58239 282.94C5.4375 282.776 5.24006 282.639 4.99006 282.531C4.7429 282.423 4.46307 282.328 4.15057 282.246L3.11932 281.964C2.42045 281.774 1.86648 281.494 1.45739 281.125C1.05114 280.756 0.848011 280.267 0.848011 279.659C0.848011 279.156 0.984375 278.717 1.2571 278.342C1.52983 277.967 1.89915 277.676 2.36506 277.469C2.83097 277.259 3.35653 277.153 3.94176 277.153C4.53267 277.153 5.05398 277.257 5.50568 277.464C5.96023 277.672 6.31818 277.957 6.57955 278.321C6.84091 278.682 6.97727 279.097 6.98864 279.565H5.71875ZM11.4805 286.145C10.8072 286.142 10.2319 285.964 9.75465 285.612C9.27737 285.26 8.91232 284.747 8.65947 284.074C8.40663 283.401 8.28021 282.589 8.28021 281.641C8.28021 280.695 8.40663 279.886 8.65947 279.216C8.91516 278.545 9.28163 278.034 9.75891 277.682C10.239 277.33 10.8129 277.153 11.4805 277.153C12.1481 277.153 12.7206 277.331 13.1978 277.686C13.6751 278.038 14.0402 278.55 14.293 279.22C14.5487 279.888 14.6765 280.695 14.6765 281.641C14.6765 282.592 14.5501 283.405 14.2973 284.078C14.0444 284.749 13.6794 285.261 13.2021 285.616C12.7248 285.969 12.151 286.145 11.4805 286.145ZM11.4805 285.007C12.0714 285.007 12.5331 284.719 12.8654 284.142C13.2007 283.565 13.3683 282.732 13.3683 281.641C13.3683 280.916 13.2916 280.304 13.1382 279.804C12.9876 279.301 12.7703 278.92 12.4862 278.662C12.2049 278.401 11.8697 278.27 11.4805 278.27C10.8924 278.27 10.4308 278.56 10.0956 279.139C9.76033 279.719 9.59129 280.553 9.58845 281.641C9.58845 282.368 9.66374 282.983 9.8143 283.486C9.96771 283.986 10.185 284.365 10.4663 284.624C10.7475 284.879 11.0856 285.007 11.4805 285.007Z" fill="#6F767E"/>
<rect x="50" y="52" width="40" height="232" rx="2" fill="#B5E4CA"/>
<path d="M63.3395 318V317.045L66.2926 313.986C66.608 313.653 66.8679 313.362 67.0724 313.112C67.2798 312.859 67.4347 312.619 67.5369 312.392C67.6392 312.165 67.6903 311.923 67.6903 311.668C67.6903 311.378 67.6222 311.128 67.4858 310.918C67.3494 310.705 67.1634 310.541 66.9276 310.428C66.6918 310.311 66.4261 310.253 66.1307 310.253C65.8182 310.253 65.5455 310.317 65.3125 310.445C65.0795 310.572 64.9006 310.753 64.7756 310.986C64.6506 311.219 64.5881 311.491 64.5881 311.804H63.331C63.331 311.273 63.4531 310.808 63.6974 310.411C63.9418 310.013 64.277 309.705 64.7031 309.486C65.1293 309.264 65.6136 309.153 66.1562 309.153C66.7045 309.153 67.1875 309.263 67.6051 309.482C68.0256 309.697 68.3537 309.993 68.5895 310.368C68.8253 310.74 68.9432 311.161 68.9432 311.629C68.9432 311.953 68.8821 312.27 68.7599 312.58C68.6406 312.889 68.4318 313.234 68.1335 313.615C67.8352 313.993 67.4205 314.452 66.8892 314.991L65.1548 316.807V316.871H69.0838V318H63.3395ZM70.5789 318V317.045L73.532 313.986C73.8473 313.653 74.1073 313.362 74.3118 313.112C74.5192 312.859 74.674 312.619 74.7763 312.392C74.8786 312.165 74.9297 311.923 74.9297 311.668C74.9297 311.378 74.8615 311.128 74.7252 310.918C74.5888 310.705 74.4027 310.541 74.1669 310.428C73.9311 310.311 73.6655 310.253 73.3701 310.253C73.0576 310.253 72.7848 310.317 72.5519 310.445C72.3189 310.572 72.1399 310.753 72.0149 310.986C71.8899 311.219 71.8274 311.491 71.8274 311.804H70.5703C70.5703 311.273 70.6925 310.808 70.9368 310.411C71.1811 310.013 71.5164 309.705 71.9425 309.486C72.3686 309.264 72.853 309.153 73.3956 309.153C73.9439 309.153 74.4269 309.263 74.8445 309.482C75.2649 309.697 75.5931 309.993 75.8289 310.368C76.0647 310.74 76.1826 311.161 76.1826 311.629C76.1826 311.953 76.1215 312.27 75.9993 312.58C75.88 312.889 75.6712 313.234 75.3729 313.615C75.0746 313.993 74.6598 314.452 74.1286 314.991L72.3942 316.807V316.871H76.3232V318H70.5789Z" fill="#6F767E"/>
<rect x="114" width="1" height="296" rx="0.5" fill="#EFEFEF"/>
<rect x="139" y="108" width="40" height="176" rx="2" fill="#FFBC99"/>
<path d="M152.339 318V317.045L155.293 313.986C155.608 313.653 155.868 313.362 156.072 313.112C156.28 312.859 156.435 312.619 156.537 312.392C156.639 312.165 156.69 311.923 156.69 311.668C156.69 311.378 156.622 311.128 156.486 310.918C156.349 310.705 156.163 310.541 155.928 310.428C155.692 310.311 155.426 310.253 155.131 310.253C154.818 310.253 154.545 310.317 154.312 310.445C154.08 310.572 153.901 310.753 153.776 310.986C153.651 311.219 153.588 311.491 153.588 311.804H152.331C152.331 311.273 152.453 310.808 152.697 310.411C152.942 310.013 153.277 309.705 153.703 309.486C154.129 309.264 154.614 309.153 155.156 309.153C155.705 309.153 156.188 309.263 156.605 309.482C157.026 309.697 157.354 309.993 157.589 310.368C157.825 310.74 157.943 311.161 157.943 311.629C157.943 311.953 157.882 312.27 157.76 312.58C157.641 312.889 157.432 313.234 157.134 313.615C156.835 313.993 156.42 314.452 155.889 314.991L154.155 316.807V316.871H158.084V318H152.339ZM162.617 318.119C162.032 318.119 161.509 318.018 161.049 317.817C160.592 317.615 160.229 317.335 159.962 316.977C159.698 316.616 159.556 316.199 159.536 315.724H160.874C160.891 315.983 160.978 316.207 161.134 316.398C161.293 316.585 161.501 316.73 161.756 316.832C162.012 316.935 162.296 316.986 162.609 316.986C162.952 316.986 163.256 316.926 163.521 316.807C163.788 316.687 163.996 316.521 164.147 316.308C164.298 316.092 164.373 315.844 164.373 315.562C164.373 315.27 164.298 315.013 164.147 314.791C163.999 314.567 163.782 314.391 163.495 314.263C163.211 314.135 162.867 314.071 162.464 314.071H161.727V312.997H162.464C162.788 312.997 163.072 312.939 163.316 312.822C163.563 312.706 163.756 312.544 163.896 312.337C164.035 312.126 164.104 311.881 164.104 311.599C164.104 311.33 164.043 311.095 163.921 310.896C163.802 310.695 163.631 310.537 163.41 310.423C163.191 310.31 162.933 310.253 162.634 310.253C162.35 310.253 162.085 310.305 161.837 310.411C161.593 310.513 161.394 310.661 161.241 310.854C161.087 311.044 161.005 311.273 160.994 311.54H159.719C159.734 311.068 159.873 310.653 160.137 310.295C160.404 309.937 160.756 309.658 161.194 309.456C161.631 309.254 162.117 309.153 162.651 309.153C163.211 309.153 163.694 309.263 164.1 309.482C164.509 309.697 164.825 309.986 165.046 310.347C165.271 310.707 165.381 311.102 165.379 311.531C165.381 312.02 165.245 312.435 164.969 312.776C164.697 313.116 164.333 313.345 163.879 313.462V313.53C164.458 313.618 164.907 313.848 165.225 314.22C165.546 314.592 165.705 315.054 165.702 315.605C165.705 316.085 165.572 316.516 165.302 316.896C165.035 317.277 164.67 317.577 164.207 317.795C163.744 318.011 163.214 318.119 162.617 318.119Z" fill="#6F767E"/>
<rect x="203" width="1" height="296" rx="0.5" fill="#EFEFEF"/>
<rect x="228" y="12" width="40" height="272" rx="2" fill="#2A85FF"/>
<path d="M241.339 318V317.045L244.293 313.986C244.608 313.653 244.868 313.362 245.072 313.112C245.28 312.859 245.435 312.619 245.537 312.392C245.639 312.165 245.69 311.923 245.69 311.668C245.69 311.378 245.622 311.128 245.486 310.918C245.349 310.705 245.163 310.541 244.928 310.428C244.692 310.311 244.426 310.253 244.131 310.253C243.818 310.253 243.545 310.317 243.312 310.445C243.08 310.572 242.901 310.753 242.776 310.986C242.651 311.219 242.588 311.491 242.588 311.804H241.331C241.331 311.273 241.453 310.808 241.697 310.411C241.942 310.013 242.277 309.705 242.703 309.486C243.129 309.264 243.614 309.153 244.156 309.153C244.705 309.153 245.188 309.263 245.605 309.482C246.026 309.697 246.354 309.993 246.589 310.368C246.825 310.74 246.943 311.161 246.943 311.629C246.943 311.953 246.882 312.27 246.76 312.58C246.641 312.889 246.432 313.234 246.134 313.615C245.835 313.993 245.42 314.452 244.889 314.991L243.155 316.807V316.871H247.084V318H241.339ZM248.208 316.295V315.23L251.979 309.273H252.819V310.841H252.286L249.589 315.111V315.179H254.758V316.295H248.208ZM252.346 318V315.972L252.354 315.486V309.273H253.603V318H252.346Z" fill="#6F767E"/>
<rect x="292" width="1" height="296" rx="0.5" fill="#EFEFEF"/>
<rect x="317" y="132" width="40" height="152" rx="2" fill="#B5E4CA"/>
<path d="M330.339 318V317.045L333.293 313.986C333.608 313.653 333.868 313.362 334.072 313.112C334.28 312.859 334.435 312.619 334.537 312.392C334.639 312.165 334.69 311.923 334.69 311.668C334.69 311.378 334.622 311.128 334.486 310.918C334.349 310.705 334.163 310.541 333.928 310.428C333.692 310.311 333.426 310.253 333.131 310.253C332.818 310.253 332.545 310.317 332.312 310.445C332.08 310.572 331.901 310.753 331.776 310.986C331.651 311.219 331.588 311.491 331.588 311.804H330.331C330.331 311.273 330.453 310.808 330.697 310.411C330.942 310.013 331.277 309.705 331.703 309.486C332.129 309.264 332.614 309.153 333.156 309.153C333.705 309.153 334.188 309.263 334.605 309.482C335.026 309.697 335.354 309.993 335.589 310.368C335.825 310.74 335.943 311.161 335.943 311.629C335.943 311.953 335.882 312.27 335.76 312.58C335.641 312.889 335.432 313.234 335.134 313.615C334.835 313.993 334.42 314.452 333.889 314.991L332.155 316.807V316.871H336.084V318H330.339ZM340.46 318.119C339.925 318.119 339.445 318.017 339.019 317.812C338.596 317.605 338.258 317.321 338.005 316.96C337.752 316.599 337.617 316.188 337.6 315.724H338.879C338.91 316.099 339.076 316.408 339.377 316.649C339.678 316.891 340.039 317.011 340.46 317.011C340.795 317.011 341.092 316.935 341.35 316.781C341.612 316.625 341.816 316.411 341.964 316.138C342.114 315.865 342.19 315.554 342.19 315.205C342.19 314.849 342.113 314.533 341.96 314.254C341.806 313.976 341.594 313.757 341.325 313.598C341.058 313.439 340.751 313.358 340.404 313.355C340.14 313.355 339.874 313.401 339.607 313.491C339.34 313.582 339.124 313.702 338.96 313.849L337.754 313.67L338.244 309.273H343.042V310.402H339.339L339.062 312.844H339.113C339.283 312.679 339.509 312.541 339.791 312.43C340.075 312.32 340.379 312.264 340.702 312.264C341.234 312.264 341.707 312.391 342.121 312.643C342.539 312.896 342.867 313.241 343.106 313.679C343.347 314.114 343.467 314.614 343.464 315.179C343.467 315.744 343.339 316.249 343.08 316.692C342.825 317.135 342.469 317.484 342.015 317.74C341.563 317.993 341.045 318.119 340.46 318.119Z" fill="#6F767E"/>
<rect x="381" width="1" height="296" rx="0.5" fill="#EFEFEF"/>
<rect x="406" y="52" width="40" height="232" rx="2" fill="#B5E4CA"/>
<path d="M419.339 318V317.045L422.293 313.986C422.608 313.653 422.868 313.362 423.072 313.112C423.28 312.859 423.435 312.619 423.537 312.392C423.639 312.165 423.69 311.923 423.69 311.668C423.69 311.378 423.622 311.128 423.486 310.918C423.349 310.705 423.163 310.541 422.928 310.428C422.692 310.311 422.426 310.253 422.131 310.253C421.818 310.253 421.545 310.317 421.312 310.445C421.08 310.572 420.901 310.753 420.776 310.986C420.651 311.219 420.588 311.491 420.588 311.804H419.331C419.331 311.273 419.453 310.808 419.697 310.411C419.942 310.013 420.277 309.705 420.703 309.486C421.129 309.264 421.614 309.153 422.156 309.153C422.705 309.153 423.188 309.263 423.605 309.482C424.026 309.697 424.354 309.993 424.589 310.368C424.825 310.74 424.943 311.161 424.943 311.629C424.943 311.953 424.882 312.27 424.76 312.58C424.641 312.889 424.432 313.234 424.134 313.615C423.835 313.993 423.42 314.452 422.889 314.991L421.155 316.807V316.871H425.084V318H419.339ZM429.626 318.119C429.237 318.114 428.853 318.043 428.475 317.906C428.1 317.77 427.759 317.543 427.452 317.224C427.146 316.906 426.9 316.479 426.715 315.942C426.533 315.405 426.443 314.734 426.443 313.93C426.443 313.169 426.518 312.493 426.668 311.902C426.822 311.311 427.042 310.812 427.329 310.406C427.616 309.997 427.962 309.686 428.369 309.473C428.775 309.26 429.231 309.153 429.737 309.153C430.256 309.153 430.718 309.256 431.121 309.46C431.525 309.665 431.852 309.947 432.102 310.308C432.354 310.669 432.515 311.08 432.583 311.54H431.283C431.195 311.176 431.021 310.879 430.759 310.649C430.498 310.419 430.157 310.304 429.737 310.304C429.097 310.304 428.599 310.582 428.241 311.139C427.886 311.696 427.707 312.47 427.704 313.462H427.768C427.918 313.214 428.103 313.004 428.322 312.831C428.543 312.655 428.791 312.52 429.063 312.426C429.339 312.33 429.629 312.281 429.933 312.281C430.438 312.281 430.896 312.405 431.305 312.652C431.717 312.896 432.045 313.234 432.289 313.666C432.533 314.098 432.656 314.592 432.656 315.149C432.656 315.706 432.529 316.21 432.276 316.662C432.026 317.114 431.674 317.472 431.219 317.736C430.765 317.997 430.234 318.125 429.626 318.119ZM429.621 317.011C429.957 317.011 430.256 316.929 430.521 316.764C430.785 316.599 430.994 316.378 431.147 316.099C431.3 315.821 431.377 315.51 431.377 315.166C431.377 314.831 431.302 314.526 431.151 314.25C431.004 313.974 430.799 313.756 430.538 313.594C430.279 313.432 429.984 313.351 429.651 313.351C429.398 313.351 429.164 313.399 428.948 313.496C428.735 313.592 428.548 313.726 428.386 313.896C428.224 314.067 428.096 314.263 428.002 314.484C427.911 314.703 427.866 314.935 427.866 315.179C427.866 315.506 427.941 315.808 428.092 316.087C428.245 316.365 428.454 316.589 428.718 316.76C428.985 316.928 429.286 317.011 429.621 317.011Z" fill="#6F767E"/>
<rect x="470" width="1" height="296" rx="0.5" fill="#EFEFEF"/>
<rect x="495" y="172" width="40" height="112" rx="2" fill="#FFBC99"/>
<path d="M508.339 318V317.045L511.293 313.986C511.608 313.653 511.868 313.362 512.072 313.112C512.28 312.859 512.435 312.619 512.537 312.392C512.639 312.165 512.69 311.923 512.69 311.668C512.69 311.378 512.622 311.128 512.486 310.918C512.349 310.705 512.163 310.541 511.928 310.428C511.692 310.311 511.426 310.253 511.131 310.253C510.818 310.253 510.545 310.317 510.312 310.445C510.08 310.572 509.901 310.753 509.776 310.986C509.651 311.219 509.588 311.491 509.588 311.804H508.331C508.331 311.273 508.453 310.808 508.697 310.411C508.942 310.013 509.277 309.705 509.703 309.486C510.129 309.264 510.614 309.153 511.156 309.153C511.705 309.153 512.188 309.263 512.605 309.482C513.026 309.697 513.354 309.993 513.589 310.368C513.825 310.74 513.943 311.161 513.943 311.629C513.943 311.953 513.882 312.27 513.76 312.58C513.641 312.889 513.432 313.234 513.134 313.615C512.835 313.993 512.42 314.452 511.889 314.991L510.155 316.807V316.871H514.084V318H508.339ZM515.873 318L519.683 310.466V310.402H515.276V309.273H521.046V310.44L517.249 318H515.873Z" fill="#6F767E"/>
<rect x="559" width="1" height="296" rx="0.5" fill="#EFEFEF"/>
<rect x="584" y="92" width="40" height="192" rx="2" fill="#B5E4CA"/>
<path d="M597.339 318V317.045L600.293 313.986C600.608 313.653 600.868 313.362 601.072 313.112C601.28 312.859 601.435 312.619 601.537 312.392C601.639 312.165 601.69 311.923 601.69 311.668C601.69 311.378 601.622 311.128 601.486 310.918C601.349 310.705 601.163 310.541 600.928 310.428C600.692 310.311 600.426 310.253 600.131 310.253C599.818 310.253 599.545 310.317 599.312 310.445C599.08 310.572 598.901 310.753 598.776 310.986C598.651 311.219 598.588 311.491 598.588 311.804H597.331C597.331 311.273 597.453 310.808 597.697 310.411C597.942 310.013 598.277 309.705 598.703 309.486C599.129 309.264 599.614 309.153 600.156 309.153C600.705 309.153 601.188 309.263 601.605 309.482C602.026 309.697 602.354 309.993 602.589 310.368C602.825 310.74 602.943 311.161 602.943 311.629C602.943 311.953 602.882 312.27 602.76 312.58C602.641 312.889 602.432 313.234 602.134 313.615C601.835 313.993 601.42 314.452 600.889 314.991L599.155 316.807V316.871H603.084V318H597.339ZM607.528 318.119C606.917 318.119 606.377 318.014 605.908 317.804C605.443 317.594 605.077 317.304 604.813 316.935C604.549 316.565 604.418 316.145 604.421 315.673C604.418 315.304 604.494 314.964 604.647 314.655C604.803 314.342 605.015 314.082 605.282 313.875C605.549 313.665 605.847 313.531 606.177 313.474V313.423C605.742 313.318 605.394 313.085 605.133 312.724C604.871 312.364 604.742 311.949 604.745 311.48C604.742 311.034 604.86 310.636 605.099 310.287C605.34 309.935 605.671 309.658 606.092 309.456C606.512 309.254 606.991 309.153 607.528 309.153C608.059 309.153 608.533 309.256 608.951 309.46C609.371 309.662 609.702 309.939 609.944 310.291C610.185 310.641 610.308 311.037 610.31 311.48C610.308 311.949 610.174 312.364 609.91 312.724C609.646 313.085 609.302 313.318 608.879 313.423V313.474C609.205 313.531 609.499 313.665 609.761 313.875C610.025 314.082 610.235 314.342 610.391 314.655C610.55 314.964 610.631 315.304 610.634 315.673C610.631 316.145 610.498 316.565 610.234 316.935C609.969 317.304 609.603 317.594 609.134 317.804C608.668 318.014 608.133 318.119 607.528 318.119ZM607.528 317.041C607.889 317.041 608.201 316.982 608.465 316.862C608.729 316.74 608.934 316.571 609.079 316.355C609.224 316.136 609.298 315.881 609.3 315.588C609.298 315.284 609.218 315.016 609.062 314.783C608.908 314.55 608.7 314.366 608.435 314.233C608.171 314.099 607.869 314.033 607.528 314.033C607.184 314.033 606.879 314.099 606.612 314.233C606.344 314.366 606.134 314.55 605.981 314.783C605.827 315.016 605.752 315.284 605.755 315.588C605.752 315.881 605.822 316.136 605.964 316.355C606.109 316.571 606.315 316.74 606.582 316.862C606.849 316.982 607.164 317.041 607.528 317.041ZM607.528 312.98C607.818 312.98 608.075 312.922 608.299 312.805C608.523 312.689 608.7 312.527 608.827 312.32C608.958 312.112 609.025 311.869 609.028 311.591C609.025 311.318 608.96 311.08 608.832 310.875C608.707 310.67 608.532 310.513 608.308 310.402C608.083 310.288 607.823 310.232 607.528 310.232C607.227 310.232 606.962 310.288 606.735 310.402C606.511 310.513 606.336 310.67 606.211 310.875C606.086 311.08 606.025 311.318 606.028 311.591C606.025 311.869 606.087 312.112 606.215 312.32C606.343 312.527 606.519 312.689 606.744 312.805C606.971 312.922 607.232 312.98 607.528 312.98Z" fill="#6F767E"/>
<rect x="648" width="1" height="296" rx="0.5" fill="#EFEFEF"/>
<rect x="673" y="92" width="40" height="192" rx="2" fill="#2A85FF"/>
<path d="M686.339 318V317.045L689.293 313.986C689.608 313.653 689.868 313.362 690.072 313.112C690.28 312.859 690.435 312.619 690.537 312.392C690.639 312.165 690.69 311.923 690.69 311.668C690.69 311.378 690.622 311.128 690.486 310.918C690.349 310.705 690.163 310.541 689.928 310.428C689.692 310.311 689.426 310.253 689.131 310.253C688.818 310.253 688.545 310.317 688.312 310.445C688.08 310.572 687.901 310.753 687.776 310.986C687.651 311.219 687.588 311.491 687.588 311.804H686.331C686.331 311.273 686.453 310.808 686.697 310.411C686.942 310.013 687.277 309.705 687.703 309.486C688.129 309.264 688.614 309.153 689.156 309.153C689.705 309.153 690.188 309.263 690.605 309.482C691.026 309.697 691.354 309.993 691.589 310.368C691.825 310.74 691.943 311.161 691.943 311.629C691.943 311.953 691.882 312.27 691.76 312.58C691.641 312.889 691.432 313.234 691.134 313.615C690.835 313.993 690.42 314.452 689.889 314.991L688.155 316.807V316.871H692.084V318H686.339ZM696.481 309.153C696.87 309.156 697.254 309.227 697.631 309.366C698.009 309.506 698.35 309.733 698.654 310.048C698.961 310.364 699.205 310.79 699.387 311.327C699.572 311.861 699.666 312.526 699.668 313.321C699.668 314.085 699.592 314.766 699.438 315.362C699.285 315.956 699.065 316.457 698.778 316.866C698.494 317.276 698.148 317.587 697.742 317.8C697.336 318.013 696.879 318.119 696.37 318.119C695.85 318.119 695.389 318.017 694.985 317.812C694.582 317.608 694.254 317.325 694.001 316.964C693.748 316.601 693.59 316.183 693.528 315.712H694.827C694.913 316.087 695.086 316.391 695.347 316.624C695.612 316.854 695.952 316.969 696.37 316.969C697.009 316.969 697.508 316.69 697.866 316.134C698.224 315.574 698.404 314.793 698.407 313.79H698.339C698.191 314.034 698.006 314.244 697.785 314.42C697.566 314.597 697.32 314.733 697.048 314.83C696.775 314.926 696.484 314.974 696.174 314.974C695.671 314.974 695.214 314.851 694.802 314.604C694.39 314.357 694.062 314.017 693.818 313.585C693.573 313.153 693.451 312.661 693.451 312.107C693.451 311.555 693.576 311.055 693.826 310.607C694.079 310.158 694.431 309.803 694.883 309.541C695.337 309.277 695.87 309.148 696.481 309.153ZM696.485 310.261C696.153 310.261 695.853 310.344 695.586 310.509C695.322 310.67 695.113 310.891 694.96 311.169C694.806 311.445 694.729 311.751 694.729 312.089C694.729 312.428 694.803 312.734 694.951 313.01C695.102 313.283 695.306 313.5 695.565 313.662C695.826 313.821 696.124 313.901 696.46 313.901C696.71 313.901 696.943 313.852 697.158 313.756C697.374 313.659 697.563 313.526 697.725 313.355C697.887 313.182 698.014 312.986 698.104 312.767C698.195 312.548 698.241 312.318 698.241 312.077C698.241 311.756 698.164 311.457 698.011 311.182C697.86 310.906 697.653 310.685 697.389 310.517C697.124 310.347 696.823 310.261 696.485 310.261Z" fill="#6F767E"/>
<g filter="url(#filter0_ddi_1331_218295)">
<rect x="248" y="54" width="97" height="48" rx="8" fill="#272B30" shape-rendering="crispEdges"/>
<rect x="248.5" y="54.5" width="96" height="47" rx="7.5" stroke="white" stroke-opacity="0.12" shape-rendering="crispEdges"/>
<path d="M256.839 72V71.0455L259.793 67.9858C260.108 67.6534 260.368 67.3622 260.572 67.1122C260.78 66.8594 260.935 66.6193 261.037 66.392C261.139 66.1648 261.19 65.9233 261.19 65.6676C261.19 65.3778 261.122 65.1278 260.986 64.9176C260.849 64.7045 260.663 64.5412 260.428 64.4276C260.192 64.3111 259.926 64.2528 259.631 64.2528C259.318 64.2528 259.045 64.3168 258.812 64.4446C258.58 64.5724 258.401 64.7528 258.276 64.9858C258.151 65.2187 258.088 65.4915 258.088 65.804H256.831C256.831 65.2727 256.953 64.8082 257.197 64.4105C257.442 64.0128 257.777 63.7045 258.203 63.4858C258.629 63.2642 259.114 63.1534 259.656 63.1534C260.205 63.1534 260.688 63.2628 261.105 63.4815C261.526 63.6974 261.854 63.9929 262.089 64.3679C262.325 64.7401 262.443 65.1605 262.443 65.6293C262.443 65.9531 262.382 66.2699 262.26 66.5795C262.141 66.8892 261.932 67.2344 261.634 67.6151C261.335 67.9929 260.92 68.4517 260.389 68.9915L258.655 70.8068V70.8707H262.584V72H256.839ZM263.708 70.2955V69.2301L267.479 63.2727H268.319V64.8409H267.786L265.089 69.1108V69.179H270.258V70.2955H263.708ZM267.846 72V69.9716L267.854 69.4858V63.2727H269.103V72H267.846ZM279.558 65.5653C279.513 65.1619 279.325 64.8494 278.995 64.6278C278.666 64.4034 278.251 64.2912 277.751 64.2912C277.393 64.2912 277.084 64.348 276.822 64.4616C276.561 64.5724 276.358 64.7259 276.213 64.9219C276.071 65.1151 276 65.3352 276 65.5824C276 65.7898 276.048 65.9687 276.145 66.1193C276.244 66.2699 276.373 66.3963 276.532 66.4986C276.694 66.598 276.868 66.6818 277.052 66.75C277.237 66.8153 277.415 66.8693 277.585 66.9119L278.437 67.1335C278.716 67.2017 279.001 67.294 279.294 67.4105C279.586 67.527 279.858 67.6804 280.108 67.8707C280.358 68.0611 280.559 68.2969 280.713 68.5781C280.869 68.8594 280.947 69.196 280.947 69.5881C280.947 70.0824 280.819 70.5213 280.564 70.9048C280.311 71.2884 279.943 71.5909 279.46 71.8125C278.98 72.0341 278.399 72.1449 277.717 72.1449C277.064 72.1449 276.498 72.0412 276.021 71.8338C275.544 71.6264 275.17 71.3324 274.9 70.9517C274.63 70.5682 274.481 70.1136 274.453 69.5881H275.774C275.799 69.9034 275.902 70.1662 276.081 70.3764C276.263 70.5838 276.494 70.7386 276.775 70.8409C277.059 70.9403 277.37 70.9901 277.709 70.9901C278.081 70.9901 278.412 70.9318 278.701 70.8153C278.994 70.696 279.224 70.5312 279.392 70.321C279.559 70.108 279.643 69.8594 279.643 69.5753C279.643 69.3168 279.569 69.1051 279.422 68.9403C279.277 68.7756 279.079 68.6392 278.829 68.5312C278.582 68.4233 278.302 68.3281 277.99 68.2457L276.959 67.9645C276.26 67.7741 275.706 67.4943 275.297 67.125C274.89 66.7557 274.687 66.267 274.687 65.6591C274.687 65.1562 274.824 64.7173 275.096 64.3423C275.369 63.9673 275.738 63.6761 276.204 63.4688C276.67 63.2585 277.196 63.1534 277.781 63.1534C278.372 63.1534 278.893 63.2571 279.345 63.4645C279.799 63.6719 280.157 63.9574 280.419 64.321C280.68 64.6818 280.816 65.0966 280.828 65.5653H279.558ZM285.119 72.1321C284.475 72.1321 283.919 71.9943 283.453 71.7188C282.99 71.4403 282.632 71.0497 282.379 70.5469C282.129 70.0412 282.004 69.4489 282.004 68.7699C282.004 68.0994 282.129 67.5085 282.379 66.9972C282.632 66.4858 282.984 66.0866 283.436 65.7997C283.891 65.5128 284.422 65.3693 285.03 65.3693C285.399 65.3693 285.757 65.4304 286.104 65.5526C286.45 65.6747 286.761 65.8665 287.037 66.1278C287.313 66.3892 287.53 66.7287 287.689 67.1463C287.848 67.5611 287.928 68.0653 287.928 68.6591V69.1108H282.725V68.1562H286.679C286.679 67.821 286.611 67.5241 286.475 67.2656C286.338 67.0043 286.146 66.7983 285.899 66.6477C285.655 66.4972 285.368 66.4219 285.038 66.4219C284.681 66.4219 284.368 66.5099 284.101 66.6861C283.837 66.8594 283.632 67.0866 283.487 67.3679C283.345 67.6463 283.274 67.9489 283.274 68.2756V69.0213C283.274 69.4588 283.351 69.831 283.504 70.1378C283.661 70.4446 283.878 70.679 284.156 70.8409C284.435 71 284.76 71.0795 285.132 71.0795C285.374 71.0795 285.594 71.0455 285.793 70.9773C285.992 70.9062 286.163 70.8011 286.308 70.6619C286.453 70.5227 286.564 70.3509 286.641 70.1463L287.847 70.3636C287.75 70.7187 287.577 71.0298 287.327 71.2969C287.08 71.5611 286.769 71.767 286.394 71.9148C286.021 72.0597 285.597 72.1321 285.119 72.1321ZM289.221 74.4545V65.4545H290.466V66.5156H290.572C290.646 66.3793 290.753 66.2216 290.892 66.0426C291.031 65.8636 291.224 65.7074 291.471 65.5739C291.719 65.4375 292.045 65.3693 292.451 65.3693C292.98 65.3693 293.451 65.5028 293.866 65.7699C294.281 66.0369 294.606 66.4219 294.842 66.9247C295.081 67.4276 295.2 68.0327 295.2 68.7401C295.2 69.4474 295.082 70.054 294.846 70.5597C294.611 71.0625 294.287 71.4503 293.875 71.723C293.463 71.9929 292.993 72.1278 292.464 72.1278C292.067 72.1278 291.741 72.0611 291.488 71.9276C291.238 71.794 291.042 71.6378 290.9 71.4588C290.758 71.2798 290.649 71.1207 290.572 70.9815H290.496V74.4545H289.221ZM290.47 68.7273C290.47 69.1875 290.537 69.5909 290.67 69.9375C290.804 70.2841 290.997 70.5554 291.25 70.7514C291.503 70.9446 291.812 71.0412 292.179 71.0412C292.559 71.0412 292.878 70.9403 293.133 70.7386C293.389 70.5341 293.582 70.2571 293.713 69.9077C293.846 69.5582 293.913 69.1648 293.913 68.7273C293.913 68.2955 293.848 67.9077 293.717 67.5639C293.589 67.2202 293.396 66.9489 293.138 66.75C292.882 66.5511 292.562 66.4517 292.179 66.4517C291.809 66.4517 291.497 66.5469 291.241 66.7372C290.988 66.9276 290.797 67.1932 290.666 67.5341C290.535 67.875 290.47 68.2727 290.47 68.7273ZM299.563 65.4545V66.4773H295.988V65.4545H299.563ZM296.947 63.8864H298.221V70.0781C298.221 70.3253 298.258 70.5114 298.331 70.6364C298.405 70.7585 298.501 70.8423 298.617 70.8878C298.736 70.9304 298.866 70.9517 299.005 70.9517C299.107 70.9517 299.197 70.9446 299.273 70.9304C299.35 70.9162 299.41 70.9048 299.452 70.8963L299.682 71.9489C299.608 71.9773 299.503 72.0057 299.367 72.0341C299.231 72.0653 299.06 72.0824 298.856 72.0852C298.52 72.0909 298.208 72.0312 297.918 71.9062C297.628 71.7812 297.394 71.5881 297.215 71.3267C297.036 71.0653 296.947 70.7372 296.947 70.3423V63.8864ZM303.603 72.1321C302.958 72.1321 302.403 71.9943 301.937 71.7188C301.474 71.4403 301.116 71.0497 300.863 70.5469C300.613 70.0412 300.488 69.4489 300.488 68.7699C300.488 68.0994 300.613 67.5085 300.863 66.9972C301.116 66.4858 301.468 66.0866 301.92 65.7997C302.374 65.5128 302.906 65.3693 303.514 65.3693C303.883 65.3693 304.241 65.4304 304.588 65.5526C304.934 65.6747 305.245 65.8665 305.521 66.1278C305.796 66.3892 306.014 66.7287 306.173 67.1463C306.332 67.5611 306.411 68.0653 306.411 68.6591V69.1108H301.208V68.1562H305.163C305.163 67.821 305.095 67.5241 304.958 67.2656C304.822 67.0043 304.63 66.7983 304.383 66.6477C304.139 66.4972 303.852 66.4219 303.522 66.4219C303.164 66.4219 302.852 66.5099 302.585 66.6861C302.321 66.8594 302.116 67.0866 301.971 67.3679C301.829 67.6463 301.758 67.9489 301.758 68.2756V69.0213C301.758 69.4588 301.835 69.831 301.988 70.1378C302.144 70.4446 302.362 70.679 302.64 70.8409C302.919 71 303.244 71.0795 303.616 71.0795C303.857 71.0795 304.078 71.0455 304.276 70.9773C304.475 70.9062 304.647 70.8011 304.792 70.6619C304.937 70.5227 305.048 70.3509 305.124 70.1463L306.33 70.3636C306.234 70.7187 306.061 71.0298 305.811 71.2969C305.563 71.5611 305.252 71.767 304.877 71.9148C304.505 72.0597 304.08 72.1321 303.603 72.1321ZM307.705 72V65.4545H308.928V66.5199H309.009C309.145 66.1591 309.368 65.8778 309.678 65.6761C309.988 65.4716 310.359 65.3693 310.79 65.3693C311.228 65.3693 311.594 65.4716 311.89 65.6761C312.188 65.8807 312.408 66.1619 312.55 66.5199H312.618C312.775 66.1705 313.023 65.892 313.364 65.6847C313.705 65.4744 314.111 65.3693 314.583 65.3693C315.177 65.3693 315.661 65.5554 316.036 65.9276C316.414 66.2997 316.603 66.8608 316.603 67.6108V72H315.329V67.7301C315.329 67.2869 315.208 66.9659 314.966 66.767C314.725 66.5682 314.437 66.4688 314.101 66.4688C313.687 66.4688 313.364 66.5966 313.134 66.8523C312.904 67.1051 312.789 67.4304 312.789 67.8281V72H311.519V67.6491C311.519 67.294 311.408 67.0085 311.187 66.7926C310.965 66.5767 310.677 66.4688 310.322 66.4688C310.08 66.4688 309.857 66.5327 309.653 66.6605C309.451 66.7855 309.288 66.9602 309.163 67.1847C309.04 67.4091 308.979 67.669 308.979 67.9645V72H307.705ZM318.293 72V63.2727H319.567V66.5156H319.644C319.718 66.3793 319.824 66.2216 319.963 66.0426C320.103 65.8636 320.296 65.7074 320.543 65.5739C320.79 65.4375 321.117 65.3693 321.523 65.3693C322.051 65.3693 322.523 65.5028 322.938 65.7699C323.353 66.0369 323.678 66.4219 323.914 66.9247C324.152 67.4276 324.272 68.0327 324.272 68.7401C324.272 69.4474 324.154 70.054 323.918 70.5597C323.682 71.0625 323.358 71.4503 322.946 71.723C322.534 71.9929 322.064 72.1278 321.536 72.1278C321.138 72.1278 320.813 72.0611 320.56 71.9276C320.31 71.794 320.114 71.6378 319.972 71.4588C319.83 71.2798 319.72 71.1207 319.644 70.9815H319.537V72H318.293ZM319.541 68.7273C319.541 69.1875 319.608 69.5909 319.742 69.9375C319.875 70.2841 320.068 70.5554 320.321 70.7514C320.574 70.9446 320.884 71.0412 321.25 71.0412C321.631 71.0412 321.949 70.9403 322.205 70.7386C322.46 70.5341 322.654 70.2571 322.784 69.9077C322.918 69.5582 322.985 69.1648 322.985 68.7273C322.985 68.2955 322.919 67.9077 322.789 67.5639C322.661 67.2202 322.468 66.9489 322.209 66.75C321.953 66.5511 321.634 66.4517 321.25 66.4517C320.881 66.4517 320.568 66.5469 320.313 66.7372C320.06 66.9276 319.868 67.1932 319.737 67.5341C319.607 67.875 319.541 68.2727 319.541 68.7273ZM328.403 72.1321C327.758 72.1321 327.203 71.9943 326.737 71.7188C326.274 71.4403 325.916 71.0497 325.663 70.5469C325.413 70.0412 325.288 69.4489 325.288 68.7699C325.288 68.0994 325.413 67.5085 325.663 66.9972C325.916 66.4858 326.268 66.0866 326.72 65.7997C327.175 65.5128 327.706 65.3693 328.314 65.3693C328.683 65.3693 329.041 65.4304 329.388 65.5526C329.734 65.6747 330.045 65.8665 330.321 66.1278C330.597 66.3892 330.814 66.7287 330.973 67.1463C331.132 67.5611 331.212 68.0653 331.212 68.6591V69.1108H326.008V68.1562H329.963C329.963 67.821 329.895 67.5241 329.758 67.2656C329.622 67.0043 329.43 66.7983 329.183 66.6477C328.939 66.4972 328.652 66.4219 328.322 66.4219C327.964 66.4219 327.652 66.5099 327.385 66.6861C327.121 66.8594 326.916 67.0866 326.771 67.3679C326.629 67.6463 326.558 67.9489 326.558 68.2756V69.0213C326.558 69.4588 326.635 69.831 326.788 70.1378C326.945 70.4446 327.162 70.679 327.44 70.8409C327.719 71 328.044 71.0795 328.416 71.0795C328.658 71.0795 328.878 71.0455 329.077 70.9773C329.276 70.9062 329.447 70.8011 329.592 70.6619C329.737 70.5227 329.848 70.3509 329.925 70.1463L331.131 70.3636C331.034 70.7187 330.861 71.0298 330.611 71.2969C330.364 71.5611 330.052 71.767 329.677 71.9148C329.305 72.0597 328.881 72.1321 328.403 72.1321ZM332.505 72V65.4545H333.737V66.4943H333.805C333.924 66.142 334.135 65.8651 334.436 65.6634C334.74 65.4588 335.083 65.3565 335.467 65.3565C335.546 65.3565 335.64 65.3594 335.748 65.3651C335.859 65.3707 335.946 65.3778 336.008 65.3864V66.6051C335.957 66.5909 335.866 66.5753 335.735 66.5582C335.605 66.5384 335.474 66.5284 335.343 66.5284C335.042 66.5284 334.774 66.5923 334.538 66.7202C334.305 66.8452 334.12 67.0199 333.984 67.2443C333.848 67.4659 333.779 67.7187 333.779 68.0028V72H332.505Z" fill="#EFEFEF"/>
<rect x="256" y="82" width="12" height="12" rx="4" fill="#B5E4CA"/>
<path d="M275.588 93.0909V82.1818H276.287V93.0909H275.588ZM277.604 85.6719C277.564 85.2997 277.396 85.0099 277.101 84.8026C276.808 84.5952 276.428 84.4915 275.959 84.4915C275.629 84.4915 275.347 84.5412 275.111 84.6406C274.875 84.7401 274.695 84.875 274.57 85.0455C274.445 85.2159 274.381 85.4105 274.378 85.6293C274.378 85.8111 274.419 85.9687 274.501 86.1023C274.587 86.2358 274.702 86.3494 274.847 86.4432C274.991 86.5341 275.152 86.6108 275.328 86.6733C275.504 86.7358 275.682 86.7884 275.861 86.831L276.679 87.0355C277.009 87.1122 277.325 87.2159 277.629 87.3466C277.936 87.4773 278.21 87.642 278.452 87.8409C278.696 88.0398 278.889 88.2798 279.031 88.5611C279.173 88.8423 279.244 89.1719 279.244 89.5497C279.244 90.0611 279.114 90.5114 278.852 90.9006C278.591 91.2869 278.213 91.5895 277.719 91.8082C277.227 92.0241 276.632 92.1321 275.933 92.1321C275.254 92.1321 274.665 92.027 274.165 91.8168C273.668 91.6065 273.278 91.2997 272.997 90.8963C272.719 90.4929 272.568 90.0014 272.545 89.4219H274.101C274.124 89.7259 274.217 89.9787 274.382 90.1804C274.547 90.3821 274.761 90.5327 275.026 90.6321C275.293 90.7315 275.591 90.7812 275.92 90.7812C276.264 90.7812 276.565 90.7301 276.824 90.6278C277.085 90.5227 277.29 90.3778 277.438 90.1932C277.585 90.0057 277.661 89.7869 277.663 89.5369C277.661 89.3097 277.594 89.1222 277.463 88.9744C277.332 88.8239 277.149 88.6989 276.913 88.5994C276.68 88.4972 276.408 88.4062 276.095 88.3267L275.102 88.071C274.384 87.8864 273.815 87.6065 273.398 87.2315C272.983 86.8537 272.776 86.3523 272.776 85.7273C272.776 85.2131 272.915 84.7628 273.193 84.3764C273.474 83.9901 273.857 83.6903 274.339 83.4773C274.822 83.2614 275.369 83.1534 275.98 83.1534C276.599 83.1534 277.142 83.2614 277.608 83.4773C278.077 83.6903 278.445 83.9872 278.712 84.3679C278.979 84.7457 279.116 85.1804 279.125 85.6719H277.604ZM283.581 92.1193C282.967 92.1193 282.422 92.0142 281.944 91.804C281.47 91.5937 281.095 91.3011 280.819 90.9261C280.544 90.5511 280.397 90.1179 280.38 89.6264H281.983C281.997 89.8622 282.075 90.0682 282.217 90.2443C282.359 90.4176 282.548 90.5526 282.784 90.6491C283.02 90.7457 283.284 90.794 283.576 90.794C283.889 90.794 284.166 90.7401 284.407 90.6321C284.649 90.5213 284.838 90.3679 284.974 90.1719C285.11 89.9759 285.177 89.75 285.174 89.4943C285.177 89.2301 285.109 88.9972 284.97 88.7955C284.831 88.5937 284.629 88.4361 284.365 88.3224C284.103 88.2088 283.788 88.152 283.419 88.152H282.647V86.9332H283.419C283.723 86.9332 283.988 86.8807 284.216 86.7756C284.446 86.6705 284.626 86.5227 284.757 86.3324C284.887 86.1392 284.951 85.9162 284.949 85.6634C284.951 85.4162 284.896 85.2017 284.782 85.0199C284.672 84.8352 284.514 84.6918 284.309 84.5895C284.108 84.4872 283.87 84.4361 283.598 84.4361C283.331 84.4361 283.083 84.4844 282.856 84.581C282.629 84.6776 282.446 84.8153 282.306 84.9943C282.167 85.1705 282.093 85.3807 282.085 85.625H280.564C280.575 85.1364 280.716 84.7074 280.985 84.3381C281.258 83.9659 281.622 83.6761 282.076 83.4688C282.531 83.2585 283.041 83.1534 283.606 83.1534C284.189 83.1534 284.694 83.2628 285.123 83.4815C285.555 83.6974 285.889 83.9886 286.125 84.3551C286.36 84.7216 286.478 85.1264 286.478 85.5696C286.481 86.0611 286.336 86.473 286.044 86.8054C285.754 87.1378 285.373 87.3551 284.902 87.4574V87.5256C285.515 87.6108 285.985 87.8381 286.312 88.2074C286.642 88.5739 286.805 89.0298 286.802 89.5753C286.802 90.0639 286.663 90.5014 286.385 90.8878C286.109 91.2713 285.728 91.5724 285.243 91.7912C284.76 92.0099 284.206 92.1193 283.581 92.1193ZM289.715 90.8068L289.66 91.2756C289.62 91.6335 289.549 91.9972 289.447 92.3665C289.347 92.7386 289.242 93.081 289.131 93.3935C289.021 93.706 288.931 93.9517 288.863 94.1307H287.823C287.863 93.9574 287.917 93.7216 287.985 93.4233C288.056 93.125 288.124 92.7898 288.19 92.4176C288.255 92.0455 288.299 91.6676 288.322 91.2841L288.352 90.8068H289.715ZM294.192 92.1662C293.49 92.1662 292.888 91.9886 292.385 91.6335C291.885 91.2756 291.5 90.7599 291.231 90.0866C290.964 89.4105 290.83 88.5966 290.83 87.6449C290.833 86.6932 290.968 85.8835 291.235 85.2159C291.505 84.5455 291.89 84.0341 292.39 83.6818C292.892 83.3295 293.493 83.1534 294.192 83.1534C294.891 83.1534 295.492 83.3295 295.995 83.6818C296.498 84.0341 296.883 84.5455 297.15 85.2159C297.419 85.8864 297.554 86.696 297.554 87.6449C297.554 88.5994 297.419 89.4148 297.15 90.0909C296.883 90.7642 296.498 91.2784 295.995 91.6335C295.495 91.9886 294.894 92.1662 294.192 92.1662ZM294.192 90.8324C294.738 90.8324 295.168 90.5639 295.483 90.027C295.802 89.4872 295.961 88.6932 295.961 87.6449C295.961 86.9517 295.888 86.3693 295.743 85.8977C295.598 85.4261 295.394 85.071 295.13 84.8324C294.865 84.5909 294.553 84.4702 294.192 84.4702C293.65 84.4702 293.221 84.7401 292.905 85.2798C292.59 85.8168 292.431 86.6051 292.428 87.6449C292.425 88.3409 292.495 88.9261 292.637 89.4006C292.782 89.875 292.986 90.233 293.25 90.4744C293.515 90.7131 293.829 90.8324 294.192 90.8324ZM302.076 92.1662C301.374 92.1662 300.772 91.9886 300.269 91.6335C299.769 91.2756 299.384 90.7599 299.114 90.0866C298.847 89.4105 298.714 88.5966 298.714 87.6449C298.717 86.6932 298.852 85.8835 299.119 85.2159C299.389 84.5455 299.774 84.0341 300.274 83.6818C300.776 83.3295 301.377 83.1534 302.076 83.1534C302.775 83.1534 303.376 83.3295 303.879 83.6818C304.382 84.0341 304.766 84.5455 305.033 85.2159C305.303 85.8864 305.438 86.696 305.438 87.6449C305.438 88.5994 305.303 89.4148 305.033 90.0909C304.766 90.7642 304.382 91.2784 303.879 91.6335C303.379 91.9886 302.778 92.1662 302.076 92.1662ZM302.076 90.8324C302.622 90.8324 303.052 90.5639 303.367 90.027C303.685 89.4872 303.845 88.6932 303.845 87.6449C303.845 86.9517 303.772 86.3693 303.627 85.8977C303.482 85.4261 303.278 85.071 303.014 84.8324C302.749 84.5909 302.437 84.4702 302.076 84.4702C301.533 84.4702 301.105 84.7401 300.789 85.2798C300.474 85.8168 300.315 86.6051 300.312 87.6449C300.309 88.3409 300.379 88.9261 300.521 89.4006C300.666 89.875 300.87 90.233 301.134 90.4744C301.399 90.7131 301.712 90.8324 302.076 90.8324ZM309.96 92.1662C309.258 92.1662 308.656 91.9886 308.153 91.6335C307.653 91.2756 307.268 90.7599 306.998 90.0866C306.731 89.4105 306.598 88.5966 306.598 87.6449C306.601 86.6932 306.736 85.8835 307.003 85.2159C307.273 84.5455 307.657 84.0341 308.157 83.6818C308.66 83.3295 309.261 83.1534 309.96 83.1534C310.659 83.1534 311.26 83.3295 311.763 83.6818C312.265 84.0341 312.65 84.5455 312.917 85.2159C313.187 85.8864 313.322 86.696 313.322 87.6449C313.322 88.5994 313.187 89.4148 312.917 90.0909C312.65 90.7642 312.265 91.2784 311.763 91.6335C311.263 91.9886 310.662 92.1662 309.96 92.1662ZM309.96 90.8324C310.505 90.8324 310.936 90.5639 311.251 90.027C311.569 89.4872 311.728 88.6932 311.728 87.6449C311.728 86.9517 311.656 86.3693 311.511 85.8977C311.366 85.4261 311.162 85.071 310.898 84.8324C310.633 84.5909 310.321 84.4702 309.96 84.4702C309.417 84.4702 308.988 84.7401 308.673 85.2798C308.358 85.8168 308.199 86.6051 308.196 87.6449C308.193 88.3409 308.263 88.9261 308.405 89.4006C308.55 89.875 308.754 90.233 309.018 90.4744C309.282 90.7131 309.596 90.8324 309.96 90.8324Z" fill="#FCFCFC"/>
</g>
<defs>
<filter id="filter0_ddi_1331_218295" x="240" y="50" width="113" height="64" filterUnits="userSpaceOnUse" color-interpolation-filters="sRGB">
<feFlood flood-opacity="0" result="BackgroundImageFix"/>
<feColorMatrix in="SourceAlpha" type="matrix" values="0 0 0 0 0 0 0 0 0 0 0 0 0 0 0 0 0 0 127 0" result="hardAlpha"/>
<feOffset dy="2"/>
<feGaussianBlur stdDeviation="2"/>
<feComposite in2="hardAlpha" operator="out"/>
<feColorMatrix type="matrix" values="0 0 0 0 0 0 0 0 0 0 0 0 0 0 0 0 0 0 0.1 0"/>
<feBlend mode="multiply" in2="BackgroundImageFix" result="effect1_dropShadow_1331_218295"/>
<feColorMatrix in="SourceAlpha" type="matrix" values="0 0 0 0 0 0 0 0 0 0 0 0 0 0 0 0 0 0 127 0" result="hardAlpha"/>
<feOffset dy="4"/>
<feGaussianBlur stdDeviation="4"/>
<feComposite in2="hardAlpha" operator="out"/>
<feColorMatrix type="matrix" values="0 0 0 0 0 0 0 0 0 0 0 0 0 0 0 0 0 0 0.1 0"/>
<feBlend mode="multiply" in2="effect1_dropShadow_1331_218295" result="effect2_dropShadow_1331_218295"/>
<feBlend mode="normal" in="SourceGraphic" in2="effect2_dropShadow_1331_218295" result="shape"/>
<feColorMatrix in="SourceAlpha" type="matrix" values="0 0 0 0 0 0 0 0 0 0 0 0 0 0 0 0 0 0 127 0" result="hardAlpha"/>
<feOffset/>
<feGaussianBlur stdDeviation="0.5"/>
<feComposite in2="hardAlpha" operator="arithmetic" k2="-1" k3="1"/>
<feColorMatrix type="matrix" values="0 0 0 0 0 0 0 0 0 0 0 0 0 0 0 0 0 0 1 0"/>
<feBlend mode="multiply" in2="shape" result="effect3_innerShadow_1331_218295"/>
</filter>
</defs>
</svg>
