<svg width="746" height="368" viewBox="0 0 746 368" fill="none" xmlns="http://www.w3.org/2000/svg">
<path d="M3.87784 26.1193C3.29261 26.1193 2.76989 26.0185 2.30966 25.8168C1.85227 25.6151 1.49006 25.3352 1.22301 24.9773C0.958807 24.6165 0.816761 24.1989 0.796875 23.7244H2.13494C2.15199 23.983 2.23864 24.2074 2.39489 24.3977C2.55398 24.5852 2.76136 24.7301 3.01705 24.8324C3.27273 24.9347 3.55682 24.9858 3.86932 24.9858C4.21307 24.9858 4.51705 24.9261 4.78125 24.8068C5.0483 24.6875 5.2571 24.5213 5.40767 24.3082C5.55824 24.0923 5.63352 23.8438 5.63352 23.5625C5.63352 23.2699 5.55824 23.0128 5.40767 22.7912C5.25994 22.5668 5.04261 22.3906 4.75568 22.2628C4.47159 22.1349 4.12784 22.071 3.72443 22.071H2.98722V20.9972H3.72443C4.0483 20.9972 4.33239 20.9389 4.5767 20.8224C4.82386 20.706 5.01705 20.544 5.15625 20.3366C5.29545 20.1264 5.36506 19.8807 5.36506 19.5994C5.36506 19.3295 5.30398 19.0952 5.18182 18.8963C5.0625 18.6946 4.89205 18.5369 4.67045 18.4233C4.4517 18.3097 4.19318 18.2528 3.89489 18.2528C3.6108 18.2528 3.34517 18.3054 3.09801 18.4105C2.85369 18.5128 2.65483 18.6605 2.50142 18.8537C2.34801 19.044 2.26563 19.2727 2.25426 19.5398H0.980114C0.994318 19.0682 1.13352 18.6534 1.39773 18.2955C1.66477 17.9375 2.01705 17.6577 2.45455 17.456C2.89205 17.2543 3.37784 17.1534 3.91193 17.1534C4.47159 17.1534 4.95455 17.2628 5.3608 17.4815C5.76989 17.6974 6.08523 17.9858 6.30682 18.3466C6.53125 18.7074 6.64205 19.1023 6.6392 19.5312C6.64205 20.0199 6.50568 20.4347 6.23011 20.7756C5.95739 21.1165 5.59375 21.3452 5.1392 21.4616V21.5298C5.71875 21.6179 6.16761 21.848 6.4858 22.2202C6.80682 22.5923 6.96591 23.054 6.96307 23.6051C6.96591 24.0852 6.83239 24.5156 6.5625 24.8963C6.29545 25.277 5.9304 25.5767 5.46733 25.7955C5.00426 26.0114 4.47443 26.1193 3.87784 26.1193ZM11.4922 26.1449C10.8189 26.142 10.2436 25.9645 9.76636 25.6122C9.28909 25.2599 8.92403 24.7472 8.67119 24.0739C8.41835 23.4006 8.29193 22.5895 8.29193 21.6406C8.29193 20.6946 8.41835 19.8864 8.67119 19.2159C8.92688 18.5455 9.29335 18.0341 9.77063 17.6818C10.2507 17.3295 10.8246 17.1534 11.4922 17.1534C12.1598 17.1534 12.7323 17.331 13.2095 17.6861C13.6868 18.0384 14.0519 18.5497 14.3047 19.2202C14.5604 19.8878 14.6882 20.6946 14.6882 21.6406C14.6882 22.5923 14.5618 23.4048 14.309 24.0781C14.0561 24.7486 13.6911 25.2614 13.2138 25.6165C12.7365 25.9688 12.1627 26.1449 11.4922 26.1449ZM11.4922 25.0071C12.0831 25.0071 12.5448 24.7188 12.8772 24.142C13.2124 23.5653 13.38 22.7315 13.38 21.6406C13.38 20.9162 13.3033 20.304 13.1499 19.804C12.9993 19.3011 12.782 18.9205 12.4979 18.6619C12.2166 18.4006 11.8814 18.2699 11.4922 18.2699C10.9041 18.2699 10.4425 18.5597 10.1073 19.1392C9.77205 19.7187 9.60301 20.5526 9.60017 21.6406C9.60017 22.3679 9.67545 22.983 9.82602 23.4858C9.97943 23.9858 10.1968 24.3651 10.478 24.6236C10.7593 24.8793 11.0973 25.0071 11.4922 25.0071Z" fill="#6F767E"/>
<path d="M0.839489 78V77.0455L3.79261 73.9858C4.10795 73.6534 4.3679 73.3622 4.57244 73.1122C4.77983 72.8594 4.93466 72.6193 5.03693 72.392C5.1392 72.1648 5.19034 71.9233 5.19034 71.6676C5.19034 71.3778 5.12216 71.1278 4.9858 70.9176C4.84943 70.7045 4.66335 70.5412 4.42756 70.4276C4.19176 70.3111 3.92614 70.2528 3.63068 70.2528C3.31818 70.2528 3.04545 70.3168 2.8125 70.4446C2.57955 70.5724 2.40057 70.7528 2.27557 70.9858C2.15057 71.2187 2.08807 71.4915 2.08807 71.804H0.830966C0.830966 71.2727 0.953125 70.8082 1.19744 70.4105C1.44176 70.0128 1.77699 69.7045 2.20312 69.4858C2.62926 69.2642 3.11364 69.1534 3.65625 69.1534C4.20455 69.1534 4.6875 69.2628 5.10511 69.4815C5.52557 69.6974 5.85369 69.9929 6.08949 70.3679C6.32528 70.7401 6.44318 71.1605 6.44318 71.6293C6.44318 71.9531 6.3821 72.2699 6.25994 72.5795C6.14063 72.8892 5.93182 73.2344 5.63352 73.6151C5.33523 73.9929 4.92045 74.4517 4.3892 74.9915L2.65483 76.8068V76.8707H6.58381V78H0.839489ZM10.9595 78.1193C10.4255 78.1193 9.94534 78.017 9.5192 77.8125C9.09591 77.6051 8.75784 77.321 8.505 76.9602C8.25216 76.5994 8.11722 76.1875 8.10017 75.7244H9.37858C9.40983 76.0994 9.57602 76.4077 9.87716 76.6491C10.1783 76.8906 10.5391 77.0114 10.9595 77.0114C11.2948 77.0114 11.5916 76.9347 11.8502 76.7812C12.1115 76.625 12.3161 76.4105 12.4638 76.1378C12.6144 75.8651 12.6897 75.554 12.6897 75.2045C12.6897 74.8494 12.613 74.5327 12.4595 74.2543C12.3061 73.9759 12.0945 73.7571 11.8246 73.598C11.5576 73.4389 11.2507 73.358 10.9041 73.3551C10.6399 73.3551 10.3743 73.4006 10.1073 73.4915C9.84023 73.5824 9.62432 73.7017 9.45955 73.8494L8.25358 73.6705L8.74364 69.2727H13.5419V70.402H9.83881L9.56182 72.8438H9.61295C9.78341 72.679 10.0093 72.5412 10.2905 72.4304C10.5746 72.3196 10.8786 72.2642 11.2024 72.2642C11.7337 72.2642 12.2067 72.3906 12.6215 72.6435C13.0391 72.8963 13.3672 73.2415 13.6059 73.679C13.8473 74.1136 13.9666 74.6136 13.9638 75.179C13.9666 75.7443 13.8388 76.2486 13.5803 76.6918C13.3246 77.1349 12.9695 77.4844 12.5149 77.7401C12.0632 77.9929 11.5448 78.1193 10.9595 78.1193Z" fill="#6F767E"/>
<path d="M0.839489 130V129.045L3.79261 125.986C4.10795 125.653 4.3679 125.362 4.57244 125.112C4.77983 124.859 4.93466 124.619 5.03693 124.392C5.1392 124.165 5.19034 123.923 5.19034 123.668C5.19034 123.378 5.12216 123.128 4.9858 122.918C4.84943 122.705 4.66335 122.541 4.42756 122.428C4.19176 122.311 3.92614 122.253 3.63068 122.253C3.31818 122.253 3.04545 122.317 2.8125 122.445C2.57955 122.572 2.40057 122.753 2.27557 122.986C2.15057 123.219 2.08807 123.491 2.08807 123.804H0.830966C0.830966 123.273 0.953125 122.808 1.19744 122.411C1.44176 122.013 1.77699 121.705 2.20312 121.486C2.62926 121.264 3.11364 121.153 3.65625 121.153C4.20455 121.153 4.6875 121.263 5.10511 121.482C5.52557 121.697 5.85369 121.993 6.08949 122.368C6.32528 122.74 6.44318 123.161 6.44318 123.629C6.44318 123.953 6.3821 124.27 6.25994 124.58C6.14063 124.889 5.93182 125.234 5.63352 125.615C5.33523 125.993 4.92045 126.452 4.3892 126.991L2.65483 128.807V128.871H6.58381V130H0.839489ZM11.1172 130.145C10.4439 130.142 9.86864 129.964 9.39136 129.612C8.91409 129.26 8.54903 128.747 8.29619 128.074C8.04335 127.401 7.91693 126.589 7.91693 125.641C7.91693 124.695 8.04335 123.886 8.29619 123.216C8.55188 122.545 8.91835 122.034 9.39563 121.682C9.87574 121.33 10.4496 121.153 11.1172 121.153C11.7848 121.153 12.3573 121.331 12.8345 121.686C13.3118 122.038 13.6769 122.55 13.9297 123.22C14.1854 123.888 14.3132 124.695 14.3132 125.641C14.3132 126.592 14.1868 127.405 13.934 128.078C13.6811 128.749 13.3161 129.261 12.8388 129.616C12.3615 129.969 11.7877 130.145 11.1172 130.145ZM11.1172 129.007C11.7081 129.007 12.1698 128.719 12.5022 128.142C12.8374 127.565 13.005 126.732 13.005 125.641C13.005 124.916 12.9283 124.304 12.7749 123.804C12.6243 123.301 12.407 122.92 12.1229 122.662C11.8416 122.401 11.5064 122.27 11.1172 122.27C10.5291 122.27 10.0675 122.56 9.73227 123.139C9.39705 123.719 9.22801 124.553 9.22517 125.641C9.22517 126.368 9.30045 126.983 9.45102 127.486C9.60443 127.986 9.82176 128.365 10.103 128.624C10.3843 128.879 10.7223 129.007 11.1172 129.007Z" fill="#6F767E"/>
<path d="M4.15057 173.273V182H2.82955V174.594H2.77841L0.690341 175.957V174.696L2.8679 173.273H4.15057ZM9.27205 182.119C8.73795 182.119 8.25784 182.017 7.8317 181.812C7.40841 181.605 7.07034 181.321 6.8175 180.96C6.56466 180.599 6.42972 180.188 6.41267 179.724H7.69108C7.72233 180.099 7.88852 180.408 8.18966 180.649C8.4908 180.891 8.85159 181.011 9.27205 181.011C9.60727 181.011 9.90415 180.935 10.1627 180.781C10.424 180.625 10.6286 180.411 10.7763 180.138C10.9269 179.865 11.0022 179.554 11.0022 179.205C11.0022 178.849 10.9255 178.533 10.772 178.254C10.6186 177.976 10.407 177.757 10.1371 177.598C9.87006 177.439 9.56324 177.358 9.21665 177.355C8.95244 177.355 8.68682 177.401 8.41977 177.491C8.15273 177.582 7.93682 177.702 7.77205 177.849L6.56608 177.67L7.05614 173.273H11.8544V174.402H8.15131L7.87432 176.844H7.92545C8.09591 176.679 8.32176 176.541 8.60301 176.43C8.8871 176.32 9.19108 176.264 9.51494 176.264C10.0462 176.264 10.5192 176.391 10.934 176.643C11.3516 176.896 11.6797 177.241 11.9184 177.679C12.1598 178.114 12.2791 178.614 12.2763 179.179C12.2791 179.744 12.1513 180.249 11.8928 180.692C11.6371 181.135 11.282 181.484 10.8274 181.74C10.3757 181.993 9.85727 182.119 9.27205 182.119Z" fill="#6F767E"/>
<path d="M4.15057 225.273V234H2.82955V226.594H2.77841L0.690341 227.957V226.696L2.8679 225.273H4.15057ZM9.42972 234.145C8.75642 234.142 8.18114 233.964 7.70386 233.612C7.22659 233.26 6.86153 232.747 6.60869 232.074C6.35585 231.401 6.22943 230.589 6.22943 229.641C6.22943 228.695 6.35585 227.886 6.60869 227.216C6.86438 226.545 7.23085 226.034 7.70813 225.682C8.18824 225.33 8.7621 225.153 9.42972 225.153C10.0973 225.153 10.6698 225.331 11.147 225.686C11.6243 226.038 11.9894 226.55 12.2422 227.22C12.4979 227.888 12.6257 228.695 12.6257 229.641C12.6257 230.592 12.4993 231.405 12.2465 232.078C11.9936 232.749 11.6286 233.261 11.1513 233.616C10.674 233.969 10.1002 234.145 9.42972 234.145ZM9.42972 233.007C10.0206 233.007 10.4823 232.719 10.8147 232.142C11.1499 231.565 11.3175 230.732 11.3175 229.641C11.3175 228.916 11.2408 228.304 11.0874 227.804C10.9368 227.301 10.7195 226.92 10.4354 226.662C10.1541 226.401 9.81892 226.27 9.42972 226.27C8.84165 226.27 8.38 226.56 8.04477 227.139C7.70955 227.719 7.54051 228.553 7.53767 229.641C7.53767 230.368 7.61295 230.983 7.76352 231.486C7.91693 231.986 8.13426 232.365 8.41551 232.624C8.69676 232.879 9.03483 233.007 9.42972 233.007Z" fill="#6F767E"/>
<path d="M3.72017 286.119C3.18608 286.119 2.70597 286.017 2.27983 285.812C1.85653 285.605 1.51847 285.321 1.26562 284.96C1.01278 284.599 0.877841 284.188 0.860795 283.724H2.1392C2.17045 284.099 2.33665 284.408 2.63778 284.649C2.93892 284.891 3.29972 285.011 3.72017 285.011C4.0554 285.011 4.35227 284.935 4.6108 284.781C4.87216 284.625 5.0767 284.411 5.22443 284.138C5.375 283.865 5.45028 283.554 5.45028 283.205C5.45028 282.849 5.37358 282.533 5.22017 282.254C5.06676 281.976 4.85511 281.757 4.58523 281.598C4.31818 281.439 4.01136 281.358 3.66477 281.355C3.40057 281.355 3.13494 281.401 2.8679 281.491C2.60085 281.582 2.38494 281.702 2.22017 281.849L1.0142 281.67L1.50426 277.273H6.30256V278.402H2.59943L2.32244 280.844H2.37358C2.54403 280.679 2.76989 280.541 3.05114 280.43C3.33523 280.32 3.6392 280.264 3.96307 280.264C4.49432 280.264 4.96733 280.391 5.3821 280.643C5.79972 280.896 6.12784 281.241 6.36648 281.679C6.60795 282.114 6.72727 282.614 6.72443 283.179C6.72727 283.744 6.59943 284.249 6.34091 284.692C6.08523 285.135 5.73011 285.484 5.27557 285.74C4.82386 285.993 4.3054 286.119 3.72017 286.119Z" fill="#6F767E"/>
<path d="M50 62C50 60.8954 50.8954 60 52 60H88C89.1046 60 90 60.8954 90 62V68H50V62Z" fill="#FFD88D"/>
<rect x="50" y="68" width="40" height="12" fill="#FFBC99"/>
<rect x="50" y="80" width="40" height="8" fill="#B1E5FC"/>
<rect x="50" y="88" width="40" height="4" fill="#CABDFF"/>
<path d="M50 92H90V282C90 283.105 89.1046 284 88 284H52C50.8954 284 50 283.105 50 282V92Z" fill="#2A85FF"/>
<path d="M63.3395 318V317.045L66.2926 313.986C66.608 313.653 66.8679 313.362 67.0724 313.112C67.2798 312.859 67.4347 312.619 67.5369 312.392C67.6392 312.165 67.6903 311.923 67.6903 311.668C67.6903 311.378 67.6222 311.128 67.4858 310.918C67.3494 310.705 67.1634 310.541 66.9276 310.428C66.6918 310.311 66.4261 310.253 66.1307 310.253C65.8182 310.253 65.5455 310.317 65.3125 310.445C65.0795 310.572 64.9006 310.753 64.7756 310.986C64.6506 311.219 64.5881 311.491 64.5881 311.804H63.331C63.331 311.273 63.4531 310.808 63.6974 310.411C63.9418 310.013 64.277 309.705 64.7031 309.486C65.1293 309.264 65.6136 309.153 66.1562 309.153C66.7045 309.153 67.1875 309.263 67.6051 309.482C68.0256 309.697 68.3537 309.993 68.5895 310.368C68.8253 310.74 68.9432 311.161 68.9432 311.629C68.9432 311.953 68.8821 312.27 68.7599 312.58C68.6406 312.889 68.4318 313.234 68.1335 313.615C67.8352 313.993 67.4205 314.452 66.8892 314.991L65.1548 316.807V316.871H69.0838V318H63.3395ZM70.5789 318V317.045L73.532 313.986C73.8473 313.653 74.1073 313.362 74.3118 313.112C74.5192 312.859 74.674 312.619 74.7763 312.392C74.8786 312.165 74.9297 311.923 74.9297 311.668C74.9297 311.378 74.8615 311.128 74.7252 310.918C74.5888 310.705 74.4027 310.541 74.1669 310.428C73.9311 310.311 73.6655 310.253 73.3701 310.253C73.0576 310.253 72.7848 310.317 72.5519 310.445C72.3189 310.572 72.1399 310.753 72.0149 310.986C71.8899 311.219 71.8274 311.491 71.8274 311.804H70.5703C70.5703 311.273 70.6925 310.808 70.9368 310.411C71.1811 310.013 71.5164 309.705 71.9425 309.486C72.3686 309.264 72.853 309.153 73.3956 309.153C73.9439 309.153 74.4269 309.263 74.8445 309.482C75.2649 309.697 75.5931 309.993 75.8289 310.368C76.0647 310.74 76.1826 311.161 76.1826 311.629C76.1826 311.953 76.1215 312.27 75.9993 312.58C75.88 312.889 75.6712 313.234 75.3729 313.615C75.0746 313.993 74.6598 314.452 74.1286 314.991L72.3942 316.807V316.871H76.3232V318H70.5789Z" fill="#6F767E"/>
<rect x="114" width="1" height="296" rx="0.5" fill="#EFEFEF"/>
<path d="M139 110C139 108.895 139.895 108 141 108H177C178.105 108 179 108.895 179 110V116H139V110Z" fill="#FFD88D"/>
<rect x="139" y="116" width="40" height="12" fill="#FFBC99"/>
<rect x="139" y="128" width="40" height="8" fill="#B1E5FC"/>
<rect x="139" y="136" width="40" height="36" fill="#CABDFF"/>
<path d="M139 172H179V282C179 283.105 178.105 284 177 284H141C139.895 284 139 283.105 139 282V172Z" fill="#2A85FF"/>
<path d="M152.339 318V317.045L155.293 313.986C155.608 313.653 155.868 313.362 156.072 313.112C156.28 312.859 156.435 312.619 156.537 312.392C156.639 312.165 156.69 311.923 156.69 311.668C156.69 311.378 156.622 311.128 156.486 310.918C156.349 310.705 156.163 310.541 155.928 310.428C155.692 310.311 155.426 310.253 155.131 310.253C154.818 310.253 154.545 310.317 154.312 310.445C154.08 310.572 153.901 310.753 153.776 310.986C153.651 311.219 153.588 311.491 153.588 311.804H152.331C152.331 311.273 152.453 310.808 152.697 310.411C152.942 310.013 153.277 309.705 153.703 309.486C154.129 309.264 154.614 309.153 155.156 309.153C155.705 309.153 156.188 309.263 156.605 309.482C157.026 309.697 157.354 309.993 157.589 310.368C157.825 310.74 157.943 311.161 157.943 311.629C157.943 311.953 157.882 312.27 157.76 312.58C157.641 312.889 157.432 313.234 157.134 313.615C156.835 313.993 156.42 314.452 155.889 314.991L154.155 316.807V316.871H158.084V318H152.339ZM159.579 318V317.045L162.532 313.986C162.847 313.653 163.107 313.362 163.312 313.112C163.519 312.859 163.674 312.619 163.776 312.392C163.879 312.165 163.93 311.923 163.93 311.668C163.93 311.378 163.862 311.128 163.725 310.918C163.589 310.705 163.403 310.541 163.167 310.428C162.931 310.311 162.666 310.253 162.37 310.253C162.058 310.253 161.785 310.317 161.552 310.445C161.319 310.572 161.14 310.753 161.015 310.986C160.89 311.219 160.827 311.491 160.827 311.804H159.57C159.57 311.273 159.693 310.808 159.937 310.411C160.181 310.013 160.516 309.705 160.943 309.486C161.369 309.264 161.853 309.153 162.396 309.153C162.944 309.153 163.427 309.263 163.844 309.482C164.265 309.697 164.593 309.993 164.829 310.368C165.065 310.74 165.183 311.161 165.183 311.629C165.183 311.953 165.121 312.27 164.999 312.58C164.88 312.889 164.671 313.234 164.373 313.615C164.075 313.993 163.66 314.452 163.129 314.991L161.394 316.807V316.871H165.323V318H159.579Z" fill="#6F767E"/>
<rect x="203" width="1" height="296" rx="0.5" fill="#EFEFEF"/>
<path d="M228 182C228 180.895 228.895 180 230 180H266C267.105 180 268 180.895 268 182V188H228V182Z" fill="#FFD88D"/>
<rect x="228" y="188" width="40" height="28" fill="#FFBC99"/>
<rect x="228" y="216" width="40" height="8" fill="#B1E5FC"/>
<rect x="228" y="224" width="40" height="4" fill="#CABDFF"/>
<path d="M228 228H268V282C268 283.105 267.105 284 266 284H230C228.895 284 228 283.105 228 282V228Z" fill="#2A85FF"/>
<path d="M241.339 318V317.045L244.293 313.986C244.608 313.653 244.868 313.362 245.072 313.112C245.28 312.859 245.435 312.619 245.537 312.392C245.639 312.165 245.69 311.923 245.69 311.668C245.69 311.378 245.622 311.128 245.486 310.918C245.349 310.705 245.163 310.541 244.928 310.428C244.692 310.311 244.426 310.253 244.131 310.253C243.818 310.253 243.545 310.317 243.312 310.445C243.08 310.572 242.901 310.753 242.776 310.986C242.651 311.219 242.588 311.491 242.588 311.804H241.331C241.331 311.273 241.453 310.808 241.697 310.411C241.942 310.013 242.277 309.705 242.703 309.486C243.129 309.264 243.614 309.153 244.156 309.153C244.705 309.153 245.188 309.263 245.605 309.482C246.026 309.697 246.354 309.993 246.589 310.368C246.825 310.74 246.943 311.161 246.943 311.629C246.943 311.953 246.882 312.27 246.76 312.58C246.641 312.889 246.432 313.234 246.134 313.615C245.835 313.993 245.42 314.452 244.889 314.991L243.155 316.807V316.871H247.084V318H241.339ZM248.579 318V317.045L251.532 313.986C251.847 313.653 252.107 313.362 252.312 313.112C252.519 312.859 252.674 312.619 252.776 312.392C252.879 312.165 252.93 311.923 252.93 311.668C252.93 311.378 252.862 311.128 252.725 310.918C252.589 310.705 252.403 310.541 252.167 310.428C251.931 310.311 251.666 310.253 251.37 310.253C251.058 310.253 250.785 310.317 250.552 310.445C250.319 310.572 250.14 310.753 250.015 310.986C249.89 311.219 249.827 311.491 249.827 311.804H248.57C248.57 311.273 248.693 310.808 248.937 310.411C249.181 310.013 249.516 309.705 249.943 309.486C250.369 309.264 250.853 309.153 251.396 309.153C251.944 309.153 252.427 309.263 252.844 309.482C253.265 309.697 253.593 309.993 253.829 310.368C254.065 310.74 254.183 311.161 254.183 311.629C254.183 311.953 254.121 312.27 253.999 312.58C253.88 312.889 253.671 313.234 253.373 313.615C253.075 313.993 252.66 314.452 252.129 314.991L250.394 316.807V316.871H254.323V318H248.579Z" fill="#6F767E"/>
<rect x="292" width="1" height="296" rx="0.5" fill="#EFEFEF"/>
<path d="M317 138C317 136.895 317.895 136 319 136H355C356.105 136 357 136.895 357 138V168H317V138Z" fill="#FFD88D"/>
<rect x="317" y="168" width="40" height="4" fill="#FFBC99"/>
<rect x="317" y="172" width="40" height="4" fill="#B1E5FC"/>
<rect x="317" y="176" width="40" height="4" fill="#CABDFF"/>
<path d="M317 180H357V282C357 283.105 356.105 284 355 284H319C317.895 284 317 283.105 317 282V180Z" fill="#2A85FF"/>
<path d="M330.339 318V317.045L333.293 313.986C333.608 313.653 333.868 313.362 334.072 313.112C334.28 312.859 334.435 312.619 334.537 312.392C334.639 312.165 334.69 311.923 334.69 311.668C334.69 311.378 334.622 311.128 334.486 310.918C334.349 310.705 334.163 310.541 333.928 310.428C333.692 310.311 333.426 310.253 333.131 310.253C332.818 310.253 332.545 310.317 332.312 310.445C332.08 310.572 331.901 310.753 331.776 310.986C331.651 311.219 331.588 311.491 331.588 311.804H330.331C330.331 311.273 330.453 310.808 330.697 310.411C330.942 310.013 331.277 309.705 331.703 309.486C332.129 309.264 332.614 309.153 333.156 309.153C333.705 309.153 334.188 309.263 334.605 309.482C335.026 309.697 335.354 309.993 335.589 310.368C335.825 310.74 335.943 311.161 335.943 311.629C335.943 311.953 335.882 312.27 335.76 312.58C335.641 312.889 335.432 313.234 335.134 313.615C334.835 313.993 334.42 314.452 333.889 314.991L332.155 316.807V316.871H336.084V318H330.339ZM337.579 318V317.045L340.532 313.986C340.847 313.653 341.107 313.362 341.312 313.112C341.519 312.859 341.674 312.619 341.776 312.392C341.879 312.165 341.93 311.923 341.93 311.668C341.93 311.378 341.862 311.128 341.725 310.918C341.589 310.705 341.403 310.541 341.167 310.428C340.931 310.311 340.666 310.253 340.37 310.253C340.058 310.253 339.785 310.317 339.552 310.445C339.319 310.572 339.14 310.753 339.015 310.986C338.89 311.219 338.827 311.491 338.827 311.804H337.57C337.57 311.273 337.693 310.808 337.937 310.411C338.181 310.013 338.516 309.705 338.943 309.486C339.369 309.264 339.853 309.153 340.396 309.153C340.944 309.153 341.427 309.263 341.844 309.482C342.265 309.697 342.593 309.993 342.829 310.368C343.065 310.74 343.183 311.161 343.183 311.629C343.183 311.953 343.121 312.27 342.999 312.58C342.88 312.889 342.671 313.234 342.373 313.615C342.075 313.993 341.66 314.452 341.129 314.991L339.394 316.807V316.871H343.323V318H337.579Z" fill="#6F767E"/>
<rect x="381" width="1" height="296" rx="0.5" fill="#EFEFEF"/>
<path d="M406 82C406 80.8954 406.895 80 408 80H444C445.105 80 446 80.8954 446 82V84H406V82Z" fill="#FFD88D"/>
<rect x="406" y="84" width="40" height="4" fill="#FFBC99"/>
<rect x="406" y="88" width="40" height="40" fill="#B1E5FC"/>
<rect x="406" y="128" width="40" height="4" fill="#CABDFF"/>
<path d="M406 132H446V282C446 283.105 445.105 284 444 284H408C406.895 284 406 283.105 406 282V132Z" fill="#2A85FF"/>
<path d="M419.339 318V317.045L422.293 313.986C422.608 313.653 422.868 313.362 423.072 313.112C423.28 312.859 423.435 312.619 423.537 312.392C423.639 312.165 423.69 311.923 423.69 311.668C423.69 311.378 423.622 311.128 423.486 310.918C423.349 310.705 423.163 310.541 422.928 310.428C422.692 310.311 422.426 310.253 422.131 310.253C421.818 310.253 421.545 310.317 421.312 310.445C421.08 310.572 420.901 310.753 420.776 310.986C420.651 311.219 420.588 311.491 420.588 311.804H419.331C419.331 311.273 419.453 310.808 419.697 310.411C419.942 310.013 420.277 309.705 420.703 309.486C421.129 309.264 421.614 309.153 422.156 309.153C422.705 309.153 423.188 309.263 423.605 309.482C424.026 309.697 424.354 309.993 424.589 310.368C424.825 310.74 424.943 311.161 424.943 311.629C424.943 311.953 424.882 312.27 424.76 312.58C424.641 312.889 424.432 313.234 424.134 313.615C423.835 313.993 423.42 314.452 422.889 314.991L421.155 316.807V316.871H425.084V318H419.339ZM426.579 318V317.045L429.532 313.986C429.847 313.653 430.107 313.362 430.312 313.112C430.519 312.859 430.674 312.619 430.776 312.392C430.879 312.165 430.93 311.923 430.93 311.668C430.93 311.378 430.862 311.128 430.725 310.918C430.589 310.705 430.403 310.541 430.167 310.428C429.931 310.311 429.666 310.253 429.37 310.253C429.058 310.253 428.785 310.317 428.552 310.445C428.319 310.572 428.14 310.753 428.015 310.986C427.89 311.219 427.827 311.491 427.827 311.804H426.57C426.57 311.273 426.693 310.808 426.937 310.411C427.181 310.013 427.516 309.705 427.943 309.486C428.369 309.264 428.853 309.153 429.396 309.153C429.944 309.153 430.427 309.263 430.844 309.482C431.265 309.697 431.593 309.993 431.829 310.368C432.065 310.74 432.183 311.161 432.183 311.629C432.183 311.953 432.121 312.27 431.999 312.58C431.88 312.889 431.671 313.234 431.373 313.615C431.075 313.993 430.66 314.452 430.129 314.991L428.394 316.807V316.871H432.323V318H426.579Z" fill="#6F767E"/>
<rect x="470" width="1" height="296" rx="0.5" fill="#EFEFEF"/>
<path d="M495 143C495 141.895 495.895 141 497 141H533C534.105 141 535 141.895 535 143V143H495V143Z" fill="#FFD88D"/>
<rect x="495" y="143" width="40" height="2" fill="#FFBC99"/>
<rect x="495" y="145" width="40" height="2" fill="#B1E5FC"/>
<rect x="495" y="147" width="40" height="25" fill="#CABDFF"/>
<path d="M495 172H535V282C535 283.105 534.105 284 533 284H497C495.895 284 495 283.105 495 282V172Z" fill="#2A85FF"/>
<path d="M508.339 318V317.045L511.293 313.986C511.608 313.653 511.868 313.362 512.072 313.112C512.28 312.859 512.435 312.619 512.537 312.392C512.639 312.165 512.69 311.923 512.69 311.668C512.69 311.378 512.622 311.128 512.486 310.918C512.349 310.705 512.163 310.541 511.928 310.428C511.692 310.311 511.426 310.253 511.131 310.253C510.818 310.253 510.545 310.317 510.312 310.445C510.08 310.572 509.901 310.753 509.776 310.986C509.651 311.219 509.588 311.491 509.588 311.804H508.331C508.331 311.273 508.453 310.808 508.697 310.411C508.942 310.013 509.277 309.705 509.703 309.486C510.129 309.264 510.614 309.153 511.156 309.153C511.705 309.153 512.188 309.263 512.605 309.482C513.026 309.697 513.354 309.993 513.589 310.368C513.825 310.74 513.943 311.161 513.943 311.629C513.943 311.953 513.882 312.27 513.76 312.58C513.641 312.889 513.432 313.234 513.134 313.615C512.835 313.993 512.42 314.452 511.889 314.991L510.155 316.807V316.871H514.084V318H508.339ZM515.579 318V317.045L518.532 313.986C518.847 313.653 519.107 313.362 519.312 313.112C519.519 312.859 519.674 312.619 519.776 312.392C519.879 312.165 519.93 311.923 519.93 311.668C519.93 311.378 519.862 311.128 519.725 310.918C519.589 310.705 519.403 310.541 519.167 310.428C518.931 310.311 518.666 310.253 518.37 310.253C518.058 310.253 517.785 310.317 517.552 310.445C517.319 310.572 517.14 310.753 517.015 310.986C516.89 311.219 516.827 311.491 516.827 311.804H515.57C515.57 311.273 515.693 310.808 515.937 310.411C516.181 310.013 516.516 309.705 516.943 309.486C517.369 309.264 517.853 309.153 518.396 309.153C518.944 309.153 519.427 309.263 519.844 309.482C520.265 309.697 520.593 309.993 520.829 310.368C521.065 310.74 521.183 311.161 521.183 311.629C521.183 311.953 521.121 312.27 520.999 312.58C520.88 312.889 520.671 313.234 520.373 313.615C520.075 313.993 519.66 314.452 519.129 314.991L517.394 316.807V316.871H521.323V318H515.579Z" fill="#6F767E"/>
<rect x="559" width="1" height="296" rx="0.5" fill="#EFEFEF"/>
<path d="M584 140C584 138.895 584.895 138 586 138H622C623.105 138 624 138.895 624 140V140H584V140Z" fill="#FFD88D"/>
<rect x="584" y="140" width="40" height="2" fill="#FFBC99"/>
<rect x="584" y="142" width="40" height="2" fill="#B1E5FC"/>
<rect x="584" y="144" width="40" height="4" fill="#CABDFF"/>
<path d="M584 148H624V282C624 283.105 623.105 284 622 284H586C584.895 284 584 283.105 584 282V148Z" fill="#2A85FF"/>
<path d="M597.339 318V317.045L600.293 313.986C600.608 313.653 600.868 313.362 601.072 313.112C601.28 312.859 601.435 312.619 601.537 312.392C601.639 312.165 601.69 311.923 601.69 311.668C601.69 311.378 601.622 311.128 601.486 310.918C601.349 310.705 601.163 310.541 600.928 310.428C600.692 310.311 600.426 310.253 600.131 310.253C599.818 310.253 599.545 310.317 599.312 310.445C599.08 310.572 598.901 310.753 598.776 310.986C598.651 311.219 598.588 311.491 598.588 311.804H597.331C597.331 311.273 597.453 310.808 597.697 310.411C597.942 310.013 598.277 309.705 598.703 309.486C599.129 309.264 599.614 309.153 600.156 309.153C600.705 309.153 601.188 309.263 601.605 309.482C602.026 309.697 602.354 309.993 602.589 310.368C602.825 310.74 602.943 311.161 602.943 311.629C602.943 311.953 602.882 312.27 602.76 312.58C602.641 312.889 602.432 313.234 602.134 313.615C601.835 313.993 601.42 314.452 600.889 314.991L599.155 316.807V316.871H603.084V318H597.339ZM604.579 318V317.045L607.532 313.986C607.847 313.653 608.107 313.362 608.312 313.112C608.519 312.859 608.674 312.619 608.776 312.392C608.879 312.165 608.93 311.923 608.93 311.668C608.93 311.378 608.862 311.128 608.725 310.918C608.589 310.705 608.403 310.541 608.167 310.428C607.931 310.311 607.666 310.253 607.37 310.253C607.058 310.253 606.785 310.317 606.552 310.445C606.319 310.572 606.14 310.753 606.015 310.986C605.89 311.219 605.827 311.491 605.827 311.804H604.57C604.57 311.273 604.693 310.808 604.937 310.411C605.181 310.013 605.516 309.705 605.943 309.486C606.369 309.264 606.853 309.153 607.396 309.153C607.944 309.153 608.427 309.263 608.844 309.482C609.265 309.697 609.593 309.993 609.829 310.368C610.065 310.74 610.183 311.161 610.183 311.629C610.183 311.953 610.121 312.27 609.999 312.58C609.88 312.889 609.671 313.234 609.373 313.615C609.075 313.993 608.66 314.452 608.129 314.991L606.394 316.807V316.871H610.323V318H604.579Z" fill="#6F767E"/>
<rect y="352" width="16" height="16" rx="4" fill="#2A85FF"/>
<path d="M27.8523 364H24.7585V355.273H27.8778C28.7557 355.273 29.5114 355.447 30.1449 355.797C30.7784 356.143 31.2656 356.642 31.6065 357.293C31.9503 357.943 32.1222 358.722 32.1222 359.628C32.1222 360.537 31.9503 361.318 31.6065 361.972C31.2656 362.625 30.7756 363.126 30.1364 363.476C29.5 363.825 28.7386 364 27.8523 364ZM26.6037 362.419H27.7756C28.321 362.419 28.7798 362.322 29.152 362.129C29.527 361.933 29.8082 361.631 29.9957 361.222C30.1861 360.81 30.2812 360.278 30.2812 359.628C30.2812 358.983 30.1861 358.456 29.9957 358.047C29.8082 357.638 29.5284 357.337 29.1562 357.143C28.7841 356.95 28.3253 356.854 27.7798 356.854H26.6037V362.419ZM33.3349 364V357.455H35.1502V364H33.3349ZM34.2468 356.611C33.9769 356.611 33.7454 356.521 33.5522 356.342C33.3619 356.161 33.2667 355.943 33.2667 355.69C33.2667 355.44 33.3619 355.226 33.5522 355.047C33.7454 354.865 33.9769 354.774 34.2468 354.774C34.5167 354.774 34.7468 354.865 34.9372 355.047C35.1304 355.226 35.2269 355.44 35.2269 355.69C35.2269 355.943 35.1304 356.161 34.9372 356.342C34.7468 356.521 34.5167 356.611 34.2468 356.611ZM36.4844 364V357.455H38.2444V358.597H38.3126C38.4319 358.19 38.6322 357.884 38.9134 357.676C39.1947 357.466 39.5185 357.361 39.885 357.361C39.9759 357.361 40.0739 357.366 40.179 357.378C40.2841 357.389 40.3765 357.405 40.456 357.425V359.036C40.3708 359.01 40.2529 358.987 40.1023 358.967C39.9518 358.947 39.814 358.938 39.689 358.938C39.4219 358.938 39.1833 358.996 38.9731 359.112C38.7657 359.226 38.6009 359.385 38.4788 359.589C38.3594 359.794 38.2998 360.03 38.2998 360.297V364H36.4844ZM43.9529 364.128C43.2796 364.128 42.7 363.991 42.2142 363.719C41.7313 363.443 41.3591 363.054 41.0977 362.551C40.8364 362.045 40.7057 361.447 40.7057 360.757C40.7057 360.084 40.8364 359.493 41.0977 358.984C41.3591 358.476 41.727 358.08 42.2014 357.795C42.6787 357.511 43.2384 357.369 43.8804 357.369C44.3122 357.369 44.7142 357.439 45.0864 357.578C45.4614 357.714 45.7881 357.92 46.0665 358.196C46.3477 358.472 46.5665 358.818 46.7227 359.236C46.879 359.651 46.9571 360.136 46.9571 360.693V361.192H41.4301V360.067H45.2483C45.2483 359.805 45.1915 359.574 45.0779 359.372C44.9642 359.17 44.8065 359.013 44.6048 358.899C44.406 358.783 44.1744 358.724 43.9102 358.724C43.6347 358.724 43.3904 358.788 43.1773 358.916C42.9671 359.041 42.8023 359.21 42.683 359.423C42.5637 359.634 42.5026 359.868 42.4997 360.126V361.196C42.4997 361.52 42.5594 361.8 42.6787 362.036C42.8009 362.271 42.9727 362.453 43.1943 362.581C43.4159 362.709 43.6787 362.773 43.9827 362.773C44.1844 362.773 44.369 362.744 44.5367 362.688C44.7043 362.631 44.8477 362.545 44.9671 362.432C45.0864 362.318 45.1773 362.179 45.2398 362.014L46.9188 362.125C46.8335 362.528 46.6588 362.881 46.3946 363.182C46.1333 363.48 45.7952 363.713 45.3804 363.881C44.9685 364.045 44.4926 364.128 43.9529 364.128ZM50.9792 364.128C50.3087 364.128 49.732 363.986 49.249 363.702C48.7689 363.415 48.3996 363.017 48.1411 362.509C47.8854 362 47.7576 361.415 47.7576 360.753C47.7576 360.082 47.8868 359.494 48.1454 358.989C48.4067 358.48 48.7775 358.084 49.2576 357.8C49.7377 357.513 50.3087 357.369 50.9706 357.369C51.5417 357.369 52.0417 357.473 52.4706 357.68C52.8996 357.888 53.2391 358.179 53.4891 358.554C53.7391 358.929 53.8769 359.369 53.9025 359.875H52.1894C52.1411 359.548 52.0133 359.286 51.8059 359.087C51.6013 358.885 51.3329 358.784 51.0005 358.784C50.7192 358.784 50.4735 358.861 50.2633 359.014C50.0559 359.165 49.8939 359.385 49.7775 359.675C49.661 359.964 49.6027 360.315 49.6027 360.727C49.6027 361.145 49.6596 361.5 49.7732 361.793C49.8897 362.085 50.053 362.308 50.2633 362.462C50.4735 362.615 50.7192 362.692 51.0005 362.692C51.2079 362.692 51.3939 362.649 51.5587 362.564C51.7263 362.479 51.8641 362.355 51.9721 362.193C52.0829 362.028 52.1553 361.831 52.1894 361.601H53.9025C53.874 362.101 53.7377 362.541 53.4934 362.922C53.2519 363.3 52.9181 363.595 52.4919 363.808C52.0658 364.021 51.5615 364.128 50.9792 364.128ZM58.4263 357.455V358.818H54.4845V357.455H58.4263ZM55.3794 355.886H57.1947V361.989C57.1947 362.156 57.2203 362.287 57.2714 362.381C57.3226 362.472 57.3936 362.536 57.4845 362.572C57.5783 362.609 57.6862 362.628 57.8084 362.628C57.8936 362.628 57.9788 362.621 58.0641 362.607C58.1493 362.589 58.2146 362.577 58.2601 362.568L58.5456 363.919C58.4547 363.947 58.3268 363.98 58.1621 364.017C57.9973 364.057 57.797 364.081 57.5612 364.089C57.1237 364.107 56.7402 364.048 56.4107 363.915C56.0839 363.781 55.8297 363.574 55.6479 363.293C55.4661 363.011 55.3766 362.656 55.3794 362.227V355.886Z" fill="#1A1D1F"/>
<rect x="159.25" y="352" width="16" height="16" rx="4" fill="#FFBC99"/>
<path d="M188.743 357.783C188.709 357.439 188.563 357.172 188.304 356.982C188.045 356.791 187.695 356.696 187.251 356.696C186.95 356.696 186.696 356.739 186.489 356.824C186.281 356.906 186.122 357.021 186.011 357.169C185.903 357.317 185.849 357.484 185.849 357.672C185.844 357.828 185.876 357.964 185.947 358.081C186.021 358.197 186.122 358.298 186.25 358.384C186.378 358.466 186.526 358.538 186.693 358.601C186.861 358.661 187.04 358.712 187.23 358.754L188.014 358.942C188.395 359.027 188.744 359.141 189.062 359.283C189.381 359.425 189.656 359.599 189.889 359.807C190.122 360.014 190.303 360.259 190.43 360.54C190.561 360.821 190.628 361.143 190.631 361.507C190.628 362.041 190.491 362.504 190.222 362.896C189.955 363.286 189.568 363.588 189.062 363.804C188.56 364.017 187.953 364.124 187.243 364.124C186.538 364.124 185.925 364.016 185.402 363.8C184.882 363.584 184.476 363.264 184.183 362.841C183.893 362.415 183.741 361.888 183.727 361.26H185.513C185.533 361.553 185.616 361.797 185.764 361.993C185.915 362.186 186.115 362.332 186.365 362.432C186.618 362.528 186.903 362.577 187.222 362.577C187.534 362.577 187.805 362.531 188.036 362.44C188.268 362.349 188.449 362.223 188.577 362.061C188.705 361.899 188.768 361.713 188.768 361.503C188.768 361.307 188.71 361.142 188.594 361.009C188.48 360.875 188.313 360.761 188.091 360.668C187.872 360.574 187.604 360.489 187.286 360.412L186.335 360.173C185.599 359.994 185.018 359.714 184.592 359.334C184.166 358.953 183.955 358.44 183.957 357.795C183.955 357.267 184.095 356.805 184.379 356.411C184.666 356.016 185.06 355.707 185.56 355.486C186.06 355.264 186.628 355.153 187.264 355.153C187.912 355.153 188.477 355.264 188.96 355.486C189.446 355.707 189.824 356.016 190.094 356.411C190.364 356.805 190.503 357.263 190.511 357.783H188.743ZM194.701 364.128C194.027 364.128 193.448 363.991 192.962 363.719C192.479 363.443 192.107 363.054 191.846 362.551C191.584 362.045 191.454 361.447 191.454 360.757C191.454 360.084 191.584 359.493 191.846 358.984C192.107 358.476 192.475 358.08 192.949 357.795C193.427 357.511 193.986 357.369 194.628 357.369C195.06 357.369 195.462 357.439 195.834 357.578C196.209 357.714 196.536 357.92 196.814 358.196C197.096 358.472 197.314 358.818 197.471 359.236C197.627 359.651 197.705 360.136 197.705 360.693V361.192H192.178V360.067H195.996C195.996 359.805 195.939 359.574 195.826 359.372C195.712 359.17 195.554 359.013 195.353 358.899C195.154 358.783 194.922 358.724 194.658 358.724C194.382 358.724 194.138 358.788 193.925 358.916C193.715 359.041 193.55 359.21 193.431 359.423C193.311 359.634 193.25 359.868 193.248 360.126V361.196C193.248 361.52 193.307 361.8 193.427 362.036C193.549 362.271 193.721 362.453 193.942 362.581C194.164 362.709 194.427 362.773 194.73 362.773C194.932 362.773 195.117 362.744 195.284 362.688C195.452 362.631 195.596 362.545 195.715 362.432C195.834 362.318 195.925 362.179 195.988 362.014L197.667 362.125C197.581 362.528 197.407 362.881 197.142 363.182C196.881 363.48 196.543 363.713 196.128 363.881C195.716 364.045 195.24 364.128 194.701 364.128ZM200.636 364.124C200.218 364.124 199.846 364.051 199.52 363.906C199.193 363.759 198.934 363.541 198.744 363.254C198.557 362.964 198.463 362.604 198.463 362.172C198.463 361.808 198.53 361.503 198.663 361.256C198.797 361.009 198.978 360.81 199.209 360.659C199.439 360.509 199.7 360.395 199.993 360.318C200.288 360.241 200.598 360.188 200.922 360.156C201.302 360.116 201.609 360.08 201.842 360.045C202.075 360.009 202.244 359.955 202.349 359.884C202.454 359.812 202.507 359.707 202.507 359.568V359.543C202.507 359.273 202.422 359.064 202.251 358.916C202.084 358.768 201.845 358.695 201.535 358.695C201.209 358.695 200.949 358.767 200.755 358.912C200.562 359.054 200.434 359.233 200.372 359.449L198.693 359.312C198.778 358.915 198.946 358.571 199.196 358.281C199.446 357.989 199.768 357.764 200.163 357.608C200.561 357.449 201.021 357.369 201.544 357.369C201.907 357.369 202.255 357.412 202.588 357.497C202.923 357.582 203.22 357.714 203.478 357.893C203.74 358.072 203.946 358.303 204.096 358.584C204.247 358.862 204.322 359.196 204.322 359.585V364H202.601V363.092H202.549C202.444 363.297 202.304 363.477 202.128 363.634C201.951 363.787 201.74 363.908 201.493 363.996C201.245 364.081 200.96 364.124 200.636 364.124ZM201.156 362.871C201.423 362.871 201.659 362.818 201.863 362.713C202.068 362.605 202.228 362.46 202.345 362.278C202.461 362.097 202.52 361.891 202.52 361.661V360.966C202.463 361.003 202.385 361.037 202.285 361.068C202.189 361.097 202.079 361.124 201.957 361.149C201.835 361.172 201.713 361.193 201.591 361.213C201.468 361.23 201.358 361.246 201.258 361.26C201.045 361.291 200.859 361.341 200.7 361.409C200.541 361.477 200.417 361.57 200.329 361.686C200.241 361.8 200.197 361.942 200.197 362.112C200.197 362.359 200.287 362.548 200.466 362.679C200.647 362.807 200.878 362.871 201.156 362.871ZM205.611 364V357.455H207.37V358.597H207.439C207.558 358.19 207.758 357.884 208.04 357.676C208.321 357.466 208.645 357.361 209.011 357.361C209.102 357.361 209.2 357.366 209.305 357.378C209.41 357.389 209.503 357.405 209.582 357.425V359.036C209.497 359.01 209.379 358.987 209.228 358.967C209.078 358.947 208.94 358.938 208.815 358.938C208.548 358.938 208.309 358.996 208.099 359.112C207.892 359.226 207.727 359.385 207.605 359.589C207.486 359.794 207.426 360.03 207.426 360.297V364H205.611ZM213.053 364.128C212.383 364.128 211.806 363.986 211.323 363.702C210.843 363.415 210.474 363.017 210.215 362.509C209.96 362 209.832 361.415 209.832 360.753C209.832 360.082 209.961 359.494 210.22 358.989C210.481 358.48 210.852 358.084 211.332 357.8C211.812 357.513 212.383 357.369 213.045 357.369C213.616 357.369 214.116 357.473 214.545 357.68C214.974 357.888 215.313 358.179 215.563 358.554C215.813 358.929 215.951 359.369 215.977 359.875H214.264C214.215 359.548 214.087 359.286 213.88 359.087C213.676 358.885 213.407 358.784 213.075 358.784C212.793 358.784 212.548 358.861 212.337 359.014C212.13 359.165 211.968 359.385 211.852 359.675C211.735 359.964 211.677 360.315 211.677 360.727C211.677 361.145 211.734 361.5 211.847 361.793C211.964 362.085 212.127 362.308 212.337 362.462C212.548 362.615 212.793 362.692 213.075 362.692C213.282 362.692 213.468 362.649 213.633 362.564C213.801 362.479 213.938 362.355 214.046 362.193C214.157 362.028 214.23 361.831 214.264 361.601H215.977C215.948 362.101 215.812 362.541 215.568 362.922C215.326 363.3 214.992 363.595 214.566 363.808C214.14 364.021 213.636 364.128 213.053 364.128ZM218.834 360.216V364H217.019V355.273H218.783V358.609H218.86C219.008 358.223 219.246 357.92 219.576 357.702C219.905 357.48 220.319 357.369 220.816 357.369C221.27 357.369 221.667 357.469 222.005 357.668C222.346 357.864 222.61 358.146 222.797 358.516C222.988 358.882 223.081 359.321 223.079 359.832V364H221.263V360.156C221.266 359.753 221.164 359.439 220.956 359.214C220.752 358.99 220.465 358.878 220.096 358.878C219.849 358.878 219.63 358.93 219.439 359.036C219.252 359.141 219.104 359.294 218.996 359.496C218.891 359.695 218.837 359.935 218.834 360.216Z" fill="#1A1D1F"/>
<rect x="324.5" y="352" width="16" height="16" rx="4" fill="#B1E5FC"/>
<path d="M349.259 355.273H351.534L353.938 361.136H354.04L356.443 355.273H358.719V364H356.929V358.32H356.857L354.598 363.957H353.379L351.121 358.298H351.048V364H349.259V355.273ZM361.951 364.124C361.534 364.124 361.162 364.051 360.835 363.906C360.508 363.759 360.25 363.541 360.059 363.254C359.872 362.964 359.778 362.604 359.778 362.172C359.778 361.808 359.845 361.503 359.978 361.256C360.112 361.009 360.294 360.81 360.524 360.659C360.754 360.509 361.015 360.395 361.308 360.318C361.603 360.241 361.913 360.188 362.237 360.156C362.618 360.116 362.924 360.08 363.157 360.045C363.39 360.009 363.559 359.955 363.664 359.884C363.77 359.812 363.822 359.707 363.822 359.568V359.543C363.822 359.273 363.737 359.064 363.566 358.916C363.399 358.768 363.16 358.695 362.851 358.695C362.524 358.695 362.264 358.767 362.071 358.912C361.878 359.054 361.75 359.233 361.687 359.449L360.008 359.312C360.093 358.915 360.261 358.571 360.511 358.281C360.761 357.989 361.083 357.764 361.478 357.608C361.876 357.449 362.336 357.369 362.859 357.369C363.223 357.369 363.571 357.412 363.903 357.497C364.238 357.582 364.535 357.714 364.794 357.893C365.055 358.072 365.261 358.303 365.412 358.584C365.562 358.862 365.637 359.196 365.637 359.585V364H363.916V363.092H363.865C363.76 363.297 363.619 363.477 363.443 363.634C363.267 363.787 363.055 363.908 362.808 363.996C362.561 364.081 362.275 364.124 361.951 364.124ZM362.471 362.871C362.738 362.871 362.974 362.818 363.179 362.713C363.383 362.605 363.544 362.46 363.66 362.278C363.777 362.097 363.835 361.891 363.835 361.661V360.966C363.778 361.003 363.7 361.037 363.601 361.068C363.504 361.097 363.395 361.124 363.272 361.149C363.15 361.172 363.028 361.193 362.906 361.213C362.784 361.23 362.673 361.246 362.574 361.26C362.36 361.291 362.174 361.341 362.015 361.409C361.856 361.477 361.733 361.57 361.645 361.686C361.556 361.8 361.512 361.942 361.512 362.112C361.512 362.359 361.602 362.548 361.781 362.679C361.963 362.807 362.193 362.871 362.471 362.871ZM366.926 364V357.455H368.686V358.597H368.754C368.873 358.19 369.074 357.884 369.355 357.676C369.636 357.466 369.96 357.361 370.326 357.361C370.417 357.361 370.515 357.366 370.62 357.378C370.726 357.389 370.818 357.405 370.897 357.425V359.036C370.812 359.01 370.694 358.987 370.544 358.967C370.393 358.947 370.255 358.938 370.13 358.938C369.863 358.938 369.625 358.996 369.414 359.112C369.207 359.226 369.042 359.385 368.92 359.589C368.801 359.794 368.741 360.03 368.741 360.297V364H366.926ZM373.361 362.116L373.365 359.939H373.629L375.726 357.455H377.81L374.993 360.744H374.563L373.361 362.116ZM371.716 364V355.273H373.531V364H371.716ZM375.807 364L373.881 361.149L375.091 359.866L377.933 364H375.807ZM381.294 364.128C380.62 364.128 380.041 363.991 379.555 363.719C379.072 363.443 378.7 363.054 378.439 362.551C378.177 362.045 378.047 361.447 378.047 360.757C378.047 360.084 378.177 359.493 378.439 358.984C378.7 358.476 379.068 358.08 379.542 357.795C380.02 357.511 380.579 357.369 381.221 357.369C381.653 357.369 382.055 357.439 382.427 357.578C382.802 357.714 383.129 357.92 383.407 358.196C383.689 358.472 383.907 358.818 384.064 359.236C384.22 359.651 384.298 360.136 384.298 360.693V361.192H378.771V360.067H382.589C382.589 359.805 382.532 359.574 382.419 359.372C382.305 359.17 382.147 359.013 381.946 358.899C381.747 358.783 381.515 358.724 381.251 358.724C380.976 358.724 380.731 358.788 380.518 358.916C380.308 359.041 380.143 359.21 380.024 359.423C379.905 359.634 379.844 359.868 379.841 360.126V361.196C379.841 361.52 379.9 361.8 380.02 362.036C380.142 362.271 380.314 362.453 380.535 362.581C380.757 362.709 381.02 362.773 381.324 362.773C381.525 362.773 381.71 362.744 381.878 362.688C382.045 362.631 382.189 362.545 382.308 362.432C382.427 362.318 382.518 362.179 382.581 362.014L384.26 362.125C384.174 362.528 384 362.881 383.736 363.182C383.474 363.48 383.136 363.713 382.721 363.881C382.309 364.045 381.834 364.128 381.294 364.128ZM388.844 357.455V358.818H384.902V357.455H388.844ZM385.797 355.886H387.613V361.989C387.613 362.156 387.638 362.287 387.689 362.381C387.741 362.472 387.812 362.536 387.902 362.572C387.996 362.609 388.104 362.628 388.226 362.628C388.312 362.628 388.397 362.621 388.482 362.607C388.567 362.589 388.633 362.577 388.678 362.568L388.964 363.919C388.873 363.947 388.745 363.98 388.58 364.017C388.415 364.057 388.215 364.081 387.979 364.089C387.542 364.107 387.158 364.048 386.829 363.915C386.502 363.781 386.248 363.574 386.066 363.293C385.884 363.011 385.795 362.656 385.797 362.227V355.886Z" fill="#1A1D1F"/>
<rect x="489.75" y="352" width="16" height="16" rx="4" fill="#CABDFF"/>
<path d="M519.243 357.783C519.209 357.439 519.063 357.172 518.804 356.982C518.545 356.791 518.195 356.696 517.751 356.696C517.45 356.696 517.196 356.739 516.989 356.824C516.781 356.906 516.622 357.021 516.511 357.169C516.403 357.317 516.349 357.484 516.349 357.672C516.344 357.828 516.376 357.964 516.447 358.081C516.521 358.197 516.622 358.298 516.75 358.384C516.878 358.466 517.026 358.538 517.193 358.601C517.361 358.661 517.54 358.712 517.73 358.754L518.514 358.942C518.895 359.027 519.244 359.141 519.562 359.283C519.881 359.425 520.156 359.599 520.389 359.807C520.622 360.014 520.803 360.259 520.93 360.54C521.061 360.821 521.128 361.143 521.131 361.507C521.128 362.041 520.991 362.504 520.722 362.896C520.455 363.286 520.068 363.588 519.562 363.804C519.06 364.017 518.453 364.124 517.743 364.124C517.038 364.124 516.425 364.016 515.902 363.8C515.382 363.584 514.976 363.264 514.683 362.841C514.393 362.415 514.241 361.888 514.227 361.26H516.013C516.033 361.553 516.116 361.797 516.264 361.993C516.415 362.186 516.615 362.332 516.865 362.432C517.118 362.528 517.403 362.577 517.722 362.577C518.034 362.577 518.305 362.531 518.536 362.44C518.768 362.349 518.949 362.223 519.077 362.061C519.205 361.899 519.268 361.713 519.268 361.503C519.268 361.307 519.21 361.142 519.094 361.009C518.98 360.875 518.813 360.761 518.591 360.668C518.372 360.574 518.104 360.489 517.786 360.412L516.835 360.173C516.099 359.994 515.518 359.714 515.092 359.334C514.666 358.953 514.455 358.44 514.457 357.795C514.455 357.267 514.595 356.805 514.879 356.411C515.166 356.016 515.56 355.707 516.06 355.486C516.56 355.264 517.128 355.153 517.764 355.153C518.412 355.153 518.977 355.264 519.46 355.486C519.946 355.707 520.324 356.016 520.594 356.411C520.864 356.805 521.003 357.263 521.011 357.783H519.243ZM525.175 364.128C524.513 364.128 523.941 363.987 523.458 363.706C522.978 363.422 522.607 363.027 522.346 362.521C522.084 362.013 521.954 361.423 521.954 360.753C521.954 360.077 522.084 359.486 522.346 358.98C522.607 358.472 522.978 358.077 523.458 357.795C523.941 357.511 524.513 357.369 525.175 357.369C525.837 357.369 526.408 357.511 526.888 357.795C527.371 358.077 527.743 358.472 528.005 358.98C528.266 359.486 528.397 360.077 528.397 360.753C528.397 361.423 528.266 362.013 528.005 362.521C527.743 363.027 527.371 363.422 526.888 363.706C526.408 363.987 525.837 364.128 525.175 364.128ZM525.184 362.722C525.485 362.722 525.736 362.636 525.938 362.466C526.14 362.293 526.292 362.057 526.394 361.759C526.499 361.46 526.552 361.121 526.552 360.74C526.552 360.359 526.499 360.02 526.394 359.722C526.292 359.423 526.14 359.187 525.938 359.014C525.736 358.841 525.485 358.754 525.184 358.754C524.88 358.754 524.624 358.841 524.417 359.014C524.212 359.187 524.057 359.423 523.952 359.722C523.85 360.02 523.799 360.359 523.799 360.74C523.799 361.121 523.85 361.46 523.952 361.759C524.057 362.057 524.212 362.293 524.417 362.466C524.624 362.636 524.88 362.722 525.184 362.722ZM532.414 364.128C531.744 364.128 531.167 363.986 530.684 363.702C530.204 363.415 529.835 363.017 529.576 362.509C529.321 362 529.193 361.415 529.193 360.753C529.193 360.082 529.322 359.494 529.581 358.989C529.842 358.48 530.213 358.084 530.693 357.8C531.173 357.513 531.744 357.369 532.406 357.369C532.977 357.369 533.477 357.473 533.906 357.68C534.335 357.888 534.674 358.179 534.924 358.554C535.174 358.929 535.312 359.369 535.338 359.875H533.625C533.576 359.548 533.449 359.286 533.241 359.087C533.037 358.885 532.768 358.784 532.436 358.784C532.155 358.784 531.909 358.861 531.699 359.014C531.491 359.165 531.329 359.385 531.213 359.675C531.096 359.964 531.038 360.315 531.038 360.727C531.038 361.145 531.095 361.5 531.209 361.793C531.325 362.085 531.488 362.308 531.699 362.462C531.909 362.615 532.155 362.692 532.436 362.692C532.643 362.692 532.829 362.649 532.994 362.564C533.162 362.479 533.299 362.355 533.407 362.193C533.518 362.028 533.591 361.831 533.625 361.601H535.338C535.309 362.101 535.173 362.541 534.929 362.922C534.687 363.3 534.353 363.595 533.927 363.808C533.501 364.021 532.997 364.128 532.414 364.128ZM536.38 364V357.455H538.195V364H536.38ZM537.292 356.611C537.022 356.611 536.791 356.521 536.597 356.342C536.407 356.161 536.312 355.943 536.312 355.69C536.312 355.44 536.407 355.226 536.597 355.047C536.791 354.865 537.022 354.774 537.292 354.774C537.562 354.774 537.792 354.865 537.982 355.047C538.176 355.226 538.272 355.44 538.272 355.69C538.272 355.943 538.176 356.161 537.982 356.342C537.792 356.521 537.562 356.611 537.292 356.611ZM541.396 364.124C540.978 364.124 540.606 364.051 540.28 363.906C539.953 363.759 539.694 363.541 539.504 363.254C539.317 362.964 539.223 362.604 539.223 362.172C539.223 361.808 539.29 361.503 539.423 361.256C539.557 361.009 539.738 360.81 539.969 360.659C540.199 360.509 540.46 360.395 540.753 360.318C541.048 360.241 541.358 360.188 541.682 360.156C542.062 360.116 542.369 360.08 542.602 360.045C542.835 360.009 543.004 359.955 543.109 359.884C543.214 359.812 543.267 359.707 543.267 359.568V359.543C543.267 359.273 543.182 359.064 543.011 358.916C542.844 358.768 542.605 358.695 542.295 358.695C541.969 358.695 541.709 358.767 541.515 358.912C541.322 359.054 541.194 359.233 541.132 359.449L539.453 359.312C539.538 358.915 539.706 358.571 539.956 358.281C540.206 357.989 540.528 357.764 540.923 357.608C541.321 357.449 541.781 357.369 542.304 357.369C542.667 357.369 543.015 357.412 543.348 357.497C543.683 357.582 543.98 357.714 544.238 357.893C544.5 358.072 544.706 358.303 544.856 358.584C545.007 358.862 545.082 359.196 545.082 359.585V364H543.361V363.092H543.309C543.204 363.297 543.064 363.477 542.888 363.634C542.711 363.787 542.5 363.908 542.253 363.996C542.005 364.081 541.72 364.124 541.396 364.124ZM541.916 362.871C542.183 362.871 542.419 362.818 542.623 362.713C542.828 362.605 542.988 362.46 543.105 362.278C543.221 362.097 543.28 361.891 543.28 361.661V360.966C543.223 361.003 543.145 361.037 543.045 361.068C542.949 361.097 542.839 361.124 542.717 361.149C542.595 361.172 542.473 361.193 542.351 361.213C542.228 361.23 542.118 361.246 542.018 361.26C541.805 361.291 541.619 361.341 541.46 361.409C541.301 361.477 541.177 361.57 541.089 361.686C541.001 361.8 540.957 361.942 540.957 362.112C540.957 362.359 541.047 362.548 541.226 362.679C541.407 362.807 541.638 362.871 541.916 362.871ZM548.186 355.273V364H546.371V355.273H548.186ZM552.177 364V357.455H553.908V358.609H553.984C554.121 358.226 554.348 357.923 554.666 357.702C554.984 357.48 555.365 357.369 555.808 357.369C556.257 357.369 556.639 357.482 556.954 357.706C557.27 357.928 557.48 358.229 557.585 358.609H557.653C557.787 358.234 558.028 357.935 558.378 357.71C558.73 357.483 559.146 357.369 559.626 357.369C560.237 357.369 560.733 357.564 561.113 357.953C561.497 358.339 561.689 358.888 561.689 359.598V364H559.878V359.956C559.878 359.592 559.781 359.32 559.588 359.138C559.395 358.956 559.153 358.865 558.863 358.865C558.534 358.865 558.277 358.97 558.092 359.18C557.908 359.388 557.815 359.662 557.815 360.003V364H556.055V359.918C556.055 359.597 555.963 359.341 555.778 359.151C555.596 358.96 555.356 358.865 555.058 358.865C554.856 358.865 554.675 358.916 554.513 359.018C554.354 359.118 554.227 359.259 554.133 359.44C554.04 359.619 553.993 359.83 553.993 360.071V364H552.177ZM565.986 364.128C565.312 364.128 564.733 363.991 564.247 363.719C563.764 363.443 563.392 363.054 563.131 362.551C562.869 362.045 562.739 361.447 562.739 360.757C562.739 360.084 562.869 359.493 563.131 358.984C563.392 358.476 563.76 358.08 564.234 357.795C564.712 357.511 565.271 357.369 565.913 357.369C566.345 357.369 566.747 357.439 567.119 357.578C567.494 357.714 567.821 357.92 568.099 358.196C568.381 358.472 568.599 358.818 568.756 359.236C568.912 359.651 568.99 360.136 568.99 360.693V361.192H563.463V360.067H567.281C567.281 359.805 567.224 359.574 567.111 359.372C566.997 359.17 566.839 359.013 566.638 358.899C566.439 358.783 566.207 358.724 565.943 358.724C565.667 358.724 565.423 358.788 565.21 358.916C565 359.041 564.835 359.21 564.716 359.423C564.596 359.634 564.535 359.868 564.533 360.126V361.196C564.533 361.52 564.592 361.8 564.712 362.036C564.834 362.271 565.006 362.453 565.227 362.581C565.449 362.709 565.712 362.773 566.015 362.773C566.217 362.773 566.402 362.744 566.569 362.688C566.737 362.631 566.881 362.545 567 362.432C567.119 362.318 567.21 362.179 567.273 362.014L568.952 362.125C568.866 362.528 568.692 362.881 568.427 363.182C568.166 363.48 567.828 363.713 567.413 363.881C567.001 364.045 566.525 364.128 565.986 364.128ZM572.467 364.107C571.969 364.107 571.519 363.979 571.116 363.723C570.715 363.464 570.397 363.085 570.161 362.585C569.928 362.082 569.812 361.466 569.812 360.736C569.812 359.986 569.932 359.362 570.174 358.865C570.415 358.365 570.736 357.991 571.137 357.744C571.54 357.494 571.982 357.369 572.462 357.369C572.829 357.369 573.134 357.432 573.378 357.557C573.626 357.679 573.824 357.832 573.975 358.017C574.128 358.199 574.245 358.378 574.324 358.554H574.38V355.273H576.191V364H574.401V362.952H574.324C574.239 363.134 574.119 363.314 573.962 363.493C573.809 363.669 573.609 363.815 573.361 363.932C573.117 364.048 572.819 364.107 572.467 364.107ZM573.042 362.662C573.334 362.662 573.582 362.582 573.783 362.423C573.988 362.261 574.144 362.036 574.252 361.746C574.363 361.456 574.418 361.116 574.418 360.727C574.418 360.338 574.364 360 574.256 359.713C574.148 359.426 573.992 359.205 573.788 359.048C573.583 358.892 573.334 358.814 573.042 358.814C572.744 358.814 572.492 358.895 572.288 359.057C572.083 359.219 571.928 359.443 571.823 359.73C571.718 360.017 571.665 360.349 571.665 360.727C571.665 361.108 571.718 361.445 571.823 361.737C571.931 362.027 572.086 362.254 572.288 362.419C572.492 362.581 572.744 362.662 573.042 362.662ZM577.563 364V357.455H579.379V364H577.563ZM578.475 356.611C578.206 356.611 577.974 356.521 577.781 356.342C577.59 356.161 577.495 355.943 577.495 355.69C577.495 355.44 577.59 355.226 577.781 355.047C577.974 354.865 578.206 354.774 578.475 354.774C578.745 354.774 578.975 354.865 579.166 355.047C579.359 355.226 579.456 355.44 579.456 355.69C579.456 355.943 579.359 356.161 579.166 356.342C578.975 356.521 578.745 356.611 578.475 356.611ZM582.58 364.124C582.162 364.124 581.79 364.051 581.463 363.906C581.136 363.759 580.878 363.541 580.687 363.254C580.5 362.964 580.406 362.604 580.406 362.172C580.406 361.808 580.473 361.503 580.606 361.256C580.74 361.009 580.922 360.81 581.152 360.659C581.382 360.509 581.643 360.395 581.936 360.318C582.231 360.241 582.541 360.188 582.865 360.156C583.246 360.116 583.553 360.08 583.785 360.045C584.018 360.009 584.187 359.955 584.293 359.884C584.398 359.812 584.45 359.707 584.45 359.568V359.543C584.45 359.273 584.365 359.064 584.195 358.916C584.027 358.768 583.788 358.695 583.479 358.695C583.152 358.695 582.892 358.767 582.699 358.912C582.506 359.054 582.378 359.233 582.315 359.449L580.636 359.312C580.722 358.915 580.889 358.571 581.139 358.281C581.389 357.989 581.712 357.764 582.106 357.608C582.504 357.449 582.964 357.369 583.487 357.369C583.851 357.369 584.199 357.412 584.531 357.497C584.866 357.582 585.163 357.714 585.422 357.893C585.683 358.072 585.889 358.303 586.04 358.584C586.19 358.862 586.266 359.196 586.266 359.585V364H584.544V363.092H584.493C584.388 363.297 584.247 363.477 584.071 363.634C583.895 363.787 583.683 363.908 583.436 363.996C583.189 364.081 582.903 364.124 582.58 364.124ZM583.099 362.871C583.366 362.871 583.602 362.818 583.807 362.713C584.011 362.605 584.172 362.46 584.288 362.278C584.405 362.097 584.463 361.891 584.463 361.661V360.966C584.406 361.003 584.328 361.037 584.229 361.068C584.132 361.097 584.023 361.124 583.901 361.149C583.778 361.172 583.656 361.193 583.534 361.213C583.412 361.23 583.301 361.246 583.202 361.26C582.989 361.291 582.803 361.341 582.643 361.409C582.484 361.477 582.361 361.57 582.273 361.686C582.185 361.8 582.141 361.942 582.141 362.112C582.141 362.359 582.23 362.548 582.409 362.679C582.591 362.807 582.821 362.871 583.099 362.871Z" fill="#1A1D1F"/>
<rect x="688" y="352" width="16" height="16" rx="4" fill="#FFD88D"/>
<path d="M720.778 359.636C720.778 360.588 720.598 361.398 720.237 362.065C719.879 362.733 719.391 363.243 718.771 363.595C718.155 363.945 717.462 364.119 716.692 364.119C715.916 364.119 715.22 363.943 714.604 363.591C713.987 363.239 713.5 362.729 713.142 362.061C712.784 361.393 712.605 360.585 712.605 359.636C712.605 358.685 712.784 357.875 713.142 357.207C713.5 356.54 713.987 356.031 714.604 355.682C715.22 355.33 715.916 355.153 716.692 355.153C717.462 355.153 718.155 355.33 718.771 355.682C719.391 356.031 719.879 356.54 720.237 357.207C720.598 357.875 720.778 358.685 720.778 359.636ZM718.908 359.636C718.908 359.02 718.815 358.5 718.631 358.077C718.449 357.653 718.192 357.332 717.859 357.114C717.527 356.895 717.138 356.786 716.692 356.786C716.246 356.786 715.857 356.895 715.524 357.114C715.192 357.332 714.933 357.653 714.749 358.077C714.567 358.5 714.476 359.02 714.476 359.636C714.476 360.253 714.567 360.773 714.749 361.196C714.933 361.619 715.192 361.94 715.524 362.159C715.857 362.378 716.246 362.487 716.692 362.487C717.138 362.487 717.527 362.378 717.859 362.159C718.192 361.94 718.449 361.619 718.631 361.196C718.815 360.773 718.908 360.253 718.908 359.636ZM725.473 357.455V358.818H721.531V357.455H725.473ZM722.426 355.886H724.241V361.989C724.241 362.156 724.267 362.287 724.318 362.381C724.369 362.472 724.44 362.536 724.531 362.572C724.625 362.609 724.733 362.628 724.855 362.628C724.94 362.628 725.025 362.621 725.11 362.607C725.196 362.589 725.261 362.577 725.306 362.568L725.592 363.919C725.501 363.947 725.373 363.98 725.208 364.017C725.044 364.057 724.843 364.081 724.608 364.089C724.17 364.107 723.787 364.048 723.457 363.915C723.13 363.781 722.876 363.574 722.694 363.293C722.512 363.011 722.423 362.656 722.426 362.227V355.886ZM728.491 360.216V364H726.676V355.273H728.44V358.609H728.517C728.664 358.223 728.903 357.92 729.233 357.702C729.562 357.48 729.976 357.369 730.473 357.369C730.927 357.369 731.324 357.469 731.662 357.668C732.003 357.864 732.267 358.146 732.454 358.516C732.645 358.882 732.738 359.321 732.735 359.832V364H730.92V360.156C730.923 359.753 730.821 359.439 730.613 359.214C730.409 358.99 730.122 358.878 729.753 358.878C729.505 358.878 729.287 358.93 729.096 359.036C728.909 359.141 728.761 359.294 728.653 359.496C728.548 359.695 728.494 359.935 728.491 360.216ZM737.027 364.128C736.354 364.128 735.774 363.991 735.288 363.719C734.805 363.443 734.433 363.054 734.172 362.551C733.911 362.045 733.78 361.447 733.78 360.757C733.78 360.084 733.911 359.493 734.172 358.984C734.433 358.476 734.801 358.08 735.276 357.795C735.753 357.511 736.313 357.369 736.955 357.369C737.386 357.369 737.788 357.439 738.161 357.578C738.536 357.714 738.862 357.92 739.141 358.196C739.422 358.472 739.641 358.818 739.797 359.236C739.953 359.651 740.031 360.136 740.031 360.693V361.192H734.504V360.067H738.323C738.323 359.805 738.266 359.574 738.152 359.372C738.038 359.17 737.881 359.013 737.679 358.899C737.48 358.783 737.249 358.724 736.984 358.724C736.709 358.724 736.465 358.788 736.252 358.916C736.041 359.041 735.877 359.21 735.757 359.423C735.638 359.634 735.577 359.868 735.574 360.126V361.196C735.574 361.52 735.634 361.8 735.753 362.036C735.875 362.271 736.047 362.453 736.269 362.581C736.49 362.709 736.753 362.773 737.057 362.773C737.259 362.773 737.443 362.744 737.611 362.688C737.778 362.631 737.922 362.545 738.041 362.432C738.161 362.318 738.252 362.179 738.314 362.014L739.993 362.125C739.908 362.528 739.733 362.881 739.469 363.182C739.207 363.48 738.869 363.713 738.455 363.881C738.043 364.045 737.567 364.128 737.027 364.128ZM741.096 364V357.455H742.856V358.597H742.924C743.043 358.19 743.244 357.884 743.525 357.676C743.806 357.466 744.13 357.361 744.497 357.361C744.587 357.361 744.685 357.366 744.791 357.378C744.896 357.389 744.988 357.405 745.068 357.425V359.036C744.982 359.01 744.864 358.987 744.714 358.967C744.563 358.947 744.426 358.938 744.301 358.938C744.033 358.938 743.795 358.996 743.585 359.112C743.377 359.226 743.212 359.385 743.09 359.589C742.971 359.794 742.911 360.03 742.911 360.297V364H741.096Z" fill="#1A1D1F"/>
</svg>
