<svg width="293" height="264" viewBox="0 0 293 264" fill="none" xmlns="http://www.w3.org/2000/svg">
<rect x="120.5" width="1" height="240" rx="0.5" fill="#EFEFEF"/>
<path d="M116.096 262.145C115.423 262.142 114.847 261.964 114.37 261.612C113.893 261.26 113.528 260.747 113.275 260.074C113.022 259.401 112.896 258.589 112.896 257.641C112.896 256.695 113.022 255.886 113.275 255.216C113.531 254.545 113.897 254.034 114.374 253.682C114.855 253.33 115.428 253.153 116.096 253.153C116.764 253.153 117.336 253.331 117.813 253.686C118.291 254.038 118.656 254.55 118.909 255.22C119.164 255.888 119.292 256.695 119.292 257.641C119.292 258.592 119.166 259.405 118.913 260.078C118.66 260.749 118.295 261.261 117.818 261.616C117.34 261.969 116.766 262.145 116.096 262.145ZM116.096 261.007C116.687 261.007 117.149 260.719 117.481 260.142C117.816 259.565 117.984 258.732 117.984 257.641C117.984 256.916 117.907 256.304 117.754 255.804C117.603 255.301 117.386 254.92 117.102 254.662C116.82 254.401 116.485 254.27 116.096 254.27C115.508 254.27 115.046 254.56 114.711 255.139C114.376 255.719 114.207 256.553 114.204 257.641C114.204 258.368 114.279 258.983 114.43 259.486C114.583 259.986 114.801 260.365 115.082 260.624C115.363 260.879 115.701 261.007 116.096 261.007ZM125.239 260.364V259.903C125.239 259.574 125.307 259.273 125.444 259C125.583 258.724 125.785 258.504 126.049 258.339C126.316 258.172 126.638 258.088 127.016 258.088C127.403 258.088 127.726 258.17 127.988 258.335C128.249 258.5 128.447 258.72 128.58 258.996C128.716 259.271 128.785 259.574 128.785 259.903V260.364C128.785 260.693 128.716 260.996 128.58 261.271C128.444 261.544 128.243 261.764 127.979 261.932C127.718 262.097 127.397 262.179 127.016 262.179C126.633 262.179 126.309 262.097 126.045 261.932C125.78 261.764 125.58 261.544 125.444 261.271C125.307 260.996 125.239 260.693 125.239 260.364ZM126.232 259.903V260.364C126.232 260.608 126.29 260.83 126.407 261.028C126.523 261.227 126.726 261.327 127.016 261.327C127.303 261.327 127.503 261.227 127.617 261.028C127.731 260.83 127.787 260.608 127.787 260.364V259.903C127.787 259.659 127.732 259.437 127.621 259.239C127.513 259.04 127.312 258.94 127.016 258.94C126.732 258.94 126.53 259.04 126.411 259.239C126.292 259.437 126.232 259.659 126.232 259.903ZM120.85 255.369V254.909C120.85 254.58 120.918 254.277 121.055 254.001C121.194 253.726 121.395 253.506 121.66 253.341C121.927 253.176 122.249 253.094 122.627 253.094C123.013 253.094 123.337 253.176 123.599 253.341C123.86 253.506 124.057 253.726 124.191 254.001C124.324 254.277 124.391 254.58 124.391 254.909V255.369C124.391 255.699 124.323 256.001 124.187 256.277C124.053 256.55 123.854 256.77 123.59 256.938C123.329 257.102 123.008 257.185 122.627 257.185C122.241 257.185 121.915 257.102 121.651 256.938C121.39 256.77 121.191 256.55 121.055 256.277C120.918 256.001 120.85 255.699 120.85 255.369ZM121.847 254.909V255.369C121.847 255.614 121.904 255.835 122.018 256.034C122.134 256.233 122.337 256.332 122.627 256.332C122.911 256.332 123.11 256.233 123.224 256.034C123.34 255.835 123.398 255.614 123.398 255.369V254.909C123.398 254.665 123.343 254.443 123.232 254.244C123.121 254.045 122.92 253.946 122.627 253.946C122.343 253.946 122.141 254.045 122.022 254.244C121.905 254.443 121.847 254.665 121.847 254.909ZM121.255 262L127.255 253.273H128.273L122.273 262H121.255Z" fill="#6F767E"/>
<rect x="170.5" width="1" height="240" rx="0.5" fill="#EFEFEF"/>
<path d="M166.091 262.119C165.557 262.119 165.077 262.017 164.65 261.812C164.227 261.605 163.889 261.321 163.636 260.96C163.383 260.599 163.248 260.188 163.231 259.724H164.51C164.541 260.099 164.707 260.408 165.008 260.649C165.309 260.891 165.67 261.011 166.091 261.011C166.426 261.011 166.723 260.935 166.981 260.781C167.243 260.625 167.447 260.411 167.595 260.138C167.746 259.865 167.821 259.554 167.821 259.205C167.821 258.849 167.744 258.533 167.591 258.254C167.437 257.976 167.226 257.757 166.956 257.598C166.689 257.439 166.382 257.358 166.035 257.355C165.771 257.355 165.505 257.401 165.238 257.491C164.971 257.582 164.755 257.702 164.591 257.849L163.385 257.67L163.875 253.273H168.673V254.402H164.97L164.693 256.844H164.744C164.915 256.679 165.14 256.541 165.422 256.43C165.706 256.32 166.01 256.264 166.334 256.264C166.865 256.264 167.338 256.391 167.753 256.643C168.17 256.896 168.498 257.241 168.737 257.679C168.979 258.114 169.098 258.614 169.095 259.179C169.098 259.744 168.97 260.249 168.711 260.692C168.456 261.135 168.101 261.484 167.646 261.74C167.194 261.993 166.676 262.119 166.091 262.119ZM175.087 260.364V259.903C175.087 259.574 175.155 259.273 175.291 259C175.431 258.724 175.632 258.504 175.896 258.339C176.164 258.172 176.486 258.088 176.864 258.088C177.25 258.088 177.574 258.17 177.835 258.335C178.097 258.5 178.294 258.72 178.428 258.996C178.564 259.271 178.632 259.574 178.632 259.903V260.364C178.632 260.693 178.564 260.996 178.428 261.271C178.291 261.544 178.091 261.764 177.827 261.932C177.566 262.097 177.245 262.179 176.864 262.179C176.48 262.179 176.156 262.097 175.892 261.932C175.628 261.764 175.428 261.544 175.291 261.271C175.155 260.996 175.087 260.693 175.087 260.364ZM176.08 259.903V260.364C176.08 260.608 176.138 260.83 176.254 261.028C176.371 261.227 176.574 261.327 176.864 261.327C177.151 261.327 177.351 261.227 177.465 261.028C177.578 260.83 177.635 260.608 177.635 260.364V259.903C177.635 259.659 177.58 259.437 177.469 259.239C177.361 259.04 177.159 258.94 176.864 258.94C176.58 258.94 176.378 259.04 176.259 259.239C176.139 259.437 176.08 259.659 176.08 259.903ZM170.698 255.369V254.909C170.698 254.58 170.766 254.277 170.902 254.001C171.041 253.726 171.243 253.506 171.507 253.341C171.774 253.176 172.097 253.094 172.475 253.094C172.861 253.094 173.185 253.176 173.446 253.341C173.708 253.506 173.905 253.726 174.039 254.001C174.172 254.277 174.239 254.58 174.239 254.909V255.369C174.239 255.699 174.171 256.001 174.034 256.277C173.901 256.55 173.702 256.77 173.438 256.938C173.176 257.102 172.855 257.185 172.475 257.185C172.088 257.185 171.763 257.102 171.499 256.938C171.237 256.77 171.039 256.55 170.902 256.277C170.766 256.001 170.698 255.699 170.698 255.369ZM171.695 254.909V255.369C171.695 255.614 171.752 255.835 171.865 256.034C171.982 256.233 172.185 256.332 172.475 256.332C172.759 256.332 172.958 256.233 173.071 256.034C173.188 255.835 173.246 255.614 173.246 255.369V254.909C173.246 254.665 173.191 254.443 173.08 254.244C172.969 254.045 172.767 253.946 172.475 253.946C172.191 253.946 171.989 254.045 171.87 254.244C171.753 254.443 171.695 254.665 171.695 254.909ZM171.102 262L177.102 253.273H178.121L172.121 262H171.102Z" fill="#6F767E"/>
<rect x="223.5" width="1" height="240" rx="0.5" fill="#EFEFEF"/>
<path d="M216.593 253.273V262H215.272V254.594H215.221L213.133 255.957V254.696L215.31 253.273H216.593ZM221.872 262.145C221.199 262.142 220.623 261.964 220.146 261.612C219.669 261.26 219.304 260.747 219.051 260.074C218.798 259.401 218.672 258.589 218.672 257.641C218.672 256.695 218.798 255.886 219.051 255.216C219.307 254.545 219.673 254.034 220.15 253.682C220.631 253.33 221.204 253.153 221.872 253.153C222.54 253.153 223.112 253.331 223.589 253.686C224.067 254.038 224.432 254.55 224.684 255.22C224.94 255.888 225.068 256.695 225.068 257.641C225.068 258.592 224.942 259.405 224.689 260.078C224.436 260.749 224.071 261.261 223.594 261.616C223.116 261.969 222.542 262.145 221.872 262.145ZM221.872 261.007C222.463 261.007 222.925 260.719 223.257 260.142C223.592 259.565 223.76 258.732 223.76 257.641C223.76 256.916 223.683 256.304 223.53 255.804C223.379 255.301 223.162 254.92 222.878 254.662C222.596 254.401 222.261 254.27 221.872 254.27C221.284 254.27 220.822 254.56 220.487 255.139C220.152 255.719 219.983 256.553 219.98 257.641C219.98 258.368 220.055 258.983 220.206 259.486C220.359 259.986 220.577 260.365 220.858 260.624C221.139 260.879 221.477 261.007 221.872 261.007ZM231.015 260.364V259.903C231.015 259.574 231.083 259.273 231.22 259C231.359 258.724 231.561 258.504 231.825 258.339C232.092 258.172 232.414 258.088 232.792 258.088C233.178 258.088 233.502 258.17 233.764 258.335C234.025 258.5 234.223 258.72 234.356 258.996C234.492 259.271 234.561 259.574 234.561 259.903V260.364C234.561 260.693 234.492 260.996 234.356 261.271C234.22 261.544 234.019 261.764 233.755 261.932C233.494 262.097 233.173 262.179 232.792 262.179C232.409 262.179 232.085 262.097 231.821 261.932C231.556 261.764 231.356 261.544 231.22 261.271C231.083 260.996 231.015 260.693 231.015 260.364ZM232.008 259.903V260.364C232.008 260.608 232.066 260.83 232.183 261.028C232.299 261.227 232.502 261.327 232.792 261.327C233.079 261.327 233.279 261.227 233.393 261.028C233.507 260.83 233.563 260.608 233.563 260.364V259.903C233.563 259.659 233.508 259.437 233.397 259.239C233.289 259.04 233.088 258.94 232.792 258.94C232.508 258.94 232.306 259.04 232.187 259.239C232.068 259.437 232.008 259.659 232.008 259.903ZM226.626 255.369V254.909C226.626 254.58 226.694 254.277 226.83 254.001C226.97 253.726 227.171 253.506 227.436 253.341C227.703 253.176 228.025 253.094 228.403 253.094C228.789 253.094 229.113 253.176 229.374 253.341C229.636 253.506 229.833 253.726 229.967 254.001C230.1 254.277 230.167 254.58 230.167 254.909V255.369C230.167 255.699 230.099 256.001 229.963 256.277C229.829 256.55 229.63 256.77 229.366 256.938C229.105 257.102 228.784 257.185 228.403 257.185C228.017 257.185 227.691 257.102 227.427 256.938C227.166 256.77 226.967 256.55 226.83 256.277C226.694 256.001 226.626 255.699 226.626 255.369ZM227.623 254.909V255.369C227.623 255.614 227.68 255.835 227.794 256.034C227.91 256.233 228.113 256.332 228.403 256.332C228.687 256.332 228.886 256.233 228.999 256.034C229.116 255.835 229.174 255.614 229.174 255.369V254.909C229.174 254.665 229.119 254.443 229.008 254.244C228.897 254.045 228.696 253.946 228.403 253.946C228.119 253.946 227.917 254.045 227.798 254.244C227.681 254.443 227.623 254.665 227.623 254.909ZM227.031 262L233.031 253.273H234.049L228.049 262H227.031Z" fill="#6F767E"/>
<rect x="280" width="1" height="240" rx="0.5" fill="#EFEFEF"/>
<path d="M268.938 262V261.045L271.891 257.986C272.206 257.653 272.466 257.362 272.671 257.112C272.878 256.859 273.033 256.619 273.135 256.392C273.238 256.165 273.289 255.923 273.289 255.668C273.289 255.378 273.221 255.128 273.084 254.918C272.948 254.705 272.762 254.541 272.526 254.428C272.29 254.311 272.025 254.253 271.729 254.253C271.417 254.253 271.144 254.317 270.911 254.445C270.678 254.572 270.499 254.753 270.374 254.986C270.249 255.219 270.187 255.491 270.187 255.804H268.929C268.929 255.273 269.052 254.808 269.296 254.411C269.54 254.013 269.876 253.705 270.302 253.486C270.728 253.264 271.212 253.153 271.755 253.153C272.303 253.153 272.786 253.263 273.204 253.482C273.624 253.697 273.952 253.993 274.188 254.368C274.424 254.74 274.542 255.161 274.542 255.629C274.542 255.953 274.481 256.27 274.358 256.58C274.239 256.889 274.03 257.234 273.732 257.615C273.434 257.993 273.019 258.452 272.488 258.991L270.753 260.807V260.871H274.682V262H268.938ZM279.216 262.145C278.542 262.142 277.967 261.964 277.49 261.612C277.013 261.26 276.648 260.747 276.395 260.074C276.142 259.401 276.015 258.589 276.015 257.641C276.015 256.695 276.142 255.886 276.395 255.216C276.65 254.545 277.017 254.034 277.494 253.682C277.974 253.33 278.548 253.153 279.216 253.153C279.883 253.153 280.456 253.331 280.933 253.686C281.41 254.038 281.775 254.55 282.028 255.22C282.284 255.888 282.412 256.695 282.412 257.641C282.412 258.592 282.285 259.405 282.032 260.078C281.78 260.749 281.415 261.261 280.937 261.616C280.46 261.969 279.886 262.145 279.216 262.145ZM279.216 261.007C279.807 261.007 280.268 260.719 280.601 260.142C280.936 259.565 281.104 258.732 281.104 257.641C281.104 256.916 281.027 256.304 280.873 255.804C280.723 255.301 280.506 254.92 280.221 254.662C279.94 254.401 279.605 254.27 279.216 254.27C278.628 254.27 278.166 254.56 277.831 255.139C277.496 255.719 277.327 256.553 277.324 257.641C277.324 258.368 277.399 258.983 277.55 259.486C277.703 259.986 277.92 260.365 278.202 260.624C278.483 260.879 278.821 261.007 279.216 261.007ZM288.359 260.364V259.903C288.359 259.574 288.427 259.273 288.563 259C288.703 258.724 288.904 258.504 289.169 258.339C289.436 258.172 289.758 258.088 290.136 258.088C290.522 258.088 290.846 258.17 291.107 258.335C291.369 258.5 291.566 258.72 291.7 258.996C291.836 259.271 291.904 259.574 291.904 259.903V260.364C291.904 260.693 291.836 260.996 291.7 261.271C291.563 261.544 291.363 261.764 291.099 261.932C290.838 262.097 290.517 262.179 290.136 262.179C289.752 262.179 289.428 262.097 289.164 261.932C288.9 261.764 288.7 261.544 288.563 261.271C288.427 260.996 288.359 260.693 288.359 260.364ZM289.352 259.903V260.364C289.352 260.608 289.41 260.83 289.526 261.028C289.643 261.227 289.846 261.327 290.136 261.327C290.423 261.327 290.623 261.227 290.737 261.028C290.85 260.83 290.907 260.608 290.907 260.364V259.903C290.907 259.659 290.852 259.437 290.741 259.239C290.633 259.04 290.431 258.94 290.136 258.94C289.852 258.94 289.65 259.04 289.531 259.239C289.411 259.437 289.352 259.659 289.352 259.903ZM283.97 255.369V254.909C283.97 254.58 284.038 254.277 284.174 254.001C284.313 253.726 284.515 253.506 284.779 253.341C285.046 253.176 285.369 253.094 285.747 253.094C286.133 253.094 286.457 253.176 286.718 253.341C286.98 253.506 287.177 253.726 287.311 254.001C287.444 254.277 287.511 254.58 287.511 254.909V255.369C287.511 255.699 287.443 256.001 287.306 256.277C287.173 256.55 286.974 256.77 286.71 256.938C286.448 257.102 286.127 257.185 285.747 257.185C285.36 257.185 285.035 257.102 284.771 256.938C284.509 256.77 284.311 256.55 284.174 256.277C284.038 256.001 283.97 255.699 283.97 255.369ZM284.967 254.909V255.369C284.967 255.614 285.024 255.835 285.137 256.034C285.254 256.233 285.457 256.332 285.747 256.332C286.031 256.332 286.23 256.233 286.343 256.034C286.46 255.835 286.518 255.614 286.518 255.369V254.909C286.518 254.665 286.463 254.443 286.352 254.244C286.241 254.045 286.039 253.946 285.747 253.946C285.463 253.946 285.261 254.045 285.142 254.244C285.025 254.443 284.967 254.665 284.967 254.909ZM284.374 262L290.374 253.273H291.393L285.393 262H284.374Z" fill="#6F767E"/>
<path d="M30.9338 7.27273L33.3628 14.3807H33.4608L35.8897 7.27273H37.313L34.1724 16H32.6511L29.5105 7.27273H30.9338ZM38.3511 16V9.45455H39.6252V16H38.3511ZM38.9945 8.4446C38.7729 8.4446 38.5826 8.37074 38.4235 8.22301C38.2673 8.07244 38.1891 7.89347 38.1891 7.68608C38.1891 7.47585 38.2673 7.29687 38.4235 7.14915C38.5826 6.99858 38.7729 6.9233 38.9945 6.9233C39.2161 6.9233 39.405 6.99858 39.5613 7.14915C39.7204 7.29687 39.7999 7.47585 39.7999 7.68608C39.7999 7.89347 39.7204 8.07244 39.5613 8.22301C39.405 8.37074 39.2161 8.4446 38.9945 8.4446ZM44.0404 16.1321C43.3955 16.1321 42.8401 15.9943 42.3742 15.7188C41.9111 15.4403 41.5532 15.0497 41.3003 14.5469C41.0503 14.0412 40.9253 13.4489 40.9253 12.7699C40.9253 12.0994 41.0503 11.5085 41.3003 10.9972C41.5532 10.4858 41.9054 10.0866 42.3571 9.79972C42.8117 9.51278 43.3429 9.36932 43.9509 9.36932C44.3202 9.36932 44.6782 9.4304 45.0247 9.55256C45.3713 9.67472 45.6824 9.86648 45.958 10.1278C46.2336 10.3892 46.4509 10.7287 46.61 11.1463C46.7691 11.5611 46.8486 12.0653 46.8486 12.6591V13.1108H41.6455V12.1562H45.6C45.6 11.821 45.5318 11.5241 45.3955 11.2656C45.2591 11.0043 45.0674 10.7983 44.8202 10.6477C44.5759 10.4972 44.289 10.4219 43.9594 10.4219C43.6015 10.4219 43.289 10.5099 43.0219 10.6861C42.7577 10.8594 42.5532 11.0866 42.4083 11.3679C42.2662 11.6463 42.1952 11.9489 42.1952 12.2756V13.0213C42.1952 13.4588 42.2719 13.831 42.4253 14.1378C42.5816 14.4446 42.7989 14.679 43.0773 14.8409C43.3557 15 43.681 15.0795 44.0532 15.0795C44.2946 15.0795 44.5148 15.0455 44.7137 14.9773C44.9125 14.9062 45.0844 14.8011 45.2293 14.6619C45.3742 14.5227 45.485 14.3509 45.5617 14.1463L46.7676 14.3636C46.6711 14.7187 46.4978 15.0298 46.2478 15.2969C46.0006 15.5611 45.6895 15.767 45.3145 15.9148C44.9424 16.0597 44.5176 16.1321 44.0404 16.1321ZM51.1977 9.45455V10.4773H47.6224V9.45455H51.1977ZM48.5812 7.88636H49.8554V14.0781C49.8554 14.3253 49.8923 14.5114 49.9662 14.6364C50.04 14.7585 50.1352 14.8423 50.2517 14.8878C50.371 14.9304 50.5003 14.9517 50.6395 14.9517C50.7417 14.9517 50.8312 14.9446 50.9079 14.9304C50.9846 14.9162 51.0443 14.9048 51.0869 14.8963L51.317 15.9489C51.2432 15.9773 51.1381 16.0057 51.0017 16.0341C50.8653 16.0653 50.6949 16.0824 50.4903 16.0852C50.1551 16.0909 49.8426 16.0312 49.5528 15.9062C49.2631 15.7812 49.0287 15.5881 48.8497 15.3267C48.6707 15.0653 48.5812 14.7372 48.5812 14.3423V7.88636ZM53.7613 12.1136V16H52.4872V9.45455H53.7102V10.5199H53.7911C53.9417 10.1733 54.1775 9.89489 54.4985 9.68466C54.8224 9.47443 55.2301 9.36932 55.7215 9.36932C56.1676 9.36932 56.5582 9.46307 56.8934 9.65057C57.2286 9.83523 57.4886 10.1108 57.6732 10.4773C57.8579 10.8437 57.9502 11.2969 57.9502 11.8366V16H56.6761V11.9901C56.6761 11.5156 56.5525 11.1449 56.3053 10.8778C56.0582 10.608 55.7187 10.473 55.2869 10.473C54.9914 10.473 54.7286 10.5369 54.4985 10.6648C54.2713 10.7926 54.0909 10.9801 53.9573 11.2273C53.8266 11.4716 53.7613 11.767 53.7613 12.1136ZM61.4439 16.1449C61.0291 16.1449 60.6541 16.0682 60.3189 15.9148C59.9836 15.7585 59.718 15.5327 59.522 15.2372C59.3288 14.9418 59.2322 14.5795 59.2322 14.1506C59.2322 13.7812 59.3032 13.4773 59.4453 13.2386C59.5873 13 59.7791 12.8111 60.0206 12.6719C60.262 12.5327 60.5319 12.4276 60.8302 12.3565C61.1285 12.2855 61.4325 12.2315 61.7422 12.1946C62.1342 12.1491 62.4524 12.1122 62.6967 12.0838C62.941 12.0526 63.1186 12.0028 63.2294 11.9347C63.3402 11.8665 63.3956 11.7557 63.3956 11.6023V11.5724C63.3956 11.2003 63.2905 10.9119 63.0802 10.7074C62.8728 10.5028 62.5632 10.4006 62.1513 10.4006C61.7223 10.4006 61.3842 10.4957 61.137 10.6861C60.8927 10.8736 60.7237 11.0824 60.6299 11.3125L59.4325 11.0398C59.5745 10.642 59.7819 10.321 60.0547 10.0767C60.3302 9.82955 60.647 9.65057 61.0049 9.53977C61.3629 9.42614 61.7393 9.36932 62.1342 9.36932C62.3956 9.36932 62.6726 9.40057 62.9652 9.46307C63.2606 9.52273 63.5362 9.63352 63.7919 9.79545C64.0504 9.95739 64.262 10.1889 64.4268 10.4901C64.5916 10.7884 64.674 11.1761 64.674 11.6534V16H63.4297V15.1051H63.3785C63.2961 15.2699 63.1726 15.4318 63.0078 15.5909C62.843 15.75 62.6314 15.8821 62.3728 15.9872C62.1143 16.0923 61.8047 16.1449 61.4439 16.1449ZM61.7209 15.1222C62.0731 15.1222 62.3743 15.0526 62.6243 14.9134C62.8771 14.7741 63.0689 14.5923 63.1995 14.3679C63.3331 14.1406 63.3998 13.8977 63.3998 13.6392V12.7955C63.3544 12.8409 63.2663 12.8835 63.1356 12.9233C63.0078 12.9602 62.8615 12.9929 62.6967 13.0213C62.5319 13.0469 62.3714 13.071 62.2152 13.0938C62.0589 13.1136 61.9282 13.1307 61.8231 13.1449C61.576 13.1761 61.3501 13.2287 61.1456 13.3026C60.9439 13.3764 60.7819 13.483 60.6598 13.6222C60.5405 13.7585 60.4808 13.9403 60.4808 14.1676C60.4808 14.483 60.5973 14.7216 60.8302 14.8835C61.0632 15.0426 61.3601 15.1222 61.7209 15.1222ZM66.2511 16V9.45455H67.4741V10.5199H67.555C67.6914 10.1591 67.9144 9.87784 68.2241 9.67614C68.5337 9.47159 68.9045 9.36932 69.3363 9.36932C69.7738 9.36932 70.1403 9.47159 70.4357 9.67614C70.734 9.88068 70.9542 10.1619 71.0962 10.5199H71.1644C71.3207 10.1705 71.5692 9.89205 71.9102 9.68466C72.2511 9.47443 72.6573 9.36932 73.1289 9.36932C73.7227 9.36932 74.207 9.5554 74.582 9.92756C74.9599 10.2997 75.1488 10.8608 75.1488 11.6108V16H73.8746V11.7301C73.8746 11.2869 73.7539 10.9659 73.5124 10.767C73.271 10.5682 72.9826 10.4688 72.6474 10.4688C72.2326 10.4688 71.9102 10.5966 71.68 10.8523C71.4499 11.1051 71.3349 11.4304 71.3349 11.8281V16H70.065V11.6491C70.065 11.294 69.9542 11.0085 69.7326 10.7926C69.511 10.5767 69.2227 10.4688 68.8675 10.4688C68.6261 10.4688 68.4031 10.5327 68.1985 10.6605C67.9968 10.7855 67.8335 10.9602 67.7085 11.1847C67.5863 11.4091 67.5252 11.669 67.5252 11.9645V16H66.2511Z" fill="#6F767E"/>
<rect x="120" width="171" height="24" rx="2" fill="#B5E4CA"/>
<path d="M5.98759 47.2727H7.30861V53.0128C7.30861 53.6236 7.16514 54.1648 6.87821 54.6364C6.59128 55.1051 6.18787 55.4744 5.66799 55.7443C5.1481 56.0114 4.53872 56.1449 3.83986 56.1449C3.14384 56.1449 2.53588 56.0114 2.016 55.7443C1.49611 55.4744 1.0927 55.1051 0.80577 54.6364C0.518838 54.1648 0.375372 53.6236 0.375372 53.0128V47.2727H1.69213V52.9062C1.69213 53.3011 1.77878 53.652 1.95208 53.9588C2.12821 54.2656 2.37679 54.5071 2.69781 54.6832C3.01884 54.8565 3.39952 54.9432 3.83986 54.9432C4.28304 54.9432 4.66514 54.8565 4.98617 54.6832C5.31003 54.5071 5.55719 54.2656 5.72764 53.9588C5.90094 53.652 5.98759 53.3011 5.98759 52.9062V47.2727ZM10.2749 52.1136V56H9.00076V49.4545H10.2238V50.5199H10.3047C10.4553 50.1733 10.6911 49.8949 11.0121 49.6847C11.336 49.4744 11.7437 49.3693 12.2351 49.3693C12.6812 49.3693 13.0718 49.4631 13.407 49.6506C13.7422 49.8352 14.0022 50.1108 14.1868 50.4773C14.3715 50.8437 14.4638 51.2969 14.4638 51.8366V56H13.1897V51.9901C13.1897 51.5156 13.0661 51.1449 12.8189 50.8778C12.5718 50.608 12.2323 50.473 11.8005 50.473C11.505 50.473 11.2422 50.5369 11.0121 50.6648C10.7848 50.7926 10.6044 50.9801 10.4709 51.2273C10.3402 51.4716 10.2749 51.767 10.2749 52.1136ZM16.0526 56V49.4545H17.3268V56H16.0526ZM16.6961 48.4446C16.4745 48.4446 16.2842 48.3707 16.1251 48.223C15.9688 48.0724 15.8907 47.8935 15.8907 47.6861C15.8907 47.4759 15.9688 47.2969 16.1251 47.1491C16.2842 46.9986 16.4745 46.9233 16.6961 46.9233C16.9177 46.9233 17.1066 46.9986 17.2629 47.1491C17.4219 47.2969 17.5015 47.4759 17.5015 47.6861C17.5015 47.8935 17.4219 48.0724 17.2629 48.223C17.1066 48.3707 16.9177 48.4446 16.6961 48.4446ZM21.9763 49.4545V50.4773H18.401V49.4545H21.9763ZM19.3598 47.8864H20.634V54.0781C20.634 54.3253 20.6709 54.5114 20.7448 54.6364C20.8186 54.7585 20.9138 54.8423 21.0303 54.8878C21.1496 54.9304 21.2789 54.9517 21.4181 54.9517C21.5203 54.9517 21.6098 54.9446 21.6865 54.9304C21.7632 54.9162 21.8229 54.9048 21.8655 54.8963L22.0956 55.9489C22.0218 55.9773 21.9166 56.0057 21.7803 56.0341C21.6439 56.0653 21.4735 56.0824 21.2689 56.0852C20.9337 56.0909 20.6212 56.0312 20.3314 55.9062C20.0416 55.7812 19.8073 55.5881 19.6283 55.3267C19.4493 55.0653 19.3598 54.7372 19.3598 54.3423V47.8864ZM26.0165 56.1321C25.3716 56.1321 24.8162 55.9943 24.3503 55.7188C23.8872 55.4403 23.5293 55.0497 23.2764 54.5469C23.0264 54.0412 22.9014 53.4489 22.9014 52.7699C22.9014 52.0994 23.0264 51.5085 23.2764 50.9972C23.5293 50.4858 23.8815 50.0866 24.3332 49.7997C24.7878 49.5128 25.319 49.3693 25.927 49.3693C26.2963 49.3693 26.6543 49.4304 27.0008 49.5526C27.3474 49.6747 27.6585 49.8665 27.9341 50.1278C28.2096 50.3892 28.427 50.7287 28.5861 51.1463C28.7452 51.5611 28.8247 52.0653 28.8247 52.6591V53.1108H23.6216V52.1562H27.5761C27.5761 51.821 27.5079 51.5241 27.3716 51.2656C27.2352 51.0043 27.0435 50.7983 26.7963 50.6477C26.552 50.4972 26.265 50.4219 25.9355 50.4219C25.5775 50.4219 25.265 50.5099 24.998 50.6861C24.7338 50.8594 24.5293 51.0866 24.3844 51.3679C24.2423 51.6463 24.1713 51.9489 24.1713 52.2756V53.0213C24.1713 53.4588 24.248 53.831 24.4014 54.1378C24.5577 54.4446 24.775 54.679 25.0534 54.8409C25.3318 55 25.6571 55.0795 26.0293 55.0795C26.2707 55.0795 26.4909 55.0455 26.6898 54.9773C26.8886 54.9062 27.0605 54.8011 27.2054 54.6619C27.3503 54.5227 27.4611 54.3509 27.5378 54.1463L28.7437 54.3636C28.6471 54.7187 28.4739 55.0298 28.2239 55.2969C27.9767 55.5611 27.6656 55.767 27.2906 55.9148C26.9185 56.0597 26.4937 56.1321 26.0165 56.1321ZM32.5687 56.1278C32.0403 56.1278 31.5687 55.9929 31.1539 55.723C30.742 55.4503 30.4181 55.0625 30.1823 54.5597C29.9494 54.054 29.8329 53.4474 29.8329 52.7401C29.8329 52.0327 29.9508 51.4276 30.1866 50.9247C30.4252 50.4219 30.7519 50.0369 31.1667 49.7699C31.5815 49.5028 32.0516 49.3693 32.5772 49.3693C32.9835 49.3693 33.3102 49.4375 33.5573 49.5739C33.8073 49.7074 34.0005 49.8636 34.1369 50.0426C34.2761 50.2216 34.384 50.3793 34.4607 50.5156H34.5374V47.2727H35.8116V56H34.5673V54.9815H34.4607C34.384 55.1207 34.2732 55.2798 34.1284 55.4588C33.9863 55.6378 33.7903 55.794 33.5403 55.9276C33.2903 56.0611 32.9664 56.1278 32.5687 56.1278ZM32.8499 55.0412C33.2164 55.0412 33.5261 54.9446 33.7789 54.7514C34.0346 54.5554 34.2278 54.2841 34.3585 53.9375C34.492 53.5909 34.5588 53.1875 34.5588 52.7273C34.5588 52.2727 34.4934 51.875 34.3627 51.5341C34.232 51.1932 34.0403 50.9276 33.7874 50.7372C33.5346 50.5469 33.2221 50.4517 32.8499 50.4517C32.4664 50.4517 32.1468 50.5511 31.8911 50.75C31.6355 50.9489 31.4423 51.2202 31.3116 51.5639C31.1838 51.9077 31.1198 52.2955 31.1198 52.7273C31.1198 53.1648 31.1852 53.5582 31.3159 53.9077C31.4465 54.2571 31.6397 54.5341 31.8954 54.7386C32.1539 54.9403 32.4721 55.0412 32.8499 55.0412ZM45.4281 49.5653C45.3827 49.1619 45.1952 48.8494 44.8656 48.6278C44.5361 48.4034 44.1213 48.2912 43.6213 48.2912C43.2634 48.2912 42.9537 48.348 42.6923 48.4616C42.431 48.5724 42.2278 48.7259 42.083 48.9219C41.9409 49.1151 41.8699 49.3352 41.8699 49.5824C41.8699 49.7898 41.9182 49.9687 42.0148 50.1193C42.1142 50.2699 42.2435 50.3963 42.4026 50.4986C42.5645 50.598 42.7378 50.6818 42.9224 50.75C43.1071 50.8153 43.2847 50.8693 43.4551 50.9119L44.3074 51.1335C44.5858 51.2017 44.8713 51.294 45.1639 51.4105C45.4565 51.527 45.7278 51.6804 45.9778 51.8707C46.2278 52.0611 46.4295 52.2969 46.583 52.5781C46.7392 52.8594 46.8173 53.196 46.8173 53.5881C46.8173 54.0824 46.6895 54.5213 46.4338 54.9048C46.181 55.2884 45.8131 55.5909 45.3301 55.8125C44.85 56.0341 44.269 56.1449 43.5872 56.1449C42.9338 56.1449 42.3685 56.0412 41.8912 55.8338C41.4139 55.6264 41.0403 55.3324 40.7705 54.9517C40.5006 54.5682 40.3514 54.1136 40.323 53.5881H41.644C41.6696 53.9034 41.7719 54.1662 41.9509 54.3764C42.1327 54.5838 42.3642 54.7386 42.6455 54.8409C42.9295 54.9403 43.2406 54.9901 43.5787 54.9901C43.9509 54.9901 44.2818 54.9318 44.5716 54.8153C44.8642 54.696 45.0943 54.5312 45.2619 54.321C45.4295 54.108 45.5134 53.8594 45.5134 53.5753C45.5134 53.3168 45.4395 53.1051 45.2918 52.9403C45.1469 52.7756 44.9494 52.6392 44.6994 52.5312C44.4523 52.4233 44.1724 52.3281 43.8599 52.2457L42.8287 51.9645C42.1298 51.7741 41.5759 51.4943 41.1668 51.125C40.7605 50.7557 40.5574 50.267 40.5574 49.6591C40.5574 49.1562 40.6938 48.7173 40.9665 48.3423C41.2392 47.9673 41.6085 47.6761 42.0744 47.4688C42.5403 47.2585 43.0659 47.1534 43.6511 47.1534C44.242 47.1534 44.7634 47.2571 45.2151 47.4645C45.6696 47.6719 46.0276 47.9574 46.2889 48.321C46.5503 48.6818 46.6867 49.0966 46.698 49.5653H45.4281ZM51.224 49.4545V50.4773H47.6487V49.4545H51.224ZM48.6075 47.8864H49.8816V54.0781C49.8816 54.3253 49.9186 54.5114 49.9924 54.6364C50.0663 54.7585 50.1615 54.8423 50.2779 54.8878C50.3973 54.9304 50.5265 54.9517 50.6657 54.9517C50.768 54.9517 50.8575 54.9446 50.9342 54.9304C51.0109 54.9162 51.0706 54.9048 51.1132 54.8963L51.3433 55.9489C51.2694 55.9773 51.1643 56.0057 51.0279 56.0341C50.8916 56.0653 50.7211 56.0824 50.5166 56.0852C50.1814 56.0909 49.8689 56.0312 49.5791 55.9062C49.2893 55.7812 49.0549 55.5881 48.876 55.3267C48.697 55.0653 48.6075 54.7372 48.6075 54.3423V47.8864ZM54.4182 56.1449C54.0035 56.1449 53.6285 56.0682 53.2932 55.9148C52.958 55.7585 52.6924 55.5327 52.4964 55.2372C52.3032 54.9418 52.2066 54.5795 52.2066 54.1506C52.2066 53.7812 52.2776 53.4773 52.4197 53.2386C52.5617 53 52.7535 52.8111 52.9949 52.6719C53.2364 52.5327 53.5063 52.4276 53.8046 52.3565C54.1029 52.2855 54.4069 52.2315 54.7165 52.1946C55.1086 52.1491 55.4268 52.1122 55.6711 52.0838C55.9154 52.0526 56.093 52.0028 56.2038 51.9347C56.3145 51.8665 56.3699 51.7557 56.3699 51.6023V51.5724C56.3699 51.2003 56.2648 50.9119 56.0546 50.7074C55.8472 50.5028 55.5376 50.4006 55.1256 50.4006C54.6966 50.4006 54.3586 50.4957 54.1114 50.6861C53.8671 50.8736 53.6981 51.0824 53.6043 51.3125L52.4069 51.0398C52.5489 50.642 52.7563 50.321 53.029 50.0767C53.3046 49.8295 53.6214 49.6506 53.9793 49.5398C54.3373 49.4261 54.7137 49.3693 55.1086 49.3693C55.3699 49.3693 55.6469 49.4006 55.9395 49.4631C56.235 49.5227 56.5106 49.6335 56.7663 49.7955C57.0248 49.9574 57.2364 50.1889 57.4012 50.4901C57.566 50.7884 57.6484 51.1761 57.6484 51.6534V56H56.404V55.1051H56.3529C56.2705 55.2699 56.1469 55.4318 55.9822 55.5909C55.8174 55.75 55.6057 55.8821 55.3472 55.9872C55.0887 56.0923 54.779 56.1449 54.4182 56.1449ZM54.6952 55.1222C55.0475 55.1222 55.3486 55.0526 55.5986 54.9134C55.8515 54.7741 56.0432 54.5923 56.1739 54.3679C56.3074 54.1406 56.3742 53.8977 56.3742 53.6392V52.7955C56.3288 52.8409 56.2407 52.8835 56.11 52.9233C55.9822 52.9602 55.8359 52.9929 55.6711 53.0213C55.5063 53.0469 55.3458 53.071 55.1895 53.0938C55.0333 53.1136 54.9026 53.1307 54.7975 53.1449C54.5503 53.1761 54.3245 53.2287 54.1199 53.3026C53.9182 53.3764 53.7563 53.483 53.6341 53.6222C53.5148 53.7585 53.4552 53.9403 53.4552 54.1676C53.4552 54.483 53.5716 54.7216 53.8046 54.8835C54.0376 55.0426 54.3344 55.1222 54.6952 55.1222ZM62.2808 49.4545V50.4773H58.7056V49.4545H62.2808ZM59.6644 47.8864H60.9385V54.0781C60.9385 54.3253 60.9754 54.5114 61.0493 54.6364C61.1232 54.7585 61.2183 54.8423 61.3348 54.8878C61.4541 54.9304 61.5834 54.9517 61.7226 54.9517C61.8249 54.9517 61.9144 54.9446 61.9911 54.9304C62.0678 54.9162 62.1274 54.9048 62.17 54.8963L62.4002 55.9489C62.3263 55.9773 62.2212 56.0057 62.0848 56.0341C61.9485 56.0653 61.778 56.0824 61.5735 56.0852C61.2382 56.0909 60.9257 56.0312 60.636 55.9062C60.3462 55.7812 60.1118 55.5881 59.9328 55.3267C59.7539 55.0653 59.6644 54.7372 59.6644 54.3423V47.8864ZM66.321 56.1321C65.6761 56.1321 65.1207 55.9943 64.6548 55.7188C64.1917 55.4403 63.8338 55.0497 63.5809 54.5469C63.3309 54.0412 63.2059 53.4489 63.2059 52.7699C63.2059 52.0994 63.3309 51.5085 63.5809 50.9972C63.8338 50.4858 64.1861 50.0866 64.6378 49.7997C65.0923 49.5128 65.6236 49.3693 66.2315 49.3693C66.6008 49.3693 66.9588 49.4304 67.3054 49.5526C67.652 49.6747 67.963 49.8665 68.2386 50.1278C68.5142 50.3892 68.7315 50.7287 68.8906 51.1463C69.0497 51.5611 69.1292 52.0653 69.1292 52.6591V53.1108H63.9261V52.1562H67.8807C67.8807 51.821 67.8125 51.5241 67.6761 51.2656C67.5397 51.0043 67.348 50.7983 67.1008 50.6477C66.8565 50.4972 66.5696 50.4219 66.24 50.4219C65.8821 50.4219 65.5696 50.5099 65.3025 50.6861C65.0383 50.8594 64.8338 51.0866 64.6889 51.3679C64.5468 51.6463 64.4758 51.9489 64.4758 52.2756V53.0213C64.4758 53.4588 64.5525 53.831 64.7059 54.1378C64.8622 54.4446 65.0795 54.679 65.3579 54.8409C65.6363 55 65.9616 55.0795 66.3338 55.0795C66.5753 55.0795 66.7954 55.0455 66.9943 54.9773C67.1932 54.9062 67.365 54.8011 67.5099 54.6619C67.6548 54.5227 67.7656 54.3509 67.8423 54.1463L69.0483 54.3636C68.9517 54.7187 68.7784 55.0298 68.5284 55.2969C68.2812 55.5611 67.9701 55.767 67.5951 55.9148C67.223 56.0597 66.7983 56.1321 66.321 56.1321ZM75.3278 51.0526L74.1729 51.2571C74.1246 51.1094 74.0479 50.9687 73.9428 50.8352C73.8406 50.7017 73.7013 50.5923 73.5252 50.5071C73.3491 50.4219 73.1289 50.3793 72.8647 50.3793C72.5039 50.3793 72.2028 50.4602 71.9613 50.6222C71.7198 50.7812 71.5991 50.9872 71.5991 51.2401C71.5991 51.4588 71.68 51.6349 71.842 51.7685C72.0039 51.902 72.2653 52.0114 72.6261 52.0966L73.6658 52.3352C74.2681 52.4744 74.717 52.6889 75.0124 52.9787C75.3079 53.2685 75.4556 53.6449 75.4556 54.108C75.4556 54.5 75.342 54.8494 75.1147 55.1562C74.8903 55.4602 74.5763 55.6989 74.1729 55.8722C73.7724 56.0455 73.3079 56.1321 72.7795 56.1321C72.0465 56.1321 71.4485 55.9759 70.9854 55.6634C70.5224 55.348 70.2383 54.9006 70.1332 54.321L71.3647 54.1335C71.4414 54.4545 71.5991 54.6974 71.8377 54.8622C72.0763 55.0241 72.3874 55.1051 72.771 55.1051C73.1886 55.1051 73.5224 55.0185 73.7724 54.8452C74.0224 54.669 74.1474 54.4545 74.1474 54.2017C74.1474 53.9972 74.0707 53.8253 73.9173 53.6861C73.7667 53.5469 73.5352 53.4418 73.2227 53.3707L72.1147 53.1278C71.5039 52.9886 71.0522 52.767 70.7596 52.4631C70.4698 52.1591 70.3249 51.7741 70.3249 51.3082C70.3249 50.9219 70.4329 50.5838 70.6488 50.294C70.8647 50.0043 71.163 49.7784 71.5437 49.6165C71.9244 49.4517 72.3604 49.3693 72.8519 49.3693C73.5593 49.3693 74.1161 49.5227 74.5224 49.8295C74.9286 50.1335 75.1971 50.5412 75.3278 51.0526Z" fill="#6F767E"/>
<rect x="120" y="40" width="128" height="24" rx="2" fill="#2A85FF"/>
<path d="M23.6184 87.2727V96H22.3016V87.2727H23.6184ZM26.5879 92.1136V96H25.3137V89.4545H26.5367V90.5199H26.6177C26.7683 90.1733 27.0041 89.8949 27.3251 89.6847C27.6489 89.4744 28.0566 89.3693 28.5481 89.3693C28.9941 89.3693 29.3847 89.4631 29.72 89.6506C30.0552 89.8352 30.3151 90.1108 30.4998 90.4773C30.6845 90.8437 30.7768 91.2969 30.7768 91.8366V96H29.5026V91.9901C29.5026 91.5156 29.3791 91.1449 29.1319 90.8778C28.8847 90.608 28.5453 90.473 28.1134 90.473C27.818 90.473 27.5552 90.5369 27.3251 90.6648C27.0978 90.7926 26.9174 90.9801 26.7839 91.2273C26.6532 91.4716 26.5879 91.767 26.5879 92.1136ZM34.8159 96.1278C34.2875 96.1278 33.8159 95.9929 33.4011 95.723C32.9892 95.4503 32.6653 95.0625 32.4295 94.5597C32.1966 94.054 32.0801 93.4474 32.0801 92.7401C32.0801 92.0327 32.198 91.4276 32.4338 90.9247C32.6724 90.4219 32.9991 90.0369 33.4139 89.7699C33.8287 89.5028 34.2988 89.3693 34.8244 89.3693C35.2307 89.3693 35.5574 89.4375 35.8045 89.5739C36.0545 89.7074 36.2477 89.8636 36.3841 90.0426C36.5233 90.2216 36.6312 90.3793 36.7079 90.5156H36.7846V87.2727H38.0588V96H36.8145V94.9815H36.7079C36.6312 95.1207 36.5204 95.2798 36.3755 95.4588C36.2335 95.6378 36.0375 95.794 35.7875 95.9276C35.5375 96.0611 35.2136 96.1278 34.8159 96.1278ZM35.0971 95.0412C35.4636 95.0412 35.7733 94.9446 36.0261 94.7514C36.2818 94.5554 36.475 94.2841 36.6057 93.9375C36.7392 93.5909 36.8059 93.1875 36.8059 92.7273C36.8059 92.2727 36.7406 91.875 36.6099 91.5341C36.4792 91.1932 36.2875 90.9276 36.0346 90.7372C35.7818 90.5469 35.4693 90.4517 35.0971 90.4517C34.7136 90.4517 34.394 90.5511 34.1383 90.75C33.8826 90.9489 33.6895 91.2202 33.5588 91.5639C33.4309 91.9077 33.367 92.2955 33.367 92.7273C33.367 93.1648 33.4324 93.5582 33.563 93.9077C33.6937 94.2571 33.8869 94.5341 34.1426 94.7386C34.4011 94.9403 34.7193 95.0412 35.0971 95.0412ZM42.5144 96.1321C41.9008 96.1321 41.3653 95.9915 40.9079 95.7102C40.4505 95.429 40.0954 95.0355 39.8425 94.5298C39.5897 94.0241 39.4633 93.4332 39.4633 92.7571C39.4633 92.0781 39.5897 91.4844 39.8425 90.9759C40.0954 90.4673 40.4505 90.0724 40.9079 89.7912C41.3653 89.5099 41.9008 89.3693 42.5144 89.3693C43.1281 89.3693 43.6636 89.5099 44.121 89.7912C44.5783 90.0724 44.9335 90.4673 45.1863 90.9759C45.4391 91.4844 45.5656 92.0781 45.5656 92.7571C45.5656 93.4332 45.4391 94.0241 45.1863 94.5298C44.9335 95.0355 44.5783 95.429 44.121 95.7102C43.6636 95.9915 43.1281 96.1321 42.5144 96.1321ZM42.5187 95.0625C42.9164 95.0625 43.246 94.9574 43.5073 94.7472C43.7687 94.5369 43.9619 94.2571 44.0869 93.9077C44.2147 93.5582 44.2786 93.1733 44.2786 92.7528C44.2786 92.3352 44.2147 91.9517 44.0869 91.6023C43.9619 91.25 43.7687 90.9673 43.5073 90.7543C43.246 90.5412 42.9164 90.4347 42.5187 90.4347C42.1181 90.4347 41.7857 90.5412 41.5215 90.7543C41.2602 90.9673 41.0656 91.25 40.9377 91.6023C40.8127 91.9517 40.7502 92.3352 40.7502 92.7528C40.7502 93.1733 40.8127 93.5582 40.9377 93.9077C41.0656 94.2571 41.2602 94.5369 41.5215 94.7472C41.7857 94.9574 42.1181 95.0625 42.5187 95.0625ZM48.1419 92.1136V96H46.8678V89.4545H48.0908V90.5199H48.1718C48.3223 90.1733 48.5581 89.8949 48.8791 89.6847C49.203 89.4744 49.6107 89.3693 50.1022 89.3693C50.5482 89.3693 50.9388 89.4631 51.274 89.6506C51.6093 89.8352 51.8692 90.1108 52.0539 90.4773C52.2385 90.8437 52.3309 91.2969 52.3309 91.8366V96H51.0567V91.9901C51.0567 91.5156 50.9331 91.1449 50.686 90.8778C50.4388 90.608 50.0993 90.473 49.6675 90.473C49.372 90.473 49.1093 90.5369 48.8791 90.6648C48.6519 90.7926 48.4715 90.9801 48.338 91.2273C48.2073 91.4716 48.1419 91.767 48.1419 92.1136ZM56.7407 96.1321C56.0958 96.1321 55.5404 95.9943 55.0745 95.7188C54.6114 95.4403 54.2535 95.0497 54.0006 94.5469C53.7506 94.0412 53.6256 93.4489 53.6256 92.7699C53.6256 92.0994 53.7506 91.5085 54.0006 90.9972C54.2535 90.4858 54.6057 90.0866 55.0574 89.7997C55.512 89.5128 56.0432 89.3693 56.6512 89.3693C57.0205 89.3693 57.3785 89.4304 57.7251 89.5526C58.0716 89.6747 58.3827 89.8665 58.6583 90.1278C58.9339 90.3892 59.1512 90.7287 59.3103 91.1463C59.4694 91.5611 59.5489 92.0653 59.5489 92.6591V93.1108H54.3458V92.1562H58.3003C58.3003 91.821 58.2322 91.5241 58.0958 91.2656C57.9594 91.0043 57.7677 90.7983 57.5205 90.6477C57.2762 90.4972 56.9893 90.4219 56.6597 90.4219C56.3018 90.4219 55.9893 90.5099 55.7222 90.6861C55.458 90.8594 55.2535 91.0866 55.1086 91.3679C54.9665 91.6463 54.8955 91.9489 54.8955 92.2756V93.0213C54.8955 93.4588 54.9722 93.831 55.1256 94.1378C55.2819 94.4446 55.4992 94.679 55.7776 94.8409C56.056 95 56.3813 95.0795 56.7535 95.0795C56.9949 95.0795 57.2151 95.0455 57.414 94.9773C57.6128 94.9062 57.7847 94.8011 57.9296 94.6619C58.0745 94.5227 58.1853 94.3509 58.262 94.1463L59.468 94.3636C59.3714 94.7187 59.1981 95.0298 58.9481 95.2969C58.7009 95.5611 58.3898 95.767 58.0148 95.9148C57.6427 96.0597 57.218 96.1321 56.7407 96.1321ZM65.7475 91.0526L64.5926 91.2571C64.5443 91.1094 64.4676 90.9687 64.3625 90.8352C64.2602 90.7017 64.121 90.5923 63.9449 90.5071C63.7688 90.4219 63.5486 90.3793 63.2844 90.3793C62.9236 90.3793 62.6225 90.4602 62.381 90.6222C62.1395 90.7812 62.0188 90.9872 62.0188 91.2401C62.0188 91.4588 62.0997 91.6349 62.2617 91.7685C62.4236 91.902 62.685 92.0114 63.0458 92.0966L64.0855 92.3352C64.6878 92.4744 65.1367 92.6889 65.4321 92.9787C65.7276 93.2685 65.8753 93.6449 65.8753 94.108C65.8753 94.5 65.7617 94.8494 65.5344 95.1562C65.31 95.4602 64.996 95.6989 64.5926 95.8722C64.1921 96.0455 63.7276 96.1321 63.1992 96.1321C62.4662 96.1321 61.8682 95.9759 61.4051 95.6634C60.9421 95.348 60.658 94.9006 60.5529 94.321L61.7844 94.1335C61.8611 94.4545 62.0188 94.6974 62.2574 94.8622C62.496 95.0241 62.8071 95.1051 63.1906 95.1051C63.6083 95.1051 63.9421 95.0185 64.1921 94.8452C64.4421 94.669 64.5671 94.4545 64.5671 94.2017C64.5671 93.9972 64.4904 93.8253 64.3369 93.6861C64.1864 93.5469 63.9548 93.4418 63.6423 93.3707L62.5344 93.1278C61.9236 92.9886 61.4719 92.767 61.1793 92.4631C60.8895 92.1591 60.7446 91.7741 60.7446 91.3082C60.7446 90.9219 60.8526 90.5838 61.0685 90.294C61.2844 90.0043 61.5827 89.7784 61.9634 89.6165C62.344 89.4517 62.7801 89.3693 63.2716 89.3693C63.979 89.3693 64.5358 89.5227 64.9421 89.8295C65.3483 90.1335 65.6168 90.5412 65.7475 91.0526ZM67.1562 96V89.4545H68.4304V96H67.1562ZM67.7997 88.4446C67.5781 88.4446 67.3878 88.3707 67.2287 88.223C67.0724 88.0724 66.9943 87.8935 66.9943 87.6861C66.9943 87.4759 67.0724 87.2969 67.2287 87.1491C67.3878 86.9986 67.5781 86.9233 67.7997 86.9233C68.0213 86.9233 68.2102 86.9986 68.3664 87.1491C68.5255 87.2969 68.6051 87.4759 68.6051 87.6861C68.6051 87.8935 68.5255 88.0724 68.3664 88.223C68.2102 88.3707 68.0213 88.4446 67.7997 88.4446ZM71.9293 96.1449C71.5146 96.1449 71.1396 96.0682 70.8043 95.9148C70.4691 95.7585 70.2035 95.5327 70.0075 95.2372C69.8143 94.9418 69.7177 94.5795 69.7177 94.1506C69.7177 93.7812 69.7887 93.4773 69.9308 93.2386C70.0728 93 70.2646 92.8111 70.506 92.6719C70.7475 92.5327 71.0174 92.4276 71.3157 92.3565C71.614 92.2855 71.918 92.2315 72.2276 92.1946C72.6197 92.1491 72.9379 92.1122 73.1822 92.0838C73.4265 92.0526 73.604 92.0028 73.7148 91.9347C73.8256 91.8665 73.881 91.7557 73.881 91.6023V91.5724C73.881 91.2003 73.7759 90.9119 73.5657 90.7074C73.3583 90.5028 73.0487 90.4006 72.6367 90.4006C72.2077 90.4006 71.8697 90.4957 71.6225 90.6861C71.3782 90.8736 71.2092 91.0824 71.1154 91.3125L69.918 91.0398C70.06 90.642 70.2674 90.321 70.5401 90.0767C70.8157 89.8295 71.1325 89.6506 71.4904 89.5398C71.8484 89.4261 72.2248 89.3693 72.6197 89.3693C72.881 89.3693 73.158 89.4006 73.4506 89.4631C73.7461 89.5227 74.0217 89.6335 74.2773 89.7955C74.5359 89.9574 74.7475 90.1889 74.9123 90.4901C75.0771 90.7884 75.1594 91.1761 75.1594 91.6534V96H73.9151V95.1051H73.864C73.7816 95.2699 73.658 95.4318 73.4933 95.5909C73.3285 95.75 73.1168 95.8821 72.8583 95.9872C72.5998 96.0923 72.2901 96.1449 71.9293 96.1449ZM72.2063 95.1222C72.5586 95.1222 72.8597 95.0526 73.1097 94.9134C73.3626 94.7741 73.5543 94.5923 73.685 94.3679C73.8185 94.1406 73.8853 93.8977 73.8853 93.6392V92.7955C73.8398 92.8409 73.7518 92.8835 73.6211 92.9233C73.4933 92.9602 73.3469 92.9929 73.1822 93.0213C73.0174 93.0469 72.8569 93.071 72.7006 93.0938C72.5444 93.1136 72.4137 93.1307 72.3086 93.1449C72.0614 93.1761 71.8356 93.2287 71.631 93.3026C71.4293 93.3764 71.2674 93.483 71.1452 93.6222C71.0259 93.7585 70.9663 93.9403 70.9663 94.1676C70.9663 94.483 71.0827 94.7216 71.3157 94.8835C71.5487 95.0426 71.8455 95.1222 72.2063 95.1222Z" fill="#6F767E"/>
<rect x="120" y="80" width="112" height="24" rx="2" fill="#B5E4CA"/>
<path d="M18.8652 136V127.273H20.182V131.065H24.5328V127.273H25.8538V136H24.5328V132.195H20.182V136H18.8652ZM30.3063 136.132C29.6927 136.132 29.1571 135.991 28.6998 135.71C28.2424 135.429 27.8873 135.036 27.6344 134.53C27.3816 134.024 27.2552 133.433 27.2552 132.757C27.2552 132.078 27.3816 131.484 27.6344 130.976C27.8873 130.467 28.2424 130.072 28.6998 129.791C29.1571 129.51 29.6927 129.369 30.3063 129.369C30.9199 129.369 31.4554 129.51 31.9128 129.791C32.3702 130.072 32.7253 130.467 32.9782 130.976C33.231 131.484 33.3574 132.078 33.3574 132.757C33.3574 133.433 33.231 134.024 32.9782 134.53C32.7253 135.036 32.3702 135.429 31.9128 135.71C31.4554 135.991 30.9199 136.132 30.3063 136.132ZM30.3106 135.062C30.7083 135.062 31.0378 134.957 31.2992 134.747C31.5606 134.537 31.7537 134.257 31.8787 133.908C32.0066 133.558 32.0705 133.173 32.0705 132.753C32.0705 132.335 32.0066 131.952 31.8787 131.602C31.7537 131.25 31.5606 130.967 31.2992 130.754C31.0378 130.541 30.7083 130.435 30.3106 130.435C29.91 130.435 29.5776 130.541 29.3134 130.754C29.052 130.967 28.8574 131.25 28.7296 131.602C28.6046 131.952 28.5421 132.335 28.5421 132.753C28.5421 133.173 28.6046 133.558 28.7296 133.908C28.8574 134.257 29.052 134.537 29.3134 134.747C29.5776 134.957 29.91 135.062 30.3106 135.062ZM35.9338 132.114V136H34.6597V129.455H35.8827V130.52H35.9636C36.1142 130.173 36.35 129.895 36.671 129.685C36.9949 129.474 37.4026 129.369 37.894 129.369C38.3401 129.369 38.7307 129.463 39.0659 129.651C39.4011 129.835 39.6611 130.111 39.8457 130.477C40.0304 130.844 40.1227 131.297 40.1227 131.837V136H38.8486V131.99C38.8486 131.516 38.725 131.145 38.4778 130.878C38.2307 130.608 37.8912 130.473 37.4594 130.473C37.1639 130.473 36.9011 130.537 36.671 130.665C36.4438 130.793 36.2634 130.98 36.1298 131.227C35.9991 131.472 35.9338 131.767 35.9338 132.114ZM44.4559 138.591C43.936 138.591 43.4885 138.523 43.1135 138.386C42.7414 138.25 42.4374 138.07 42.2016 137.845C41.9658 137.621 41.7897 137.375 41.6732 137.108L42.7684 136.656C42.8451 136.781 42.9473 136.913 43.0752 137.053C43.2059 137.195 43.382 137.315 43.6036 137.415C43.828 137.514 44.1164 137.564 44.4686 137.564C44.9516 137.564 45.3507 137.446 45.6661 137.21C45.9814 136.977 46.1391 136.605 46.1391 136.094V134.807H46.0581C45.9814 134.946 45.8706 135.101 45.7257 135.271C45.5837 135.442 45.3877 135.589 45.1377 135.714C44.8877 135.839 44.5624 135.902 44.1618 135.902C43.6448 135.902 43.1789 135.781 42.7641 135.54C42.3522 135.295 42.0255 134.936 41.784 134.462C41.5453 133.984 41.426 133.398 41.426 132.702C41.426 132.006 41.5439 131.409 41.7797 130.912C42.0184 130.415 42.3451 130.034 42.7598 129.77C43.1746 129.503 43.6448 129.369 44.1703 129.369C44.5766 129.369 44.9047 129.438 45.1547 129.574C45.4047 129.707 45.5993 129.864 45.7385 130.043C45.8806 130.222 45.9899 130.379 46.0666 130.516H46.1604V129.455H47.409V136.145C47.409 136.707 47.2783 137.169 47.0169 137.53C46.7556 137.891 46.4019 138.158 45.9559 138.331C45.5127 138.504 45.0127 138.591 44.4559 138.591ZM44.4431 134.845C44.8095 134.845 45.1192 134.76 45.372 134.589C45.6277 134.416 45.8209 134.169 45.9516 133.848C46.0851 133.524 46.1519 133.136 46.1519 132.685C46.1519 132.244 46.0865 131.857 45.9559 131.521C45.8252 131.186 45.6334 130.925 45.3806 130.737C45.1277 130.547 44.8152 130.452 44.4431 130.452C44.0595 130.452 43.7399 130.551 43.4843 130.75C43.2286 130.946 43.0354 131.213 42.9047 131.551C42.7769 131.889 42.713 132.267 42.713 132.685C42.713 133.114 42.7783 133.49 42.909 133.814C43.0397 134.138 43.2328 134.391 43.4885 134.572C43.747 134.754 44.0652 134.845 44.4431 134.845ZM50.1697 133.78L50.1611 132.224H50.3827L52.9907 129.455H54.5163L51.5418 132.608H51.3415L50.1697 133.78ZM48.9978 136V127.273H50.2719V136H48.9978ZM53.1313 136L50.7876 132.889L51.6654 131.999L54.6952 136H53.1313ZM58.045 136.132C57.4314 136.132 56.8959 135.991 56.4385 135.71C55.9811 135.429 55.626 135.036 55.3732 134.53C55.1203 134.024 54.9939 133.433 54.9939 132.757C54.9939 132.078 55.1203 131.484 55.3732 130.976C55.626 130.467 55.9811 130.072 56.4385 129.791C56.8959 129.51 57.4314 129.369 58.045 129.369C58.6587 129.369 59.1942 129.51 59.6516 129.791C60.109 130.072 60.4641 130.467 60.7169 130.976C60.9698 131.484 61.0962 132.078 61.0962 132.757C61.0962 133.433 60.9698 134.024 60.7169 134.53C60.4641 135.036 60.109 135.429 59.6516 135.71C59.1942 135.991 58.6587 136.132 58.045 136.132ZM58.0493 135.062C58.447 135.062 58.7766 134.957 59.0379 134.747C59.2993 134.537 59.4925 134.257 59.6175 133.908C59.7453 133.558 59.8092 133.173 59.8092 132.753C59.8092 132.335 59.7453 131.952 59.6175 131.602C59.4925 131.25 59.2993 130.967 59.0379 130.754C58.7766 130.541 58.447 130.435 58.0493 130.435C57.6487 130.435 57.3164 130.541 57.0521 130.754C56.7908 130.967 56.5962 131.25 56.4683 131.602C56.3433 131.952 56.2808 132.335 56.2808 132.753C56.2808 133.173 56.3433 133.558 56.4683 133.908C56.5962 134.257 56.7908 134.537 57.0521 134.747C57.3164 134.957 57.6487 135.062 58.0493 135.062ZM63.6726 132.114V136H62.3984V129.455H63.6214V130.52H63.7024C63.853 130.173 64.0887 129.895 64.4098 129.685C64.7336 129.474 65.1413 129.369 65.6328 129.369C66.0788 129.369 66.4694 129.463 66.8047 129.651C67.1399 129.835 67.3998 130.111 67.5845 130.477C67.7691 130.844 67.8615 131.297 67.8615 131.837V136H66.5873V131.99C66.5873 131.516 66.4637 131.145 66.2166 130.878C65.9694 130.608 65.6299 130.473 65.1981 130.473C64.9027 130.473 64.6399 130.537 64.4098 130.665C64.1825 130.793 64.0021 130.98 63.8686 131.227C63.7379 131.472 63.6726 131.767 63.6726 132.114ZM72.1946 138.591C71.6747 138.591 71.2273 138.523 70.8523 138.386C70.4801 138.25 70.1761 138.07 69.9403 137.845C69.7045 137.621 69.5284 137.375 69.4119 137.108L70.5071 136.656C70.5838 136.781 70.6861 136.913 70.8139 137.053C70.9446 137.195 71.1207 137.315 71.3423 137.415C71.5668 137.514 71.8551 137.564 72.2074 137.564C72.6903 137.564 73.0895 137.446 73.4048 137.21C73.7202 136.977 73.8778 136.605 73.8778 136.094V134.807H73.7969C73.7202 134.946 73.6094 135.101 73.4645 135.271C73.3224 135.442 73.1264 135.589 72.8764 135.714C72.6264 135.839 72.3011 135.902 71.9006 135.902C71.3835 135.902 70.9176 135.781 70.5028 135.54C70.0909 135.295 69.7642 134.936 69.5227 134.462C69.2841 133.984 69.1648 133.398 69.1648 132.702C69.1648 132.006 69.2827 131.409 69.5185 130.912C69.7571 130.415 70.0838 130.034 70.4986 129.77C70.9134 129.503 71.3835 129.369 71.9091 129.369C72.3153 129.369 72.6435 129.438 72.8935 129.574C73.1435 129.707 73.3381 129.864 73.4773 130.043C73.6193 130.222 73.7287 130.379 73.8054 130.516H73.8991V129.455H75.1477V136.145C75.1477 136.707 75.017 137.169 74.7557 137.53C74.4943 137.891 74.1406 138.158 73.6946 138.331C73.2514 138.504 72.7514 138.591 72.1946 138.591ZM72.1818 134.845C72.5483 134.845 72.858 134.76 73.1108 134.589C73.3665 134.416 73.5597 134.169 73.6903 133.848C73.8239 133.524 73.8906 133.136 73.8906 132.685C73.8906 132.244 73.8253 131.857 73.6946 131.521C73.5639 131.186 73.3722 130.925 73.1193 130.737C72.8665 130.547 72.554 130.452 72.1818 130.452C71.7983 130.452 71.4787 130.551 71.223 130.75C70.9673 130.946 70.7741 131.213 70.6435 131.551C70.5156 131.889 70.4517 132.267 70.4517 132.685C70.4517 133.114 70.517 133.49 70.6477 133.814C70.7784 134.138 70.9716 134.391 71.2273 134.572C71.4858 134.754 71.804 134.845 72.1818 134.845Z" fill="#6F767E"/>
<rect x="120" y="120" width="60" height="24" rx="2" fill="#B5E4CA"/>
<path d="M40.0002 176V167.273H43.111C43.7871 167.273 44.3482 167.389 44.7942 167.622C45.2431 167.855 45.5783 168.178 45.7999 168.589C46.0215 168.999 46.1323 169.472 46.1323 170.009C46.1323 170.543 46.0201 171.013 45.7957 171.419C45.5741 171.822 45.2388 172.136 44.79 172.361C44.344 172.585 43.7829 172.697 43.1067 172.697H40.7502V171.564H42.9874C43.4136 171.564 43.7602 171.503 44.0272 171.381C44.2971 171.259 44.4945 171.081 44.6195 170.848C44.7445 170.615 44.807 170.335 44.807 170.009C44.807 169.679 44.7431 169.393 44.6153 169.152C44.4903 168.911 44.2928 168.726 44.0229 168.598C43.7559 168.467 43.405 168.402 42.9704 168.402H41.317V176H40.0002ZM44.3085 172.062L46.4647 176H44.9647L42.8511 172.062H44.3085ZM51.6586 173.286V169.455H52.937V176H51.6842V174.866H51.616C51.4654 175.216 51.224 175.507 50.8916 175.74C50.562 175.97 50.1515 176.085 49.66 176.085C49.2396 176.085 48.8674 175.993 48.5436 175.808C48.2225 175.621 47.9697 175.344 47.785 174.977C47.6032 174.611 47.5123 174.158 47.5123 173.618V169.455H48.7865V173.464C48.7865 173.911 48.91 174.266 49.1572 174.53C49.4044 174.794 49.7254 174.926 50.1203 174.926C50.3589 174.926 50.5961 174.866 50.8319 174.747C51.0706 174.628 51.268 174.447 51.4242 174.206C51.5833 173.964 51.6615 173.658 51.6586 173.286ZM59.4339 171.053L58.279 171.257C58.2307 171.109 58.154 170.969 58.0489 170.835C57.9466 170.702 57.8074 170.592 57.6313 170.507C57.4552 170.422 57.235 170.379 56.9708 170.379C56.61 170.379 56.3089 170.46 56.0674 170.622C55.8259 170.781 55.7052 170.987 55.7052 171.24C55.7052 171.459 55.7861 171.635 55.9481 171.768C56.11 171.902 56.3714 172.011 56.7322 172.097L57.7719 172.335C58.3742 172.474 58.8231 172.689 59.1185 172.979C59.414 173.268 59.5617 173.645 59.5617 174.108C59.5617 174.5 59.4481 174.849 59.2208 175.156C58.9964 175.46 58.6824 175.699 58.279 175.872C57.8785 176.045 57.414 176.132 56.8856 176.132C56.1526 176.132 55.5546 175.976 55.0915 175.663C54.6285 175.348 54.3444 174.901 54.2393 174.321L55.4708 174.134C55.5475 174.455 55.7052 174.697 55.9438 174.862C56.1824 175.024 56.4935 175.105 56.877 175.105C57.2947 175.105 57.6285 175.018 57.8785 174.845C58.1285 174.669 58.2535 174.455 58.2535 174.202C58.2535 173.997 58.1768 173.825 58.0234 173.686C57.8728 173.547 57.6412 173.442 57.3287 173.371L56.2208 173.128C55.61 172.989 55.1583 172.767 54.8657 172.463C54.5759 172.159 54.431 171.774 54.431 171.308C54.431 170.922 54.539 170.584 54.7549 170.294C54.9708 170.004 55.2691 169.778 55.6498 169.616C56.0305 169.452 56.4665 169.369 56.958 169.369C57.6654 169.369 58.2222 169.523 58.6285 169.83C59.0347 170.134 59.3032 170.541 59.4339 171.053ZM65.7475 171.053L64.5926 171.257C64.5443 171.109 64.4676 170.969 64.3625 170.835C64.2602 170.702 64.121 170.592 63.9449 170.507C63.7688 170.422 63.5486 170.379 63.2844 170.379C62.9236 170.379 62.6225 170.46 62.381 170.622C62.1395 170.781 62.0188 170.987 62.0188 171.24C62.0188 171.459 62.0997 171.635 62.2617 171.768C62.4236 171.902 62.685 172.011 63.0458 172.097L64.0855 172.335C64.6878 172.474 65.1367 172.689 65.4321 172.979C65.7276 173.268 65.8753 173.645 65.8753 174.108C65.8753 174.5 65.7617 174.849 65.5344 175.156C65.31 175.46 64.996 175.699 64.5926 175.872C64.1921 176.045 63.7276 176.132 63.1992 176.132C62.4662 176.132 61.8682 175.976 61.4051 175.663C60.9421 175.348 60.658 174.901 60.5529 174.321L61.7844 174.134C61.8611 174.455 62.0188 174.697 62.2574 174.862C62.496 175.024 62.8071 175.105 63.1906 175.105C63.6083 175.105 63.9421 175.018 64.1921 174.845C64.4421 174.669 64.5671 174.455 64.5671 174.202C64.5671 173.997 64.4904 173.825 64.3369 173.686C64.1864 173.547 63.9548 173.442 63.6423 173.371L62.5344 173.128C61.9236 172.989 61.4719 172.767 61.1793 172.463C60.8895 172.159 60.7446 171.774 60.7446 171.308C60.7446 170.922 60.8526 170.584 61.0685 170.294C61.2844 170.004 61.5827 169.778 61.9634 169.616C62.344 169.452 62.7801 169.369 63.2716 169.369C63.979 169.369 64.5358 169.523 64.9421 169.83C65.3483 170.134 65.6168 170.541 65.7475 171.053ZM67.1562 176V169.455H68.4304V176H67.1562ZM67.7997 168.445C67.5781 168.445 67.3878 168.371 67.2287 168.223C67.0724 168.072 66.9943 167.893 66.9943 167.686C66.9943 167.476 67.0724 167.297 67.2287 167.149C67.3878 166.999 67.5781 166.923 67.7997 166.923C68.0213 166.923 68.2102 166.999 68.3664 167.149C68.5255 167.297 68.6051 167.476 68.6051 167.686C68.6051 167.893 68.5255 168.072 68.3664 168.223C68.2102 168.371 68.0213 168.445 67.7997 168.445ZM71.9293 176.145C71.5146 176.145 71.1396 176.068 70.8043 175.915C70.4691 175.759 70.2035 175.533 70.0075 175.237C69.8143 174.942 69.7177 174.58 69.7177 174.151C69.7177 173.781 69.7887 173.477 69.9308 173.239C70.0728 173 70.2646 172.811 70.506 172.672C70.7475 172.533 71.0174 172.428 71.3157 172.357C71.614 172.286 71.918 172.232 72.2276 172.195C72.6197 172.149 72.9379 172.112 73.1822 172.084C73.4265 172.053 73.604 172.003 73.7148 171.935C73.8256 171.866 73.881 171.756 73.881 171.602V171.572C73.881 171.2 73.7759 170.912 73.5657 170.707C73.3583 170.503 73.0486 170.401 72.6367 170.401C72.2077 170.401 71.8697 170.496 71.6225 170.686C71.3782 170.874 71.2092 171.082 71.1154 171.312L69.918 171.04C70.06 170.642 70.2674 170.321 70.5401 170.077C70.8157 169.83 71.1325 169.651 71.4904 169.54C71.8484 169.426 72.2248 169.369 72.6197 169.369C72.881 169.369 73.158 169.401 73.4506 169.463C73.7461 169.523 74.0217 169.634 74.2773 169.795C74.5359 169.957 74.7475 170.189 74.9123 170.49C75.0771 170.788 75.1594 171.176 75.1594 171.653V176H73.9151V175.105H73.864C73.7816 175.27 73.658 175.432 73.4933 175.591C73.3285 175.75 73.1168 175.882 72.8583 175.987C72.5998 176.092 72.2901 176.145 71.9293 176.145ZM72.2063 175.122C72.5586 175.122 72.8597 175.053 73.1097 174.913C73.3626 174.774 73.5543 174.592 73.685 174.368C73.8185 174.141 73.8853 173.898 73.8853 173.639V172.795C73.8398 172.841 73.7518 172.884 73.6211 172.923C73.4933 172.96 73.3469 172.993 73.1822 173.021C73.0174 173.047 72.8569 173.071 72.7006 173.094C72.5444 173.114 72.4137 173.131 72.3086 173.145C72.0614 173.176 71.8356 173.229 71.631 173.303C71.4293 173.376 71.2674 173.483 71.1452 173.622C71.0259 173.759 70.9663 173.94 70.9663 174.168C70.9663 174.483 71.0827 174.722 71.3157 174.884C71.5486 175.043 71.8455 175.122 72.2063 175.122Z" fill="#6F767E"/>
<rect x="120" y="160" width="47" height="24" rx="2" fill="#B5E4CA"/>
<path d="M39.1816 207.273H40.5027V213.013C40.5027 213.624 40.3592 214.165 40.0723 214.636C39.7853 215.105 39.3819 215.474 38.862 215.744C38.3422 216.011 37.7328 216.145 37.0339 216.145C36.3379 216.145 35.7299 216.011 35.2101 215.744C34.6902 215.474 34.2868 215.105 33.9998 214.636C33.7129 214.165 33.5694 213.624 33.5694 213.013V207.273H34.8862V212.906C34.8862 213.301 34.9728 213.652 35.1461 213.959C35.3223 214.266 35.5709 214.507 35.8919 214.683C36.2129 214.857 36.5936 214.943 37.0339 214.943C37.4771 214.943 37.8592 214.857 38.1802 214.683C38.5041 214.507 38.7513 214.266 38.9217 213.959C39.095 213.652 39.1816 213.301 39.1816 212.906V207.273ZM43.3667 213.78L43.3582 212.224H43.5798L46.1877 209.455H47.7133L44.7389 212.608H44.5386L43.3667 213.78ZM42.1948 216V207.273H43.469V216H42.1948ZM46.3283 216L43.9846 212.889L44.8624 211.999L47.8923 216H46.3283ZM48.7545 216V209.455H49.986V210.494H50.0542C50.1735 210.142 50.3838 209.865 50.6849 209.663C50.9889 209.459 51.3326 209.357 51.7162 209.357C51.7957 209.357 51.8894 209.359 51.9974 209.365C52.1082 209.371 52.1948 209.378 52.2573 209.386V210.605C52.2062 210.591 52.1153 210.575 51.9846 210.558C51.8539 210.538 51.7233 210.528 51.5926 210.528C51.2914 210.528 51.023 210.592 50.7872 210.72C50.5542 210.845 50.3696 211.02 50.2332 211.244C50.0968 211.466 50.0287 211.719 50.0287 212.003V216H48.7545ZM55.0862 216.145C54.6714 216.145 54.2964 216.068 53.9612 215.915C53.626 215.759 53.3604 215.533 53.1643 215.237C52.9712 214.942 52.8746 214.58 52.8746 214.151C52.8746 213.781 52.9456 213.477 53.0876 213.239C53.2297 213 53.4214 212.811 53.6629 212.672C53.9044 212.533 54.1743 212.428 54.4726 212.357C54.7709 212.286 55.0748 212.232 55.3845 212.195C55.7765 212.149 56.0947 212.112 56.339 212.084C56.5834 212.053 56.7609 212.003 56.8717 211.935C56.9825 211.866 57.0379 211.756 57.0379 211.602V211.572C57.0379 211.2 56.9328 210.912 56.7226 210.707C56.5152 210.503 56.2055 210.401 55.7936 210.401C55.3646 210.401 55.0265 210.496 54.7794 210.686C54.5351 210.874 54.366 211.082 54.2723 211.312L53.0748 211.04C53.2169 210.642 53.4243 210.321 53.697 210.077C53.9726 209.83 54.2893 209.651 54.6473 209.54C55.0052 209.426 55.3817 209.369 55.7765 209.369C56.0379 209.369 56.3149 209.401 56.6075 209.463C56.903 209.523 57.1785 209.634 57.4342 209.795C57.6927 209.957 57.9044 210.189 58.0692 210.49C58.2339 210.788 58.3163 211.176 58.3163 211.653V216H57.072V215.105H57.0209C56.9385 215.27 56.8149 215.432 56.6501 215.591C56.4854 215.75 56.2737 215.882 56.0152 215.987C55.7567 216.092 55.447 216.145 55.0862 216.145ZM55.3632 215.122C55.7155 215.122 56.0166 215.053 56.2666 214.913C56.5194 214.774 56.7112 214.592 56.8419 214.368C56.9754 214.141 57.0422 213.898 57.0422 213.639V212.795C56.9967 212.841 56.9087 212.884 56.778 212.923C56.6501 212.96 56.5038 212.993 56.339 213.021C56.1743 213.047 56.0138 213.071 55.8575 213.094C55.7013 213.114 55.5706 213.131 55.4655 213.145C55.2183 213.176 54.9925 213.229 54.7879 213.303C54.5862 213.376 54.4243 213.483 54.3021 213.622C54.1828 213.759 54.1231 213.94 54.1231 214.168C54.1231 214.483 54.2396 214.722 54.4726 214.884C54.7055 215.043 55.0024 215.122 55.3632 215.122ZM59.8934 216V209.455H61.1676V216H59.8934ZM60.5369 208.445C60.3153 208.445 60.1249 208.371 59.9659 208.223C59.8096 208.072 59.7315 207.893 59.7315 207.686C59.7315 207.476 59.8096 207.297 59.9659 207.149C60.1249 206.999 60.3153 206.923 60.5369 206.923C60.7585 206.923 60.9474 206.999 61.1036 207.149C61.2627 207.297 61.3423 207.476 61.3423 207.686C61.3423 207.893 61.2627 208.072 61.1036 208.223C60.9474 208.371 60.7585 208.445 60.5369 208.445ZM64.0358 212.114V216H62.7617V209.455H63.9847V210.52H64.0657C64.2162 210.173 64.452 209.895 64.7731 209.685C65.0969 209.474 65.5046 209.369 65.9961 209.369C66.4421 209.369 66.8327 209.463 67.1679 209.651C67.5032 209.835 67.7631 210.111 67.9478 210.477C68.1324 210.844 68.2248 211.297 68.2248 211.837V216H66.9506V211.99C66.9506 211.516 66.827 211.145 66.5799 210.878C66.3327 210.608 65.9932 210.473 65.5614 210.473C65.266 210.473 65.0032 210.537 64.7731 210.665C64.5458 210.793 64.3654 210.98 64.2319 211.227C64.1012 211.472 64.0358 211.767 64.0358 212.114ZM72.6346 216.132C71.9897 216.132 71.4343 215.994 70.9684 215.719C70.5053 215.44 70.1474 215.05 69.8945 214.547C69.6445 214.041 69.5195 213.449 69.5195 212.77C69.5195 212.099 69.6445 211.509 69.8945 210.997C70.1474 210.486 70.4996 210.087 70.9513 209.8C71.4059 209.513 71.9371 209.369 72.5451 209.369C72.9144 209.369 73.2724 209.43 73.619 209.553C73.9656 209.675 74.2766 209.866 74.5522 210.128C74.8278 210.389 75.0451 210.729 75.2042 211.146C75.3633 211.561 75.4428 212.065 75.4428 212.659V213.111H70.2397V212.156H74.1942C74.1942 211.821 74.1261 211.524 73.9897 211.266C73.8533 211.004 73.6616 210.798 73.4144 210.648C73.1701 210.497 72.8832 210.422 72.5536 210.422C72.1957 210.422 71.8832 210.51 71.6161 210.686C71.3519 210.859 71.1474 211.087 71.0025 211.368C70.8604 211.646 70.7894 211.949 70.7894 212.276V213.021C70.7894 213.459 70.8661 213.831 71.0195 214.138C71.1758 214.445 71.3931 214.679 71.6715 214.841C71.9499 215 72.2752 215.08 72.6474 215.08C72.8888 215.08 73.109 215.045 73.3079 214.977C73.5067 214.906 73.6786 214.801 73.8235 214.662C73.9684 214.523 74.0792 214.351 74.1559 214.146L75.3619 214.364C75.2653 214.719 75.092 215.03 74.842 215.297C74.5948 215.561 74.2837 215.767 73.9087 215.915C73.5366 216.06 73.1119 216.132 72.6346 216.132Z" fill="#6F767E"/>
<rect x="120" y="200" width="37" height="24" rx="2" fill="#B5E4CA"/>
</svg>
